<?xml version="1.0" encoding="UTF-8"?>
<svg id="Layer_1" xmlns="http://www.w3.org/2000/svg" version="1.1" viewBox="0 0 37.88 37.88">
  <!-- Generator: Adobe Illustrator 30.0.0, SVG Export Plug-In . SVG Version: 2.1.1 Build 123)  -->
  <defs>
    <style>
      .st0 {
        fill: #1f1f1f;
      }
    </style>
  </defs>
  <path class="st0" d="M17.18,1.46c.29-.03.59-.05.88-.07s.59-.02.88-.02c.32,0,.62,0,.9.02s.56.04.86.07v3.51c-.29-.06-.58-.09-.86-.09h-1.8c-.28,0-.56.03-.86.09V1.46ZM9.8,3.92c.5-.32,1-.6,1.52-.83s1.05-.45,1.6-.66l1.54,3.16c-.59.18-1.13.39-1.65.64s-1.02.53-1.52.86l-1.49-3.16ZM26.58,7.08c-.5-.32-1-.61-1.52-.86s-1.06-.46-1.65-.64l1.54-3.16c.56.21,1.09.42,1.6.66s1.02.51,1.52.83l-1.49,3.16ZM30.93,11.52c-.32-.5-.67-.97-1.05-1.43s-.78-.89-1.19-1.3l2.77-2.2c.41.41.81.84,1.19,1.3s.73.93,1.05,1.43l-2.77,2.2ZM4.14,9.41c.32-.5.67-.97,1.03-1.43s.75-.89,1.16-1.3l2.77,2.2c-.41.41-.8.84-1.16,1.3s-.71.93-1.03,1.43l-2.77-2.2ZM1.5,16.66c.06-.59.16-1.16.31-1.74s.31-1.13.48-1.69l3.47.79c-.21.56-.37,1.12-.51,1.69s-.23,1.15-.29,1.74l-3.47-.79ZM32.95,17.58c-.06-.59-.15-1.17-.29-1.76s-.3-1.16-.51-1.71l3.43-.79c.18.56.34,1.12.48,1.69s.25,1.15.31,1.74l-3.43.83ZM32.16,23.77c.21-.56.37-1.11.48-1.67s.21-1.13.26-1.71l3.47.79c-.06.59-.16,1.16-.31,1.74s-.31,1.13-.48,1.69l-3.43-.83ZM4.97,20.43c.06.59.15,1.16.29,1.74s.3,1.13.51,1.69l-3.47.79c-.18-.56-.34-1.12-.48-1.69s-.25-1.15-.31-1.74l3.47-.79ZM28.82,28.96c.41-.41.79-.84,1.14-1.3s.69-.93,1.01-1.43l2.81,2.2c-.32.5-.67.97-1.03,1.43s-.75.89-1.16,1.3l-2.77-2.2ZM6.38,31.24c-.41-.41-.8-.85-1.16-1.32s-.71-.95-1.03-1.45l2.72-2.2c.32.5.67.98,1.03,1.45s.75.91,1.16,1.32l-2.72,2.2ZM23.46,32.25c.59-.21,1.13-.42,1.63-.66s1-.51,1.49-.83l1.54,3.16c-.5.32-1,.61-1.52.86s-1.05.48-1.6.68l-1.54-3.21ZM12.97,35.5c-.56-.21-1.1-.43-1.63-.68s-1.04-.53-1.54-.86l1.54-3.16c.5.32,1,.61,1.52.86s1.06.46,1.65.64l-1.54,3.21ZM18.94,36.51c-.29,0-.59,0-.88-.02s-.59-.04-.88-.07v-3.51c.38.06.97.09,1.76.09h.9c.28,0,.56-.03.86-.09v3.51c-.29.03-.58.05-.86.07s-.58.02-.9.02ZM20.7,29.48c-1.11,0-2.13-.34-3.05-1.01-.92-.67-1.57-1.54-1.95-2.59-.09-.26-.18-.52-.29-.77s-.26-.48-.46-.68l-2.42-2.42c-.76-.76-1.35-1.63-1.76-2.61s-.62-2.01-.62-3.1c0-2.2.77-4.06,2.31-5.6s3.4-2.31,5.6-2.31c2.02,0,3.78.67,5.27,2s2.36,3.01,2.59,5.03h-3.56c-.21-1.03-.71-1.87-1.52-2.53-.81-.66-1.74-.99-2.79-.99-1.23,0-2.27.42-3.12,1.27s-1.27,1.89-1.27,3.12c0,.59.12,1.16.35,1.74s.57,1.08,1.01,1.52l2.37,2.37c.41.41.74.86.99,1.34s.46.97.64,1.47c.15.38.37.68.66.9s.63.33,1.01.33c.5,0,.92-.17,1.25-.51s.51-.75.51-1.25h3.51c0,1.46-.51,2.71-1.52,3.73-1.01,1.03-2.26,1.54-3.76,1.54ZM21.58,22.45c-.73,0-1.35-.26-1.87-.77s-.77-1.13-.77-1.87.26-1.39.77-1.89c.51-.5,1.13-.75,1.87-.75s1.39.25,1.89.75c.5.5.75,1.13.75,1.89s-.25,1.35-.75,1.87-1.13.77-1.89.77Z"/>
</svg>