<?xml version="1.0" encoding="UTF-8"?>
<svg id="Layer_2" data-name="Layer 2" xmlns="http://www.w3.org/2000/svg" viewBox="0 0 43.07 42.5">
  <defs>
    <style>
      .cls-1 {
        fill: #662d91;
      }

      .cls-2 {
        isolation: isolate;
      }

      .cls-3 {
        fill: #fff;
        stroke: #662d91;
        stroke-miterlimit: 10;
      }
    </style>
  </defs>
  <g id="_2024" data-name="2024">
    <g>
      <path class="cls-3" d="M1.77,32.01c5.65,11.73,29.85,13.24,37.68,3.98C48.2,25.65,37.09,1.24,24.06.52,11.89-.15-4.14,19.75,1.76,32.01h0Z"/>
      <g class="cls-2">
        <g class="cls-2">
          <path class="cls-1" d="M12.03,17.42c0-.14.07-.22.21-.22h.21c.14,0,.22.07.22.21l.02,1.8,2.39-.03-.02-1.8c0-.14.07-.21.21-.22h.21c.14,0,.21.07.21.21l.06,4.17c0,.14-.07.22-.21.22h-.21c-.14,0-.22-.07-.22-.21l-.02-1.8-2.39.03.02,1.8c0,.14-.07.21-.21.22h-.21c-.14,0-.22-.07-.22-.21l-.06-4.17Z"/>
        </g>
        <g class="cls-2">
          <path class="cls-1" d="M16.51,20.09c0-.26.04-.5.12-.71.08-.21.19-.4.34-.55.14-.15.32-.27.52-.35.2-.08.42-.13.65-.13.23,0,.43.03.61.11.18.08.33.18.45.32.12.14.21.3.28.49s.1.4.1.63c0,.06-.02.11-.06.16-.04.04-.09.07-.16.07l-2.2.03c.01.18.05.34.12.47.07.14.15.25.26.35.1.09.22.16.36.21.13.05.27.07.42.07.18,0,.34-.03.47-.09.13-.06.24-.12.31-.18.13-.07.23-.05.29.07l.06.1c.04.06.05.11.04.16,0,.05-.04.09-.1.13-.05.04-.11.07-.18.12-.07.04-.16.08-.25.12-.09.04-.2.07-.31.09-.11.03-.24.04-.37.04-.26,0-.5-.04-.71-.12s-.4-.21-.55-.36c-.16-.15-.28-.33-.37-.54-.09-.21-.13-.44-.14-.68ZM18.94,19.71c-.01-.29-.1-.51-.25-.65-.16-.15-.34-.22-.56-.21-.24,0-.45.08-.62.24-.17.16-.28.37-.33.65l1.76-.02Z"/>
          <path class="cls-1" d="M20.06,20.04c0-.26.03-.5.1-.71.07-.21.17-.4.3-.55.13-.15.29-.27.47-.35.18-.08.38-.13.6-.13.19,0,.35.02.48.08.13.06.23.12.32.19.1.08.17.17.23.28h.01s0-.04-.01-.07c0-.02,0-.04,0-.07,0-.02,0-.05,0-.09l-.02-1.35c0-.14.07-.22.21-.22h.2c.14,0,.22.07.22.21l.06,4.17c0,.14-.07.22-.21.22h-.17c-.14,0-.22-.06-.22-.2v-.19c0-.06,0-.1,0-.12,0-.02,0-.03,0-.05h-.01c-.06.12-.14.23-.24.32-.09.08-.2.15-.33.22-.14.07-.31.1-.51.1-.22,0-.42-.04-.6-.12s-.34-.2-.46-.35c-.13-.15-.23-.33-.3-.54-.07-.21-.11-.44-.11-.7ZM20.71,20.04c0,.18.03.34.08.48s.11.27.2.37c.08.1.18.18.3.23.11.05.24.08.38.08.12,0,.24-.03.35-.07.11-.05.21-.12.3-.21.09-.1.15-.22.21-.37.05-.15.08-.33.07-.54,0-.15-.02-.29-.06-.43-.04-.14-.1-.26-.18-.37-.08-.11-.18-.19-.3-.26-.12-.06-.25-.1-.41-.09-.13,0-.25.03-.36.08-.11.05-.21.13-.3.23s-.15.22-.2.37-.07.31-.07.5Z"/>
          <path class="cls-1" d="M23.91,19.99c0-.26.04-.5.12-.71.08-.21.19-.4.34-.55.14-.15.32-.27.52-.35.2-.09.42-.13.65-.13.23,0,.43.03.61.11.18.08.33.18.45.32.12.14.21.3.28.49.07.19.1.4.1.63,0,.06-.02.11-.06.16-.04.04-.09.07-.16.07l-2.2.03c.01.18.05.34.12.47.07.14.15.25.26.35.1.09.22.16.36.21.13.05.27.07.42.07.18,0,.34-.03.47-.09.13-.06.24-.12.31-.18.13-.07.23-.05.29.07l.06.1c.04.06.05.11.04.16,0,.05-.04.09-.1.13-.05.04-.11.07-.18.12-.07.04-.16.08-.25.12-.09.04-.2.07-.31.09s-.24.04-.37.04c-.26,0-.5-.04-.71-.12s-.4-.2-.55-.36c-.16-.15-.28-.33-.37-.54-.09-.21-.13-.44-.14-.68ZM26.34,19.61c-.01-.29-.1-.51-.25-.65-.16-.14-.34-.22-.56-.21-.24,0-.45.08-.62.24-.17.16-.28.37-.33.65l1.76-.02Z"/>
          <path class="cls-1" d="M27.65,18.51c0-.14.07-.22.21-.22h.18c.14,0,.22.07.22.21v.29s0,.09,0,.13c0,.02,0,.04,0,.06h.01c.03-.07.08-.15.14-.24.07-.09.15-.18.25-.26.1-.08.22-.15.36-.2s.3-.09.48-.09c.39,0,.68.1.86.3.18.21.28.52.28.94l.02,1.89c0,.14-.07.22-.21.22h-.2c-.14,0-.22-.07-.22-.21l-.02-1.75c0-.12-.01-.23-.03-.33-.02-.1-.05-.19-.09-.26-.04-.07-.11-.13-.19-.17-.08-.04-.19-.06-.32-.06-.16,0-.31.04-.44.1-.13.06-.25.15-.34.26-.1.11-.17.24-.22.39-.05.15-.08.31-.07.48l.02,1.36c0,.14-.07.22-.21.22h-.2c-.14,0-.22-.07-.22-.21l-.04-2.86Z"/>
        </g>
        <g class="cls-2">
          <path class="cls-1" d="M12.03,30.59c0-.36.06-.67.2-.93.14-.27.32-.5.53-.71.22-.21.45-.4.7-.58.25-.17.49-.35.7-.52s.4-.35.54-.53c.14-.18.21-.39.21-.63,0-.3-.11-.54-.31-.72s-.46-.27-.78-.26c-.14,0-.26.02-.37.06-.11.04-.21.09-.3.14-.09.06-.16.12-.23.18-.06.07-.12.12-.15.18-.06.06-.13.1-.19.12-.06.02-.13,0-.21-.06l-.15-.12c-.15-.11-.18-.24-.08-.38.06-.08.13-.17.23-.28.1-.11.22-.21.36-.3.14-.1.31-.18.5-.24.19-.06.41-.1.65-.1.27,0,.53.03.76.11.23.08.44.19.61.34s.31.33.4.54c.1.21.15.45.15.71,0,.33-.06.62-.2.86-.14.25-.31.47-.52.67-.21.2-.44.38-.69.54-.25.16-.48.33-.69.49-.21.16-.39.34-.53.52-.14.18-.22.38-.22.61l2.71-.04c.19,0,.28.09.28.28v.17c0,.19-.09.28-.27.29l-3.34.04c-.09,0-.16-.02-.21-.07-.06-.04-.09-.11-.09-.21v-.18Z"/>
          <path class="cls-1" d="M19.03,31.06c-.4,0-.74-.07-1.01-.23-.27-.16-.49-.38-.66-.65-.17-.28-.29-.61-.37-.98-.08-.38-.12-.78-.12-1.22,0-.43.02-.83.09-1.21.07-.38.18-.71.34-.99.16-.28.38-.5.65-.67.27-.17.6-.25,1-.26.4,0,.74.07,1.02.23.27.16.5.37.66.65.17.28.29.6.37.98.08.38.12.78.12,1.21,0,.44-.02.84-.09,1.22-.07.38-.18.71-.34.99-.16.28-.38.51-.65.67-.27.17-.61.25-1.01.26ZM19.02,30.29c.24,0,.45-.07.61-.19s.29-.29.38-.5c.09-.21.15-.46.19-.74.04-.28.05-.59.05-.92,0-.32-.03-.63-.07-.91-.04-.28-.11-.53-.21-.74-.1-.21-.23-.37-.39-.49s-.37-.17-.62-.17c-.24,0-.45.07-.61.19s-.29.29-.38.5c-.09.21-.16.46-.19.74-.04.28-.05.59-.05.91,0,.33.03.63.07.92s.11.53.21.74c.1.21.23.37.39.49s.37.18.61.18Z"/>
        </g>
        <g class="cls-2">
          <path class="cls-1" d="M22.08,30.46c0-.36.06-.67.2-.93.14-.27.32-.5.53-.71.22-.21.45-.4.7-.58.25-.17.49-.35.7-.52s.4-.35.54-.53c.14-.18.21-.39.21-.63,0-.3-.11-.54-.31-.72s-.46-.27-.78-.26c-.14,0-.26.02-.37.06-.11.04-.21.09-.3.14-.09.06-.16.12-.23.18-.06.07-.12.12-.15.18-.06.06-.13.1-.19.12-.06.02-.13,0-.21-.06l-.15-.12c-.15-.11-.18-.24-.08-.38.06-.08.13-.17.23-.28.1-.11.22-.21.36-.3.14-.1.31-.18.5-.24.19-.06.41-.1.65-.1.27,0,.53.03.76.11.23.08.44.19.61.34s.31.33.4.54c.1.21.15.45.15.71,0,.33-.06.62-.2.86-.14.25-.31.47-.52.67-.21.2-.44.38-.69.54-.25.16-.48.33-.69.49-.21.16-.39.34-.53.52-.14.18-.22.38-.22.61l2.71-.04c.19,0,.28.09.28.28v.17c0,.19-.09.28-.27.29l-3.34.04c-.09,0-.16-.02-.21-.07-.06-.04-.09-.11-.09-.21v-.18Z"/>
        </g>
        <g class="cls-2">
          <path class="cls-1" d="M26.78,29.25c-.19,0-.28-.09-.28-.28v-.05c0-.07,0-.14.02-.19.02-.05.04-.1.08-.16l2.51-3.57c.08-.12.19-.18.33-.18h.47c.19,0,.28.08.28.27l.04,3.4h.54c.19,0,.28.08.29.27v.15c0,.19-.07.28-.23.28h-.58s.02,1.33.02,1.33c0,.19-.09.28-.28.28h-.27c-.19,0-.28-.09-.28-.27l-.02-1.33-2.63.04ZM29.4,28.5l-.03-2.19c0-.07,0-.14,0-.21s0-.13.01-.19c0-.06.01-.13.02-.2h-.02c-.03.06-.06.12-.09.17-.03.04-.06.1-.09.16-.03.06-.07.12-.11.17l-1.67,2.29v.02l1.97-.03Z"/>
        </g>
      </g>
    </g>
  </g>
</svg>