<?xml version="1.0" encoding="UTF-8"?>
<svg id="Layer_2" data-name="Layer 2" xmlns="http://www.w3.org/2000/svg" viewBox="0 0 42.6 43.06">
  <defs>
    <style>
      .cls-1 {
        fill: #662d91;
      }

      .cls-2 {
        isolation: isolate;
      }

      .cls-3 {
        fill: #fff;
        stroke: #662d91;
        stroke-miterlimit: 10;
      }
    </style>
  </defs>
  <g id="_2023" data-name="2023">
    <g>
      <path class="cls-3" d="M6.71,39.87c10.5,7.7,32.57-2.34,35.13-14.2C44.7,12.43,23.43-3.9,11.59,1.6.53,6.73-4.27,31.83,6.71,39.87h0Z"/>
      <g class="cls-2">
        <g class="cls-2">
          <path class="cls-1" d="M11.86,19.28c0-.36.06-.67.2-.93.14-.27.32-.5.53-.71.22-.21.45-.4.7-.58.25-.17.49-.35.7-.52s.4-.35.54-.53c.14-.18.21-.39.21-.63,0-.3-.11-.54-.31-.72s-.46-.27-.78-.26c-.14,0-.26.02-.37.06-.11.04-.21.09-.3.14-.09.06-.16.12-.23.18-.06.07-.12.12-.15.18-.06.06-.13.1-.19.12-.06.02-.13,0-.21-.06l-.15-.12c-.15-.11-.18-.24-.08-.38.06-.08.13-.17.23-.28.1-.11.22-.21.36-.3.14-.1.31-.18.5-.24.19-.06.41-.1.65-.1.27,0,.53.03.76.11.23.08.44.19.61.34s.31.33.4.54c.1.21.15.45.15.71,0,.33-.06.62-.2.86-.14.25-.31.47-.52.67-.21.2-.44.38-.69.54-.25.16-.48.33-.69.49-.21.16-.39.34-.53.52-.14.18-.22.38-.22.61l2.71-.04c.19,0,.28.09.28.28v.17c0,.19-.09.28-.27.29l-3.34.04c-.09,0-.16-.02-.21-.07-.06-.04-.09-.11-.09-.21v-.18Z"/>
          <path class="cls-1" d="M18.87,19.75c-.4,0-.74-.07-1.01-.23-.27-.16-.49-.38-.66-.65-.17-.28-.29-.61-.37-.98-.08-.38-.12-.78-.12-1.22,0-.43.02-.83.09-1.21.07-.38.18-.71.34-.99.16-.28.38-.5.65-.67.27-.17.6-.25,1-.26.4,0,.74.07,1.02.23.27.16.5.37.66.65.17.28.29.6.37.98.08.38.12.78.12,1.21,0,.44-.02.84-.09,1.22-.07.38-.18.71-.34.99-.16.28-.38.51-.65.67-.27.17-.61.25-1.01.26ZM18.86,18.98c.24,0,.45-.07.61-.19s.29-.29.38-.5c.09-.21.15-.46.19-.74.04-.28.05-.59.05-.92,0-.32-.03-.63-.07-.91-.04-.28-.11-.53-.21-.74-.1-.21-.23-.37-.39-.49s-.37-.17-.62-.17c-.24,0-.45.07-.61.19s-.29.29-.38.5c-.09.21-.16.46-.19.74-.04.28-.05.59-.05.91,0,.33.03.63.07.92s.11.53.21.74c.1.21.23.37.39.49s.37.18.61.18Z"/>
          <path class="cls-1" d="M21.91,19.15c0-.36.06-.67.2-.93.14-.27.32-.5.54-.71.22-.21.45-.4.7-.58.25-.17.49-.35.7-.52.22-.17.4-.35.54-.53.14-.18.21-.39.21-.63,0-.3-.11-.54-.31-.72-.2-.18-.46-.27-.78-.26-.14,0-.26.02-.37.06-.11.04-.21.09-.3.14-.09.06-.16.12-.23.18-.06.07-.12.13-.15.18-.06.06-.13.11-.19.13-.06.02-.13,0-.21-.06l-.15-.12c-.15-.11-.18-.24-.08-.38.06-.08.13-.17.23-.28.1-.11.22-.21.36-.3.14-.1.31-.18.5-.24.19-.07.41-.1.65-.1.27,0,.53.03.76.11.23.08.44.19.61.34.17.15.31.33.4.54.1.21.15.45.15.71,0,.33-.06.62-.2.86-.14.25-.31.47-.52.67-.21.2-.44.38-.69.54-.25.16-.48.33-.69.49-.21.16-.39.34-.53.52-.14.18-.22.38-.22.61l2.71-.04c.19,0,.28.09.28.28v.17c0,.19-.09.28-.27.29l-3.34.04c-.09,0-.16-.02-.21-.07-.06-.04-.09-.12-.09-.21v-.18Z"/>
          <path class="cls-1" d="M26.71,19.01c-.14-.11-.15-.24-.05-.39l.13-.2c.11-.14.24-.16.39-.06.06.05.13.09.21.15.08.05.17.1.28.15.11.05.22.09.35.12.12.03.26.05.41.05.17,0,.33-.03.48-.09s.27-.13.38-.23c.11-.1.2-.21.26-.35.06-.13.09-.28.09-.45,0-.19-.04-.35-.12-.48-.08-.14-.18-.25-.31-.34-.13-.09-.28-.16-.44-.2s-.35-.06-.53-.06h-.19c-.15,0-.25-.06-.32-.2l-.03-.05c-.06-.13-.04-.25.06-.37l1.14-1.38c.04-.06.09-.11.14-.16.05-.05.09-.09.12-.12l.11-.11v-.02s-.08.01-.13.02c-.04,0-.1,0-.17.01-.06,0-.14,0-.22,0l-1.75.02c-.19,0-.28-.09-.28-.28v-.17c0-.19.09-.28.27-.28l3.03-.04c.19,0,.28.08.28.26v.08c0,.14-.04.25-.12.34l-1.48,1.75c.2.02.4.07.61.14.21.07.4.18.57.32.17.14.31.31.42.53.11.21.17.46.17.75,0,.26-.04.5-.13.74-.09.24-.23.44-.4.62-.18.18-.39.32-.64.43-.25.11-.53.17-.84.17-.22,0-.41-.02-.6-.06s-.35-.1-.5-.16c-.15-.06-.28-.13-.39-.2-.11-.07-.2-.14-.27-.19Z"/>
        </g>
        <g class="cls-2">
          <path class="cls-1" d="M12.55,28.52c0-.36.06-.67.2-.93.14-.27.32-.5.53-.71.22-.21.45-.4.7-.58.25-.17.49-.35.7-.52s.4-.35.54-.53c.14-.18.21-.39.21-.63,0-.3-.11-.54-.31-.72s-.46-.27-.78-.26c-.14,0-.26.02-.37.06-.11.04-.21.09-.3.14-.09.06-.16.12-.23.18-.06.07-.12.12-.15.18-.06.06-.13.1-.19.12-.06.02-.13,0-.21-.06l-.15-.12c-.15-.11-.18-.24-.08-.38.06-.08.13-.17.23-.28.1-.11.22-.21.36-.3.14-.1.31-.18.5-.24.19-.06.41-.1.65-.1.27,0,.53.03.76.11.23.08.44.19.61.34s.31.33.4.54c.1.21.15.45.15.71,0,.33-.06.62-.2.86-.14.25-.31.47-.52.67-.21.2-.44.38-.69.54-.25.16-.48.33-.69.49-.21.16-.39.34-.53.52-.14.18-.22.38-.22.61l2.71-.04c.19,0,.28.09.28.28v.17c0,.19-.09.28-.27.29l-3.34.04c-.09,0-.16-.02-.21-.07-.06-.04-.09-.11-.09-.21v-.18Z"/>
          <path class="cls-1" d="M19.55,28.99c-.4,0-.74-.07-1.01-.23-.27-.16-.49-.38-.66-.65-.17-.28-.29-.61-.37-.98-.08-.38-.12-.78-.12-1.22,0-.43.02-.83.09-1.21.07-.38.18-.71.34-.99.16-.28.38-.5.65-.67.27-.17.6-.25,1-.26.4,0,.74.07,1.02.23.27.16.5.37.66.65.17.28.29.6.37.98.08.38.12.78.12,1.21,0,.44-.02.84-.09,1.22-.07.38-.18.71-.34.99-.16.28-.38.51-.65.67-.27.17-.61.25-1.01.26ZM19.54,28.22c.24,0,.45-.07.61-.19s.29-.29.38-.5c.09-.21.15-.46.19-.74.04-.28.05-.59.05-.92,0-.32-.03-.63-.07-.91-.04-.28-.11-.53-.21-.74-.1-.21-.23-.37-.39-.49s-.37-.17-.62-.17c-.24,0-.45.07-.61.19s-.29.29-.38.5c-.09.21-.16.46-.19.74-.04.28-.05.59-.05.91,0,.33.03.63.07.92s.11.53.21.74c.1.21.23.37.39.49s.37.18.61.18Z"/>
          <path class="cls-1" d="M22.57,28.4c0-.19.09-.28.28-.28h1.05s-.05-3.89-.05-3.89v-.26s0-.08,0-.11h-.02s-.04.06-.06.09c-.04.06-.11.14-.2.23l-.38.38c-.14.13-.27.13-.39,0l-.12-.12c-.14-.13-.14-.26,0-.4l1.08-1.08c.1-.09.21-.14.34-.14h.27c.19,0,.28.09.28.27l.07,5h1.04c.19-.02.28.08.28.26v.17c0,.19-.09.28-.27.29l-2.9.04c-.19,0-.28-.09-.28-.28v-.17Z"/>
          <path class="cls-1" d="M29.13,24.03c.04-.09.09-.16.12-.23.04-.07.07-.13.1-.17.03-.06.07-.11.1-.15v-.02s-.05.01-.09.02c-.03,0-.08,0-.13.01s-.12,0-.19,0l-2.41.03c-.19,0-.28-.09-.28-.28v-.17c0-.19.09-.28.27-.28l3.45-.04c.19,0,.28.08.28.26v.14c0,.06,0,.12-.01.17-.01.05-.03.11-.06.17l-2.47,5.1c-.06.14-.17.21-.32.21h-.28c-.11,0-.18-.03-.22-.09-.04-.06-.03-.14,0-.24l2.12-4.43Z"/>
        </g>
      </g>
    </g>
  </g>
</svg>