<?xml version="1.0" encoding="UTF-8"?>
<svg id="Layer_2" data-name="Layer 2" xmlns="http://www.w3.org/2000/svg" viewBox="0 0 42.97 42.43">
  <defs>
    <style>
      .cls-1 {
        fill: #662d91;
      }

      .cls-2 {
        isolation: isolate;
      }

      .cls-3 {
        fill: #fff;
        stroke: #662d91;
        stroke-miterlimit: 10;
      }
    </style>
  </defs>
  <g id="_2016" data-name="2016">
    <g>
      <path class="cls-3" d="M42.18,15.86C39.34,3.15,16.12-3.81,6.39,3.43-4.48,11.51.8,37.81,13.32,41.46c11.7,3.42,31.83-12.32,28.86-25.6Z"/>
      <g class="cls-2">
        <g class="cls-2">
          <path class="cls-1" d="M12.3,19.03c0-.36.06-.67.2-.94s.32-.51.53-.72c.21-.21.45-.4.7-.58.25-.17.48-.35.7-.52.21-.17.39-.35.53-.53.14-.18.21-.4.2-.63,0-.3-.11-.54-.32-.72-.2-.18-.47-.26-.78-.26-.14,0-.26.03-.37.07-.11.04-.21.09-.3.15-.09.06-.16.12-.23.18-.06.07-.12.13-.15.18-.06.06-.12.11-.19.13-.06.02-.13,0-.21-.06l-.16-.12c-.15-.11-.18-.24-.08-.38.06-.08.13-.17.23-.28.1-.11.22-.21.36-.31s.31-.18.5-.25c.19-.07.41-.1.65-.11.27,0,.53.03.76.11.23.08.44.19.61.34.17.15.31.33.41.54.1.21.15.45.16.71,0,.33-.06.62-.2.86-.14.25-.31.47-.52.67-.21.2-.44.38-.68.55-.25.16-.48.33-.69.5-.21.17-.39.34-.53.52-.14.18-.21.39-.21.61l2.71-.06c.19,0,.28.09.29.27v.17c0,.19-.08.28-.27.29l-3.34.07c-.09,0-.16-.02-.21-.06s-.09-.12-.09-.21v-.18Z"/>
          <path class="cls-1" d="M19.31,19.45c-.4,0-.74-.07-1.01-.22-.27-.16-.5-.37-.67-.65-.17-.28-.3-.6-.38-.98-.08-.38-.12-.78-.13-1.22,0-.43.02-.83.08-1.21.06-.38.18-.71.34-.99.16-.28.38-.51.64-.67.27-.17.6-.26,1-.26.4,0,.74.07,1.02.22s.5.37.67.65c.17.27.29.6.37.97.08.38.12.78.13,1.21,0,.44-.02.84-.08,1.22-.06.38-.17.71-.33,1-.16.28-.37.51-.64.68-.27.17-.6.26-1.01.26ZM19.29,18.67c.24,0,.45-.07.61-.2.16-.13.29-.29.38-.51.09-.21.15-.46.19-.75.03-.28.05-.59.04-.92,0-.32-.03-.62-.08-.91-.05-.28-.12-.53-.22-.74-.1-.21-.23-.37-.4-.49-.17-.12-.37-.17-.62-.17-.24,0-.45.07-.6.19-.16.12-.28.29-.38.5-.09.21-.15.46-.19.74-.03.28-.05.59-.04.91,0,.33.03.64.08.92.05.28.12.53.22.74.1.21.23.37.4.49.16.12.37.18.61.17Z"/>
          <path class="cls-1" d="M22.33,18.83c0-.19.09-.28.27-.29l1.05-.02-.08-3.88v-.26s0-.08,0-.11h-.02s-.04.06-.06.09c-.04.06-.11.14-.2.23l-.37.38c-.14.13-.27.13-.39,0l-.12-.12c-.14-.13-.14-.26,0-.4l1.07-1.09c.1-.09.21-.14.34-.14h.27c.19,0,.28.08.29.27l.1,5,1.04-.02c.19,0,.28.09.29.27v.17c0,.19-.08.28-.27.29l-2.9.06c-.19,0-.28-.09-.29-.28v-.17Z"/>
          <path class="cls-1" d="M26.36,16.48c0-.39.04-.79.14-1.19.1-.41.26-.77.47-1.1.21-.33.49-.6.83-.82.34-.21.74-.33,1.2-.33.19,0,.36,0,.52.04.16.03.29.06.38.09.18.06.23.18.17.35l-.07.21c-.03.1-.08.16-.13.18-.06.02-.12.02-.2,0-.07-.03-.16-.05-.27-.07s-.22-.03-.35-.03c-.28,0-.53.07-.74.19-.21.12-.39.28-.53.47-.14.19-.26.41-.34.66-.08.25-.14.5-.17.76h.02c.12-.17.3-.32.54-.44.24-.12.52-.18.83-.19.28,0,.53.04.76.13.23.09.43.23.59.4.16.17.29.37.39.6s.15.49.15.76c0,.3-.04.58-.13.83s-.22.47-.39.66c-.17.19-.37.33-.6.44-.24.11-.5.16-.78.17-.32,0-.62-.05-.89-.18-.28-.13-.52-.31-.72-.56-.2-.24-.37-.54-.49-.88-.12-.34-.19-.73-.19-1.15ZM27.24,16.88c0,.17.04.35.11.54.07.19.17.37.29.52.12.16.27.29.44.39.17.1.35.15.55.15.34,0,.61-.13.8-.37.19-.24.28-.54.28-.9,0-.36-.12-.66-.34-.9-.22-.23-.53-.35-.94-.34-.17,0-.33.03-.47.08-.14.05-.27.12-.37.2-.11.08-.19.18-.25.28-.06.11-.09.22-.09.34Z"/>
        </g>
        <g class="cls-2">
          <path class="cls-1" d="M12.48,28.28c0-.36.06-.67.2-.94s.32-.51.53-.72c.21-.21.45-.4.7-.58.25-.17.48-.35.7-.52.21-.17.39-.35.53-.53.14-.18.21-.4.2-.63,0-.3-.11-.54-.32-.72-.2-.18-.47-.26-.78-.26-.14,0-.26.03-.37.07-.11.04-.21.09-.3.15-.09.06-.16.12-.23.18-.06.07-.12.13-.15.18-.06.06-.12.11-.19.13-.06.02-.13,0-.21-.06l-.16-.12c-.15-.11-.18-.24-.08-.38.06-.08.13-.17.23-.28.1-.11.22-.21.36-.31s.31-.18.5-.25c.19-.07.41-.1.65-.11.27,0,.53.03.76.11.23.08.44.19.61.34.17.15.31.33.41.54.1.21.15.45.16.71,0,.33-.06.62-.2.86-.14.25-.31.47-.52.67-.21.2-.44.38-.68.55-.25.16-.48.33-.69.5-.21.17-.39.34-.53.52-.14.18-.21.39-.21.61l2.71-.06c.19,0,.28.09.29.27v.17c0,.19-.08.28-.27.29l-3.34.07c-.09,0-.16-.02-.21-.06s-.09-.12-.09-.21v-.18Z"/>
          <path class="cls-1" d="M19.48,28.7c-.4,0-.74-.07-1.01-.22-.27-.16-.5-.37-.67-.65-.17-.28-.3-.6-.38-.98-.08-.38-.12-.78-.13-1.22,0-.43.02-.83.08-1.21.06-.38.18-.71.34-.99.16-.28.38-.51.64-.67.27-.17.6-.26,1-.26.4,0,.74.07,1.02.22s.5.37.67.65c.17.27.29.6.37.97.08.38.12.78.13,1.21,0,.44-.02.84-.08,1.22-.06.38-.17.71-.33,1-.16.28-.37.51-.64.68-.27.17-.6.26-1.01.26ZM19.46,27.92c.24,0,.45-.07.61-.2.16-.13.29-.29.38-.51.09-.21.15-.46.19-.75.03-.28.05-.59.04-.92,0-.32-.03-.62-.08-.91-.05-.28-.12-.53-.22-.74-.1-.21-.23-.37-.4-.49-.17-.12-.37-.17-.62-.17-.24,0-.45.07-.6.19-.16.12-.28.29-.38.5-.09.21-.15.46-.19.74-.03.28-.05.59-.04.91,0,.33.03.64.08.92.05.28.12.53.22.74.1.21.23.37.4.49.16.12.37.18.61.17Z"/>
          <path class="cls-1" d="M22.5,28.08c0-.19.09-.28.27-.29l1.05-.02-.08-3.88v-.26s0-.08,0-.11h-.02s-.04.06-.06.09c-.04.06-.11.14-.2.23l-.37.38c-.14.13-.27.13-.39,0l-.12-.12c-.14-.13-.14-.26,0-.4l1.07-1.09c.1-.09.21-.14.34-.14h.27c.19,0,.28.08.29.27l.1,5,1.04-.02c.19,0,.28.09.29.27v.17c0,.19-.08.28-.27.29l-2.9.06c-.19,0-.28-.09-.29-.28v-.17Z"/>
          <path class="cls-1" d="M26.56,26.84c-.19,0-.28-.09-.29-.28v-.05c0-.07,0-.14.02-.19.02-.05.04-.11.08-.16l2.48-3.59c.08-.12.19-.18.33-.19h.47c.19-.01.28.08.29.26l.07,3.4h.54c.19-.02.28.08.29.26v.15c0,.19-.07.28-.23.29h-.58s.03,1.34.03,1.34c0,.19-.09.28-.27.29h-.27c-.19,0-.28-.08-.29-.27l-.03-1.33-2.63.05ZM29.17,26.07l-.04-2.19c0-.07,0-.14,0-.21s0-.13,0-.19c0-.06.01-.13.02-.2h-.02c-.03.06-.06.12-.09.17-.03.04-.06.1-.09.16-.03.06-.07.12-.11.17l-1.66,2.31v.02s1.97-.04,1.97-.04Z"/>
        </g>
      </g>
    </g>
  </g>
</svg>