<?xml version="1.0" encoding="UTF-8"?>
<svg id="Layer_2" data-name="Layer 2" xmlns="http://www.w3.org/2000/svg" viewBox="0 0 42.6 43.06">
  <defs>
    <style>
      .cls-1 {
        fill: #662d91;
      }

      .cls-2 {
        isolation: isolate;
      }

      .cls-3 {
        fill: #fff;
        stroke: #662d91;
        stroke-miterlimit: 10;
      }
    </style>
  </defs>
  <g id="Techgrounds">
    <g>
      <path class="cls-3" d="M6.71,39.87c10.5,7.7,32.57-2.34,35.13-14.2C44.7,12.43,23.43-3.9,11.59,1.6.53,6.73-4.27,31.83,6.71,39.87h0Z"/>
      <g class="cls-2">
        <g class="cls-2">
          <path class="cls-1" d="M8.99,24.98c0-.43.08-.81.25-1.13.17-.32.38-.61.64-.86.26-.25.54-.48.85-.69.3-.21.59-.42.85-.62.26-.21.48-.42.65-.64s.26-.48.25-.76c0-.36-.13-.65-.38-.87s-.56-.32-.94-.32c-.16,0-.31.03-.45.08-.14.05-.26.11-.36.17-.11.07-.2.14-.27.22-.08.08-.14.15-.19.21-.07.08-.15.13-.23.15s-.16,0-.25-.07l-.19-.14c-.18-.13-.21-.29-.1-.46.07-.1.16-.21.28-.34.12-.13.26-.25.44-.37.17-.12.37-.21.6-.29.23-.08.49-.12.78-.12.33,0,.63.04.92.14.28.09.53.23.73.41.21.18.37.39.49.65.12.26.18.54.18.85,0,.4-.08.74-.24,1.04-.17.3-.38.56-.63.8s-.53.46-.83.65c-.3.2-.58.39-.83.59-.26.2-.47.41-.64.62s-.26.46-.26.74l3.27-.04c.23,0,.34.11.34.33v.21c0,.23-.11.34-.33.34l-4.02.05c-.1,0-.19-.03-.26-.08-.07-.05-.1-.14-.11-.26v-.21Z"/>
          <path class="cls-1" d="M17.43,25.55c-.49,0-.89-.09-1.22-.28-.33-.19-.59-.45-.8-.79s-.35-.73-.45-1.18c-.09-.45-.14-.94-.15-1.47,0-.52.03-1.01.11-1.46.08-.46.22-.85.42-1.19.2-.34.46-.61.78-.81.32-.2.73-.3,1.21-.31.49,0,.89.08,1.22.28.33.19.6.45.8.79.2.33.35.73.44,1.18.09.45.14.94.15,1.46,0,.53-.03,1.02-.11,1.47-.08.46-.22.85-.41,1.2-.19.34-.45.61-.78.81s-.73.3-1.22.31ZM17.42,24.62c.29,0,.54-.08.74-.23.2-.15.35-.35.46-.61.11-.26.19-.55.23-.9.04-.34.06-.71.06-1.11,0-.39-.03-.75-.09-1.1-.05-.34-.14-.64-.25-.89-.12-.25-.27-.45-.47-.59-.2-.14-.45-.21-.74-.21-.29,0-.54.08-.73.22-.19.15-.35.35-.46.6-.11.25-.19.55-.23.9-.04.34-.06.71-.06,1.1,0,.4.03.76.09,1.11.05.34.14.64.26.89s.28.45.47.59c.2.14.44.21.74.21Z"/>
          <path class="cls-1" d="M21.1,24.82c0-.43.08-.81.25-1.13.17-.32.39-.61.65-.86.26-.25.54-.48.85-.69.3-.21.59-.42.85-.62.26-.2.48-.42.65-.64.17-.22.26-.47.25-.76,0-.36-.13-.65-.38-.87-.25-.22-.56-.32-.94-.32-.16,0-.31.03-.45.08-.14.05-.26.11-.36.17-.11.07-.2.14-.27.22-.08.08-.14.15-.19.21-.07.08-.15.13-.23.15-.08.02-.16,0-.25-.07l-.19-.14c-.18-.13-.21-.29-.1-.46.07-.1.16-.21.28-.34.12-.13.26-.25.44-.37.17-.12.37-.21.6-.29.23-.08.49-.12.78-.12.33,0,.63.04.92.14.28.09.53.23.73.41.21.18.37.39.49.65.12.25.18.54.18.85,0,.4-.08.74-.24,1.04s-.38.56-.63.8-.53.46-.83.65-.58.39-.83.59c-.26.2-.47.41-.64.62-.17.22-.26.46-.26.74l3.27-.04c.23,0,.34.11.34.33v.21c0,.23-.11.34-.33.34l-4.02.05c-.1,0-.19-.02-.26-.08-.07-.05-.1-.14-.11-.25v-.21Z"/>
          <path class="cls-1" d="M26.99,24.63c-.08-.07-.13-.14-.13-.22s.03-.16.09-.24l.16-.23c.13-.17.28-.18.46-.05.06.05.12.11.21.18.08.06.18.12.29.18.11.05.24.1.38.13.14.04.29.05.46.05.21,0,.41-.04.6-.11.19-.07.36-.17.5-.3.15-.13.26-.29.34-.47.08-.18.12-.38.12-.6,0-.22-.05-.42-.14-.6-.09-.18-.21-.33-.35-.47-.15-.13-.32-.23-.53-.3s-.42-.1-.65-.1c-.23,0-.42.04-.59.1-.17.06-.3.12-.4.17-.16.06-.31.07-.45.03l-.09-.03c-.19-.07-.27-.2-.25-.4l.27-2.98c.02-.21.13-.32.34-.32l3-.04c.23,0,.34.11.34.33v.21c0,.23-.11.34-.33.34l-2.43.03-.15,1.53c0,.1-.01.18-.03.27,0,.04-.01.08-.02.11h.02c.08-.04.17-.08.27-.12.08-.03.18-.05.29-.08.11-.03.24-.04.37-.04.38,0,.73.05,1.04.17.31.12.58.29.8.5.22.21.39.46.52.74.12.28.19.59.19.92,0,.35-.06.67-.18.97-.13.3-.3.56-.53.78-.23.22-.5.4-.81.52-.31.13-.65.19-1.01.2-.26,0-.5-.02-.71-.07-.21-.05-.4-.12-.57-.2-.17-.08-.31-.16-.43-.25-.12-.09-.22-.17-.3-.24Z"/>
        </g>
      </g>
    </g>
  </g>
</svg>