<?xml version="1.0" encoding="UTF-8"?>
<svg id="Layer_2" data-name="Layer 2" xmlns="http://www.w3.org/2000/svg" viewBox="0 0 42.6 43.06">
  <defs>
    <style>
      .cls-1 {
        fill: #662d91;
      }

      .cls-2 {
        isolation: isolate;
      }

      .cls-3 {
        fill: #fff;
        stroke: #662d91;
        stroke-miterlimit: 10;
      }
    </style>
  </defs>
  <g id="ommh">
    <g>
      <path class="cls-3" d="M6.71,39.87c10.5,7.7,32.57-2.34,35.13-14.2C44.7,12.43,23.43-3.9,11.59,1.6.53,6.73-4.27,31.83,6.71,39.87Z"/>
      <g class="cls-2">
        <g class="cls-2">
          <path class="cls-1" d="M8.83,24.97c0-.43.08-.81.25-1.13.17-.32.38-.61.64-.86.26-.25.54-.48.85-.69.3-.21.59-.42.85-.62.26-.21.48-.42.65-.64s.26-.48.25-.76c0-.36-.13-.65-.38-.87s-.56-.32-.94-.32c-.16,0-.31.03-.45.08-.14.05-.26.11-.36.17-.11.07-.2.14-.27.22-.08.08-.14.15-.19.21-.07.08-.15.13-.23.15s-.16,0-.25-.07l-.19-.14c-.18-.13-.21-.29-.1-.46.07-.1.16-.21.28-.34.12-.13.26-.25.44-.37.17-.12.37-.21.6-.29.23-.08.49-.12.78-.12.33,0,.63.04.92.14.28.09.53.23.73.41.21.18.37.39.49.65.12.26.18.54.18.85,0,.4-.08.74-.24,1.04-.17.3-.38.56-.63.8s-.53.46-.83.65c-.3.2-.58.39-.83.59-.26.2-.47.41-.64.62s-.26.46-.26.74l3.27-.04c.23,0,.34.11.34.33v.21c0,.23-.11.34-.33.34l-4.02.05c-.1,0-.19-.03-.26-.08-.07-.05-.1-.14-.11-.26v-.21Z"/>
          <path class="cls-1" d="M17.27,25.54c-.49,0-.89-.09-1.22-.28-.33-.19-.59-.45-.8-.79s-.35-.73-.45-1.18c-.09-.45-.14-.94-.15-1.47,0-.52.03-1.01.11-1.46.08-.46.22-.85.42-1.19.2-.34.46-.61.78-.81.32-.2.73-.3,1.21-.31.49,0,.89.08,1.22.28.33.19.6.45.8.79.2.33.35.73.44,1.18.09.45.14.94.15,1.46,0,.53-.03,1.02-.11,1.47-.08.46-.22.85-.41,1.2-.19.34-.45.61-.78.81s-.73.3-1.22.31ZM17.26,24.61c.29,0,.54-.08.74-.23.2-.15.35-.35.46-.61.11-.26.19-.55.23-.9.04-.34.06-.71.06-1.11,0-.39-.03-.75-.09-1.1-.05-.34-.14-.64-.25-.89-.12-.25-.27-.45-.47-.59-.2-.14-.45-.21-.74-.21-.29,0-.54.08-.73.22-.19.15-.35.35-.46.6-.11.25-.19.55-.23.9-.04.34-.06.71-.06,1.1,0,.4.03.76.09,1.11.05.34.14.64.26.89s.28.45.47.59c.2.14.44.21.74.21Z"/>
        </g>
        <g class="cls-2">
          <path class="cls-1" d="M20.95,24.81c0-.43.08-.81.25-1.13.17-.32.38-.61.64-.86.26-.25.54-.48.85-.69.3-.21.59-.42.85-.62.26-.21.48-.42.65-.64s.26-.48.25-.76c0-.36-.13-.65-.38-.87s-.56-.32-.94-.32c-.16,0-.31.03-.45.08-.14.05-.26.11-.36.17-.11.07-.2.14-.27.22-.08.08-.14.15-.19.21-.07.08-.15.13-.23.15s-.16,0-.25-.07l-.19-.14c-.18-.13-.21-.29-.1-.46.07-.1.16-.21.28-.34.12-.13.26-.25.44-.37.17-.12.37-.21.6-.29.23-.08.49-.12.78-.12.33,0,.63.04.92.14.28.09.53.23.73.41.21.18.37.39.49.65.12.26.18.54.18.85,0,.4-.08.74-.24,1.04-.17.3-.38.56-.63.8s-.53.46-.83.65c-.3.2-.58.39-.83.59-.26.2-.47.41-.64.62s-.26.46-.26.74l3.27-.04c.23,0,.34.11.34.33v.21c0,.23-.11.34-.33.34l-4.02.05c-.1,0-.19-.03-.26-.08-.07-.05-.1-.14-.11-.26v-.21Z"/>
        </g>
        <g class="cls-2">
          <path class="cls-1" d="M26.63,23.35c-.23,0-.34-.11-.34-.33v-.06c0-.09,0-.17.03-.23.02-.06.05-.13.1-.2l3.02-4.31c.09-.14.23-.22.4-.22h.56c.23-.01.34.1.34.33l.05,4.1h.65c.23-.01.34.1.34.33v.18c0,.23-.09.34-.28.34h-.7s.02,1.61.02,1.61c0,.23-.11.34-.33.34h-.33c-.23,0-.34-.1-.34-.33l-.02-1.6-3.17.04ZM29.79,22.45l-.04-2.64c0-.08,0-.17,0-.25,0-.08,0-.16.01-.23,0-.08.01-.15.03-.24h-.02c-.04.07-.08.14-.11.21-.03.06-.07.12-.11.19-.04.07-.08.14-.13.2l-2.02,2.77v.02l2.38-.03Z"/>
        </g>
      </g>
    </g>
  </g>
</svg>