<?xml version="1.0" encoding="UTF-8"?>
<svg id="Layer_2" data-name="Layer 2" xmlns="http://www.w3.org/2000/svg" viewBox="0 0 42.97 42.43">
  <defs>
    <style>
      .cls-1 {
        fill: #662d91;
      }

      .cls-2 {
        isolation: isolate;
      }

      .cls-3 {
        fill: #fff;
        stroke: #662d91;
        stroke-miterlimit: 10;
      }
    </style>
  </defs>
  <g id="glr">
    <g>
      <path class="cls-3" d="M42.18,15.86C39.34,3.15,16.12-3.81,6.39,3.43-4.48,11.51.8,37.81,13.32,41.46c11.7,3.42,31.83-12.32,28.86-25.6Z"/>
      <g class="cls-2">
        <g class="cls-2">
          <path class="cls-1" d="M12.78,23.63c0-.36.06-.67.2-.94s.32-.51.53-.72c.21-.21.45-.4.7-.58.25-.17.48-.35.7-.52.21-.17.39-.35.53-.53.14-.18.21-.4.2-.63,0-.3-.11-.54-.32-.72-.2-.18-.47-.26-.78-.26-.14,0-.26.03-.37.07-.11.04-.21.09-.3.15-.09.06-.16.12-.23.18-.06.07-.12.13-.15.18-.06.06-.12.11-.19.13-.06.02-.13,0-.21-.06l-.16-.12c-.15-.11-.18-.24-.08-.38.06-.08.13-.17.23-.28.1-.11.22-.21.36-.31s.31-.18.5-.25c.19-.07.41-.1.65-.11.27,0,.53.03.76.11.23.08.44.19.61.34.17.15.31.33.41.54.1.21.15.45.16.71,0,.33-.06.62-.2.86-.14.25-.31.47-.52.67-.21.2-.44.38-.68.55-.25.16-.48.33-.69.5-.21.17-.39.34-.53.52-.14.18-.21.39-.21.61l2.71-.06c.19,0,.28.09.29.27v.17c0,.19-.08.28-.27.29l-3.34.07c-.09,0-.16-.02-.21-.06s-.09-.12-.09-.21v-.18Z"/>
          <path class="cls-1" d="M19.79,24.05c-.4,0-.74-.07-1.01-.22-.27-.16-.5-.37-.67-.65-.17-.28-.3-.6-.38-.98-.08-.38-.12-.78-.13-1.22,0-.43.02-.83.08-1.21.06-.38.18-.71.34-.99.16-.28.38-.51.64-.67.27-.17.6-.26,1-.26.4,0,.74.07,1.02.22s.5.37.67.65c.17.27.29.6.37.97.08.38.12.78.13,1.21,0,.44-.02.84-.08,1.22-.06.38-.17.71-.33,1-.16.28-.37.51-.64.68-.27.17-.6.26-1.01.26ZM19.77,23.27c.24,0,.45-.07.61-.2.16-.13.29-.29.38-.51.09-.21.15-.46.19-.75.03-.28.05-.59.04-.92,0-.32-.03-.62-.08-.91-.05-.28-.12-.53-.22-.74-.1-.21-.23-.37-.4-.49-.17-.12-.37-.17-.62-.17-.24,0-.45.07-.6.19-.16.12-.28.29-.38.5-.09.21-.15.46-.19.74-.03.28-.05.59-.04.91,0,.33.03.64.08.92.05.28.12.53.22.74.1.21.23.37.4.49.16.12.37.18.61.17Z"/>
          <path class="cls-1" d="M22.81,23.43c0-.19.09-.28.27-.29l1.05-.02-.08-3.88v-.26s0-.08,0-.11h-.02s-.04.06-.06.09c-.04.06-.11.14-.2.23l-.37.38c-.14.13-.27.13-.39,0l-.12-.12c-.14-.13-.14-.26,0-.4l1.07-1.09c.1-.09.21-.14.34-.14h.27c.19,0,.28.08.29.27l.1,5,1.04-.02c.19,0,.28.09.29.27v.17c0,.19-.08.28-.27.29l-2.9.06c-.19,0-.28-.09-.29-.28v-.17Z"/>
          <path class="cls-1" d="M29.33,19.02c.04-.08.08-.16.12-.23.04-.07.07-.13.1-.17.03-.06.07-.11.1-.16v-.02s-.05.01-.09.02c-.03,0-.08.01-.13.01s-.12,0-.19,0l-2.41.05c-.19,0-.28-.09-.29-.27v-.17c0-.19.08-.28.27-.29l3.45-.07c.19,0,.28.08.29.26v.14c0,.06,0,.12-.01.18-.01.05-.03.11-.06.17l-2.43,5.11c-.06.14-.17.21-.32.21h-.28c-.11,0-.18-.02-.22-.08-.04-.06-.04-.14,0-.24l2.09-4.44Z"/>
        </g>
      </g>
    </g>
  </g>
</svg>