<?xml version="1.0" encoding="UTF-8"?>
<svg id="Layer_2" data-name="Layer 2" xmlns="http://www.w3.org/2000/svg" viewBox="0 0 100.01 42.5">
  <defs>
    <style>
      .cls-1 {
        fill: #662d91;
      }

      .cls-2 {
        isolation: isolate;
      }

      .cls-3 {
        fill: #fff;
        stroke: #662d91;
        stroke-miterlimit: 10;
      }
    </style>
  </defs>
  <g id="_2024" data-name="2024">
    <g>
      <g class="cls-2">
        <g class="cls-2">
          <path class="cls-1" d="M51.21,6.62c0-.37.18-.55.55-.55h1.99c.56,0,1.07.08,1.52.24s.85.39,1.17.7c.32.3.57.68.74,1.12.17.44.26.94.26,1.5s-.09,1.06-.26,1.51c-.17.45-.42.82-.74,1.13-.32.31-.71.54-1.17.71s-.96.25-1.52.25h-1.99c-.37,0-.55-.18-.55-.55v-6.05ZM53.68,11.72c.61,0,1.08-.18,1.43-.53.35-.35.52-.87.52-1.56s-.18-1.2-.53-1.54c-.35-.34-.83-.52-1.42-.52h-.72v4.15h.72Z"/>
          <path class="cls-1" d="M59.84,6.52c.1-.3.31-.45.62-.45h.9c.31,0,.52.15.62.45l2.07,6.07c.07.19.06.35-.03.46-.08.11-.22.17-.42.17h-.66c-.31,0-.52-.15-.62-.46l-.3-1.04h-2.23l-.3,1.04c-.09.31-.29.46-.61.46h-.66c-.2,0-.34-.06-.43-.17-.08-.11-.09-.27-.02-.46l2.07-6.07ZM61.61,10.32l-.4-1.39c-.03-.11-.06-.24-.09-.38-.03-.14-.06-.27-.1-.4-.03-.15-.07-.3-.1-.45h-.02c-.03.15-.07.3-.1.45-.03.13-.06.26-.1.4-.03.14-.06.27-.09.38l-.41,1.39h1.41Z"/>
          <path class="cls-1" d="M65.84,10.29l-1.99-3.56c-.11-.19-.13-.35-.06-.47s.22-.19.44-.19h.79c.3,0,.51.14.64.41l.62,1.31c.05.13.11.25.16.37.05.12.1.23.14.33.05.12.09.23.13.33h.02c.04-.1.08-.21.13-.33.04-.1.08-.21.14-.33.05-.12.1-.24.17-.37l.61-1.31c.13-.27.34-.41.64-.41h.79c.21,0,.36.06.43.19s.06.28-.05.47l-1.99,3.56v2.38c0,.37-.18.55-.55.55h-.65c-.37,0-.55-.18-.55-.55v-2.38Z"/>
          <path class="cls-1" d="M70.41,6.62c0-.37.18-.55.55-.55h3.38c.37,0,.55.18.55.55v.4c0,.37-.18.55-.55.55h-2.18v1.3h1.63c.37,0,.55.18.55.55v.4c0,.37-.18.55-.55.55h-1.63v1.35h2.32c.37,0,.55.18.55.55v.4c0,.37-.18.55-.55.55h-3.52c-.37,0-.55-.18-.55-.55v-6.05Z"/>
          <path class="cls-1" d="M75.88,12.63c-.05-.04-.1-.08-.14-.13-.04-.05-.07-.11-.08-.17-.02-.06-.02-.13,0-.21s.06-.16.12-.25l.31-.45c.1-.15.21-.23.33-.25s.26.02.43.12c.06.03.13.07.22.12.08.05.18.09.29.14.11.05.23.09.36.12s.28.05.43.05c.26,0,.45-.05.57-.14.12-.1.19-.21.19-.36,0-.17-.08-.31-.23-.42-.16-.12-.35-.23-.58-.33s-.49-.21-.76-.33c-.27-.12-.53-.26-.76-.43-.23-.17-.43-.38-.58-.63s-.23-.56-.23-.94c0-.33.06-.62.19-.89.13-.27.31-.5.54-.7.23-.19.5-.34.81-.45.31-.1.65-.15,1.01-.15.42,0,.8.06,1.15.17.35.12.61.23.78.35.15.11.23.22.25.35.02.12,0,.26-.08.4l-.24.47c-.1.19-.21.29-.34.29-.13,0-.27-.03-.41-.11-.17-.08-.34-.16-.51-.22-.18-.07-.38-.11-.62-.11-.28,0-.48.05-.6.15-.12.1-.18.21-.18.35,0,.17.08.32.23.43.16.11.35.22.58.32.23.1.49.21.76.32.27.11.53.25.76.42s.43.38.58.63.23.56.23.93c0,.3-.05.58-.17.86-.11.27-.27.51-.48.71s-.48.37-.79.49c-.31.12-.67.18-1.07.18-.25,0-.5-.02-.73-.07s-.44-.1-.64-.17-.37-.15-.53-.23c-.16-.08-.28-.16-.38-.23Z"/>
          <path class="cls-1" d="M84.18,6.62c0-.37.18-.55.55-.55h2.08c.36,0,.69.04.99.12.3.08.55.2.76.36.21.16.38.35.5.58.12.23.18.5.18.81s-.07.59-.21.87-.35.5-.62.65v.02c.21.06.38.15.52.27.14.12.25.25.35.39.09.15.15.3.19.46.04.16.06.33.06.49,0,.39-.08.72-.23,1-.15.27-.35.49-.6.65-.25.17-.54.29-.87.37-.33.08-.67.12-1.03.12h-2.08c-.37,0-.55-.18-.55-.55v-6.05ZM86.83,8.84c.22,0,.38-.07.48-.2.1-.13.15-.29.15-.46s-.05-.31-.16-.43-.27-.18-.5-.18h-.87v1.27h.9ZM86.98,11.72c.25,0,.44-.08.57-.22.13-.15.19-.33.19-.53s-.06-.37-.19-.51-.31-.22-.56-.22h-1.06v1.48h1.05Z"/>
          <path class="cls-1" d="M90.27,12.13c0-.37.18-.55.55-.55h.54c.37,0,.55.18.55.55v.54c0,.37-.18.55-.55.55h-.54c-.37,0-.55-.18-.55-.55v-.54Z"/>
          <path class="cls-1" d="M91.92,6.7c-.07-.19-.06-.35.02-.46.08-.11.22-.17.43-.17h.75c.33,0,.53.15.62.46l1.12,3.61c.03.11.07.24.1.37.03.13.06.26.09.37.03.13.05.27.08.41h.02c.03-.14.05-.28.08-.41.03-.11.06-.24.09-.37s.07-.26.1-.37l1.14-3.61c.09-.31.29-.46.62-.46h.72c.21,0,.35.06.43.17.08.11.09.27.02.46l-2.14,6.08c-.11.29-.32.44-.63.44h-.88c-.31,0-.52-.15-.63-.44l-2.15-6.08Z"/>
          <path class="cls-1" d="M98.37,12.13c0-.37.18-.55.55-.55h.54c.37,0,.55.18.55.55v.54c0,.37-.18.55-.55.55h-.54c-.37,0-.55-.18-.55-.55v-.54Z"/>
        </g>
        <g class="cls-2">
          <path class="cls-1" d="M51.42,19.49c0-.22.11-.33.33-.33h2.01c.54,0,1.03.08,1.47.23.44.16.82.38,1.13.69.31.3.56.67.73,1.1s.25.94.25,1.5-.08,1.06-.25,1.5-.41.81-.73,1.11c-.31.3-.69.53-1.13.69s-.93.24-1.47.24h-2.01c-.22,0-.33-.11-.33-.33v-6.4ZM53.69,25.36c.4,0,.76-.06,1.08-.17.32-.12.6-.29.83-.51s.41-.51.53-.84c.12-.33.18-.72.18-1.15s-.06-.82-.19-1.14c-.13-.33-.3-.61-.53-.83s-.51-.4-.83-.51c-.32-.11-.68-.17-1.08-.17h-1.29v5.34h1.29Z"/>
          <path class="cls-1" d="M58.19,23.69c0-.4.06-.76.2-1.09.13-.33.31-.6.53-.83.22-.23.49-.41.8-.54.31-.13.65-.19,1.01-.19s.66.06.93.18.5.29.69.5c.18.21.32.47.42.76.1.29.15.62.15.97,0,.09-.03.17-.09.24-.06.07-.15.1-.25.1h-3.38c.01.27.07.52.17.73.1.21.23.39.39.54.16.15.34.26.54.33.2.07.42.11.65.11.28,0,.52-.04.73-.14.21-.09.37-.18.48-.26.2-.11.35-.07.45.11l.09.15c.05.09.07.17.05.25-.02.08-.07.14-.15.2-.07.05-.17.11-.28.17-.11.06-.24.12-.39.17-.14.05-.3.1-.48.14-.18.04-.37.05-.56.05-.4,0-.76-.07-1.09-.21-.33-.14-.61-.32-.85-.56-.24-.24-.42-.52-.55-.84-.13-.32-.2-.67-.2-1.04ZM61.93,23.15c-.01-.45-.14-.78-.38-1.01-.24-.23-.52-.34-.85-.34-.37,0-.7.12-.97.35-.27.24-.44.57-.51,1h2.71Z"/>
          <path class="cls-1" d="M63.76,25.79c-.09-.05-.13-.12-.14-.2,0-.08.02-.16.07-.25l.1-.14c.07-.09.14-.13.21-.14.07,0,.16.02.26.07.11.07.27.16.48.26.21.1.46.15.76.15.25,0,.46-.06.62-.18.16-.12.24-.28.24-.49,0-.17-.06-.3-.19-.4s-.29-.19-.48-.28c-.19-.08-.4-.16-.62-.24-.22-.08-.43-.18-.62-.3-.19-.12-.35-.27-.49-.45-.13-.18-.19-.41-.19-.7,0-.24.05-.45.15-.64.1-.18.23-.33.4-.45.17-.12.36-.21.58-.28.22-.06.46-.09.71-.09.35,0,.65.05.88.14.23.09.4.18.52.25.09.05.15.11.17.18.02.08,0,.16-.06.26l-.09.15c-.09.17-.24.2-.44.11-.11-.06-.25-.12-.42-.19-.17-.07-.38-.1-.62-.1s-.44.05-.6.16c-.16.11-.24.27-.24.48,0,.17.06.3.19.41s.29.2.48.28c.19.08.4.16.62.24.22.08.43.18.62.29.19.12.35.27.49.45.13.18.19.42.19.71,0,.21-.04.41-.13.59-.09.18-.21.34-.37.48-.16.13-.35.24-.58.31-.22.07-.47.11-.74.11-.21,0-.41-.02-.58-.05-.18-.04-.34-.08-.48-.14-.14-.06-.27-.12-.38-.18-.11-.06-.2-.12-.27-.17Z"/>
          <path class="cls-1" d="M68.67,20.15c-.22,0-.33-.11-.33-.33v-.33c0-.22.11-.33.33-.33h.34c.22,0,.33.11.33.33v.33c0,.22-.11.33-.33.33h-.34ZM68.35,21.49c0-.22.11-.33.33-.33h.31c.22,0,.33.11.33.33v4.4c0,.22-.11.33-.33.33h-.31c-.22,0-.33-.11-.33-.33v-4.4Z"/>
          <path class="cls-1" d="M71.08,27.43c.09-.19.23-.24.42-.17.12.05.27.09.45.14.18.05.4.08.65.08.21,0,.42-.02.61-.08.19-.05.36-.13.5-.24.14-.11.26-.26.35-.44.09-.18.13-.4.13-.66v-.55s0-.07.01-.11c0-.03.01-.07.02-.1h-.02c-.15.27-.34.48-.58.63-.24.15-.55.23-.92.23s-.67-.07-.96-.2c-.28-.13-.52-.32-.72-.54-.2-.23-.35-.5-.45-.82-.1-.32-.16-.66-.16-1.04s.05-.69.15-1c.1-.31.25-.57.44-.8s.43-.4.71-.53c.28-.13.6-.19.97-.19.31,0,.57.04.77.13.2.09.36.19.48.29.14.12.25.26.32.42h.02s0-.02,0-.04c0-.02,0-.06,0-.12v-.29c0-.19.11-.28.33-.28h.24c.22,0,.33.11.33.33v4.52c0,.42-.07.78-.22,1.07-.15.29-.34.53-.57.71-.24.19-.51.32-.81.4-.3.08-.6.12-.91.12-.28,0-.55-.02-.8-.07-.25-.05-.48-.12-.67-.21-.2-.09-.26-.23-.17-.44l.07-.17ZM72.87,25.32c.17,0,.34-.03.5-.08.16-.06.31-.15.43-.29.12-.14.22-.31.29-.53.07-.22.11-.49.11-.82s-.04-.61-.11-.83c-.08-.22-.18-.4-.31-.53-.13-.13-.27-.22-.44-.27-.17-.05-.35-.08-.54-.08-.46,0-.81.15-1.04.45-.24.3-.35.69-.35,1.19,0,.55.13.98.38,1.31.26.33.62.49,1.08.49Z"/>
          <path class="cls-1" d="M76.57,21.49c0-.22.11-.33.33-.33h.28c.22,0,.33.11.33.33v.45c0,.07,0,.13-.02.2,0,.03-.01.06-.01.09h.02c.05-.11.12-.23.23-.37.1-.14.23-.27.4-.39s.35-.22.56-.3c.21-.08.46-.12.74-.12.6,0,1.04.16,1.32.48.28.32.41.81.41,1.46v2.91c0,.22-.11.33-.33.33h-.31c-.22,0-.33-.11-.33-.33v-2.69c0-.18-.01-.35-.04-.5s-.07-.29-.13-.4c-.07-.11-.16-.2-.29-.27-.13-.07-.29-.1-.49-.1-.25,0-.47.05-.68.15-.21.1-.39.23-.54.39s-.27.37-.35.59c-.08.23-.12.48-.12.74v2.09c0,.22-.11.33-.33.33h-.31c-.22,0-.33-.11-.33-.33v-4.4Z"/>
          <path class="cls-1" d="M82.16,23.69c0-.4.06-.76.2-1.09.13-.33.31-.6.53-.83.22-.23.49-.41.8-.54.31-.13.65-.19,1.01-.19s.66.06.93.18.5.29.69.5c.18.21.32.47.42.76.1.29.15.62.15.97,0,.09-.03.17-.09.24-.06.07-.15.1-.25.1h-3.38c.01.27.07.52.17.73.1.21.23.39.39.54.16.15.34.26.54.33.2.07.42.11.65.11.28,0,.52-.04.73-.14.21-.09.37-.18.48-.26.2-.11.35-.07.45.11l.09.15c.05.09.07.17.05.25-.02.08-.07.14-.15.2-.07.05-.17.11-.28.17-.11.06-.24.12-.39.17-.14.05-.3.1-.48.14-.18.04-.37.05-.56.05-.4,0-.76-.07-1.09-.21-.33-.14-.61-.32-.85-.56-.24-.24-.42-.52-.55-.84-.13-.32-.2-.67-.2-1.04ZM85.9,23.15c-.01-.45-.14-.78-.38-1.01-.24-.23-.52-.34-.85-.34-.37,0-.7.12-.97.35-.27.24-.44.57-.51,1h2.71Z"/>
          <path class="cls-1" d="M87.93,21.49c0-.22.11-.33.33-.33h.28c.22,0,.33.11.33.33v.58c0,.05,0,.1,0,.15s0,.09-.01.12c0,.04-.01.08-.01.11h.02c.05-.17.13-.33.23-.49s.21-.3.35-.42c.13-.12.28-.22.44-.3.16-.08.34-.11.54-.11.21,0,.32.11.32.33v.28c0,.22-.12.33-.36.33s-.46.06-.65.19c-.18.12-.34.28-.46.47-.12.19-.22.42-.28.67-.06.25-.09.5-.09.75v1.76c0,.22-.11.33-.33.33h-.31c-.22,0-.33-.11-.33-.33v-4.4Z"/>
        </g>
      </g>
      <g>
        <path class="cls-3" d="M1.77,32.01c5.65,11.73,29.85,13.24,37.68,3.98C48.2,25.65,37.09,1.24,24.06.52,11.89-.15-4.14,19.75,1.76,32.01h0Z"/>
        <g class="cls-2">
          <g class="cls-2">
            <path class="cls-1" d="M12.03,17.42c0-.14.07-.22.21-.22h.21c.14,0,.22.07.22.21l.02,1.8,2.39-.03-.02-1.8c0-.14.07-.21.21-.22h.21c.14,0,.21.07.21.21l.06,4.17c0,.14-.07.22-.21.22h-.21c-.14,0-.22-.07-.22-.21l-.02-1.8-2.39.03.02,1.8c0,.14-.07.21-.21.22h-.21c-.14,0-.22-.07-.22-.21l-.06-4.17Z"/>
          </g>
          <g class="cls-2">
            <path class="cls-1" d="M16.51,20.09c0-.26.04-.5.12-.71.08-.21.19-.4.34-.55.14-.15.32-.27.52-.35.2-.08.42-.13.65-.13.23,0,.43.03.61.11.18.08.33.18.45.32.12.14.21.3.28.49s.1.4.1.63c0,.06-.02.11-.06.16-.04.04-.09.07-.16.07l-2.2.03c.01.18.05.34.12.47.07.14.15.25.26.35.1.09.22.16.36.21.13.05.27.07.42.07.18,0,.34-.03.47-.09.13-.06.24-.12.31-.18.13-.07.23-.05.29.07l.06.1c.04.06.05.11.04.16,0,.05-.04.09-.1.13-.05.04-.11.07-.18.12-.07.04-.16.08-.25.12-.09.04-.2.07-.31.09-.11.03-.24.04-.37.04-.26,0-.5-.04-.71-.12s-.4-.21-.55-.36c-.16-.15-.28-.33-.37-.54-.09-.21-.13-.44-.14-.68ZM18.94,19.71c-.01-.29-.1-.51-.25-.65-.16-.15-.34-.22-.56-.21-.24,0-.45.08-.62.24-.17.16-.28.37-.33.65l1.76-.02Z"/>
            <path class="cls-1" d="M20.06,20.04c0-.26.03-.5.1-.71.07-.21.17-.4.3-.55.13-.15.29-.27.47-.35.18-.08.38-.13.6-.13.19,0,.35.02.48.08.13.06.23.12.32.19.1.08.17.17.23.28h.01s0-.04-.01-.07c0-.02,0-.04,0-.07,0-.02,0-.05,0-.09l-.02-1.35c0-.14.07-.22.21-.22h.2c.14,0,.22.07.22.21l.06,4.17c0,.14-.07.22-.21.22h-.17c-.14,0-.22-.06-.22-.2v-.19c0-.06,0-.1,0-.12,0-.02,0-.03,0-.05h-.01c-.06.12-.14.23-.24.32-.09.08-.2.15-.33.22-.14.07-.31.1-.51.1-.22,0-.42-.04-.6-.12s-.34-.2-.46-.35c-.13-.15-.23-.33-.3-.54-.07-.21-.11-.44-.11-.7ZM20.71,20.04c0,.18.03.34.08.48s.11.27.2.37c.08.1.18.18.3.23.11.05.24.08.38.08.12,0,.24-.03.35-.07.11-.05.21-.12.3-.21.09-.1.15-.22.21-.37.05-.15.08-.33.07-.54,0-.15-.02-.29-.06-.43-.04-.14-.1-.26-.18-.37-.08-.11-.18-.19-.3-.26-.12-.06-.25-.1-.41-.09-.13,0-.25.03-.36.08-.11.05-.21.13-.3.23s-.15.22-.2.37-.07.31-.07.5Z"/>
            <path class="cls-1" d="M23.91,19.99c0-.26.04-.5.12-.71.08-.21.19-.4.34-.55.14-.15.32-.27.52-.35.2-.09.42-.13.65-.13.23,0,.43.03.61.11.18.08.33.18.45.32.12.14.21.3.28.49.07.19.1.4.1.63,0,.06-.02.11-.06.16-.04.04-.09.07-.16.07l-2.2.03c.01.18.05.34.12.47.07.14.15.25.26.35.1.09.22.16.36.21.13.05.27.07.42.07.18,0,.34-.03.47-.09.13-.06.24-.12.31-.18.13-.07.23-.05.29.07l.06.1c.04.06.05.11.04.16,0,.05-.04.09-.1.13-.05.04-.11.07-.18.12-.07.04-.16.08-.25.12-.09.04-.2.07-.31.09s-.24.04-.37.04c-.26,0-.5-.04-.71-.12s-.4-.2-.55-.36c-.16-.15-.28-.33-.37-.54-.09-.21-.13-.44-.14-.68ZM26.34,19.61c-.01-.29-.1-.51-.25-.65-.16-.14-.34-.22-.56-.21-.24,0-.45.08-.62.24-.17.16-.28.37-.33.65l1.76-.02Z"/>
            <path class="cls-1" d="M27.65,18.51c0-.14.07-.22.21-.22h.18c.14,0,.22.07.22.21v.29s0,.09,0,.13c0,.02,0,.04,0,.06h.01c.03-.07.08-.15.14-.24.07-.09.15-.18.25-.26.1-.08.22-.15.36-.2s.3-.09.48-.09c.39,0,.68.1.86.3.18.21.28.52.28.94l.02,1.89c0,.14-.07.22-.21.22h-.2c-.14,0-.22-.07-.22-.21l-.02-1.75c0-.12-.01-.23-.03-.33-.02-.1-.05-.19-.09-.26-.04-.07-.11-.13-.19-.17-.08-.04-.19-.06-.32-.06-.16,0-.31.04-.44.1-.13.06-.25.15-.34.26-.1.11-.17.24-.22.39-.05.15-.08.31-.07.48l.02,1.36c0,.14-.07.22-.21.22h-.2c-.14,0-.22-.07-.22-.21l-.04-2.86Z"/>
          </g>
          <g class="cls-2">
            <path class="cls-1" d="M12.03,30.59c0-.36.06-.67.2-.93.14-.27.32-.5.53-.71.22-.21.45-.4.7-.58.25-.17.49-.35.7-.52s.4-.35.54-.53c.14-.18.21-.39.21-.63,0-.3-.11-.54-.31-.72s-.46-.27-.78-.26c-.14,0-.26.02-.37.06-.11.04-.21.09-.3.14-.09.06-.16.12-.23.18-.06.07-.12.12-.15.18-.06.06-.13.1-.19.12-.06.02-.13,0-.21-.06l-.15-.12c-.15-.11-.18-.24-.08-.38.06-.08.13-.17.23-.28.1-.11.22-.21.36-.3.14-.1.31-.18.5-.24.19-.06.41-.1.65-.1.27,0,.53.03.76.11.23.08.44.19.61.34s.31.33.4.54c.1.21.15.45.15.71,0,.33-.06.62-.2.86-.14.25-.31.47-.52.67-.21.2-.44.38-.69.54-.25.16-.48.33-.69.49-.21.16-.39.34-.53.52-.14.18-.22.38-.22.61l2.71-.04c.19,0,.28.09.28.28v.17c0,.19-.09.28-.27.29l-3.34.04c-.09,0-.16-.02-.21-.07-.06-.04-.09-.11-.09-.21v-.18Z"/>
            <path class="cls-1" d="M19.03,31.06c-.4,0-.74-.07-1.01-.23-.27-.16-.49-.38-.66-.65-.17-.28-.29-.61-.37-.98-.08-.38-.12-.78-.12-1.22,0-.43.02-.83.09-1.21.07-.38.18-.71.34-.99.16-.28.38-.5.65-.67.27-.17.6-.25,1-.26.4,0,.74.07,1.02.23.27.16.5.37.66.65.17.28.29.6.37.98.08.38.12.78.12,1.21,0,.44-.02.84-.09,1.22-.07.38-.18.71-.34.99-.16.28-.38.51-.65.67-.27.17-.61.25-1.01.26ZM19.02,30.29c.24,0,.45-.07.61-.19s.29-.29.38-.5c.09-.21.15-.46.19-.74.04-.28.05-.59.05-.92,0-.32-.03-.63-.07-.91-.04-.28-.11-.53-.21-.74-.1-.21-.23-.37-.39-.49s-.37-.17-.62-.17c-.24,0-.45.07-.61.19s-.29.29-.38.5c-.09.21-.16.46-.19.74-.04.28-.05.59-.05.91,0,.33.03.63.07.92s.11.53.21.74c.1.21.23.37.39.49s.37.18.61.18Z"/>
          </g>
          <g class="cls-2">
            <path class="cls-1" d="M22.08,30.46c0-.36.06-.67.2-.93.14-.27.32-.5.53-.71.22-.21.45-.4.7-.58.25-.17.49-.35.7-.52s.4-.35.54-.53c.14-.18.21-.39.21-.63,0-.3-.11-.54-.31-.72s-.46-.27-.78-.26c-.14,0-.26.02-.37.06-.11.04-.21.09-.3.14-.09.06-.16.12-.23.18-.06.07-.12.12-.15.18-.06.06-.13.1-.19.12-.06.02-.13,0-.21-.06l-.15-.12c-.15-.11-.18-.24-.08-.38.06-.08.13-.17.23-.28.1-.11.22-.21.36-.3.14-.1.31-.18.5-.24.19-.06.41-.1.65-.1.27,0,.53.03.76.11.23.08.44.19.61.34s.31.33.4.54c.1.21.15.45.15.71,0,.33-.06.62-.2.86-.14.25-.31.47-.52.67-.21.2-.44.38-.69.54-.25.16-.48.33-.69.49-.21.16-.39.34-.53.52-.14.18-.22.38-.22.61l2.71-.04c.19,0,.28.09.28.28v.17c0,.19-.09.28-.27.29l-3.34.04c-.09,0-.16-.02-.21-.07-.06-.04-.09-.11-.09-.21v-.18Z"/>
          </g>
          <g class="cls-2">
            <path class="cls-1" d="M26.78,29.25c-.19,0-.28-.09-.28-.28v-.05c0-.07,0-.14.02-.19.02-.05.04-.1.08-.16l2.51-3.57c.08-.12.19-.18.33-.18h.47c.19,0,.28.08.28.27l.04,3.4h.54c.19,0,.28.08.29.27v.15c0,.19-.07.28-.23.28h-.58s.02,1.33.02,1.33c0,.19-.09.28-.28.28h-.27c-.19,0-.28-.09-.28-.27l-.02-1.33-2.63.04ZM29.4,28.5l-.03-2.19c0-.07,0-.14,0-.21s0-.13.01-.19c0-.06.01-.13.02-.2h-.02c-.03.06-.06.12-.09.17-.03.04-.06.1-.09.16-.03.06-.07.12-.11.17l-1.67,2.29v.02l1.97-.03Z"/>
          </g>
        </g>
      </g>
    </g>
  </g>
</svg>