<?xml version="1.0" encoding="UTF-8"?>
<svg id="Layer_2" data-name="Layer 2" xmlns="http://www.w3.org/2000/svg" viewBox="0 0 239.74 43.06">
  <defs>
    <style>
      .cls-1 {
        fill: #662d91;
      }

      .cls-2 {
        isolation: isolate;
      }

      .cls-3 {
        fill: #fff;
        stroke: #662d91;
        stroke-miterlimit: 10;
      }
    </style>
  </defs>
  <g id="_2023" data-name="2023">
    <g>
      <g class="cls-2">
        <g class="cls-2">
          <path class="cls-1" d="M54.6,11.85c-.05-.04-.1-.08-.14-.13-.04-.05-.07-.11-.08-.17-.02-.06-.02-.13,0-.21s.06-.16.12-.25l.31-.45c.1-.15.21-.23.33-.25s.26.02.43.12c.06.03.13.07.22.12.08.05.18.09.29.14.11.05.23.09.36.12s.28.05.43.05c.26,0,.45-.05.57-.14.12-.1.19-.21.19-.36,0-.17-.08-.31-.23-.42-.16-.12-.35-.23-.58-.33s-.49-.21-.76-.33c-.27-.12-.53-.26-.76-.43-.23-.17-.43-.38-.58-.63s-.23-.56-.23-.94c0-.33.06-.62.19-.89.13-.27.31-.5.54-.7.23-.19.5-.34.81-.45.31-.1.65-.15,1.01-.15.42,0,.8.06,1.15.17.35.12.61.23.78.35.15.11.23.22.25.35.02.12,0,.26-.08.4l-.24.47c-.1.19-.21.29-.34.29-.13,0-.27-.03-.41-.11-.17-.08-.34-.16-.51-.22-.18-.07-.38-.11-.62-.11-.28,0-.48.05-.6.15-.12.1-.18.21-.18.35,0,.17.08.32.23.43.16.11.35.22.58.32.23.1.49.21.76.32.27.11.53.25.76.42s.43.38.58.63.23.56.23.93c0,.3-.05.58-.17.86-.11.27-.27.51-.48.71s-.48.37-.79.49c-.31.12-.67.18-1.07.18-.25,0-.5-.02-.73-.07s-.44-.1-.64-.17-.37-.15-.53-.23c-.16-.08-.28-.16-.38-.23Z"/>
          <path class="cls-1" d="M61.94,6.79h-1.62c-.37,0-.55-.18-.55-.55v-.4c0-.37.18-.55.55-.55h4.99c.37,0,.55.18.55.55v.4c0,.37-.18.55-.55.55h-1.62v5.1c0,.37-.18.55-.55.55h-.65c-.37,0-.55-.18-.55-.55v-5.1Z"/>
          <path class="cls-1" d="M66.61,5.84c0-.37.18-.55.55-.55h.65c.37,0,.55.18.55.55v6.05c0,.37-.18.55-.55.55h-.65c-.37,0-.55-.18-.55-.55v-6.05Z"/>
          <path class="cls-1" d="M69.37,8.85c0-.52.09-1,.28-1.45.18-.45.44-.83.77-1.17.33-.33.72-.59,1.18-.78.46-.19.97-.28,1.52-.28.27,0,.53.02.76.06.23.04.45.1.64.17.19.07.36.14.51.22s.27.16.38.23c.14.1.22.21.24.34.02.13-.02.27-.12.42l-.25.41c-.09.15-.2.24-.33.26-.13.02-.27-.02-.42-.11-.17-.09-.36-.18-.59-.27-.23-.09-.47-.13-.74-.13-.36,0-.67.06-.92.17-.25.12-.46.27-.62.46-.16.19-.28.41-.36.65s-.12.5-.12.75.04.53.12.79.2.49.37.69c.17.2.38.37.63.49s.55.18.9.18c.3,0,.58-.05.83-.16.25-.11.46-.23.63-.35.31-.22.57-.19.77.1l.28.39c.09.14.13.28.12.41-.01.13-.08.25-.22.36-.11.09-.25.18-.41.28-.16.1-.35.19-.56.28s-.44.15-.7.21c-.26.06-.53.08-.83.08-.57,0-1.09-.09-1.55-.28s-.86-.45-1.19-.78c-.33-.33-.58-.72-.75-1.17s-.26-.94-.26-1.47Z"/>
          <path class="cls-1" d="M76.73,5.84c0-.37.18-.55.55-.55h.65c.37,0,.55.18.55.55v2.31h2.6v-2.31c0-.37.18-.55.55-.55h.65c.37,0,.55.18.55.55v6.05c0,.37-.18.55-.55.55h-.65c-.37,0-.55-.18-.55-.55v-2.25h-2.6v2.25c0,.37-.18.55-.55.55h-.65c-.37,0-.55-.18-.55-.55v-6.05Z"/>
          <path class="cls-1" d="M85.75,6.79h-1.62c-.37,0-.55-.18-.55-.55v-.4c0-.37.18-.55.55-.55h4.99c.37,0,.55.18.55.55v.4c0,.37-.18.55-.55.55h-1.62v5.1c0,.37-.18.55-.55.55h-.65c-.37,0-.55-.18-.55-.55v-5.1Z"/>
          <path class="cls-1" d="M90.42,5.84c0-.37.18-.55.55-.55h.65c.37,0,.55.18.55.55v6.05c0,.37-.18.55-.55.55h-.65c-.37,0-.55-.18-.55-.55v-6.05Z"/>
          <path class="cls-1" d="M93.55,5.84c0-.37.18-.55.55-.55h.78c.3,0,.52.12.66.37l1.76,2.97c.07.12.14.25.21.39s.13.27.19.4c.07.15.13.29.2.43h.02c-.01-.15-.03-.29-.04-.44-.01-.13-.02-.26-.03-.4,0-.14,0-.27,0-.38v-2.79c0-.37.18-.55.55-.55h.65c.37,0,.55.18.55.55v6.05c0,.37-.18.55-.55.55h-.78c-.29,0-.51-.12-.65-.37l-1.77-2.96c-.07-.11-.15-.24-.22-.38-.07-.14-.14-.28-.19-.41-.07-.15-.14-.29-.19-.43h-.02c.01.15.03.29.04.44.01.13.02.26.03.4,0,.14,0,.27,0,.38v2.78c0,.37-.18.55-.55.55h-.65c-.37,0-.55-.18-.55-.55v-6.05Z"/>
          <path class="cls-1" d="M100.6,8.91c0-.55.09-1.05.28-1.5.19-.46.45-.85.78-1.18.33-.33.73-.59,1.19-.78s.96-.28,1.51-.28c.29,0,.55.02.8.07.25.05.48.1.68.17.2.06.37.13.51.21s.25.14.33.19c.15.11.24.23.25.35s-.02.26-.12.41l-.26.41c-.09.15-.2.24-.33.25s-.27-.02-.43-.11c-.17-.09-.35-.17-.56-.24-.2-.07-.46-.11-.77-.11-.36,0-.67.05-.92.17-.26.11-.47.26-.64.45-.17.19-.29.41-.38.65-.08.25-.12.5-.12.77,0,.33.06.63.17.89.11.26.26.49.44.68s.4.33.64.43c.25.1.51.15.78.15.25,0,.47-.03.66-.09.19-.06.34-.13.46-.2.14-.08.26-.18.35-.29v-.49h-.46c-.37,0-.55-.18-.55-.55v-.39c0-.37.18-.55.55-.55h1.46c.37,0,.55.18.55.55v2.94c0,.37-.18.55-.55.55h-.33c-.18,0-.32-.04-.41-.12-.09-.08-.14-.18-.14-.3v-.09s0-.02,0-.03h-.02c-.13.13-.28.24-.47.34-.16.09-.36.16-.6.23-.24.07-.51.1-.83.1-.46,0-.9-.08-1.32-.25-.42-.17-.8-.41-1.12-.73-.33-.31-.59-.7-.78-1.15s-.29-.96-.29-1.52Z"/>
          <path class="cls-1" d="M111.06,5.84c0-.37.18-.55.55-.55h.65c.37,0,.55.18.55.55v2.21h.72l1.27-2.37c.15-.26.36-.39.65-.39h.68c.22,0,.37.06.44.19s.06.28-.05.47l-1.56,2.76v.02l1.68,3.05c.11.19.12.35.05.48-.07.12-.22.18-.44.18h-.77c-.29,0-.5-.13-.65-.39l-1.3-2.51h-.72v2.35c0,.37-.18.55-.55.55h-.65c-.37,0-.55-.18-.55-.55v-6.05Z"/>
          <path class="cls-1" d="M117.07,8.82c0-.51.09-.99.27-1.43.18-.44.44-.83.77-1.16s.72-.59,1.18-.78.97-.28,1.52-.28,1.06.09,1.52.28.86.45,1.19.78.58.72.76,1.16.27.92.27,1.43-.09,1.02-.27,1.47c-.18.45-.43.85-.76,1.19s-.73.6-1.19.79-.97.29-1.52.29-1.06-.1-1.52-.29-.85-.46-1.18-.79-.58-.73-.77-1.19c-.18-.45-.27-.94-.27-1.47ZM118.88,8.82c0,.31.05.59.15.85.1.26.23.48.4.67.17.19.37.34.61.45.24.11.5.16.78.16s.54-.05.77-.16c.24-.11.44-.26.61-.45.17-.19.3-.42.4-.67.1-.26.14-.54.14-.85s-.05-.56-.14-.81c-.1-.25-.23-.47-.4-.65s-.37-.33-.61-.43c-.24-.1-.5-.16-.77-.16s-.54.05-.78.16-.44.25-.61.43c-.17.18-.3.4-.4.65s-.15.52-.15.81Z"/>
          <path class="cls-1" d="M125.56,5.84c0-.37.18-.55.55-.55h.78c.3,0,.52.12.66.37l1.76,2.97c.07.12.14.25.21.39s.13.27.19.4c.07.15.13.29.2.43h.02c-.01-.15-.03-.29-.04-.44-.01-.13-.02-.26-.03-.4,0-.14,0-.27,0-.38v-2.79c0-.37.18-.55.55-.55h.65c.37,0,.55.18.55.55v6.05c0,.37-.18.55-.55.55h-.78c-.29,0-.51-.12-.65-.37l-1.77-2.96c-.07-.11-.15-.24-.22-.38-.07-.14-.14-.28-.19-.41-.07-.15-.14-.29-.19-.43h-.02c.01.15.03.29.04.44.01.13.02.26.03.4,0,.14,0,.27,0,.38v2.78c0,.37-.18.55-.55.55h-.65c-.37,0-.55-.18-.55-.55v-6.05Z"/>
          <path class="cls-1" d="M132.98,5.84c0-.37.18-.55.55-.55h.65c.37,0,.55.18.55.55v6.05c0,.37-.18.55-.55.55h-.65c-.37,0-.55-.18-.55-.55v-6.05Z"/>
          <path class="cls-1" d="M136.11,5.84c0-.37.18-.55.55-.55h.78c.3,0,.52.12.66.37l1.76,2.97c.07.12.14.25.21.39.07.14.13.27.19.4.07.15.13.29.2.43h.02c-.01-.15-.03-.29-.04-.44-.01-.13-.02-.26-.03-.4,0-.14-.01-.27-.01-.38v-2.79c0-.37.18-.55.55-.55h.65c.37,0,.55.18.55.55v6.05c0,.37-.18.55-.55.55h-.78c-.29,0-.51-.12-.65-.37l-1.77-2.96c-.07-.11-.15-.24-.22-.38s-.14-.28-.19-.41c-.07-.15-.14-.29-.19-.43h-.02c.01.15.03.29.04.44.01.13.02.26.03.4s0,.27,0,.38v2.78c0,.37-.18.55-.55.55h-.65c-.37,0-.55-.18-.55-.55v-6.05Z"/>
          <path class="cls-1" d="M143.53,5.84c0-.37.18-.55.55-.55h.65c.37,0,.55.18.55.55v2.21h.72l1.27-2.37c.15-.26.36-.39.65-.39h.68c.22,0,.37.06.44.19.07.12.06.28-.05.47l-1.56,2.76v.02l1.68,3.05c.11.19.12.35.05.48-.07.12-.22.18-.44.18h-.77c-.29,0-.5-.13-.65-.39l-1.3-2.51h-.72v2.35c0,.37-.18.55-.55.55h-.65c-.37,0-.55-.18-.55-.55v-6.05Z"/>
          <path class="cls-1" d="M150.11,5.84c0-.37.18-.55.55-.55h.65c.37,0,.55.18.55.55v5.1h2.37c.37,0,.55.18.55.55v.4c0,.37-.18.55-.55.55h-3.57c-.37,0-.55-.18-.55-.55v-6.05Z"/>
          <path class="cls-1" d="M155.5,5.84c0-.37.18-.55.55-.55h.65c.37,0,.55.18.55.55v6.05c0,.37-.18.55-.55.55h-.65c-.37,0-.55-.18-.55-.55v-6.05Z"/>
          <path class="cls-1" d="M158.07,10.27c0-.37.18-.55.55-.55h.67c.18,0,.31.04.38.12.08.08.12.21.15.39.02.19.08.35.18.5.1.15.26.22.47.22.19,0,.35-.06.47-.18.12-.12.17-.32.17-.58v-3.41h-1.37c-.37,0-.55-.18-.55-.55v-.4c0-.37.18-.55.55-.55h2.57c.37,0,.55.18.55.55v4.4c0,.39-.07.74-.21,1.03s-.32.53-.54.72-.48.34-.77.43c-.28.09-.57.14-.88.14s-.59-.05-.88-.15c-.29-.1-.55-.24-.77-.43-.22-.19-.4-.43-.54-.72-.14-.29-.21-.62-.21-.99Z"/>
          <path class="cls-1" d="M164.18,5.84c0-.37.18-.55.55-.55h.65c.37,0,.55.18.55.55v2.21h.72l1.27-2.37c.15-.26.36-.39.65-.39h.68c.22,0,.37.06.44.19s.06.28-.05.47l-1.56,2.76v.02l1.68,3.05c.11.19.12.35.05.48-.07.12-.22.18-.44.18h-.77c-.29,0-.5-.13-.65-.39l-1.3-2.51h-.72v2.35c0,.37-.18.55-.55.55h-.65c-.37,0-.55-.18-.55-.55v-6.05Z"/>
          <path class="cls-1" d="M170.76,5.84c0-.37.18-.55.55-.55h3.38c.37,0,.55.18.55.55v.4c0,.37-.18.55-.55.55h-2.18v1.3h1.63c.37,0,.55.18.55.55v.4c0,.37-.18.55-.55.55h-1.63v1.35h2.32c.37,0,.55.18.55.55v.4c0,.37-.18.55-.55.55h-3.52c-.37,0-.55-.18-.55-.55v-6.05Z"/>
        </g>
        <g class="cls-2">
          <path class="cls-1" d="M54.73,18.84c0-.37.18-.55.55-.55h1.94c.37,0,.65.01.85.04.2.03.38.07.53.13.41.15.73.41.97.77.24.36.35.79.35,1.31,0,.19-.02.39-.06.58-.04.19-.11.37-.2.55-.09.18-.2.34-.33.48s-.29.26-.47.34v.02s.04.06.07.1c.03.03.05.08.08.13.03.06.07.12.11.2l1.02,1.84c.11.19.13.35.06.48-.08.12-.22.18-.44.18h-.76c-.29,0-.5-.13-.65-.39l-1.06-2.02h-.82v1.86c0,.37-.18.55-.55.55h-.65c-.37,0-.55-.18-.55-.55v-6.05ZM57.24,21.53c.28,0,.5-.08.67-.22.16-.15.24-.37.24-.66,0-.18-.03-.33-.08-.46s-.17-.23-.33-.29c-.15-.07-.37-.1-.66-.1h-.59v1.74h.76Z"/>
          <path class="cls-1" d="M60.69,21.82c0-.51.09-.99.27-1.43.18-.44.44-.83.77-1.16s.73-.59,1.19-.78.97-.28,1.52-.28,1.06.09,1.52.28.85.45,1.19.78.58.72.76,1.16c.18.44.27.92.27,1.43s-.09,1.02-.27,1.47c-.18.45-.43.85-.76,1.19s-.73.6-1.19.79-.97.29-1.52.29-1.06-.1-1.52-.29-.85-.46-1.19-.79-.58-.73-.77-1.19c-.18-.45-.27-.94-.27-1.47ZM62.5,21.82c0,.31.05.59.15.85.1.26.23.48.4.67.17.19.37.34.61.45.24.11.49.16.77.16s.54-.05.77-.16c.24-.11.44-.26.61-.45.17-.19.3-.42.4-.67.1-.26.15-.54.15-.85s-.05-.56-.15-.81c-.1-.25-.23-.47-.4-.65-.17-.18-.37-.33-.61-.43s-.5-.16-.77-.16-.54.05-.77.16c-.24.1-.44.25-.61.43-.17.18-.3.4-.4.65s-.15.52-.15.81Z"/>
          <path class="cls-1" d="M70.5,19.79h-1.62c-.37,0-.55-.18-.55-.55v-.4c0-.37.18-.55.55-.55h4.99c.37,0,.55.18.55.55v.4c0,.37-.18.55-.55.55h-1.62v5.1c0,.37-.18.55-.55.55h-.65c-.37,0-.55-.18-.55-.55v-5.1Z"/>
          <path class="cls-1" d="M76.71,19.79h-1.62c-.37,0-.55-.18-.55-.55v-.4c0-.37.18-.55.55-.55h4.99c.37,0,.55.18.55.55v.4c0,.37-.18.55-.55.55h-1.62v5.1c0,.37-.18.55-.55.55h-.65c-.37,0-.55-.18-.55-.55v-5.1Z"/>
          <path class="cls-1" d="M81.38,18.84c0-.37.18-.55.55-.55h3.38c.37,0,.55.18.55.55v.4c0,.37-.18.55-.55.55h-2.18v1.3h1.63c.37,0,.55.18.55.55v.4c0,.37-.18.55-.55.55h-1.63v1.35h2.32c.37,0,.55.18.55.55v.4c0,.37-.18.55-.55.55h-3.52c-.37,0-.55-.18-.55-.55v-6.05Z"/>
          <path class="cls-1" d="M86.98,18.84c0-.37.18-.55.55-.55h1.94c.37,0,.65.01.85.04.2.03.38.07.54.13.41.15.73.41.96.77s.36.79.36,1.31c0,.19-.02.39-.07.58-.04.19-.11.37-.2.55-.09.18-.2.34-.33.48-.13.14-.29.26-.47.34v.02s.04.06.07.1c.03.03.05.08.08.13.03.06.07.12.11.2l1.02,1.84c.11.19.13.35.05.48-.08.12-.22.18-.43.18h-.76c-.29,0-.5-.13-.65-.39l-1.06-2.02h-.82v1.86c0,.37-.18.55-.55.55h-.65c-.37,0-.55-.18-.55-.55v-6.05ZM89.49,21.53c.28,0,.5-.08.67-.22.16-.15.25-.37.25-.66,0-.18-.03-.33-.08-.46s-.17-.23-.33-.29c-.15-.07-.37-.1-.66-.1h-.59v1.74h.76Z"/>
          <path class="cls-1" d="M93.38,18.84c0-.37.18-.55.55-.55h1.99c.56,0,1.07.08,1.53.24.46.16.84.39,1.17.7s.57.68.74,1.12c.17.44.26.94.26,1.5s-.09,1.06-.26,1.51c-.17.45-.42.82-.74,1.13s-.71.54-1.17.71c-.46.16-.96.25-1.53.25h-1.99c-.37,0-.55-.18-.55-.55v-6.05ZM95.85,23.94c.61,0,1.08-.18,1.43-.53.35-.35.52-.87.52-1.56s-.18-1.2-.53-1.54c-.35-.34-.83-.52-1.42-.52h-.72v4.15h.72Z"/>
          <path class="cls-1" d="M102.01,18.74c.1-.3.31-.45.62-.45h.9c.31,0,.52.15.62.45l2.07,6.07c.07.19.06.35-.03.46s-.22.17-.42.17h-.66c-.31,0-.52-.15-.62-.46l-.3-1.04h-2.23l-.3,1.04c-.09.31-.29.46-.61.46h-.66c-.2,0-.34-.06-.43-.17-.08-.11-.09-.27-.02-.46l2.07-6.07ZM103.78,22.54l-.4-1.39c-.03-.11-.06-.24-.09-.38s-.06-.27-.09-.4c-.03-.15-.07-.3-.1-.45h-.02c-.03.15-.07.3-.1.45-.03.13-.07.26-.1.4-.03.14-.06.27-.09.38l-.41,1.39h1.41Z"/>
          <path class="cls-1" d="M107.33,18.82c.03-.35.22-.53.57-.53h.9c.31,0,.52.15.62.45l.89,2.57c.04.11.08.24.12.38.04.14.08.26.12.38.04.14.08.28.12.42h.02c.04-.14.08-.28.12-.42.03-.12.07-.25.12-.38.04-.14.08-.26.12-.38l.89-2.57c.1-.3.31-.45.62-.45h.9c.35,0,.54.18.57.53l.49,6.05c.01.18-.03.32-.12.42-.09.1-.22.15-.41.15h-.65c-.35,0-.54-.18-.57-.53l-.18-2.69c-.01-.13-.02-.27-.03-.42,0-.14,0-.27,0-.38,0-.13,0-.27.02-.4h-.02c-.05.15-.09.29-.14.43-.04.12-.08.25-.13.39-.05.14-.09.27-.13.38l-.59,1.63c-.11.29-.32.44-.63.44h-.56c-.31,0-.52-.15-.63-.44l-.59-1.63c-.04-.11-.08-.24-.13-.38-.05-.14-.09-.27-.13-.39-.05-.14-.09-.28-.14-.43h-.02c0,.13,0,.27,0,.4,0,.11,0,.24,0,.38,0,.14,0,.28-.01.42l-.18,2.69c-.03.35-.22.53-.57.53h-.66c-.18,0-.32-.05-.41-.15-.09-.1-.13-.24-.12-.42l.5-6.05Z"/>
          <path class="cls-1" d="M115.56,24.85c-.05-.04-.1-.08-.14-.13-.04-.05-.07-.11-.08-.17-.02-.06-.02-.13,0-.21s.06-.16.12-.25l.31-.45c.1-.15.21-.23.33-.25s.26.02.43.12c.06.03.13.07.21.12.08.05.18.09.29.14s.23.09.37.12c.13.03.28.05.43.05.26,0,.45-.05.58-.14s.18-.21.18-.36c0-.17-.08-.31-.23-.42-.16-.12-.35-.23-.58-.33s-.49-.21-.76-.33c-.27-.12-.53-.26-.76-.43-.23-.17-.43-.38-.58-.63-.16-.25-.23-.56-.23-.94,0-.33.06-.62.19-.89.13-.27.31-.5.54-.7s.5-.34.81-.45c.31-.1.65-.15,1.01-.15.42,0,.8.06,1.15.17.35.12.61.23.78.35.15.11.23.22.25.35.02.12,0,.26-.08.4l-.24.47c-.1.19-.21.29-.34.29-.13,0-.26-.03-.41-.11-.17-.08-.34-.16-.51-.22-.18-.07-.38-.11-.62-.11-.28,0-.48.05-.6.15s-.18.21-.18.35c0,.17.08.32.23.43.16.11.35.22.58.32.23.1.49.21.76.32.27.11.53.25.76.42s.43.38.58.63c.16.25.23.56.23.93,0,.3-.05.58-.17.86-.11.27-.27.51-.48.71-.21.2-.48.37-.79.49-.31.12-.67.18-1.07.18-.25,0-.5-.02-.72-.07-.23-.05-.44-.1-.64-.17-.2-.07-.37-.15-.53-.23-.16-.08-.28-.16-.38-.23Z"/>
          <path class="cls-1" d="M121.36,18.84c0-.37.18-.55.55-.55h3.38c.37,0,.55.18.55.55v.4c0,.37-.18.55-.55.55h-2.18v1.3h1.63c.37,0,.55.18.55.55v.4c0,.37-.18.55-.55.55h-1.63v1.35h2.32c.37,0,.55.18.55.55v.4c0,.37-.18.55-.55.55h-3.52c-.37,0-.55-.18-.55-.55v-6.05Z"/>
          <path class="cls-1" d="M129.46,18.84c0-.37.18-.55.55-.55h1.99c.56,0,1.07.08,1.52.24.46.16.85.39,1.17.7.32.3.57.68.74,1.12s.26.94.26,1.5-.09,1.06-.26,1.51c-.17.45-.42.82-.74,1.13-.32.31-.71.54-1.17.71-.46.16-.96.25-1.52.25h-1.99c-.37,0-.55-.18-.55-.55v-6.05ZM131.93,23.94c.61,0,1.08-.18,1.43-.53.35-.35.52-.87.52-1.56s-.18-1.2-.53-1.54c-.35-.34-.83-.52-1.42-.52h-.72v4.15h.72Z"/>
          <path class="cls-1" d="M136.72,18.84c0-.37.18-.55.55-.55h.65c.37,0,.55.18.55.55v6.05c0,.37-.18.55-.55.55h-.65c-.37,0-.55-.18-.55-.55v-6.05Z"/>
          <path class="cls-1" d="M139.85,18.84c0-.37.18-.55.55-.55h3.38c.37,0,.55.18.55.55v.4c0,.37-.18.55-.55.55h-2.18v1.3h1.63c.37,0,.55.18.55.55v.4c0,.37-.18.55-.55.55h-1.63v1.35h2.32c.37,0,.55.18.55.55v.4c0,.37-.18.55-.55.55h-3.52c-.37,0-.55-.18-.55-.55v-6.05Z"/>
          <path class="cls-1" d="M145.45,18.84c0-.37.18-.55.55-.55h1.94c.37,0,.65.01.86.04.2.03.38.07.53.13.41.15.73.41.97.77.24.36.35.79.35,1.31,0,.19-.02.39-.06.58-.04.19-.11.37-.2.55-.09.18-.2.34-.33.48-.13.14-.29.26-.47.34v.02s.04.06.07.1c.03.03.05.08.08.13s.07.12.12.2l1.02,1.84c.11.19.13.35.06.48-.08.12-.22.18-.44.18h-.76c-.29,0-.5-.13-.65-.39l-1.06-2.02h-.82v1.86c0,.37-.18.55-.55.55h-.65c-.37,0-.55-.18-.55-.55v-6.05ZM147.96,21.53c.28,0,.5-.08.67-.22.16-.15.24-.37.24-.66,0-.18-.03-.33-.08-.46s-.17-.23-.33-.29c-.15-.07-.37-.1-.66-.1h-.59v1.74h.76Z"/>
          <path class="cls-1" d="M151.41,21.91c0-.55.09-1.05.28-1.5.19-.46.45-.85.78-1.18.33-.33.73-.59,1.19-.78s.96-.28,1.51-.28c.29,0,.55.02.8.07.25.05.48.1.68.17.2.06.37.13.51.21s.25.14.33.19c.15.11.24.23.25.35s-.02.26-.12.41l-.26.41c-.09.15-.2.24-.33.25s-.27-.02-.43-.11c-.17-.09-.35-.17-.56-.24-.2-.07-.46-.11-.77-.11-.36,0-.67.05-.92.17-.26.11-.47.26-.64.45-.17.19-.29.41-.38.65-.08.25-.12.5-.12.77,0,.33.06.63.17.89.11.26.26.49.44.68s.4.33.64.43c.25.1.51.15.78.15.25,0,.47-.03.66-.09.19-.06.34-.13.46-.2.14-.08.26-.18.35-.29v-.49h-.46c-.37,0-.55-.18-.55-.55v-.39c0-.37.18-.55.55-.55h1.46c.37,0,.55.18.55.55v2.94c0,.37-.18.55-.55.55h-.33c-.18,0-.32-.04-.41-.12-.09-.08-.14-.18-.14-.3v-.09s0-.02,0-.03h-.02c-.13.13-.28.24-.47.34-.16.09-.36.16-.6.23-.24.07-.51.1-.83.1-.46,0-.9-.08-1.32-.25-.42-.17-.8-.41-1.12-.73-.33-.31-.59-.7-.78-1.15s-.29-.96-.29-1.52Z"/>
          <path class="cls-1" d="M160.88,18.74c.1-.3.31-.45.62-.45h.9c.31,0,.52.15.62.45l2.07,6.07c.07.19.06.35-.03.46-.08.11-.22.17-.42.17h-.66c-.31,0-.52-.15-.62-.46l-.3-1.04h-2.23l-.3,1.04c-.09.31-.29.46-.61.46h-.66c-.2,0-.34-.06-.42-.17s-.09-.27-.03-.46l2.07-6.07ZM162.65,22.54l-.4-1.39c-.03-.11-.07-.24-.09-.38-.03-.14-.06-.27-.1-.4-.03-.15-.07-.3-.1-.45h-.02c-.03.15-.07.3-.1.45-.03.13-.06.26-.09.4s-.06.27-.09.38l-.41,1.39h1.41Z"/>
          <path class="cls-1" d="M167.42,18.74c.1-.3.31-.45.62-.45h.9c.31,0,.52.15.62.45l2.07,6.07c.07.19.06.35-.03.46s-.22.17-.42.17h-.66c-.31,0-.52-.15-.62-.46l-.3-1.04h-2.23l-.3,1.04c-.09.31-.29.46-.61.46h-.66c-.2,0-.34-.06-.43-.17-.08-.11-.09-.27-.02-.46l2.07-6.07ZM169.19,22.54l-.4-1.39c-.03-.11-.06-.24-.09-.38s-.06-.27-.09-.4c-.03-.15-.07-.3-.1-.45h-.02c-.03.15-.07.3-.1.45-.03.13-.07.26-.1.4-.03.14-.06.27-.09.38l-.41,1.39h1.41Z"/>
          <path class="cls-1" d="M172.45,18.84c0-.37.18-.55.55-.55h1.94c.37,0,.65.01.86.04.2.03.38.07.53.13.41.15.73.41.97.77.24.36.35.79.35,1.31,0,.19-.02.39-.06.58-.04.19-.11.37-.2.55-.09.18-.2.34-.33.48-.13.14-.29.26-.47.34v.02s.04.06.07.1c.03.03.05.08.08.13s.07.12.12.2l1.02,1.84c.11.19.13.35.06.48-.08.12-.22.18-.44.18h-.76c-.29,0-.5-.13-.65-.39l-1.06-2.02h-.82v1.86c0,.37-.18.55-.55.55h-.65c-.37,0-.55-.18-.55-.55v-6.05ZM174.96,21.53c.28,0,.5-.08.67-.22.16-.15.24-.37.24-.66,0-.18-.03-.33-.08-.46s-.17-.23-.33-.29c-.15-.07-.37-.1-.66-.1h-.59v1.74h.76Z"/>
          <path class="cls-1" d="M178.85,18.84c0-.37.18-.55.55-.55h1.99c.56,0,1.07.08,1.52.24.46.16.85.39,1.17.7.32.3.57.68.74,1.12s.26.94.26,1.5-.09,1.06-.26,1.51c-.17.45-.42.82-.74,1.13-.32.31-.71.54-1.17.71-.46.16-.96.25-1.52.25h-1.99c-.37,0-.55-.18-.55-.55v-6.05ZM181.32,23.94c.61,0,1.08-.18,1.43-.53.35-.35.52-.87.52-1.56s-.18-1.2-.53-1.54c-.35-.34-.83-.52-1.42-.52h-.72v4.15h.72Z"/>
          <path class="cls-1" d="M186.11,18.84c0-.37.18-.55.55-.55h3.38c.37,0,.55.18.55.55v.4c0,.37-.18.55-.55.55h-2.18v1.3h1.63c.37,0,.55.18.55.55v.4c0,.37-.18.55-.55.55h-1.63v1.35h2.32c.37,0,.55.18.55.55v.4c0,.37-.18.55-.55.55h-3.52c-.37,0-.55-.18-.55-.55v-6.05Z"/>
        </g>
        <g class="cls-2">
          <path class="cls-1" d="M54.5,34.93c0-.52.09-1,.27-1.46s.43-.84.75-1.17c.32-.33.7-.58,1.14-.77.44-.19.92-.28,1.44-.28.3,0,.57.02.82.07.25.05.47.11.67.18.2.07.36.14.5.21s.25.14.32.19c.17.13.19.28.07.45l-.14.21c-.11.17-.26.2-.46.09-.08-.05-.18-.1-.29-.16-.11-.06-.24-.12-.38-.17-.15-.05-.31-.09-.49-.12s-.37-.05-.58-.05c-.41,0-.77.07-1.09.21-.32.14-.6.34-.83.58-.23.24-.4.53-.52.86-.12.33-.19.69-.19,1.07,0,.4.07.77.2,1.11.13.34.31.63.54.88.23.24.5.43.81.57s.65.21,1.02.21c.33,0,.61-.05.86-.14.25-.09.46-.2.63-.31.2-.13.37-.29.52-.46v-.99h-.82c-.22,0-.33-.11-.33-.33v-.2c0-.22.11-.33.33-.33h1.39c.22,0,.33.11.33.33v2.89c0,.22-.11.33-.33.33h-.19c-.22,0-.33-.09-.33-.28v-.41s0-.05,0-.07h-.02c-.15.17-.33.31-.55.44-.19.11-.42.21-.69.31-.27.09-.58.13-.94.13-.48,0-.93-.09-1.35-.27-.42-.18-.79-.43-1.1-.75-.31-.32-.56-.7-.75-1.14-.18-.44-.27-.93-.27-1.46Z"/>
          <path class="cls-1" d="M62.25,33.71c0-.22.11-.33.33-.33h.28c.22,0,.33.11.33.33v.58c0,.05,0,.1,0,.15s0,.09-.01.12c0,.04-.01.08-.01.11h.02c.05-.17.13-.33.23-.49s.21-.3.35-.42c.13-.12.28-.22.44-.3.16-.08.34-.11.54-.11.21,0,.32.11.32.33v.28c0,.22-.12.33-.36.33s-.46.06-.65.19c-.18.12-.34.28-.46.47-.12.19-.22.42-.28.67-.06.25-.09.5-.09.75v1.76c0,.22-.11.33-.33.33h-.31c-.22,0-.33-.11-.33-.33v-4.4Z"/>
          <path class="cls-1" d="M65.35,37.06c0-.26.05-.49.15-.67.1-.19.23-.35.4-.48.17-.13.35-.23.56-.31.21-.08.43-.14.66-.18.23-.04.45-.07.67-.08.22-.01.41-.02.58-.02h.26v-.13c0-.21-.03-.38-.08-.53-.06-.14-.13-.26-.23-.34s-.22-.15-.35-.18c-.13-.04-.28-.06-.43-.06-.25,0-.48.04-.68.11s-.35.14-.46.21c-.19.09-.34.05-.45-.12l-.08-.14c-.11-.2-.07-.35.11-.45.15-.09.37-.18.65-.28.28-.1.61-.15.99-.15.63,0,1.12.17,1.47.5s.52.83.52,1.47v2.87c0,.22-.11.33-.33.33h-.25c-.22,0-.33-.11-.33-.33v-.43s0-.07.01-.1c0-.03.01-.05.02-.08h-.02c-.1.2-.23.38-.38.53-.13.13-.3.25-.51.37s-.46.17-.76.17c-.22,0-.43-.03-.64-.1-.21-.07-.39-.16-.54-.29-.16-.13-.28-.29-.38-.47-.09-.18-.14-.39-.14-.63ZM66.33,36.98c0,.2.08.38.23.55s.39.25.71.25c.21,0,.41-.05.58-.14s.31-.22.43-.38c.12-.16.21-.33.27-.52.06-.19.1-.38.1-.56v-.22h-.26c-.18,0-.39,0-.62.03-.23.02-.46.06-.67.12s-.39.17-.54.3c-.15.14-.22.33-.22.57Z"/>
          <path class="cls-1" d="M71.11,34.16h-.32c-.22,0-.33-.11-.33-.33v-.12c0-.22.11-.33.33-.33h.32v-.19c0-.4.07-.72.21-.96.14-.24.31-.43.51-.57.19-.13.39-.22.6-.26.21-.04.38-.07.51-.07h.12c.22,0,.33.11.33.33v.19c0,.11-.03.19-.09.24-.06.05-.15.08-.26.09-.09,0-.2.02-.31.04-.11.02-.21.07-.31.14s-.18.18-.24.32c-.07.14-.1.32-.1.55v.15h2.67c.22,0,.33.11.33.33v4.4c0,.22-.11.33-.33.33h-.31c-.22,0-.33-.11-.33-.33v-3.95h-2.03v3.95c0,.22-.11.33-.33.33h-.31c-.22,0-.33-.11-.33-.33v-3.95ZM74.42,32.37c-.22,0-.33-.11-.33-.33v-.33c0-.22.11-.33.33-.33h.34c.22,0,.33.11.33.33v.33c0,.22-.11.33-.33.33h-.34Z"/>
          <path class="cls-1" d="M76.28,38.01c-.09-.05-.13-.12-.14-.2,0-.08.02-.16.07-.25l.1-.14c.07-.09.14-.13.21-.14.07,0,.16.02.26.07.11.07.27.16.48.26.21.1.46.15.76.15.25,0,.46-.06.62-.18.16-.12.24-.28.24-.49,0-.17-.06-.3-.19-.4s-.29-.19-.48-.28c-.19-.08-.4-.16-.62-.24-.22-.08-.43-.18-.62-.3-.19-.12-.35-.27-.49-.45-.13-.18-.19-.41-.19-.7,0-.24.05-.45.15-.64.1-.18.23-.33.4-.45.17-.12.36-.21.58-.28.22-.06.46-.09.71-.09.35,0,.65.05.88.14.23.09.4.18.52.25.09.05.15.11.17.18.02.08,0,.16-.06.26l-.09.15c-.09.17-.24.2-.44.11-.11-.06-.25-.12-.42-.19-.17-.07-.38-.1-.62-.1s-.44.05-.6.16c-.16.11-.24.27-.24.48,0,.17.06.3.19.41s.29.2.48.28c.19.08.4.16.62.24.22.08.43.18.62.29.19.12.35.27.49.45.13.18.19.42.19.71,0,.21-.04.41-.13.59-.09.18-.21.34-.37.48-.16.13-.35.24-.58.31-.22.07-.47.11-.74.11-.21,0-.41-.02-.58-.05-.18-.04-.34-.08-.48-.14-.14-.06-.27-.12-.38-.18-.11-.06-.2-.12-.27-.17Z"/>
          <path class="cls-1" d="M80.54,35.91c0-.37.07-.72.2-1.04s.32-.6.56-.84c.24-.24.52-.42.85-.56s.69-.21,1.08-.21c.21,0,.41.02.58.05.17.04.33.08.47.13.14.05.26.11.36.17.1.06.19.12.26.18.09.05.13.12.14.2,0,.08-.02.16-.08.25l-.1.15c-.11.17-.26.19-.45.08-.11-.07-.25-.16-.44-.25s-.42-.13-.69-.13-.49.04-.71.13c-.22.09-.4.21-.56.38s-.28.35-.36.57c-.09.22-.13.46-.13.72s.04.5.13.72c.09.22.21.41.37.58.16.16.35.29.56.38.22.09.46.14.72.14.31,0,.57-.05.78-.16.22-.11.39-.21.51-.3.19-.12.34-.09.45.09l.08.15c.11.18.08.33-.09.44-.07.06-.17.12-.27.2-.11.07-.24.14-.39.2-.15.06-.32.12-.51.16-.19.04-.4.07-.62.07-.4,0-.76-.07-1.09-.2-.33-.13-.61-.32-.85-.55-.24-.24-.42-.52-.56-.84s-.2-.68-.2-1.06Z"/>
          <path class="cls-1" d="M86.19,31.71c0-.22.11-.33.33-.33h.31c.21,0,.32.11.32.33v2.29c0,.06,0,.12,0,.17,0,.05,0,.1-.01.13,0,.05,0,.09,0,.12h.02c.05-.12.13-.25.25-.39s.25-.26.41-.38c.16-.12.34-.21.55-.29.21-.07.44-.11.69-.11.6,0,1.04.16,1.32.48.28.32.42.81.42,1.46v2.91c0,.22-.11.33-.33.33h-.31c-.22,0-.33-.11-.33-.33v-2.69c0-.18-.01-.35-.04-.5s-.07-.29-.14-.4c-.07-.11-.17-.2-.29-.27-.13-.07-.29-.1-.49-.1-.24,0-.46.05-.67.14-.21.09-.38.23-.54.4s-.27.37-.36.6c-.09.23-.13.48-.13.75v2.07c0,.22-.11.33-.32.33h-.31c-.22,0-.33-.11-.33-.33v-6.4Z"/>
          <path class="cls-1" d="M94.09,33.76c-.04-.11-.04-.21,0-.28s.13-.1.25-.1h.34c.19,0,.31.09.37.27l1.14,3.15c.03.07.05.15.08.22.02.08.04.15.06.22.02.08.04.16.05.24h.02c.02-.08.04-.16.06-.24.01-.07.03-.15.05-.22.02-.08.04-.15.07-.22l1.14-3.15c.06-.18.18-.27.37-.27h.34c.12,0,.21.03.25.1s.05.16,0,.28l-1.64,4.42c-.06.17-.18.26-.37.26h-.56c-.19,0-.31-.09-.37-.26l-1.66-4.42Z"/>
          <path class="cls-1" d="M99.22,35.9c0-.38.07-.73.21-1.05s.34-.6.58-.84c.24-.24.53-.42.86-.55s.68-.19,1.06-.19.74.06,1.07.19.62.31.87.55c.25.24.44.52.58.84.14.32.21.67.21,1.05s-.07.74-.21,1.07c-.14.32-.34.6-.58.84-.25.24-.54.42-.87.55-.33.13-.68.2-1.07.2s-.73-.07-1.06-.2c-.33-.13-.62-.32-.86-.55s-.44-.52-.58-.84-.21-.68-.21-1.07ZM100.2,35.9c0,.27.05.51.14.74.09.22.22.42.38.57.16.16.34.29.55.38.21.09.44.14.67.14s.47-.04.68-.14c.21-.09.39-.21.55-.38.16-.16.29-.35.38-.57.09-.22.13-.47.13-.74s-.04-.5-.13-.72c-.09-.22-.21-.41-.38-.57s-.34-.29-.55-.38-.44-.13-.68-.13-.46.04-.67.13-.39.21-.55.38-.28.35-.38.57c-.09.22-.14.46-.14.72Z"/>
          <path class="cls-1" d="M105.74,33.71c0-.22.11-.33.33-.33h.28c.22,0,.33.11.33.33v.58c0,.05,0,.1,0,.15,0,.05,0,.09-.01.12,0,.04-.01.08-.01.11h.02c.05-.17.13-.33.22-.49s.21-.3.35-.42c.13-.12.28-.22.44-.3.16-.08.34-.11.54-.11.21,0,.32.11.32.33v.28c0,.22-.12.33-.36.33s-.46.06-.64.19c-.18.12-.34.28-.46.47-.12.19-.22.42-.28.67s-.09.5-.09.75v1.76c0,.22-.11.33-.33.33h-.31c-.22,0-.33-.11-.33-.33v-4.4Z"/>
          <path class="cls-1" d="M109.3,33.71c0-.22.11-.33.33-.33h.28c.22,0,.33.11.33.33v.45c0,.07,0,.13-.02.2,0,.03,0,.06,0,.09h.02c.06-.15.15-.29.27-.43.12-.14.25-.27.41-.38.16-.11.33-.2.51-.27.18-.07.38-.1.58-.1.83,0,1.34.38,1.52,1.15h.02c.07-.15.16-.29.28-.43s.26-.26.41-.37.32-.19.51-.25.38-.09.59-.09c.58,0,1,.16,1.27.48.27.32.4.81.4,1.46v2.91c0,.22-.11.33-.33.33h-.31c-.22,0-.33-.11-.33-.33v-2.7c0-.18-.01-.35-.04-.5s-.07-.29-.13-.4-.15-.2-.27-.27c-.12-.07-.27-.1-.46-.1-.23,0-.44.05-.63.17-.19.11-.34.26-.48.44-.13.18-.23.39-.29.62-.07.23-.1.47-.1.71v2.03c0,.22-.11.33-.32.33h-.32c-.21,0-.32-.11-.32-.33v-2.7c0-.17,0-.33-.03-.48-.02-.15-.06-.29-.12-.41-.06-.12-.15-.21-.26-.28-.12-.07-.27-.1-.46-.1-.24,0-.46.06-.65.17-.19.11-.35.26-.48.45-.13.18-.23.39-.29.62-.07.23-.1.47-.1.7v2.03c0,.22-.11.33-.33.33h-.31c-.22,0-.33-.11-.33-.33v-4.4Z"/>
          <path class="cls-1" d="M118.68,39.65c.09-.19.23-.24.42-.17.12.05.27.09.45.14.18.05.4.08.65.08.21,0,.42-.02.61-.08.19-.05.36-.13.5-.24.14-.11.26-.26.34-.44s.13-.4.13-.66v-.55s0-.07.01-.11c0-.03.01-.07.02-.1h-.02c-.15.27-.34.48-.58.63-.24.15-.55.23-.92.23s-.67-.07-.96-.2c-.28-.13-.52-.32-.72-.54-.2-.23-.35-.5-.45-.82-.1-.32-.16-.66-.16-1.04s.05-.69.15-1c.1-.31.25-.57.44-.8.19-.23.42-.4.71-.53.28-.13.6-.19.97-.19.31,0,.57.04.78.13.2.09.36.19.48.29.14.12.25.26.32.42h.02s0-.02,0-.04c0-.02,0-.06,0-.12v-.29c0-.19.11-.28.33-.28h.24c.22,0,.33.11.33.33v4.52c0,.42-.07.78-.22,1.07-.15.29-.34.53-.57.71-.24.19-.51.32-.81.4-.3.08-.6.12-.91.12-.28,0-.55-.02-.8-.07-.25-.05-.48-.12-.67-.21-.2-.09-.26-.23-.17-.44l.07-.17ZM120.47,37.54c.17,0,.34-.03.5-.08.16-.06.31-.15.43-.29.12-.14.22-.31.29-.53.07-.22.11-.49.11-.82s-.04-.61-.12-.83c-.08-.22-.18-.4-.3-.53-.13-.13-.28-.22-.45-.27-.17-.05-.35-.08-.54-.08-.46,0-.81.15-1.04.45-.24.3-.35.69-.35,1.19,0,.55.13.98.38,1.31.26.33.62.49,1.08.49Z"/>
          <path class="cls-1" d="M123.85,35.91c0-.4.06-.76.2-1.09.13-.33.31-.6.53-.83.22-.23.49-.41.8-.54.31-.13.65-.19,1.01-.19s.66.06.93.18.5.29.68.5c.18.21.32.47.42.76.1.29.15.62.15.97,0,.09-.03.17-.09.24-.06.07-.15.1-.25.1h-3.38c.01.27.07.52.17.73.1.21.23.39.39.54s.34.26.54.33.42.11.65.11c.28,0,.52-.04.73-.14.21-.09.37-.18.48-.26.2-.11.35-.07.45.11l.09.15c.05.09.07.17.05.25-.02.08-.07.14-.16.2-.07.05-.17.11-.28.17-.11.06-.24.12-.39.17-.14.05-.3.1-.48.14-.18.04-.37.05-.57.05-.4,0-.76-.07-1.09-.21-.33-.14-.61-.32-.84-.56s-.42-.52-.55-.84c-.13-.32-.2-.67-.2-1.04ZM127.59,35.37c-.01-.45-.14-.78-.38-1.01-.24-.23-.52-.34-.86-.34-.37,0-.7.12-.96.35-.27.24-.44.57-.51,1h2.71Z"/>
          <path class="cls-1" d="M129.11,33.76c-.04-.11-.04-.21,0-.28s.13-.1.25-.1h.34c.19,0,.31.09.37.27l1.14,3.15c.03.07.05.15.08.22.02.08.04.15.06.22.02.08.04.16.05.24h.02c.02-.08.04-.16.06-.24.01-.07.03-.15.05-.22.02-.08.04-.15.07-.22l1.14-3.15c.06-.18.18-.27.37-.27h.34c.12,0,.21.03.25.1s.05.16,0,.28l-1.64,4.42c-.06.17-.18.26-.37.26h-.56c-.19,0-.31-.09-.37-.26l-1.66-4.42Z"/>
          <path class="cls-1" d="M134.26,35.91c0-.4.06-.76.2-1.09.13-.33.31-.6.53-.83.22-.23.49-.41.8-.54.31-.13.65-.19,1.01-.19s.66.06.93.18.5.29.68.5c.18.21.32.47.42.76.1.29.15.62.15.97,0,.09-.03.17-.09.24-.06.07-.15.1-.25.1h-3.38c.01.27.07.52.17.73.1.21.23.39.39.54s.34.26.54.33.42.11.65.11c.28,0,.52-.04.73-.14.21-.09.37-.18.48-.26.2-.11.35-.07.45.11l.09.15c.05.09.07.17.05.25-.02.08-.07.14-.16.2-.07.05-.17.11-.28.17-.11.06-.24.12-.39.17-.14.05-.3.1-.48.14-.18.04-.37.05-.57.05-.4,0-.76-.07-1.09-.21-.33-.14-.61-.32-.84-.56s-.42-.52-.55-.84c-.13-.32-.2-.67-.2-1.04ZM138,35.37c-.01-.45-.14-.78-.38-1.01-.24-.23-.52-.34-.86-.34-.37,0-.7.12-.96.35-.27.24-.44.57-.51,1h2.71Z"/>
          <path class="cls-1" d="M140.03,33.71c0-.22.11-.33.33-.33h.28c.22,0,.33.11.33.33v.58c0,.05,0,.1,0,.15,0,.05,0,.09-.01.12,0,.04,0,.08,0,.11h.02c.05-.17.13-.33.23-.49s.21-.3.34-.42c.13-.12.28-.22.45-.3.16-.08.34-.11.54-.11.21,0,.32.11.32.33v.28c0,.22-.12.33-.36.33s-.46.06-.65.19c-.18.12-.34.28-.46.47s-.21.42-.28.67c-.06.25-.09.5-.09.75v1.76c0,.22-.11.33-.33.33h-.31c-.22,0-.33-.11-.33-.33v-4.4Z"/>
          <path class="cls-1" d="M145.84,36.46c0-.19.03-.38.08-.57.06-.19.14-.37.24-.53.11-.16.24-.3.39-.42s.33-.22.53-.29v-.02c-.18-.07-.34-.18-.47-.31-.12-.11-.23-.27-.33-.47s-.14-.46-.14-.77c0-.29.05-.55.17-.78s.26-.42.46-.57.42-.27.68-.35c.26-.08.55-.12.87-.12h.46c.22,0,.33.11.33.33v.18c0,.22-.11.33-.33.33h-.41c-.37,0-.67.1-.89.3s-.33.46-.33.78c0,.11.02.23.05.36.03.13.1.25.2.36s.23.21.39.28c.17.07.39.11.66.11h1.31v-.63c0-.22.11-.33.33-.33h.31c.22,0,.33.09.33.28v.68h.61c.22,0,.33.11.33.33v.2c0,.22-.11.33-.33.33h-.61v.94c0,.79-.22,1.39-.65,1.82-.43.43-1.03.65-1.79.65-.37,0-.7-.05-1-.16-.3-.11-.56-.25-.77-.45-.22-.19-.38-.41-.5-.67-.12-.25-.17-.53-.17-.83ZM146.85,36.41c0,.17.03.33.1.49s.16.28.29.39c.13.11.28.2.46.27.18.07.38.1.59.1.45,0,.81-.13,1.08-.38s.4-.66.4-1.22v-.9h-1.35c-.5,0-.88.11-1.15.33-.27.22-.41.53-.41.93Z"/>
          <path class="cls-1" d="M155.04,33.71c0-.22.11-.33.33-.33h.23c.22,0,.33.09.33.28v.3s0,.08,0,.11c0,.03,0,.06,0,.08,0,.03,0,.05,0,.08h.02c.09-.18.21-.34.37-.48.13-.12.31-.23.52-.33.22-.1.49-.15.8-.15.34,0,.65.06.92.19.27.13.51.31.7.54.19.23.34.51.45.83.1.32.16.68.16,1.08s-.06.76-.17,1.09c-.11.33-.27.61-.48.83-.21.23-.45.41-.73.54-.28.13-.58.19-.91.19-.29,0-.54-.05-.74-.14-.2-.09-.36-.2-.49-.31-.15-.13-.26-.28-.35-.45h-.02s0,.07,0,.12c0,.04.01.09.01.14,0,.05,0,.11,0,.18v2.01c0,.22-.11.33-.32.33h-.31c-.22,0-.33-.11-.33-.33v-6.4ZM155.98,35.93c0,.23.03.45.09.66.06.21.16.4.28.57.12.17.27.3.44.41s.38.16.62.16c.2,0,.39-.04.57-.12s.33-.2.46-.35c.13-.15.24-.34.31-.56.08-.22.12-.48.12-.76s-.04-.52-.1-.75c-.07-.22-.17-.41-.29-.57-.13-.16-.28-.28-.46-.37-.18-.09-.37-.13-.58-.13-.19,0-.38.04-.55.11-.17.07-.33.18-.46.32-.14.15-.25.33-.33.57-.08.23-.12.5-.12.83Z"/>
          <path class="cls-1" d="M160.95,33.71c0-.22.11-.33.33-.33h.28c.22,0,.33.11.33.33v.58c0,.05,0,.1,0,.15,0,.05,0,.09-.01.12,0,.04,0,.08,0,.11h.02c.05-.17.13-.33.23-.49s.21-.3.34-.42c.13-.12.28-.22.45-.3.16-.08.34-.11.54-.11.21,0,.32.11.32.33v.28c0,.22-.12.33-.36.33s-.46.06-.65.19c-.18.12-.34.28-.46.47s-.21.42-.28.67c-.06.25-.09.5-.09.75v1.76c0,.22-.11.33-.33.33h-.31c-.22,0-.33-.11-.33-.33v-4.4Z"/>
          <path class="cls-1" d="M163.99,35.9c0-.38.07-.73.21-1.05s.34-.6.58-.84c.24-.24.53-.42.86-.55s.68-.19,1.06-.19.74.06,1.07.19.62.31.87.55c.25.24.44.52.58.84.14.32.21.67.21,1.05s-.07.74-.21,1.07c-.14.32-.34.6-.58.84-.25.24-.54.42-.87.55-.33.13-.68.2-1.07.2s-.73-.07-1.06-.2c-.33-.13-.62-.32-.86-.55s-.44-.52-.58-.84-.21-.68-.21-1.07ZM164.97,35.9c0,.27.05.51.14.74.09.22.22.42.38.57.16.16.34.29.55.38.21.09.44.14.67.14s.47-.04.68-.14c.21-.09.39-.21.55-.38.16-.16.29-.35.38-.57.09-.22.13-.47.13-.74s-.04-.5-.13-.72c-.09-.22-.21-.41-.38-.57s-.34-.29-.55-.38-.44-.13-.68-.13-.46.04-.67.13-.39.21-.55.38-.28.35-.38.57c-.09.22-.14.46-.14.72Z"/>
          <path class="cls-1" d="M170.52,33.71c0-.22.11-.33.33-.33h.31c.21,0,.32.11.32.33v4.88c0,.41-.07.75-.21,1-.14.25-.31.45-.51.58-.2.13-.4.22-.61.26-.21.04-.37.06-.49.06h-.12c-.22,0-.33-.11-.33-.33v-.18c0-.13.03-.21.09-.25s.14-.07.24-.08c.1,0,.21-.02.32-.05s.22-.08.32-.16.18-.19.25-.33c.07-.14.1-.33.1-.57v-4.84ZM170.83,32.37c-.22,0-.33-.11-.33-.33v-.33c0-.22.11-.33.33-.33h.34c.22,0,.33.11.33.33v.33c0,.22-.11.33-.33.33h-.34Z"/>
          <path class="cls-1" d="M172.57,35.91c0-.4.07-.76.2-1.09.13-.33.31-.6.53-.83.22-.23.49-.41.8-.54.31-.13.64-.19,1-.19s.66.06.93.18.5.29.69.5c.18.21.32.47.42.76.1.29.14.62.14.97,0,.09-.03.17-.09.24-.06.07-.14.1-.25.1h-3.38c.01.27.07.52.17.73.1.21.23.39.39.54.16.15.34.26.54.33.2.07.42.11.64.11.28,0,.52-.04.73-.14.21-.09.37-.18.48-.26.2-.11.35-.07.45.11l.09.15c.05.09.07.17.05.25-.02.08-.07.14-.15.2-.07.05-.17.11-.28.17s-.24.12-.38.17c-.14.05-.3.1-.48.14-.18.04-.37.05-.56.05-.4,0-.76-.07-1.09-.21-.33-.14-.61-.32-.85-.56-.24-.24-.42-.52-.55-.84-.13-.32-.2-.67-.2-1.04ZM176.31,35.37c-.01-.45-.14-.78-.38-1.01s-.52-.34-.85-.34c-.37,0-.7.12-.97.35-.27.24-.44.57-.51,1h2.71Z"/>
          <path class="cls-1" d="M178.01,35.91c0-.37.07-.72.2-1.04.13-.32.32-.6.56-.84.24-.24.53-.42.86-.56s.69-.21,1.08-.21c.21,0,.41.02.58.05.17.04.33.08.47.13.14.05.26.11.37.17.1.06.19.12.25.18.09.05.13.12.14.2,0,.08-.02.16-.08.25l-.1.15c-.11.17-.26.19-.45.08-.11-.07-.25-.16-.44-.25-.19-.09-.42-.13-.69-.13s-.49.04-.71.13-.4.21-.56.38c-.16.16-.28.35-.37.57-.09.22-.13.46-.13.72s.04.5.13.72c.09.22.21.41.37.58s.35.29.56.38c.22.09.46.14.72.14.31,0,.57-.05.78-.16.22-.11.39-.21.51-.3.19-.12.34-.09.45.09l.08.15c.11.18.08.33-.09.44-.07.06-.17.12-.27.2-.11.07-.24.14-.39.2-.15.06-.32.12-.51.16-.19.04-.4.07-.62.07-.4,0-.76-.07-1.09-.2-.33-.13-.61-.32-.85-.55s-.42-.52-.55-.84c-.13-.32-.2-.68-.2-1.06Z"/>
          <path class="cls-1" d="M183.89,34.22h-.35c-.21,0-.32-.11-.32-.33v-.13c0-.22.11-.33.33-.33h.36v-1.11c0-.22.11-.33.33-.33h.29c.22,0,.33.11.33.33v1.11h.88c.22,0,.33.11.33.33v.13c0,.22-.11.33-.32.33h-.89v2.25c0,.24.03.43.1.58s.15.26.25.34.2.13.31.17c.11.03.21.05.31.05.13.01.22.04.27.09.05.05.08.13.08.24v.21c0,.22-.13.33-.4.33s-.49-.04-.72-.11-.42-.19-.59-.34-.31-.35-.41-.58-.16-.51-.16-.83v-2.4Z"/>
          <path class="cls-1" d="M186.69,35.91c0-.37.07-.72.2-1.04.13-.32.32-.6.56-.84s.52-.42.85-.56.69-.21,1.08-.21c.21,0,.41.02.58.05.17.04.33.08.47.13.14.05.26.11.36.17.1.06.19.12.26.18.09.05.13.12.14.2,0,.08-.02.16-.08.25l-.1.15c-.11.17-.26.19-.45.08-.11-.07-.25-.16-.45-.25-.19-.09-.42-.13-.68-.13s-.49.04-.71.13c-.22.09-.4.21-.56.38-.16.16-.28.35-.36.57-.09.22-.13.46-.13.72s.04.5.13.72c.09.22.21.41.37.58.16.16.35.29.57.38.22.09.46.14.71.14.31,0,.57-.05.79-.16s.38-.21.5-.3c.19-.12.34-.09.45.09l.08.15c.11.18.08.33-.09.44-.07.06-.17.12-.28.2-.11.07-.24.14-.39.2-.15.06-.32.12-.51.16-.19.04-.4.07-.62.07-.4,0-.76-.07-1.09-.2-.33-.13-.61-.32-.85-.55-.24-.24-.42-.52-.56-.84-.13-.32-.2-.68-.2-1.06Z"/>
          <path class="cls-1" d="M191.94,35.9c0-.38.07-.73.21-1.05s.34-.6.58-.84c.24-.24.53-.42.86-.55s.68-.19,1.06-.19.74.06,1.07.19.62.31.87.55c.25.24.44.52.58.84.14.32.21.67.21,1.05s-.07.74-.21,1.07c-.14.32-.34.6-.58.84-.25.24-.54.42-.87.55-.33.13-.68.2-1.07.2s-.73-.07-1.06-.2c-.33-.13-.62-.32-.86-.55s-.44-.52-.58-.84-.21-.68-.21-1.07ZM192.92,35.9c0,.27.05.51.14.74.09.22.22.42.38.57.16.16.34.29.55.38.21.09.44.14.67.14s.47-.04.68-.14c.21-.09.39-.21.55-.38.16-.16.29-.35.38-.57.09-.22.13-.47.13-.74s-.04-.5-.13-.72c-.09-.22-.21-.41-.38-.57s-.34-.29-.55-.38-.44-.13-.68-.13-.46.04-.67.13-.39.21-.55.38-.28.35-.38.57c-.09.22-.14.46-.14.72Z"/>
          <path class="cls-1" d="M198.13,35.9c0-.38.07-.73.21-1.05s.34-.6.58-.84c.24-.24.53-.42.86-.55s.69-.19,1.07-.19.74.06,1.06.19c.33.13.62.31.87.55.25.24.44.52.58.84s.21.67.21,1.05-.07.74-.21,1.07-.34.6-.58.84c-.25.24-.54.42-.87.55-.33.13-.68.2-1.06.2s-.74-.07-1.07-.2c-.33-.13-.62-.32-.86-.55-.24-.24-.44-.52-.58-.84s-.21-.68-.21-1.07ZM199.11,35.9c0,.27.05.51.14.74.09.22.22.42.38.57.16.16.34.29.55.38.21.09.43.14.67.14s.46-.04.67-.14c.21-.09.4-.21.55-.38.16-.16.29-.35.38-.57.09-.22.14-.47.14-.74s-.04-.5-.14-.72c-.09-.22-.21-.41-.38-.57-.16-.16-.34-.29-.55-.38s-.43-.13-.67-.13-.46.04-.67.13-.39.21-.55.38c-.16.16-.28.35-.38.57-.09.22-.14.46-.14.72ZM199.95,32.38c-.22,0-.33-.11-.33-.33v-.35c0-.22.11-.33.33-.33h.14c.22,0,.33.11.33.33v.35c0,.22-.11.33-.33.33h-.14ZM201.62,32.38c-.22,0-.33-.11-.33-.33v-.35c0-.22.11-.33.33-.33h.14c.22,0,.33.11.33.33v.35c0,.22-.11.33-.33.33h-.14Z"/>
          <path class="cls-1" d="M204.65,33.71c0-.22.11-.33.33-.33h.28c.22,0,.33.11.33.33v.58c0,.05,0,.1,0,.15,0,.05,0,.09-.01.12,0,.04,0,.08,0,.11h.02c.05-.17.13-.33.23-.49s.21-.3.34-.42c.13-.12.28-.22.45-.3.16-.08.34-.11.54-.11.21,0,.32.11.32.33v.28c0,.22-.12.33-.36.33s-.46.06-.65.19c-.18.12-.34.28-.46.47s-.21.42-.28.67c-.06.25-.09.5-.09.75v1.76c0,.22-.11.33-.33.33h-.31c-.22,0-.33-.11-.33-.33v-4.4Z"/>
          <path class="cls-1" d="M207.76,35.91c0-.4.06-.76.17-1.09.11-.33.27-.6.47-.83.2-.23.45-.41.72-.54.28-.13.59-.19.92-.19.29,0,.54.04.73.13s.36.19.49.3c.15.13.26.27.35.43h.02s-.01-.07-.02-.1,0-.07,0-.1v-2.22c0-.22.11-.33.33-.33h.31c.22,0,.33.11.33.33v6.4c0,.22-.11.33-.33.33h-.26c-.22,0-.33-.1-.33-.31v-.29c0-.09,0-.15,0-.18,0-.03,0-.05.01-.07h-.02c-.09.19-.22.35-.37.49-.13.12-.3.23-.51.33-.21.1-.47.15-.79.15-.34,0-.65-.07-.92-.2s-.51-.31-.71-.54-.34-.51-.45-.83-.15-.68-.15-1.08ZM208.75,35.91c0,.27.04.52.11.74s.17.41.29.57.28.28.45.36c.17.09.37.13.58.13.19,0,.37-.04.54-.1.18-.07.33-.18.46-.32.13-.15.24-.33.33-.56.08-.23.12-.5.12-.82,0-.23-.03-.45-.09-.66-.06-.21-.15-.4-.27-.57-.12-.17-.27-.3-.45-.4-.18-.1-.39-.16-.63-.16-.2,0-.39.04-.56.12-.17.08-.33.2-.46.35-.13.15-.24.34-.32.56-.08.22-.12.48-.12.76Z"/>
          <path class="cls-1" d="M214.31,32.37c-.22,0-.33-.11-.33-.33v-.33c0-.22.11-.33.33-.33h.34c.22,0,.33.11.33.33v.33c0,.22-.11.33-.33.33h-.34ZM213.99,33.71c0-.22.11-.33.33-.33h.31c.22,0,.33.11.33.33v4.4c0,.22-.11.33-.33.33h-.31c-.22,0-.33-.11-.33-.33v-4.4Z"/>
          <path class="cls-1" d="M216.36,33.71c0-.22.11-.33.33-.33h.28c.22,0,.33.11.33.33v.45c0,.07,0,.13-.02.2,0,.03,0,.06,0,.09h.02c.05-.11.12-.23.23-.37.1-.14.23-.27.39-.39s.35-.22.56-.3c.21-.08.46-.12.74-.12.6,0,1.04.16,1.32.48.28.32.42.81.42,1.46v2.91c0,.22-.11.33-.33.33h-.31c-.22,0-.33-.11-.33-.33v-2.69c0-.18-.01-.35-.04-.5s-.07-.29-.13-.4c-.07-.11-.16-.2-.29-.27-.13-.07-.29-.1-.49-.1-.25,0-.47.05-.68.15-.21.1-.39.23-.54.39-.15.17-.27.37-.35.59-.08.23-.12.48-.12.74v2.09c0,.22-.11.33-.33.33h-.31c-.22,0-.33-.11-.33-.33v-4.4Z"/>
          <path class="cls-1" d="M221.86,37.06c0-.26.05-.49.15-.67.1-.19.23-.35.4-.48.17-.13.36-.23.57-.31s.43-.14.66-.18c.23-.04.45-.07.67-.08.22-.01.41-.02.58-.02h.26v-.13c0-.21-.03-.38-.08-.53-.06-.14-.13-.26-.24-.34-.1-.09-.22-.15-.35-.18-.13-.04-.28-.06-.43-.06-.25,0-.48.04-.68.11-.2.07-.35.14-.46.21-.19.09-.34.05-.45-.12l-.08-.14c-.11-.2-.07-.35.11-.45.15-.09.37-.18.65-.28.28-.1.61-.15.99-.15.63,0,1.12.17,1.47.5s.52.83.52,1.47v2.87c0,.22-.11.33-.33.33h-.25c-.22,0-.33-.11-.33-.33v-.43s0-.07.01-.1c0-.03.01-.05.02-.08h-.02c-.1.2-.23.38-.38.53-.13.13-.3.25-.51.37-.21.11-.46.17-.76.17-.22,0-.43-.03-.64-.1-.21-.07-.39-.16-.54-.29-.16-.13-.28-.29-.38-.47-.09-.18-.14-.39-.14-.63ZM222.84,36.98c0,.2.08.38.23.55.16.17.39.25.71.25.21,0,.41-.05.58-.14s.31-.22.43-.38c.12-.16.21-.33.27-.52.06-.19.09-.38.09-.56v-.22h-.26c-.18,0-.39,0-.62.03s-.46.06-.67.12c-.21.07-.39.17-.54.3-.15.14-.22.33-.22.57Z"/>
          <path class="cls-1" d="M227.62,34.22h-.35c-.21,0-.32-.11-.32-.33v-.13c0-.22.11-.33.33-.33h.36v-1.11c0-.22.11-.33.33-.33h.29c.22,0,.33.11.33.33v1.11h.88c.22,0,.33.11.33.33v.13c0,.22-.11.33-.32.33h-.89v2.25c0,.24.03.43.1.58s.15.26.25.34.2.13.31.17c.11.03.21.05.31.05.13.01.22.04.27.09.05.05.08.13.08.24v.21c0,.22-.13.33-.4.33s-.49-.04-.72-.11-.42-.19-.59-.34-.31-.35-.41-.58-.16-.51-.16-.83v-2.4Z"/>
          <path class="cls-1" d="M230.42,35.9c0-.38.07-.73.21-1.05s.34-.6.58-.84c.24-.24.53-.42.86-.55s.69-.19,1.07-.19.74.06,1.06.19c.33.13.62.31.87.55.25.24.44.52.58.84s.21.67.21,1.05-.07.74-.21,1.07-.34.6-.58.84c-.25.24-.54.42-.87.55-.33.13-.68.2-1.06.2s-.74-.07-1.07-.2c-.33-.13-.62-.32-.86-.55-.24-.24-.44-.52-.58-.84s-.21-.68-.21-1.07ZM231.4,35.9c0,.27.05.51.14.74.09.22.22.42.38.57.16.16.34.29.55.38.21.09.43.14.67.14s.46-.04.67-.14c.21-.09.4-.21.55-.38.16-.16.29-.35.38-.57.09-.22.14-.47.14-.74s-.04-.5-.14-.72c-.09-.22-.21-.41-.38-.57-.16-.16-.34-.29-.55-.38s-.43-.13-.67-.13-.46.04-.67.13-.39.21-.55.38c-.16.16-.28.35-.38.57-.09.22-.14.46-.14.72Z"/>
          <path class="cls-1" d="M236.94,33.71c0-.22.11-.33.33-.33h.28c.22,0,.33.11.33.33v.58c0,.05,0,.1,0,.15,0,.05,0,.09-.01.12,0,.04,0,.08,0,.11h.02c.05-.17.13-.33.23-.49s.21-.3.34-.42c.13-.12.28-.22.45-.3.16-.08.34-.11.54-.11.21,0,.32.11.32.33v.28c0,.22-.12.33-.36.33s-.46.06-.65.19c-.18.12-.34.28-.46.47s-.21.42-.28.67c-.06.25-.09.5-.09.75v1.76c0,.22-.11.33-.33.33h-.31c-.22,0-.33-.11-.33-.33v-4.4Z"/>
        </g>
      </g>
      <path class="cls-3" d="M6.71,39.87c10.5,7.7,32.57-2.34,35.13-14.2C44.7,12.43,23.43-3.9,11.59,1.6.53,6.73-4.27,31.83,6.71,39.87h0Z"/>
      <g class="cls-2">
        <g class="cls-2">
          <path class="cls-1" d="M11.86,19.28c0-.36.06-.67.2-.93.14-.27.32-.5.53-.71.22-.21.45-.4.7-.58.25-.17.49-.35.7-.52s.4-.35.54-.53c.14-.18.21-.39.21-.63,0-.3-.11-.54-.31-.72s-.46-.27-.78-.26c-.14,0-.26.02-.37.06-.11.04-.21.09-.3.14-.09.06-.16.12-.23.18-.06.07-.12.12-.15.18-.06.06-.13.1-.19.12-.06.02-.13,0-.21-.06l-.15-.12c-.15-.11-.18-.24-.08-.38.06-.08.13-.17.23-.28.1-.11.22-.21.36-.3.14-.1.31-.18.5-.24.19-.06.41-.1.65-.1.27,0,.53.03.76.11.23.08.44.19.61.34s.31.33.4.54c.1.21.15.45.15.71,0,.33-.06.62-.2.86-.14.25-.31.47-.52.67-.21.2-.44.38-.69.54-.25.16-.48.33-.69.49-.21.16-.39.34-.53.52-.14.18-.22.38-.22.61l2.71-.04c.19,0,.28.09.28.28v.17c0,.19-.09.28-.27.29l-3.34.04c-.09,0-.16-.02-.21-.07-.06-.04-.09-.11-.09-.21v-.18Z"/>
          <path class="cls-1" d="M18.87,19.75c-.4,0-.74-.07-1.01-.23-.27-.16-.49-.38-.66-.65-.17-.28-.29-.61-.37-.98-.08-.38-.12-.78-.12-1.22,0-.43.02-.83.09-1.21.07-.38.18-.71.34-.99.16-.28.38-.5.65-.67.27-.17.6-.25,1-.26.4,0,.74.07,1.02.23.27.16.5.37.66.65.17.28.29.6.37.98.08.38.12.78.12,1.21,0,.44-.02.84-.09,1.22-.07.38-.18.71-.34.99-.16.28-.38.51-.65.67-.27.17-.61.25-1.01.26ZM18.86,18.98c.24,0,.45-.07.61-.19s.29-.29.38-.5c.09-.21.15-.46.19-.74.04-.28.05-.59.05-.92,0-.32-.03-.63-.07-.91-.04-.28-.11-.53-.21-.74-.1-.21-.23-.37-.39-.49s-.37-.17-.62-.17c-.24,0-.45.07-.61.19s-.29.29-.38.5c-.09.21-.16.46-.19.74-.04.28-.05.59-.05.91,0,.33.03.63.07.92s.11.53.21.74c.1.21.23.37.39.49s.37.18.61.18Z"/>
          <path class="cls-1" d="M21.91,19.15c0-.36.06-.67.2-.93.14-.27.32-.5.54-.71.22-.21.45-.4.7-.58.25-.17.49-.35.7-.52.22-.17.4-.35.54-.53.14-.18.21-.39.21-.63,0-.3-.11-.54-.31-.72-.2-.18-.46-.27-.78-.26-.14,0-.26.02-.37.06-.11.04-.21.09-.3.14-.09.06-.16.12-.23.18-.06.07-.12.13-.15.18-.06.06-.13.11-.19.13-.06.02-.13,0-.21-.06l-.15-.12c-.15-.11-.18-.24-.08-.38.06-.08.13-.17.23-.28.1-.11.22-.21.36-.3.14-.1.31-.18.5-.24.19-.07.41-.1.65-.1.27,0,.53.03.76.11.23.08.44.19.61.34.17.15.31.33.4.54.1.21.15.45.15.71,0,.33-.06.62-.2.86-.14.25-.31.47-.52.67-.21.2-.44.38-.69.54-.25.16-.48.33-.69.49-.21.16-.39.34-.53.52-.14.18-.22.38-.22.61l2.71-.04c.19,0,.28.09.28.28v.17c0,.19-.09.28-.27.29l-3.34.04c-.09,0-.16-.02-.21-.07-.06-.04-.09-.12-.09-.21v-.18Z"/>
          <path class="cls-1" d="M26.71,19.01c-.14-.11-.15-.24-.05-.39l.13-.2c.11-.14.24-.16.39-.06.06.05.13.09.21.15.08.05.17.1.28.15.11.05.22.09.35.12.12.03.26.05.41.05.17,0,.33-.03.48-.09s.27-.13.38-.23c.11-.1.2-.21.26-.35.06-.13.09-.28.09-.45,0-.19-.04-.35-.12-.48-.08-.14-.18-.25-.31-.34-.13-.09-.28-.16-.44-.2s-.35-.06-.53-.06h-.19c-.15,0-.25-.06-.32-.2l-.03-.05c-.06-.13-.04-.25.06-.37l1.14-1.38c.04-.06.09-.11.14-.16.05-.05.09-.09.12-.12l.11-.11v-.02s-.08.01-.13.02c-.04,0-.1,0-.17.01-.06,0-.14,0-.22,0l-1.75.02c-.19,0-.28-.09-.28-.28v-.17c0-.19.09-.28.27-.28l3.03-.04c.19,0,.28.08.28.26v.08c0,.14-.04.25-.12.34l-1.48,1.75c.2.02.4.07.61.14.21.07.4.18.57.32.17.14.31.31.42.53.11.21.17.46.17.75,0,.26-.04.5-.13.74-.09.24-.23.44-.4.62-.18.18-.39.32-.64.43-.25.11-.53.17-.84.17-.22,0-.41-.02-.6-.06s-.35-.1-.5-.16c-.15-.06-.28-.13-.39-.2-.11-.07-.2-.14-.27-.19Z"/>
        </g>
        <g class="cls-2">
          <path class="cls-1" d="M12.55,28.52c0-.36.06-.67.2-.93.14-.27.32-.5.53-.71.22-.21.45-.4.7-.58.25-.17.49-.35.7-.52s.4-.35.54-.53c.14-.18.21-.39.21-.63,0-.3-.11-.54-.31-.72s-.46-.27-.78-.26c-.14,0-.26.02-.37.06-.11.04-.21.09-.3.14-.09.06-.16.12-.23.18-.06.07-.12.12-.15.18-.06.06-.13.1-.19.12-.06.02-.13,0-.21-.06l-.15-.12c-.15-.11-.18-.24-.08-.38.06-.08.13-.17.23-.28.1-.11.22-.21.36-.3.14-.1.31-.18.5-.24.19-.06.41-.1.65-.1.27,0,.53.03.76.11.23.08.44.19.61.34s.31.33.4.54c.1.21.15.45.15.71,0,.33-.06.62-.2.86-.14.25-.31.47-.52.67-.21.2-.44.38-.69.54-.25.16-.48.33-.69.49-.21.16-.39.34-.53.52-.14.18-.22.38-.22.61l2.71-.04c.19,0,.28.09.28.28v.17c0,.19-.09.28-.27.29l-3.34.04c-.09,0-.16-.02-.21-.07-.06-.04-.09-.11-.09-.21v-.18Z"/>
          <path class="cls-1" d="M19.55,28.99c-.4,0-.74-.07-1.01-.23-.27-.16-.49-.38-.66-.65-.17-.28-.29-.61-.37-.98-.08-.38-.12-.78-.12-1.22,0-.43.02-.83.09-1.21.07-.38.18-.71.34-.99.16-.28.38-.5.65-.67.27-.17.6-.25,1-.26.4,0,.74.07,1.02.23.27.16.5.37.66.65.17.28.29.6.37.98.08.38.12.78.12,1.21,0,.44-.02.84-.09,1.22-.07.38-.18.71-.34.99-.16.28-.38.51-.65.67-.27.17-.61.25-1.01.26ZM19.54,28.22c.24,0,.45-.07.61-.19s.29-.29.38-.5c.09-.21.15-.46.19-.74.04-.28.05-.59.05-.92,0-.32-.03-.63-.07-.91-.04-.28-.11-.53-.21-.74-.1-.21-.23-.37-.39-.49s-.37-.17-.62-.17c-.24,0-.45.07-.61.19s-.29.29-.38.5c-.09.21-.16.46-.19.74-.04.28-.05.59-.05.91,0,.33.03.63.07.92s.11.53.21.74c.1.21.23.37.39.49s.37.18.61.18Z"/>
          <path class="cls-1" d="M22.57,28.4c0-.19.09-.28.28-.28h1.05s-.05-3.89-.05-3.89v-.26s0-.08,0-.11h-.02s-.04.06-.06.09c-.04.06-.11.14-.2.23l-.38.38c-.14.13-.27.13-.39,0l-.12-.12c-.14-.13-.14-.26,0-.4l1.08-1.08c.1-.09.21-.14.34-.14h.27c.19,0,.28.09.28.27l.07,5h1.04c.19-.02.28.08.28.26v.17c0,.19-.09.28-.27.29l-2.9.04c-.19,0-.28-.09-.28-.28v-.17Z"/>
          <path class="cls-1" d="M29.13,24.03c.04-.09.09-.16.12-.23.04-.07.07-.13.1-.17.03-.06.07-.11.1-.15v-.02s-.05.01-.09.02c-.03,0-.08,0-.13.01s-.12,0-.19,0l-2.41.03c-.19,0-.28-.09-.28-.28v-.17c0-.19.09-.28.27-.28l3.45-.04c.19,0,.28.08.28.26v.14c0,.06,0,.12-.01.17-.01.05-.03.11-.06.17l-2.47,5.1c-.06.14-.17.21-.32.21h-.28c-.11,0-.18-.03-.22-.09-.04-.06-.03-.14,0-.24l2.12-4.43Z"/>
        </g>
      </g>
    </g>
  </g>
</svg>