<?xml version="1.0" encoding="UTF-8"?>
<svg id="Layer_2" data-name="Layer 2" xmlns="http://www.w3.org/2000/svg" viewBox="0 0 139.97 42.43">
  <defs>
    <style>
      .cls-1 {
        fill: #662d91;
      }

      .cls-2 {
        isolation: isolate;
      }

      .cls-3 {
        fill: #fff;
        stroke: #662d91;
        stroke-miterlimit: 10;
      }
    </style>
  </defs>
  <g id="_2016" data-name="2016">
    <g>
      <g class="cls-2">
        <g class="cls-2">
          <path class="cls-1" d="M53.31,12.11l-1.99-3.56c-.11-.19-.13-.35-.06-.47.08-.12.22-.19.44-.19h.79c.3,0,.51.14.64.41l.62,1.31c.05.13.11.25.16.37.05.12.1.23.14.33.05.12.09.23.13.33h.02c.04-.1.08-.21.13-.33.04-.1.08-.21.13-.33.05-.12.11-.24.17-.37l.61-1.31c.13-.27.34-.41.64-.41h.79c.21,0,.36.06.43.19.08.12.06.28-.05.47l-1.99,3.56v2.38c0,.37-.18.55-.55.55h-.65c-.37,0-.55-.18-.55-.55v-2.38Z"/>
          <path class="cls-1" d="M57.27,11.42c0-.51.09-.99.27-1.43s.43-.83.76-1.16.73-.59,1.19-.78.97-.28,1.52-.28,1.06.09,1.52.28.85.45,1.18.78.58.72.76,1.16c.18.44.27.92.27,1.43s-.09,1.02-.27,1.47c-.18.45-.43.85-.76,1.19s-.72.6-1.18.79-.97.29-1.52.29-1.06-.1-1.52-.29-.86-.46-1.19-.79-.58-.73-.76-1.19c-.18-.45-.27-.94-.27-1.47ZM59.08,11.42c0,.31.05.59.14.85.1.26.23.48.4.67.17.19.37.34.61.45.24.11.49.16.77.16s.54-.05.78-.16c.24-.11.44-.26.61-.45.17-.19.3-.42.4-.67.1-.26.15-.54.15-.85s-.05-.56-.15-.81-.23-.47-.4-.65c-.17-.18-.37-.33-.61-.43-.24-.1-.5-.16-.78-.16s-.54.05-.77.16c-.24.1-.44.25-.61.43s-.3.4-.4.65-.14.52-.14.81Z"/>
          <path class="cls-1" d="M65.69,8.44c0-.37.18-.55.55-.55h.65c.37,0,.55.18.55.55v3.97c0,.38.11.67.33.86s.53.29.91.29.68-.1.91-.29c.22-.19.33-.48.33-.86v-3.97c0-.37.18-.55.55-.55h.65c.37,0,.55.18.55.55v3.97c0,.4-.07.77-.22,1.1-.14.34-.34.63-.6.87-.26.24-.57.43-.94.57-.37.14-.77.21-1.22.21s-.87-.07-1.24-.21c-.37-.14-.68-.33-.94-.57-.26-.24-.46-.53-.61-.87-.14-.34-.21-.71-.21-1.1v-3.97Z"/>
          <path class="cls-1" d="M72.98,8.44c0-.37.18-.55.55-.55h2.42c.35,0,.66.06.95.18.29.12.53.29.74.51.2.22.36.48.47.78.11.3.17.63.17.99s-.06.69-.17,1c-.11.3-.27.57-.47.79-.2.22-.45.39-.74.52-.29.12-.6.18-.95.18h-1.22v1.66c0,.37-.18.55-.55.55h-.65c-.37,0-.55-.18-.55-.55v-6.05ZM75.58,11.33c.31,0,.54-.09.69-.28.15-.18.22-.42.22-.71s-.07-.52-.22-.69-.37-.27-.66-.27h-.89v1.94h.86Z"/>
          <path class="cls-1" d="M79.14,8.44c0-.37.18-.55.55-.55h1.94c.37,0,.65.01.85.04.2.03.38.07.54.13.41.15.73.41.96.77s.36.79.36,1.31c0,.19-.02.39-.07.58-.04.19-.11.37-.2.55-.09.18-.2.34-.33.48-.13.14-.29.26-.47.34v.02s.04.06.07.1c.03.03.05.08.08.13.03.06.07.12.11.2l1.02,1.84c.11.19.13.35.05.48-.08.12-.22.18-.43.18h-.76c-.29,0-.5-.13-.65-.39l-1.06-2.02h-.82v1.86c0,.37-.18.55-.55.55h-.65c-.37,0-.55-.18-.55-.55v-6.05ZM81.65,11.13c.28,0,.5-.08.67-.22.16-.15.25-.37.25-.66,0-.18-.03-.33-.08-.46s-.17-.23-.33-.29c-.15-.07-.37-.1-.66-.1h-.59v1.74h.76Z"/>
          <path class="cls-1" d="M85.53,8.44c0-.37.18-.55.55-.55h.65c.37,0,.55.18.55.55v6.05c0,.37-.18.55-.55.55h-.65c-.37,0-.55-.18-.55-.55v-6.05Z"/>
        </g>
        <g class="cls-2">
          <path class="cls-1" d="M51.65,24.53c0-.52.09-1,.27-1.46.18-.45.43-.84.75-1.17.32-.33.7-.58,1.14-.77.44-.19.92-.28,1.44-.28.3,0,.57.02.82.07.25.05.47.11.67.18.2.07.36.14.5.21.14.07.25.14.32.19.17.13.19.28.07.45l-.14.21c-.11.17-.26.2-.46.09-.08-.05-.18-.1-.29-.16-.11-.06-.24-.12-.38-.17-.15-.05-.31-.09-.49-.12s-.37-.05-.58-.05c-.41,0-.77.07-1.09.21-.32.14-.6.34-.83.58-.23.24-.4.53-.53.86s-.18.69-.18,1.07c0,.4.07.77.2,1.11.13.34.31.63.54.88.23.24.5.43.81.57s.65.21,1.02.21c.33,0,.61-.05.86-.14.25-.09.46-.2.63-.31.2-.13.37-.29.52-.46v-.99h-.82c-.22,0-.33-.11-.33-.33v-.2c0-.22.11-.33.33-.33h1.39c.22,0,.33.11.33.33v2.89c0,.22-.11.33-.33.33h-.19c-.22,0-.33-.09-.33-.28v-.41s0-.05,0-.07h-.02c-.15.17-.33.31-.55.44-.19.11-.42.21-.69.31-.27.09-.58.13-.94.13-.48,0-.93-.09-1.35-.27-.42-.18-.79-.43-1.1-.75-.31-.32-.56-.7-.75-1.14s-.28-.93-.28-1.46Z"/>
          <path class="cls-1" d="M59.4,23.31c0-.22.11-.33.33-.33h.28c.22,0,.33.11.33.33v.58c0,.05,0,.1,0,.15,0,.05,0,.09-.01.12,0,.04,0,.08,0,.11h.02c.05-.17.13-.33.23-.49s.21-.3.34-.42c.13-.12.28-.22.45-.3.16-.08.34-.11.54-.11.21,0,.32.11.32.33v.28c0,.22-.12.33-.36.33s-.46.06-.65.19c-.18.12-.34.28-.46.47s-.21.42-.28.67c-.06.25-.09.5-.09.75v1.76c0,.22-.11.33-.33.33h-.31c-.22,0-.33-.11-.33-.33v-4.4Z"/>
          <path class="cls-1" d="M62.5,26.66c0-.26.05-.49.15-.67.1-.19.23-.35.4-.48.17-.13.35-.23.56-.31.21-.08.43-.14.66-.18.23-.04.45-.07.67-.08.22-.01.41-.02.58-.02h.26v-.13c0-.21-.03-.38-.08-.53-.06-.14-.13-.26-.23-.34-.1-.09-.22-.15-.35-.18-.13-.04-.28-.06-.43-.06-.25,0-.48.04-.67.11-.2.07-.35.14-.46.21-.19.09-.34.05-.45-.12l-.08-.14c-.11-.2-.07-.35.11-.45.15-.09.37-.18.64-.28.28-.1.61-.15,1-.15.63,0,1.12.17,1.47.5s.52.83.52,1.47v2.87c0,.22-.11.33-.33.33h-.25c-.22,0-.33-.11-.33-.33v-.43s0-.07,0-.1c0-.03.01-.05.02-.08h-.02c-.1.2-.23.38-.38.53-.13.13-.3.25-.51.37-.21.11-.46.17-.76.17-.22,0-.43-.03-.64-.1-.21-.07-.39-.16-.54-.29-.16-.13-.28-.29-.38-.47s-.14-.39-.14-.63ZM63.48,26.58c0,.2.08.38.24.55.16.17.39.25.71.25.21,0,.41-.05.58-.14s.31-.22.43-.38c.12-.16.21-.33.27-.52.06-.19.1-.38.1-.56v-.22h-.26c-.18,0-.39,0-.62.03-.23.02-.46.06-.67.12-.21.07-.39.17-.54.3-.15.14-.22.33-.22.57Z"/>
          <path class="cls-1" d="M68.26,23.76h-.32c-.22,0-.33-.11-.33-.33v-.12c0-.22.11-.33.33-.33h.32v-.19c0-.4.07-.72.21-.96s.31-.43.5-.57c.19-.13.39-.22.6-.26.21-.04.38-.07.51-.07h.12c.22,0,.33.11.33.33v.19c0,.11-.03.19-.09.24-.06.05-.15.08-.26.09-.09,0-.2.02-.3.04-.11.02-.21.07-.31.14s-.18.18-.24.32c-.07.14-.1.32-.1.55v.15h2.67c.22,0,.33.11.33.33v4.4c0,.22-.11.33-.33.33h-.31c-.22,0-.33-.11-.33-.33v-3.95h-2.03v3.95c0,.22-.11.33-.33.33h-.31c-.22,0-.33-.11-.33-.33v-3.95ZM71.56,21.97c-.22,0-.33-.11-.33-.33v-.33c0-.22.11-.33.33-.33h.34c.22,0,.33.11.33.33v.33c0,.22-.11.33-.33.33h-.34Z"/>
          <path class="cls-1" d="M73.43,27.61c-.09-.05-.13-.12-.14-.2,0-.08.02-.16.07-.25l.1-.14c.07-.09.14-.13.21-.14.07,0,.16.02.26.07.11.07.27.16.48.26s.46.15.76.15c.25,0,.46-.06.62-.18.16-.12.24-.28.24-.49,0-.17-.07-.3-.2-.4s-.29-.19-.48-.28c-.19-.08-.4-.16-.62-.24-.22-.08-.43-.18-.62-.3-.19-.12-.36-.27-.49-.45-.13-.18-.2-.41-.2-.7,0-.24.05-.45.15-.64.1-.18.23-.33.39-.45.17-.12.36-.21.58-.28s.46-.09.71-.09c.35,0,.65.05.88.14.23.09.41.18.53.25.09.05.15.11.17.18.02.08,0,.16-.06.26l-.09.15c-.09.17-.24.2-.44.11-.11-.06-.25-.12-.42-.19-.17-.07-.38-.1-.62-.1s-.44.05-.61.16c-.16.11-.24.27-.24.48,0,.17.06.3.19.41s.29.2.49.28c.19.08.4.16.62.24s.43.18.62.29c.19.12.35.27.49.45.13.18.19.42.19.71,0,.21-.04.41-.13.59-.09.18-.21.34-.37.48-.16.13-.35.24-.58.31-.22.07-.47.11-.74.11-.21,0-.41-.02-.58-.05-.18-.04-.34-.08-.48-.14s-.26-.12-.38-.18-.2-.12-.26-.17Z"/>
          <path class="cls-1" d="M77.69,25.51c0-.37.07-.72.2-1.04.13-.32.32-.6.56-.84.24-.24.53-.42.86-.56s.69-.21,1.08-.21c.21,0,.41.02.58.05.17.04.33.08.47.13.14.05.26.11.37.17.1.06.19.12.25.18.09.05.13.12.14.2,0,.08-.02.16-.08.25l-.1.15c-.11.17-.26.19-.45.08-.11-.07-.25-.16-.44-.25-.19-.09-.42-.13-.69-.13s-.49.04-.71.13-.4.21-.56.38c-.16.16-.28.35-.37.57-.09.22-.13.46-.13.72s.04.5.13.72c.09.22.21.41.37.58s.35.29.56.38c.22.09.46.14.72.14.31,0,.57-.05.78-.16.22-.11.39-.21.51-.3.19-.12.34-.09.45.09l.08.15c.11.18.08.33-.09.44-.07.06-.17.12-.27.2-.11.07-.24.14-.39.2-.15.06-.32.12-.51.16-.19.04-.4.07-.62.07-.4,0-.76-.07-1.09-.2-.33-.13-.61-.32-.85-.55s-.42-.52-.55-.84c-.13-.32-.2-.68-.2-1.06Z"/>
          <path class="cls-1" d="M83.33,21.31c0-.22.11-.33.33-.33h.31c.21,0,.32.11.32.33v2.29c0,.06,0,.12,0,.17,0,.05,0,.1-.01.13,0,.05,0,.09,0,.12h.02c.05-.12.13-.25.25-.39s.25-.26.41-.38c.16-.12.34-.21.55-.29.21-.07.44-.11.69-.11.6,0,1.04.16,1.32.48.28.32.42.81.42,1.46v2.91c0,.22-.11.33-.33.33h-.31c-.22,0-.33-.11-.33-.33v-2.69c0-.18-.01-.35-.04-.5s-.07-.29-.14-.4c-.07-.11-.17-.2-.29-.27-.13-.07-.29-.1-.49-.1-.24,0-.46.05-.67.14-.21.09-.38.23-.54.4s-.27.37-.36.6c-.09.23-.13.48-.13.75v2.07c0,.22-.11.33-.32.33h-.31c-.22,0-.33-.11-.33-.33v-6.4Z"/>
          <path class="cls-1" d="M91.23,23.36c-.04-.11-.04-.21,0-.28s.13-.1.25-.1h.34c.19,0,.31.09.37.27l1.14,3.15c.03.07.05.15.08.22.02.08.04.15.06.22.02.08.04.16.05.24h.02c.02-.08.04-.16.06-.24.01-.07.03-.15.05-.22.02-.08.04-.15.07-.22l1.14-3.15c.06-.18.18-.27.37-.27h.34c.12,0,.21.03.25.1s.05.16,0,.28l-1.64,4.42c-.06.17-.18.26-.37.26h-.56c-.19,0-.31-.09-.37-.26l-1.66-4.42Z"/>
          <path class="cls-1" d="M96.36,25.5c0-.38.07-.73.21-1.05s.34-.6.58-.84c.24-.24.53-.42.86-.55s.68-.19,1.06-.19.74.06,1.07.19.62.31.87.55c.25.24.44.52.58.84.14.32.21.67.21,1.05s-.07.74-.21,1.07c-.14.32-.34.6-.58.84-.25.24-.54.42-.87.55-.33.13-.68.2-1.07.2s-.73-.07-1.06-.2c-.33-.13-.62-.32-.86-.55s-.44-.52-.58-.84-.21-.68-.21-1.07ZM97.35,25.5c0,.27.05.51.14.74.09.22.22.42.38.57.16.16.34.29.55.38.21.09.44.14.67.14s.47-.04.68-.14c.21-.09.39-.21.55-.38.16-.16.29-.35.38-.57.09-.22.13-.47.13-.74s-.04-.5-.13-.72c-.09-.22-.21-.41-.38-.57s-.34-.29-.55-.38-.44-.13-.68-.13-.46.04-.67.13-.39.21-.55.38-.28.35-.38.57c-.09.22-.14.46-.14.72Z"/>
          <path class="cls-1" d="M102.89,23.31c0-.22.11-.33.33-.33h.28c.22,0,.33.11.33.33v.58c0,.05,0,.1,0,.15,0,.05,0,.09-.01.12,0,.04-.01.08-.01.11h.02c.05-.17.13-.33.22-.49s.21-.3.35-.42c.13-.12.28-.22.44-.3.16-.08.34-.11.54-.11.21,0,.32.11.32.33v.28c0,.22-.12.33-.36.33s-.46.06-.64.19c-.18.12-.34.28-.46.47-.12.19-.22.42-.28.67s-.09.5-.09.75v1.76c0,.22-.11.33-.33.33h-.31c-.22,0-.33-.11-.33-.33v-4.4Z"/>
          <path class="cls-1" d="M106.44,23.31c0-.22.11-.33.33-.33h.28c.22,0,.33.11.33.33v.45c0,.07,0,.13-.02.2,0,.03,0,.06,0,.09h.02c.06-.15.15-.29.27-.43.12-.14.25-.27.41-.38.16-.11.33-.2.51-.27.18-.07.38-.1.58-.1.83,0,1.34.38,1.52,1.15h.02c.07-.15.16-.29.28-.43s.26-.26.41-.37.32-.19.51-.25.38-.09.59-.09c.58,0,1,.16,1.27.48.27.32.4.81.4,1.46v2.91c0,.22-.11.33-.33.33h-.31c-.22,0-.33-.11-.33-.33v-2.7c0-.18-.01-.35-.04-.5s-.07-.29-.13-.4-.15-.2-.27-.27c-.12-.07-.27-.1-.46-.1-.23,0-.44.05-.63.17-.19.11-.34.26-.48.44-.13.18-.23.39-.29.62-.07.23-.1.47-.1.71v2.03c0,.22-.11.33-.32.33h-.32c-.21,0-.32-.11-.32-.33v-2.7c0-.17,0-.33-.03-.48-.02-.15-.06-.29-.12-.41-.06-.12-.15-.21-.26-.28-.12-.07-.27-.1-.46-.1-.24,0-.46.06-.65.17-.19.11-.35.26-.48.45-.13.18-.23.39-.29.62-.07.23-.1.47-.1.7v2.03c0,.22-.11.33-.33.33h-.31c-.22,0-.33-.11-.33-.33v-4.4Z"/>
          <path class="cls-1" d="M115.82,29.25c.09-.19.23-.24.42-.17.12.05.27.09.45.14.18.05.4.08.65.08.21,0,.42-.02.61-.08.19-.05.36-.13.5-.24.14-.11.26-.26.34-.44s.13-.4.13-.66v-.55s0-.07.01-.11c0-.03.01-.07.02-.1h-.02c-.15.27-.34.48-.58.63-.24.15-.55.23-.92.23s-.67-.07-.96-.2c-.28-.13-.52-.32-.72-.54-.2-.23-.35-.5-.45-.82-.1-.32-.16-.66-.16-1.04s.05-.69.15-1c.1-.31.25-.57.44-.8.19-.23.42-.4.71-.53.28-.13.6-.19.97-.19.31,0,.57.04.78.13.2.09.36.19.48.29.14.12.25.26.32.42h.02s0-.02,0-.04c0-.02,0-.06,0-.12v-.29c0-.19.11-.28.33-.28h.24c.22,0,.33.11.33.33v4.52c0,.42-.07.78-.22,1.07-.15.29-.34.53-.57.71-.24.19-.51.32-.81.4-.3.08-.6.12-.91.12-.28,0-.55-.02-.8-.07-.25-.05-.48-.12-.67-.21-.2-.09-.26-.23-.17-.44l.07-.17ZM117.61,27.14c.17,0,.34-.03.5-.08.16-.06.31-.15.43-.29.12-.14.22-.31.29-.53.07-.22.11-.49.11-.82s-.04-.61-.12-.83c-.08-.22-.18-.4-.3-.53-.13-.13-.28-.22-.45-.27-.17-.05-.35-.08-.54-.08-.46,0-.81.15-1.04.45-.24.3-.35.69-.35,1.19,0,.55.13.98.38,1.31.26.33.62.49,1.08.49Z"/>
          <path class="cls-1" d="M120.99,25.51c0-.4.06-.76.2-1.09.13-.33.31-.6.53-.83.22-.23.49-.41.8-.54.31-.13.65-.19,1.01-.19s.66.06.93.18.5.29.68.5c.18.21.32.47.42.76.1.29.15.62.15.97,0,.09-.03.17-.09.24-.06.07-.15.1-.25.1h-3.38c.01.27.07.52.17.73.1.21.23.39.39.54s.34.26.54.33.42.11.65.11c.28,0,.52-.04.73-.14.21-.09.37-.18.48-.26.2-.11.35-.07.45.11l.09.15c.05.09.07.17.05.25-.02.08-.07.14-.16.2-.07.05-.17.11-.28.17-.11.06-.24.12-.39.17-.14.05-.3.1-.48.14-.18.04-.37.05-.57.05-.4,0-.76-.07-1.09-.21-.33-.14-.61-.32-.84-.56s-.42-.52-.55-.84c-.13-.32-.2-.67-.2-1.04ZM124.73,24.97c-.01-.45-.14-.78-.38-1.01-.24-.23-.52-.34-.86-.34-.37,0-.7.12-.96.35-.27.24-.44.57-.51,1h2.71Z"/>
          <path class="cls-1" d="M126.25,23.36c-.04-.11-.04-.21,0-.28s.13-.1.25-.1h.34c.19,0,.31.09.37.27l1.14,3.15c.03.07.05.15.08.22.02.08.04.15.06.22.02.08.04.16.05.24h.02c.02-.08.04-.16.06-.24.01-.07.03-.15.05-.22.02-.08.04-.15.07-.22l1.14-3.15c.06-.18.18-.27.37-.27h.34c.12,0,.21.03.25.1s.05.16,0,.28l-1.64,4.42c-.06.17-.18.26-.37.26h-.56c-.19,0-.31-.09-.37-.26l-1.66-4.42Z"/>
          <path class="cls-1" d="M131.4,25.51c0-.4.06-.76.2-1.09.13-.33.31-.6.53-.83.22-.23.49-.41.8-.54.31-.13.65-.19,1.01-.19s.66.06.93.18.5.29.68.5c.18.21.32.47.42.76.1.29.15.62.15.97,0,.09-.03.17-.09.24-.06.07-.15.1-.25.1h-3.38c.01.27.07.52.17.73.1.21.23.39.39.54s.34.26.54.33.42.11.65.11c.28,0,.52-.04.73-.14.21-.09.37-.18.48-.26.2-.11.35-.07.45.11l.09.15c.05.09.07.17.05.25-.02.08-.07.14-.16.2-.07.05-.17.11-.28.17-.11.06-.24.12-.39.17-.14.05-.3.1-.48.14-.18.04-.37.05-.57.05-.4,0-.76-.07-1.09-.21-.33-.14-.61-.32-.84-.56s-.42-.52-.55-.84c-.13-.32-.2-.67-.2-1.04ZM135.15,24.97c-.01-.45-.14-.78-.38-1.01-.24-.23-.52-.34-.86-.34-.37,0-.7.12-.96.35-.27.24-.44.57-.51,1h2.71Z"/>
          <path class="cls-1" d="M137.17,23.31c0-.22.11-.33.33-.33h.28c.22,0,.33.11.33.33v.58c0,.05,0,.1,0,.15,0,.05,0,.09-.01.12,0,.04,0,.08,0,.11h.02c.05-.17.13-.33.23-.49s.21-.3.34-.42c.13-.12.28-.22.45-.3.16-.08.34-.11.54-.11.21,0,.32.11.32.33v.28c0,.22-.12.33-.36.33s-.46.06-.65.19c-.18.12-.34.28-.46.47s-.21.42-.28.67c-.06.25-.09.5-.09.75v1.76c0,.22-.11.33-.33.33h-.31c-.22,0-.33-.11-.33-.33v-4.4Z"/>
        </g>
      </g>
      <path class="cls-3" d="M42.18,15.86C39.34,3.15,16.12-3.81,6.39,3.43-4.48,11.51.8,37.81,13.32,41.46c11.7,3.42,31.83-12.32,28.86-25.6Z"/>
      <g class="cls-2">
        <g class="cls-2">
          <path class="cls-1" d="M12.3,19.03c0-.36.06-.67.2-.94s.32-.51.53-.72c.21-.21.45-.4.7-.58.25-.17.48-.35.7-.52.21-.17.39-.35.53-.53.14-.18.21-.4.2-.63,0-.3-.11-.54-.32-.72-.2-.18-.47-.26-.78-.26-.14,0-.26.03-.37.07-.11.04-.21.09-.3.15-.09.06-.16.12-.23.18-.06.07-.12.13-.15.18-.06.06-.12.11-.19.13-.06.02-.13,0-.21-.06l-.16-.12c-.15-.11-.18-.24-.08-.38.06-.08.13-.17.23-.28.1-.11.22-.21.36-.31s.31-.18.5-.25c.19-.07.41-.1.65-.11.27,0,.53.03.76.11.23.08.44.19.61.34.17.15.31.33.41.54.1.21.15.45.16.71,0,.33-.06.62-.2.86-.14.25-.31.47-.52.67-.21.2-.44.38-.68.55-.25.16-.48.33-.69.5-.21.17-.39.34-.53.52-.14.18-.21.39-.21.61l2.71-.06c.19,0,.28.09.29.27v.17c0,.19-.08.28-.27.29l-3.34.07c-.09,0-.16-.02-.21-.06s-.09-.12-.09-.21v-.18Z"/>
          <path class="cls-1" d="M19.31,19.45c-.4,0-.74-.07-1.01-.22-.27-.16-.5-.37-.67-.65-.17-.28-.3-.6-.38-.98-.08-.38-.12-.78-.13-1.22,0-.43.02-.83.08-1.21.06-.38.18-.71.34-.99.16-.28.38-.51.64-.67.27-.17.6-.26,1-.26.4,0,.74.07,1.02.22s.5.37.67.65c.17.27.29.6.37.97.08.38.12.78.13,1.21,0,.44-.02.84-.08,1.22-.06.38-.17.71-.33,1-.16.28-.37.51-.64.68-.27.17-.6.26-1.01.26ZM19.29,18.67c.24,0,.45-.07.61-.2.16-.13.29-.29.38-.51.09-.21.15-.46.19-.75.03-.28.05-.59.04-.92,0-.32-.03-.62-.08-.91-.05-.28-.12-.53-.22-.74-.1-.21-.23-.37-.4-.49-.17-.12-.37-.17-.62-.17-.24,0-.45.07-.6.19-.16.12-.28.29-.38.5-.09.21-.15.46-.19.74-.03.28-.05.59-.04.91,0,.33.03.64.08.92.05.28.12.53.22.74.1.21.23.37.4.49.16.12.37.18.61.17Z"/>
          <path class="cls-1" d="M22.33,18.83c0-.19.09-.28.27-.29l1.05-.02-.08-3.88v-.26s0-.08,0-.11h-.02s-.04.06-.06.09c-.04.06-.11.14-.2.23l-.37.38c-.14.13-.27.13-.39,0l-.12-.12c-.14-.13-.14-.26,0-.4l1.07-1.09c.1-.09.21-.14.34-.14h.27c.19,0,.28.08.29.27l.1,5,1.04-.02c.19,0,.28.09.29.27v.17c0,.19-.08.28-.27.29l-2.9.06c-.19,0-.28-.09-.29-.28v-.17Z"/>
          <path class="cls-1" d="M26.36,16.48c0-.39.04-.79.14-1.19.1-.41.26-.77.47-1.1.21-.33.49-.6.83-.82.34-.21.74-.33,1.2-.33.19,0,.36,0,.52.04.16.03.29.06.38.09.18.06.23.18.17.35l-.07.21c-.03.1-.08.16-.13.18-.06.02-.12.02-.2,0-.07-.03-.16-.05-.27-.07s-.22-.03-.35-.03c-.28,0-.53.07-.74.19-.21.12-.39.28-.53.47-.14.19-.26.41-.34.66-.08.25-.14.5-.17.76h.02c.12-.17.3-.32.54-.44.24-.12.52-.18.83-.19.28,0,.53.04.76.13.23.09.43.23.59.4.16.17.29.37.39.6s.15.49.15.76c0,.3-.04.58-.13.83s-.22.47-.39.66c-.17.19-.37.33-.6.44-.24.11-.5.16-.78.17-.32,0-.62-.05-.89-.18-.28-.13-.52-.31-.72-.56-.2-.24-.37-.54-.49-.88-.12-.34-.19-.73-.19-1.15ZM27.24,16.88c0,.17.04.35.11.54.07.19.17.37.29.52.12.16.27.29.44.39.17.1.35.15.55.15.34,0,.61-.13.8-.37.19-.24.28-.54.28-.9,0-.36-.12-.66-.34-.9-.22-.23-.53-.35-.94-.34-.17,0-.33.03-.47.08-.14.05-.27.12-.37.2-.11.08-.19.18-.25.28-.06.11-.09.22-.09.34Z"/>
        </g>
        <g class="cls-2">
          <path class="cls-1" d="M12.48,28.28c0-.36.06-.67.2-.94s.32-.51.53-.72c.21-.21.45-.4.7-.58.25-.17.48-.35.7-.52.21-.17.39-.35.53-.53.14-.18.21-.4.2-.63,0-.3-.11-.54-.32-.72-.2-.18-.47-.26-.78-.26-.14,0-.26.03-.37.07-.11.04-.21.09-.3.15-.09.06-.16.12-.23.18-.06.07-.12.13-.15.18-.06.06-.12.11-.19.13-.06.02-.13,0-.21-.06l-.16-.12c-.15-.11-.18-.24-.08-.38.06-.08.13-.17.23-.28.1-.11.22-.21.36-.31s.31-.18.5-.25c.19-.07.41-.1.65-.11.27,0,.53.03.76.11.23.08.44.19.61.34.17.15.31.33.41.54.1.21.15.45.16.71,0,.33-.06.62-.2.86-.14.25-.31.47-.52.67-.21.2-.44.38-.68.55-.25.16-.48.33-.69.5-.21.17-.39.34-.53.52-.14.18-.21.39-.21.61l2.71-.06c.19,0,.28.09.29.27v.17c0,.19-.08.28-.27.29l-3.34.07c-.09,0-.16-.02-.21-.06s-.09-.12-.09-.21v-.18Z"/>
          <path class="cls-1" d="M19.48,28.7c-.4,0-.74-.07-1.01-.22-.27-.16-.5-.37-.67-.65-.17-.28-.3-.6-.38-.98-.08-.38-.12-.78-.13-1.22,0-.43.02-.83.08-1.21.06-.38.18-.71.34-.99.16-.28.38-.51.64-.67.27-.17.6-.26,1-.26.4,0,.74.07,1.02.22s.5.37.67.65c.17.27.29.6.37.97.08.38.12.78.13,1.21,0,.44-.02.84-.08,1.22-.06.38-.17.71-.33,1-.16.28-.37.51-.64.68-.27.17-.6.26-1.01.26ZM19.46,27.92c.24,0,.45-.07.61-.2.16-.13.29-.29.38-.51.09-.21.15-.46.19-.75.03-.28.05-.59.04-.92,0-.32-.03-.62-.08-.91-.05-.28-.12-.53-.22-.74-.1-.21-.23-.37-.4-.49-.17-.12-.37-.17-.62-.17-.24,0-.45.07-.6.19-.16.12-.28.29-.38.5-.09.21-.15.46-.19.74-.03.28-.05.59-.04.91,0,.33.03.64.08.92.05.28.12.53.22.74.1.21.23.37.4.49.16.12.37.18.61.17Z"/>
          <path class="cls-1" d="M22.5,28.08c0-.19.09-.28.27-.29l1.05-.02-.08-3.88v-.26s0-.08,0-.11h-.02s-.04.06-.06.09c-.04.06-.11.14-.2.23l-.37.38c-.14.13-.27.13-.39,0l-.12-.12c-.14-.13-.14-.26,0-.4l1.07-1.09c.1-.09.21-.14.34-.14h.27c.19,0,.28.08.29.27l.1,5,1.04-.02c.19,0,.28.09.29.27v.17c0,.19-.08.28-.27.29l-2.9.06c-.19,0-.28-.09-.29-.28v-.17Z"/>
          <path class="cls-1" d="M26.56,26.84c-.19,0-.28-.09-.29-.28v-.05c0-.07,0-.14.02-.19.02-.05.04-.11.08-.16l2.48-3.59c.08-.12.19-.18.33-.19h.47c.19-.01.28.08.29.26l.07,3.4h.54c.19-.02.28.08.29.26v.15c0,.19-.07.28-.23.29h-.58s.03,1.34.03,1.34c0,.19-.09.28-.27.29h-.27c-.19,0-.28-.08-.29-.27l-.03-1.33-2.63.05ZM29.17,26.07l-.04-2.19c0-.07,0-.14,0-.21s0-.13,0-.19c0-.06.01-.13.02-.2h-.02c-.03.06-.06.12-.09.17-.03.04-.06.1-.09.16-.03.06-.07.12-.11.17l-1.66,2.31v.02s1.97-.04,1.97-.04Z"/>
        </g>
      </g>
    </g>
  </g>
</svg>