<?xml version="1.0" encoding="UTF-8"?>
<svg id="Layer_2" data-name="Layer 2" xmlns="http://www.w3.org/2000/svg" viewBox="0 0 112.24 15.63">
  <defs>
    <style>
      .cls-1 {
        fill: #662d91;
      }

      .cls-2 {
        isolation: isolate;
      }
    </style>
  </defs>
  <g id="OPLEIDING">
    <g class="cls-2">
      <g class="cls-2">
        <path class="cls-1" d="M0,7.72c0-1.09.19-2.1.57-3.04.38-.94.92-1.75,1.62-2.45.7-.7,1.53-1.24,2.51-1.64.97-.39,2.04-.59,3.21-.59s2.24.2,3.21.59c.97.4,1.81.94,2.51,1.64.7.7,1.24,1.52,1.62,2.45.38.94.57,1.95.57,3.04s-.19,2.15-.57,3.11c-.38.96-.92,1.79-1.62,2.51-.7.71-1.53,1.27-2.51,1.68-.97.41-2.04.61-3.21.61s-2.24-.21-3.21-.61c-.97-.41-1.81-.97-2.51-1.68-.7-.71-1.24-1.55-1.62-2.51-.38-.96-.57-2-.57-3.11ZM3.83,7.72c0,.65.1,1.25.31,1.8.2.55.49,1.03.85,1.43.36.4.79.72,1.29.95.5.23,1.05.35,1.64.35s1.14-.12,1.64-.35c.5-.23.93-.55,1.29-.95.36-.4.64-.88.85-1.43.2-.55.31-1.15.31-1.8s-.1-1.2-.31-1.72c-.2-.53-.49-.99-.85-1.38s-.79-.69-1.29-.91-1.05-.33-1.64-.33-1.14.11-1.64.33-.93.52-1.29.91c-.36.39-.64.85-.85,1.38-.2.53-.31,1.1-.31,1.72Z"/>
        <path class="cls-1" d="M17.96,1.42c0-.78.39-1.16,1.16-1.16h5.12c.73,0,1.4.13,2.01.38s1.12.61,1.55,1.08c.43.47.76,1.02,1,1.65.24.63.36,1.33.36,2.09s-.12,1.46-.36,2.1-.57,1.19-1,1.66c-.43.46-.95.83-1.55,1.09s-1.28.39-2.01.39h-2.58v3.51c0,.78-.39,1.16-1.16,1.16h-1.38c-.78,0-1.16-.39-1.16-1.16V1.42ZM23.48,7.53c.65,0,1.13-.19,1.45-.58.32-.39.48-.88.48-1.49s-.16-1.1-.47-1.47c-.31-.37-.78-.56-1.4-.56h-1.88v4.1h1.82Z"/>
        <path class="cls-1" d="M30.98,1.42c0-.78.39-1.16,1.16-1.16h1.38c.77,0,1.16.39,1.16,1.16v10.79h5.01c.77,0,1.16.39,1.16,1.16v.85c0,.78-.39,1.16-1.16,1.16h-7.55c-.78,0-1.16-.39-1.16-1.16V1.42Z"/>
        <path class="cls-1" d="M42.38,1.42c0-.78.39-1.16,1.16-1.16h7.15c.77,0,1.16.39,1.16,1.16v.85c0,.78-.39,1.16-1.16,1.16h-4.61v2.75h3.45c.78,0,1.16.39,1.16,1.16v.85c0,.78-.39,1.16-1.16,1.16h-3.45v2.85h4.91c.78,0,1.16.39,1.16,1.16v.85c0,.78-.39,1.16-1.16,1.16h-7.44c-.78,0-1.16-.39-1.16-1.16V1.42Z"/>
        <path class="cls-1" d="M54.23,1.42c0-.78.39-1.16,1.16-1.16h1.38c.77,0,1.16.39,1.16,1.16v12.8c0,.78-.39,1.16-1.16,1.16h-1.38c-.78,0-1.16-.39-1.16-1.16V1.42Z"/>
        <path class="cls-1" d="M60.85,1.42c0-.78.39-1.16,1.16-1.16h4.21c1.18,0,2.26.17,3.23.51.97.34,1.79.83,2.46,1.47s1.2,1.43,1.57,2.37c.37.94.55,2,.55,3.18s-.18,2.25-.55,3.19c-.37.95-.89,1.74-1.57,2.39s-1.5,1.15-2.46,1.49c-.97.35-2.04.52-3.23.52h-4.21c-.78,0-1.16-.39-1.16-1.16V1.42ZM66.07,12.2c1.28,0,2.29-.37,3.02-1.12.73-.75,1.1-1.85,1.1-3.3s-.37-2.54-1.12-3.27c-.75-.73-1.75-1.09-3-1.09h-1.52v8.78h1.52Z"/>
        <path class="cls-1" d="M76.2,1.42c0-.78.39-1.16,1.16-1.16h1.38c.78,0,1.16.39,1.16,1.16v12.8c0,.78-.39,1.16-1.16,1.16h-1.38c-.78,0-1.16-.39-1.16-1.16V1.42Z"/>
        <path class="cls-1" d="M82.82,1.42c0-.78.39-1.16,1.16-1.16h1.65c.63,0,1.1.26,1.4.78l3.72,6.28c.15.25.3.53.44.83.14.3.27.58.4.85.14.31.28.61.42.91h.04c-.03-.31-.06-.62-.08-.93-.03-.27-.05-.55-.06-.85-.01-.3-.02-.56-.02-.8V1.42c0-.78.39-1.16,1.16-1.16h1.38c.78,0,1.16.39,1.16,1.16v12.8c0,.78-.39,1.16-1.16,1.16h-1.65c-.62,0-1.08-.26-1.38-.78l-3.74-6.26c-.16-.24-.31-.51-.47-.81-.16-.3-.29-.59-.4-.86-.16-.31-.29-.61-.4-.91h-.04c.03.31.06.62.08.93.03.27.05.55.06.85.01.3.02.56.02.8v5.88c0,.78-.39,1.16-1.16,1.16h-1.38c-.78,0-1.16-.39-1.16-1.16V1.42Z"/>
        <path class="cls-1" d="M97.73,7.91c0-1.16.2-2.22.59-3.18.39-.96.94-1.8,1.65-2.5s1.54-1.24,2.52-1.64c.97-.39,2.04-.59,3.19-.59.61,0,1.17.05,1.7.15s1,.21,1.43.35.79.28,1.09.43c.3.16.53.29.69.4.32.24.5.49.54.74s-.05.54-.24.87l-.55.87c-.2.33-.43.5-.69.54s-.57-.04-.92-.22c-.35-.18-.74-.35-1.17-.51-.43-.15-.98-.23-1.64-.23-.76,0-1.41.12-1.96.35-.54.23-.99.55-1.35.95-.36.4-.62.86-.79,1.39s-.25,1.06-.25,1.63c0,.71.12,1.34.35,1.89.23.56.54,1.03.93,1.43.39.39.84.7,1.36.91.52.21,1.07.32,1.65.32.54,0,1-.06,1.4-.19s.72-.27.97-.42c.3-.17.54-.37.74-.61v-1.04h-.97c-.78,0-1.16-.39-1.16-1.16v-.83c0-.77.39-1.16,1.16-1.16h3.09c.78,0,1.16.39,1.16,1.16v6.22c0,.78-.39,1.16-1.16,1.16h-.7c-.38,0-.67-.09-.87-.26-.2-.18-.3-.39-.3-.64v-.19s0-.05.02-.06h-.04c-.27.27-.6.51-.99.72-.34.18-.76.35-1.26.49-.5.14-1.09.21-1.77.21-.97,0-1.91-.18-2.8-.54-.9-.36-1.69-.87-2.38-1.53-.69-.66-1.24-1.47-1.65-2.43s-.61-2.03-.61-3.21Z"/>
      </g>
    </g>
  </g>
</svg>