<?xml version="1.0" encoding="UTF-8"?>
<svg id="Layer_2" data-name="Layer 2" xmlns="http://www.w3.org/2000/svg" viewBox="0 0 196.28 45.94">
  <defs>
    <style>
      .cls-1 {
        fill: #662d91;
      }

      .cls-2 {
        isolation: isolate;
      }

      .cls-3 {
        fill: #fff;
        stroke: #662d91;
        stroke-miterlimit: 10;
      }
    </style>
  </defs>
  <g id="Techgrounds">
    <g>
      <g class="cls-2">
        <g class="cls-2">
          <path class="cls-1" d="M53.37,3.58h-1.62c-.37-.02-.55-.2-.54-.57v-.4c0-.37.19-.55.56-.55l4.99.04c.37,0,.55.19.54.56v.4c0,.37-.19.55-.56.54h-1.62s-.04,5.09-.04,5.09c0,.37-.19.55-.55.54h-.65c-.37,0-.55-.19-.54-.56l.04-5.1Z"/>
          <path class="cls-1" d="M58.05,2.67c0-.37.19-.55.56-.55l3.38.03c.37,0,.55.19.54.56v.4c0,.37-.19.55-.56.54l-2.18-.02v1.3s1.62.01,1.62.01c.37,0,.55.19.55.55v.4c0,.37-.19.55-.56.55h-1.63s-.01,1.33-.01,1.33l2.32.02c.37,0,.55.19.55.55v.4c0,.37-.19.55-.56.54l-3.52-.03c-.37,0-.55-.19-.55-.55l.05-6.05Z"/>
          <path class="cls-1" d="M63.08,5.73c0-.52.1-1,.29-1.45.19-.44.45-.83.78-1.16.33-.33.73-.58,1.19-.77.46-.19.97-.28,1.52-.27.27,0,.53.03.76.07.23.05.45.1.64.17.19.07.36.14.51.22.15.08.27.16.38.23.14.1.22.22.23.35.02.13-.02.27-.12.41l-.25.41c-.09.15-.21.24-.33.26-.13.02-.27-.02-.42-.11-.17-.1-.36-.19-.59-.28s-.47-.13-.74-.14c-.36,0-.67.05-.92.17s-.46.27-.63.45c-.17.19-.29.41-.37.65-.08.24-.12.49-.12.75,0,.27.04.53.11.79.08.26.2.49.36.69.17.21.37.37.63.5s.55.19.9.19c.3,0,.58-.05.83-.16.25-.11.46-.22.64-.34.32-.22.57-.18.77.11l.28.39c.09.14.13.28.12.41-.01.13-.08.25-.22.36-.11.09-.25.18-.41.28-.16.1-.35.19-.56.27-.21.08-.44.15-.7.2-.26.05-.54.08-.84.08-.57,0-1.09-.1-1.55-.29s-.85-.45-1.18-.79c-.32-.34-.57-.73-.74-1.18-.17-.45-.25-.94-.25-1.48Z"/>
          <path class="cls-1" d="M70.47,2.78c0-.37.19-.55.56-.55h.65c.37,0,.55.19.54.56l-.02,2.31,2.6.02.02-2.31c0-.37.19-.55.55-.55h.65c.37,0,.55.19.54.56l-.05,6.05c0,.37-.19.55-.55.54h-.65c-.37,0-.55-.19-.54-.56l.02-2.25-2.6-.02-.02,2.25c0,.37-.19.55-.55.54h-.65c-.37,0-.55-.19-.55-.56l.05-6.05Z"/>
          <path class="cls-1" d="M77.55,5.91c0-.55.1-1.05.29-1.5.19-.45.45-.85.79-1.17.34-.33.73-.58,1.2-.77s.97-.27,1.51-.27c.29,0,.55.03.8.08.25.05.47.11.67.17.2.06.37.13.51.21s.25.14.32.19c.15.11.24.23.25.35s-.02.26-.12.41l-.26.41c-.09.15-.2.24-.33.25-.12.02-.27-.02-.43-.11-.17-.09-.35-.17-.55-.24-.2-.08-.46-.11-.77-.12-.36,0-.67.05-.93.16-.26.11-.47.26-.64.45-.17.19-.3.41-.38.65-.08.25-.12.5-.13.77,0,.33.05.63.16.9.11.26.25.49.43.68.18.19.4.33.64.44.25.1.51.15.78.16.25,0,.47-.03.66-.08.19-.06.34-.12.46-.2.14-.08.26-.17.35-.29v-.49s-.46,0-.46,0c-.37,0-.55-.19-.55-.55v-.39c0-.37.19-.55.56-.55h1.46c.37.02.55.2.55.57l-.02,2.94c0,.37-.19.55-.56.54h-.33c-.18,0-.32-.05-.41-.13-.09-.08-.14-.19-.14-.31v-.09s0-.02.01-.03h-.02c-.13.13-.29.24-.47.34-.16.09-.36.16-.6.22-.24.07-.52.1-.84.09-.46,0-.9-.09-1.32-.27-.42-.17-.79-.42-1.12-.74-.32-.32-.58-.7-.77-1.16-.19-.45-.28-.96-.28-1.52Z"/>
          <path class="cls-1" d="M85.54,2.9c0-.37.19-.55.56-.55l1.94.02c.37,0,.65.02.85.05s.38.07.53.13c.41.16.73.42.96.77.23.36.35.8.34,1.32,0,.19-.02.38-.07.57-.04.19-.11.37-.2.55-.09.18-.2.34-.34.48-.13.14-.29.26-.47.34v.02s.04.06.07.1c.03.03.05.08.08.13.03.06.07.12.11.2l1,1.85c.11.19.13.35.05.48-.08.12-.22.18-.44.18h-.76c-.29,0-.5-.14-.65-.4l-1.04-2.03h-.82s-.02,1.85-.02,1.85c0,.37-.19.55-.55.54h-.65c-.37,0-.55-.19-.55-.56l.05-6.05ZM88.02,5.62c.28,0,.5-.07.67-.22s.25-.37.25-.65c0-.18-.03-.33-.08-.46-.06-.13-.17-.23-.33-.3-.15-.07-.37-.1-.66-.11h-.59s-.01,1.74-.01,1.74h.76Z"/>
          <path class="cls-1" d="M91.47,5.93c0-.51.1-.99.28-1.43.18-.44.44-.83.77-1.15.33-.33.73-.58,1.19-.77s.97-.27,1.52-.27c.55,0,1.06.1,1.52.29s.85.45,1.18.79c.33.33.58.72.75,1.17.18.45.26.92.26,1.44,0,.53-.1,1.02-.28,1.47-.18.45-.44.84-.77,1.18-.33.33-.73.6-1.19.79s-.97.28-1.52.28c-.55,0-1.06-.11-1.52-.3s-.85-.46-1.18-.8-.58-.74-.75-1.19c-.18-.45-.26-.94-.26-1.47ZM93.28,5.95c0,.31.04.59.14.85.09.26.23.49.39.68.17.19.37.34.61.46.24.11.49.17.77.17.28,0,.54-.05.78-.16.24-.11.44-.26.61-.45.17-.19.31-.41.41-.67.1-.26.15-.54.15-.85,0-.29-.04-.57-.14-.82-.09-.25-.23-.47-.4-.65-.17-.18-.37-.33-.61-.43s-.49-.16-.77-.16c-.28,0-.54.05-.78.15-.24.1-.44.24-.61.42-.17.18-.31.4-.41.65-.1.25-.15.52-.15.81Z"/>
          <path class="cls-1" d="M99.91,3.02c0-.37.19-.55.55-.55h.65c.37,0,.55.19.55.56l-.03,3.97c0,.38.11.67.33.86.22.2.52.29.9.3.38,0,.68-.09.91-.28.22-.19.34-.48.34-.86l.03-3.97c0-.37.19-.55.55-.55h.65c.37,0,.55.19.54.56l-.03,3.97c0,.4-.08.77-.22,1.1-.15.34-.35.62-.61.87-.26.24-.58.43-.94.56-.37.13-.78.2-1.22.19-.45,0-.86-.08-1.23-.21-.37-.14-.68-.33-.94-.58-.26-.25-.46-.54-.6-.88-.14-.34-.21-.71-.21-1.11l.03-3.97Z"/>
          <path class="cls-1" d="M107.2,3.09c0-.37.19-.55.56-.55h.78c.3,0,.52.13.66.38l1.73,2.99c.07.12.14.25.21.39.07.14.13.27.19.4.07.15.13.29.2.43h.02c-.01-.15-.02-.29-.04-.44-.01-.13-.02-.26-.03-.4,0-.14,0-.27,0-.38l.02-2.79c0-.37.19-.55.55-.55h.65c.37,0,.55.19.54.56l-.05,6.05c0,.37-.19.55-.55.54h-.78c-.29,0-.51-.13-.65-.38l-1.75-2.97c-.07-.11-.14-.24-.22-.39-.07-.14-.13-.28-.19-.41-.07-.15-.13-.29-.19-.43h-.02c.01.15.02.29.04.44.01.13.02.26.03.4,0,.14,0,.27,0,.38l-.02,2.78c0,.37-.19.55-.55.54h-.65c-.37,0-.55-.19-.55-.56l.05-6.05Z"/>
          <path class="cls-1" d="M114.62,3.15c0-.37.19-.55.56-.55l1.99.02c.56,0,1.07.09,1.52.25.46.16.84.4,1.16.71.32.31.56.68.73,1.13.17.44.25.95.25,1.51,0,.56-.09,1.06-.27,1.51s-.43.82-.75,1.12c-.32.3-.71.54-1.17.7-.46.16-.97.24-1.53.23l-1.99-.02c-.37,0-.55-.19-.55-.55l.05-6.05ZM117.05,8.27c.61,0,1.08-.17,1.43-.52.35-.35.53-.87.53-1.55s-.17-1.2-.52-1.55c-.35-.35-.82-.52-1.42-.53h-.72s-.03,4.14-.03,4.14h.72Z"/>
          <path class="cls-1" d="M121.7,9.22c-.05-.04-.1-.09-.14-.14-.04-.05-.07-.11-.08-.17-.02-.06-.02-.13,0-.21.02-.07.06-.16.13-.25l.31-.45c.1-.15.21-.23.33-.24s.26.02.43.12c.06.03.13.07.21.12.08.05.18.1.29.15s.23.09.36.13c.13.03.28.05.43.05.26,0,.45-.04.58-.14.12-.1.19-.21.19-.35,0-.17-.08-.31-.23-.43-.16-.12-.35-.23-.58-.33-.23-.1-.49-.22-.76-.34-.27-.12-.52-.27-.76-.44-.23-.18-.42-.39-.58-.64-.15-.25-.23-.56-.23-.94,0-.33.07-.62.2-.89.13-.27.31-.5.54-.69s.5-.34.81-.44.65-.15,1.01-.15c.42,0,.8.06,1.15.18.35.12.6.24.78.36.15.11.23.22.25.35.02.12,0,.26-.08.4l-.24.47c-.1.19-.22.29-.35.29s-.27-.03-.4-.11c-.17-.08-.34-.16-.51-.23-.18-.07-.38-.11-.61-.11-.28,0-.48.04-.6.14-.12.1-.18.21-.18.35,0,.17.08.32.23.43.16.12.35.22.58.33.23.1.48.21.76.32s.52.25.76.43c.23.17.42.38.58.63.16.25.23.56.23.94,0,.3-.06.58-.17.85-.11.27-.28.5-.49.71s-.48.36-.79.48-.67.17-1.07.17c-.25,0-.5-.03-.72-.08s-.44-.11-.64-.18c-.2-.07-.37-.15-.53-.23-.16-.08-.28-.16-.37-.24Z"/>
        </g>
        <g class="cls-2">
          <path class="cls-1" d="M52.26,15.48c.02-.21.14-.31.34-.31h.45c.19,0,.31.09.37.27l1.5,3.57c.04.1.08.21.12.32s.08.21.11.3c.04.11.08.22.12.33h.02c.03-.11.07-.22.11-.33.03-.09.07-.19.11-.3.04-.11.08-.21.12-.31l1.56-3.55c.06-.17.19-.26.37-.26h.45c.21,0,.32.11.34.32l.47,6.41c.01.23-.1.34-.32.34h-.32c-.21,0-.32-.11-.34-.33l-.29-4.13c-.01-.11-.02-.22-.02-.34,0-.12,0-.23,0-.34,0-.12,0-.24.01-.36h-.02c-.05.13-.09.25-.13.37-.04.11-.08.22-.13.34-.04.12-.09.23-.13.32l-1.32,2.91c-.07.17-.2.26-.38.26h-.33c-.19,0-.31-.09-.38-.27l-1.28-2.93c-.04-.09-.08-.2-.12-.32-.04-.12-.08-.24-.12-.35-.04-.13-.09-.26-.13-.39h-.02v.37c0,.11,0,.22,0,.34s0,.24-.02.34l-.35,4.13c-.02.21-.13.32-.33.32h-.33c-.23,0-.33-.12-.32-.34l.57-6.41Z"/>
          <path class="cls-1" d="M60.43,15.56c0-.22.11-.33.33-.33l2.01.02c.54,0,1.03.09,1.47.25.44.16.81.39,1.12.7.31.3.55.67.72,1.11.17.44.25.94.24,1.5s-.09,1.06-.27,1.5c-.17.44-.42.81-.73,1.1-.32.3-.69.52-1.14.68-.44.16-.93.23-1.47.23l-2.01-.02c-.22,0-.33-.11-.33-.33l.05-6.4ZM62.65,21.45c.4,0,.76-.05,1.09-.17.32-.11.6-.28.83-.51.23-.22.41-.5.54-.83.13-.33.19-.71.19-1.15,0-.43-.06-.82-.18-1.15-.12-.33-.3-.61-.53-.84-.23-.23-.5-.4-.83-.52-.32-.12-.68-.18-1.07-.18h-1.29s-.04,5.33-.04,5.33h1.29Z"/>
          <path class="cls-1" d="M68.86,16.16l-2.1-.02c-.22,0-.33-.11-.33-.33v-.2c0-.22.11-.33.33-.33l5.18.04c.21,0,.32.11.32.33v.2c0,.22-.11.33-.32.33l-2.1-.02-.05,5.87c0,.22-.11.33-.33.33h-.33c-.21,0-.32-.12-.32-.33l.05-5.87Z"/>
          <path class="cls-1" d="M72.38,19.64v-.2c0-.22.11-.33.33-.33l2.26.02c.22,0,.33.11.33.33v.2c0,.22-.11.33-.33.33l-2.26-.02c-.22,0-.33-.11-.33-.33Z"/>
          <path class="cls-1" d="M76.31,19.9c0-.37.07-.72.21-1.04.14-.32.33-.6.57-.84.24-.23.53-.42.86-.55.33-.13.69-.2,1.09-.2.21,0,.41.02.58.06s.33.08.47.14c.14.05.26.11.36.18.1.06.19.12.25.18.09.05.13.12.14.2,0,.08-.02.16-.08.25l-.1.15c-.11.17-.26.19-.45.08-.11-.07-.25-.16-.44-.25-.19-.09-.42-.14-.68-.14-.25,0-.49.04-.71.13-.22.09-.41.21-.56.37-.16.16-.28.35-.37.57s-.13.46-.14.72c0,.26.04.5.12.72.08.22.21.41.37.58.16.16.35.29.56.39.22.1.45.14.71.15.31,0,.57-.05.79-.15.22-.1.39-.2.51-.29.19-.12.34-.09.45.09l.08.15c.1.18.07.33-.09.44-.07.06-.17.12-.28.19-.11.07-.24.13-.39.2s-.32.11-.51.16c-.19.04-.4.06-.63.06-.4,0-.76-.07-1.09-.21-.33-.14-.61-.32-.84-.56-.24-.24-.42-.52-.55-.84-.13-.33-.19-.68-.19-1.06Z"/>
          <path class="cls-1" d="M81.58,19.94c0-.4.07-.76.2-1.09.13-.33.31-.6.54-.83.22-.23.49-.4.8-.53.31-.12.65-.18,1.01-.18.35,0,.66.06.93.19.27.12.5.29.68.51s.32.47.41.76c.09.29.14.62.14.97,0,.09-.03.17-.1.24-.06.07-.15.1-.25.1l-3.38-.03c.01.27.07.52.16.73.1.21.23.4.39.54.16.15.34.26.54.33.2.08.42.11.64.12.28,0,.52-.04.73-.13.21-.09.37-.17.48-.26.2-.1.35-.07.45.11l.09.15c.05.09.07.17.05.25-.02.08-.07.14-.16.19-.07.05-.17.11-.28.17-.11.06-.24.12-.39.17-.14.05-.3.1-.48.13-.18.03-.37.05-.57.05-.4,0-.76-.08-1.09-.21-.33-.14-.61-.33-.84-.57-.23-.24-.42-.52-.54-.84-.13-.32-.19-.67-.19-1.05ZM85.33,19.43c0-.45-.13-.78-.37-1.01-.24-.23-.52-.34-.85-.35-.37,0-.7.11-.97.35-.27.24-.45.57-.52.99l2.71.02Z"/>
          <path class="cls-1" d="M87.37,17.79c0-.22.11-.33.33-.33h.28c.22,0,.33.12.33.33v.58c0,.05,0,.1-.01.15,0,.05,0,.09-.02.12,0,.04-.01.08-.01.11h.02c.05-.17.13-.33.23-.49.1-.16.21-.3.35-.42s.28-.22.45-.3c.16-.07.34-.11.54-.11.21,0,.32.11.32.33v.28c0,.22-.12.33-.37.33-.25,0-.46.06-.65.18-.18.12-.34.28-.46.47s-.22.41-.28.66c-.06.25-.09.5-.1.74v1.76c-.02.22-.13.33-.35.33h-.31c-.22,0-.33-.12-.33-.34l.04-4.4Z"/>
          <path class="cls-1" d="M91.17,18.33h-.35c-.21,0-.32-.12-.32-.34v-.13c0-.22.11-.33.33-.33h.36s0-1.11,0-1.11c0-.22.11-.33.33-.33h.29c.22,0,.33.12.33.33v1.11s.87,0,.87,0c.22,0,.33.11.33.33v.13c0,.22-.11.33-.32.33h-.89s-.02,2.24-.02,2.24c0,.24.03.43.09.58.07.15.15.26.24.34.1.08.2.14.31.17.11.03.21.05.3.06.13.01.23.05.27.09.05.05.07.13.07.24v.21c0,.22-.14.33-.4.33-.25,0-.49-.04-.72-.12-.23-.08-.42-.19-.59-.34-.17-.16-.3-.35-.4-.58-.1-.23-.15-.51-.15-.83l.02-2.4Z"/>
          <path class="cls-1" d="M94.35,17.85c0-.22.11-.33.33-.33h.31c.22,0,.33.12.33.33l-.04,4.4c0,.22-.11.33-.33.33h-.31c-.22,0-.33-.12-.33-.34l.04-4.4ZM94.68,16.51c-.22,0-.33-.11-.33-.33v-.33c0-.22.12-.33.33-.33h.34c.22,0,.33.12.33.33v.33c0,.22-.12.33-.34.33h-.34Z"/>
          <path class="cls-1" d="M96.94,18.32h-.32c-.22,0-.33-.12-.33-.34v-.12c0-.22.11-.33.33-.33h.32s0-.19,0-.19c0-.4.08-.72.22-.96.15-.24.32-.43.51-.56s.39-.22.6-.26c.21-.04.38-.06.51-.06h.12c.22,0,.33.11.33.33v.19c0,.11-.03.19-.09.24s-.15.08-.26.09c-.09,0-.2.02-.31.04-.11.02-.21.06-.31.14s-.18.18-.25.31c-.07.14-.1.32-.1.55v.15s2.67.02,2.67.02c.22,0,.33.11.33.33l-.04,4.4c0,.22-.11.33-.33.33h-.31c-.22,0-.33-.12-.33-.34l.03-3.95-2.03-.02-.03,3.95c0,.22-.11.33-.33.33h-.31c-.22,0-.33-.12-.33-.33l.03-3.95ZM100.26,16.56c-.22,0-.33-.11-.33-.33v-.33c0-.22.12-.33.33-.33h.34c.22,0,.33.12.33.33v.33c0,.22-.12.33-.34.33h-.34Z"/>
          <path class="cls-1" d="M101.96,20.11c0-.37.07-.72.21-1.04.14-.32.33-.6.57-.84.24-.23.53-.42.86-.55.33-.13.69-.2,1.09-.2.21,0,.41.02.58.06s.33.08.47.14c.14.05.26.11.36.18.1.06.19.12.25.18.09.05.13.12.14.2s-.02.16-.08.25l-.1.15c-.11.17-.26.19-.45.08-.11-.07-.25-.16-.44-.25-.19-.09-.42-.14-.68-.14-.25,0-.49.04-.71.13-.22.09-.4.21-.56.37-.16.16-.28.35-.37.57s-.13.46-.14.72c0,.26.04.5.12.72.08.22.21.41.37.58.16.16.35.29.56.39.22.1.45.14.71.15.31,0,.57-.05.79-.15.22-.1.39-.2.51-.29.19-.12.34-.09.45.09l.08.15c.1.18.07.33-.09.44-.07.06-.17.12-.28.19-.11.07-.24.13-.39.2s-.32.11-.51.16c-.19.04-.4.06-.62.06-.4,0-.76-.07-1.09-.21-.33-.14-.61-.32-.85-.56-.24-.24-.42-.52-.55-.84-.13-.33-.19-.68-.19-1.06Z"/>
          <path class="cls-1" d="M107.18,21.31c0-.26.05-.49.16-.67.1-.19.24-.35.4-.47.17-.12.36-.23.57-.3.21-.08.43-.14.66-.17.23-.04.45-.06.67-.07.22-.01.41-.02.59-.02h.26s0-.13,0-.13c0-.21-.03-.38-.08-.53-.06-.14-.13-.26-.23-.35-.1-.09-.22-.15-.35-.19-.13-.04-.28-.06-.43-.06-.25,0-.48.03-.68.11-.2.07-.35.14-.47.21-.19.09-.34.05-.45-.12l-.08-.14c-.1-.2-.07-.35.11-.45.15-.09.37-.18.65-.27s.61-.14,1-.14c.63,0,1.12.18,1.47.52s.51.83.51,1.48l-.02,2.87c0,.22-.11.33-.33.33h-.25c-.22,0-.33-.12-.33-.33v-.3s0-.09,0-.13,0-.07.01-.1c0-.03.01-.05.02-.08h-.02c-.1.2-.23.37-.38.53-.13.13-.31.25-.51.36-.21.11-.46.16-.76.16-.22,0-.43-.04-.64-.11-.21-.07-.39-.17-.54-.3-.16-.13-.28-.29-.37-.47s-.14-.4-.13-.64ZM108.16,21.23c0,.2.08.39.23.56s.39.26.7.26c.21,0,.41-.04.58-.14.17-.09.32-.22.43-.38.12-.16.21-.33.27-.52.07-.19.1-.38.1-.56v-.22s-.26,0-.26,0c-.18,0-.39,0-.62.02s-.46.05-.67.12c-.21.06-.39.17-.54.3-.15.14-.22.32-.23.56Z"/>
          <path class="cls-1" d="M112.35,21.35c0-.26.05-.49.16-.67.1-.19.24-.35.4-.47s.36-.23.57-.3c.21-.08.43-.14.66-.17.23-.04.45-.06.67-.07.22-.01.41-.02.59-.02h.26s0-.13,0-.13c0-.21-.03-.38-.08-.53-.06-.14-.13-.26-.23-.35-.1-.09-.22-.15-.35-.19s-.28-.06-.43-.06c-.25,0-.48.03-.68.1s-.35.14-.47.21c-.19.09-.34.05-.45-.12l-.08-.14c-.1-.2-.07-.35.11-.45.15-.08.37-.18.65-.27.28-.1.61-.14,1-.14.63,0,1.12.18,1.47.52s.51.83.51,1.48l-.02,2.87c0,.22-.11.33-.33.33h-.25c-.22,0-.33-.12-.33-.33v-.3s0-.09,0-.13,0-.07.01-.1c0-.03.01-.05.02-.08h-.02c-.1.2-.23.38-.38.53-.13.13-.31.25-.51.36-.21.11-.46.16-.76.16-.22,0-.43-.04-.64-.11-.21-.07-.39-.17-.54-.3-.16-.13-.28-.29-.37-.47s-.14-.4-.13-.64ZM113.33,21.28c0,.2.08.39.23.56.16.17.39.26.7.26.21,0,.41-.04.58-.14.17-.09.32-.22.43-.38.12-.16.21-.33.27-.52.07-.19.1-.38.1-.56v-.22s-.26,0-.26,0c-.18,0-.39,0-.62.02s-.46.05-.67.12-.39.17-.54.3c-.15.14-.22.32-.23.56Z"/>
          <path class="cls-1" d="M118.14,18.56h-.35c-.21,0-.32-.12-.32-.33v-.13c0-.22.11-.33.33-.33h.36s0-1.11,0-1.11c0-.22.11-.33.33-.33h.29c.22,0,.33.12.33.34v1.11s.87,0,.87,0c.22,0,.33.11.33.33v.13c0,.22-.11.33-.32.33h-.89s-.02,2.24-.02,2.24c0,.24.03.43.09.58.07.15.15.26.24.34s.2.14.31.17c.11.03.21.05.3.06.13.01.23.05.27.09.05.05.07.13.07.24v.21c0,.22-.14.33-.4.33-.25,0-.49-.04-.72-.12-.23-.08-.42-.19-.59-.34-.17-.15-.3-.35-.4-.58-.1-.23-.15-.51-.15-.83l.02-2.4Z"/>
        </g>
        <g class="cls-2">
          <path class="cls-1" d="M51.74,27.84c0-.18.09-.26.27-.26h.26c.18,0,.26.09.26.27l-.04,5.12c0,.18-.09.26-.27.26h-.26c-.18,0-.26-.09-.26-.27l.04-5.12Z"/>
          <path class="cls-1" d="M53.73,29.45c0-.18.09-.26.27-.26h.22c.18,0,.26.09.26.27v.36c0,.05,0,.11-.02.16,0,.02,0,.04,0,.07h.02c.04-.08.1-.18.18-.29.08-.11.19-.21.32-.31.13-.1.28-.18.45-.24.17-.07.37-.1.59-.09.48,0,.83.14,1.05.4.22.26.33.65.32,1.17l-.02,2.33c0,.18-.09.26-.27.26h-.25c-.18,0-.26-.09-.26-.27l.02-2.15c0-.14,0-.28-.02-.4-.02-.12-.05-.23-.11-.32s-.13-.16-.23-.22c-.1-.05-.23-.08-.39-.08-.2,0-.38.03-.54.11-.17.08-.31.18-.43.31-.12.13-.22.29-.28.47-.07.18-.1.38-.11.59v1.67c-.02.18-.1.26-.28.26h-.25c-.18,0-.26-.09-.26-.27l.03-3.52Z"/>
          <path class="cls-1" d="M58.61,29.9h-.28c-.17,0-.26-.09-.25-.27v-.1c0-.18.09-.26.27-.26h.29s0-.89,0-.89c0-.18.09-.26.27-.26h.23c.18,0,.26.09.26.27v.89s.7,0,.7,0c.18,0,.26.09.26.27v.1c0,.18-.09.26-.26.26h-.71s-.02,1.79-.02,1.79c0,.19.02.35.08.46s.12.21.19.27c.08.06.16.11.25.13.09.03.17.04.24.05.11.01.18.04.22.07.04.04.06.1.06.19v.17c0,.18-.11.26-.32.26-.2,0-.39-.03-.58-.09-.18-.06-.34-.15-.47-.28-.14-.12-.24-.28-.32-.47-.08-.19-.12-.41-.12-.67l.02-1.92Z"/>
          <path class="cls-1" d="M61.15,29.52c0-.18.09-.26.27-.26h.22c.18,0,.26.09.26.27v.46s0,.08,0,.12c0,.04,0,.07-.01.1,0,.03,0,.06,0,.09h.02c.04-.13.1-.26.18-.39.08-.13.17-.24.28-.34s.23-.18.36-.24c.13-.06.27-.09.43-.09.17,0,.26.09.25.27v.22c0,.18-.1.26-.29.26-.2,0-.37.05-.52.14-.15.1-.27.22-.37.38-.1.15-.17.33-.22.53s-.08.4-.08.6v1.41c-.01.18-.1.26-.28.26h-.25c-.18,0-.26-.09-.26-.27l.03-3.52Z"/>
          <path class="cls-1" d="M63.57,31.29c0-.3.06-.58.18-.84.12-.26.27-.48.47-.67.2-.19.43-.33.69-.43.26-.1.55-.15.85-.15.3,0,.59.06.85.16.26.11.49.25.69.45s.35.42.46.68c.11.26.17.54.16.84,0,.31-.06.59-.18.85-.12.26-.27.48-.47.67s-.43.33-.7.44c-.27.11-.55.16-.85.15-.3,0-.59-.06-.85-.17-.26-.11-.49-.26-.68-.45-.19-.19-.35-.42-.46-.68-.11-.26-.17-.54-.16-.85ZM64.36,31.29c0,.21.03.41.11.59.07.18.17.33.3.46.12.13.27.23.44.3.17.07.35.11.54.11.19,0,.37-.03.54-.1s.32-.17.45-.3.23-.28.3-.46c.07-.18.11-.37.11-.59,0-.21-.03-.4-.1-.58-.07-.18-.17-.33-.3-.46-.13-.13-.27-.23-.44-.3-.17-.07-.35-.11-.54-.11-.19,0-.37.03-.54.1-.17.07-.32.17-.44.3-.13.13-.23.28-.3.45-.08.18-.11.37-.12.58Z"/>
          <path class="cls-1" d="M68.54,31.34c0-.32.05-.61.14-.87.09-.26.22-.48.39-.67.16-.18.36-.32.58-.42.22-.1.47-.15.74-.15.23,0,.43.04.59.11.16.07.29.16.39.25.12.1.21.22.28.35h.02s-.01-.05-.02-.08c0-.03,0-.05,0-.08,0-.03,0-.07,0-.11v-1.66c.02-.18.1-.26.28-.26h.25c.18,0,.26.09.26.27l-.04,5.12c0,.18-.09.26-.27.26h-.21c-.18,0-.26-.09-.26-.25v-.23c0-.07,0-.12.01-.14,0-.02,0-.04,0-.06h-.02c-.08.15-.18.28-.3.39-.11.09-.25.18-.41.26-.17.08-.38.12-.63.12-.27,0-.52-.06-.74-.16-.22-.11-.41-.25-.56-.44-.15-.19-.27-.41-.35-.67-.08-.26-.12-.55-.12-.86ZM69.33,31.35c0,.22.02.42.08.59.05.18.13.33.23.46.1.13.22.22.36.29.14.07.29.11.46.11.15,0,.29-.02.44-.08.14-.05.27-.14.37-.26.11-.12.2-.27.26-.45.07-.18.1-.4.11-.66,0-.18-.02-.36-.07-.53-.05-.17-.12-.32-.21-.46-.09-.13-.21-.24-.36-.33-.14-.08-.31-.13-.5-.13-.16,0-.31.03-.45.09-.14.06-.26.16-.37.28-.11.12-.19.27-.26.45-.06.18-.09.38-.1.61Z"/>
          <path class="cls-1" d="M73.49,29.62c0-.18.09-.26.27-.26h.25c.17,0,.25.09.25.27l-.02,2.15c0,.14,0,.27.02.39.02.12.05.23.11.32.06.09.13.16.23.22.1.05.23.08.39.08.21,0,.39-.04.56-.12.16-.08.3-.2.42-.33.12-.14.2-.3.26-.48s.09-.38.09-.58v-1.63c.02-.18.1-.26.28-.26h.25c.18,0,.26.09.26.27l-.03,3.52c0,.18-.09.26-.27.26h-.22c-.18,0-.26-.09-.26-.27v-.36s0-.05,0-.08c0-.03,0-.05,0-.08,0-.02.01-.04.02-.07h-.02c-.04.1-.11.21-.2.32-.09.11-.2.21-.33.31-.13.09-.28.17-.44.23-.17.06-.35.09-.54.09-.46,0-.8-.13-1.03-.38s-.34-.64-.33-1.18l.02-2.33Z"/>
          <path class="cls-1" d="M77.95,31.42c0-.3.06-.58.17-.83s.26-.48.45-.67c.19-.19.42-.34.69-.44.27-.11.55-.16.87-.16.17,0,.33.02.46.05.14.03.26.07.38.11.11.04.21.09.29.14.08.05.15.1.2.14.07.04.11.1.11.16,0,.06-.02.13-.07.2l-.08.12c-.09.13-.21.15-.36.06-.08-.06-.2-.13-.35-.2-.15-.07-.33-.11-.55-.11-.2,0-.39.03-.56.1-.17.07-.32.17-.45.3s-.23.28-.3.45c-.07.18-.11.37-.11.58s.03.4.1.58.17.33.29.46c.13.13.28.24.45.31.17.08.36.12.57.12.25,0,.46-.04.63-.12.17-.08.31-.16.41-.24.15-.09.27-.07.36.08l.06.12c.08.14.06.26-.07.35-.06.05-.13.1-.22.15-.09.06-.19.11-.31.16-.12.05-.26.09-.41.12-.15.03-.32.05-.5.05-.32,0-.61-.06-.88-.17-.26-.11-.49-.26-.68-.45-.19-.19-.33-.42-.44-.68s-.16-.54-.15-.85Z"/>
          <path class="cls-1" d="M82.67,30.11h-.28c-.17,0-.26-.09-.25-.27v-.1c0-.18.09-.26.27-.26h.29s0-.89,0-.89c0-.18.09-.26.27-.26h.23c.18,0,.26.09.26.27v.89s.7,0,.7,0c.18,0,.26.09.26.27v.1c0,.18-.09.26-.26.26h-.71s-.02,1.79-.02,1.79c0,.19.02.35.08.46.05.12.12.21.19.27.08.06.16.11.25.13.09.03.17.04.24.05.11.01.18.04.22.07.04.04.06.1.06.19v.17c0,.18-.11.26-.32.26-.2,0-.39-.03-.58-.09-.18-.06-.34-.15-.47-.28-.14-.12-.24-.28-.32-.47-.08-.19-.12-.41-.12-.67l.02-1.92Z"/>
          <path class="cls-1" d="M85.22,29.72c0-.18.09-.26.27-.26h.25c.18,0,.26.09.26.27l-.03,3.52c0,.18-.09.26-.27.26h-.25c-.18,0-.26-.09-.26-.27l.03-3.52ZM85.48,28.65c-.18,0-.26-.09-.26-.27v-.26c0-.18.09-.26.27-.26h.27c.18,0,.26.09.26.27v.26c0,.18-.09.26-.27.26h-.27Z"/>
          <path class="cls-1" d="M86.84,31.49c0-.32.06-.61.16-.87.11-.26.25-.48.43-.66.18-.18.4-.32.64-.42.25-.1.52-.15.81-.14.28,0,.52.05.74.15.22.1.4.23.54.41.15.17.26.38.33.61.07.24.11.49.11.78,0,.07-.03.14-.08.19-.05.05-.12.08-.2.08l-2.7-.02c0,.22.05.42.13.59.08.17.18.32.31.43s.27.21.43.27.33.09.52.09c.22,0,.42-.03.58-.1.17-.07.29-.14.39-.21.16-.08.28-.05.36.09l.07.12c.04.07.06.14.04.2s-.06.11-.13.16c-.06.04-.13.09-.23.14s-.19.1-.31.14c-.12.04-.24.08-.39.1-.14.03-.29.04-.45.04-.32,0-.61-.06-.87-.17-.26-.11-.48-.26-.67-.45-.19-.19-.33-.42-.43-.68-.1-.26-.15-.54-.15-.84ZM89.84,31.08c0-.36-.11-.63-.29-.81-.19-.18-.42-.28-.68-.28-.3,0-.56.09-.77.28s-.36.45-.42.79l2.17.02Z"/>
          <path class="cls-1" d="M93.47,29.79c0-.18.09-.26.27-.26h.25c.18,0,.26.09.26.27l-.03,3.52c0,.18-.09.26-.27.26h-.25c-.18,0-.26-.09-.26-.27l.03-3.52ZM93.74,28.72c-.18,0-.26-.09-.26-.27v-.26c0-.18.09-.26.27-.26h.27c.18,0,.26.09.26.27v.26c0,.18-.09.26-.27.26h-.27Z"/>
          <path class="cls-1" d="M95.37,29.8c0-.18.09-.26.27-.26h.22c.18,0,.26.09.26.27v.36c0,.05,0,.11-.02.16,0,.02,0,.04,0,.07h.02c.04-.08.1-.18.18-.29s.19-.21.32-.31c.13-.1.28-.17.45-.24.17-.06.37-.1.59-.09.48,0,.83.14,1.05.4.22.26.33.65.32,1.17l-.02,2.33c0,.18-.09.26-.27.26h-.25c-.18,0-.26-.09-.26-.27l.02-2.15c0-.14,0-.28-.02-.4-.02-.12-.05-.23-.11-.32-.05-.09-.13-.16-.23-.22-.1-.05-.23-.08-.39-.08-.2,0-.38.04-.54.11-.17.08-.31.18-.43.31-.12.13-.22.29-.28.47-.07.18-.1.38-.11.59v1.67c-.02.18-.1.26-.28.26h-.25c-.18,0-.26-.09-.26-.27l.03-3.52Z"/>
          <path class="cls-1" d="M101.72,29.89c-.03-.09-.02-.16.02-.22s.11-.08.21-.08h.26c.16,0,.26.08.29.23l.77,2.62c.01.05.02.11.03.16s.02.1.04.14c.01.05.02.09.02.14h.02s.02-.09.03-.13c.01-.04.02-.09.04-.14s.03-.1.05-.16l.84-2.6c.03-.15.13-.22.29-.22h.25c.16,0,.26.08.29.23l.79,2.61c0,.05.02.11.03.16s.02.1.04.14c.01.05.02.09.03.14h.02s.01-.09.02-.14c.01-.04.02-.09.04-.14s.03-.1.05-.16l.81-2.61c.03-.15.13-.22.29-.22h.26c.1,0,.16.03.2.08.04.05.05.12.02.22l-1.17,3.52c-.04.15-.14.22-.3.22h-.39c-.16,0-.26-.08-.29-.23l-.76-2.38c-.02-.05-.04-.11-.05-.16-.01-.05-.02-.1-.03-.14-.01-.05-.02-.1-.03-.14h-.02s-.02.1-.03.14c-.01.04-.02.09-.04.14s-.03.1-.05.16l-.79,2.37c-.04.15-.14.22-.3.22h-.4c-.16,0-.26-.08-.29-.23l-1.11-3.54Z"/>
          <path class="cls-1" d="M108.23,31.67c0-.32.06-.61.16-.87.11-.26.25-.48.43-.66.18-.18.4-.32.64-.42.25-.1.52-.15.81-.15.28,0,.52.05.74.15.22.1.4.23.54.4.15.17.26.38.33.61.07.24.11.49.11.78,0,.07-.03.14-.08.19-.05.05-.12.08-.2.08l-2.7-.02c0,.22.05.41.13.58.08.17.18.32.31.44s.27.21.43.27c.16.06.33.09.52.09.22,0,.42-.03.58-.1.17-.07.29-.14.39-.21.16-.08.28-.05.36.09l.07.12c.04.07.06.13.04.2s-.06.11-.13.16c-.06.04-.13.09-.23.14s-.19.1-.31.14c-.12.04-.24.08-.39.1-.14.03-.29.04-.45.04-.32,0-.61-.06-.87-.17s-.48-.26-.67-.45c-.19-.19-.33-.42-.43-.68-.1-.26-.15-.54-.15-.84ZM111.22,31.26c0-.36-.11-.63-.29-.81-.19-.18-.42-.28-.68-.28-.3,0-.56.09-.77.28-.22.19-.36.45-.42.79l2.17.02Z"/>
          <path class="cls-1" d="M112.88,28.35c0-.18.09-.26.27-.26h.25c.17,0,.26.09.25.27v1.64c-.01.05-.02.1-.02.14,0,.04,0,.08-.01.11,0,.04,0,.07,0,.1h.02c.08-.14.18-.26.3-.36.11-.09.25-.17.41-.25.17-.08.37-.12.61-.11.27,0,.51.06.73.16.22.11.4.25.56.44.15.18.27.41.35.67.08.26.12.55.12.86,0,.33-.05.62-.14.88s-.22.48-.39.66c-.17.18-.36.32-.59.42-.23.1-.47.15-.73.15-.24,0-.44-.04-.6-.12-.16-.08-.3-.17-.4-.27-.12-.11-.22-.24-.28-.39h-.02s0,.04,0,.06c.01.05.02.11.01.18v.2c0,.16-.09.23-.27.23h-.2c-.18,0-.26-.09-.26-.27l.04-5.12ZM113.6,31.72c0,.19.02.37.07.54.05.17.12.33.21.46.09.14.21.24.35.33.14.08.31.12.5.12.16,0,.31-.03.46-.09.14-.06.27-.16.38-.28.11-.12.19-.27.26-.45.06-.18.1-.38.1-.61,0-.22-.02-.42-.08-.6-.05-.18-.13-.33-.23-.46-.1-.13-.22-.22-.36-.29-.14-.07-.29-.11-.46-.11-.15,0-.3.03-.44.08-.14.05-.26.14-.37.26s-.2.27-.26.44c-.07.18-.1.4-.1.65Z"/>
          <path class="cls-1" d="M119.37,32.2c0-.15.03-.31.07-.46.05-.15.11-.29.2-.42.09-.13.19-.24.32-.34.12-.1.27-.17.43-.23v-.02c-.14-.06-.27-.14-.37-.25-.09-.09-.18-.22-.26-.38-.08-.16-.11-.37-.11-.62,0-.23.05-.44.14-.62.09-.18.21-.33.37-.45.16-.12.34-.21.55-.28.21-.06.44-.09.69-.09h.37c.18,0,.26.09.26.27v.14c0,.18-.09.26-.27.26h-.33c-.3,0-.54.07-.71.23-.18.16-.27.37-.27.62,0,.09.01.19.04.29.03.1.08.2.15.29.08.09.18.17.31.23s.31.09.53.09h1.05s0-.5,0-.5c0-.18.09-.26.27-.26h.25c.18,0,.26.08.26.23v.54s.48,0,.48,0c.18,0,.26.09.26.27v.16c0,.18-.09.26-.27.26h-.49s0,.75,0,.75c0,.63-.18,1.12-.53,1.46s-.83.51-1.44.5c-.29,0-.56-.05-.8-.13-.24-.09-.45-.21-.62-.36s-.3-.33-.4-.54c-.09-.2-.14-.42-.13-.67ZM120.18,32.17c0,.14.02.27.08.39.05.12.13.23.23.31s.22.16.36.21c.14.06.3.08.47.08.36,0,.65-.1.86-.3.21-.2.32-.53.32-.97v-.72s-1.07,0-1.07,0c-.4,0-.71.08-.93.26-.22.17-.33.42-.33.74Z"/>
          <path class="cls-1" d="M126.93,30.48h-.28c-.17,0-.26-.09-.25-.27v-.1c0-.18.09-.26.27-.26h.29s0-.89,0-.89c0-.18.09-.26.27-.26h.23c.18,0,.26.09.26.27v.89s.7,0,.7,0c.18,0,.26.09.26.27v.1c0,.18-.09.26-.26.26h-.71s-.02,1.79-.02,1.79c0,.19.02.35.08.46.05.12.12.21.19.27s.16.11.25.13c.09.02.17.04.24.05.11.01.18.04.22.07.04.04.06.1.06.19v.17c0,.18-.11.26-.32.26-.2,0-.39-.03-.58-.09-.18-.06-.34-.15-.47-.28-.13-.12-.24-.28-.32-.47-.08-.19-.12-.41-.12-.67l.02-1.92Z"/>
          <path class="cls-1" d="M129.16,31.84c0-.3.06-.58.18-.84.12-.26.27-.48.47-.67.2-.19.43-.33.69-.43.26-.1.55-.15.85-.15.3,0,.59.06.85.16.26.11.49.25.69.45.2.19.35.42.46.68.11.26.17.54.16.84,0,.31-.06.59-.18.85-.12.26-.27.48-.47.67-.2.19-.43.33-.7.44s-.55.16-.85.15c-.3,0-.59-.06-.85-.17-.26-.11-.49-.26-.68-.45-.19-.19-.35-.42-.46-.68s-.17-.54-.17-.85ZM129.94,31.84c0,.21.03.41.11.59.07.18.17.33.3.46s.27.23.44.3c.17.07.35.11.54.11.19,0,.37-.03.54-.1.17-.07.32-.17.45-.3s.23-.28.3-.46c.07-.18.11-.37.11-.59,0-.21-.03-.4-.1-.58-.07-.17-.17-.33-.3-.46-.13-.13-.27-.23-.44-.3-.17-.07-.35-.11-.54-.11-.19,0-.37.03-.54.1-.17.07-.32.17-.44.3-.13.13-.23.28-.3.45-.08.18-.12.37-.12.58Z"/>
          <path class="cls-1" d="M134.11,31.88c0-.3.06-.58.18-.84.12-.26.27-.48.47-.67.2-.19.43-.33.69-.44.26-.1.55-.15.85-.15.3,0,.59.06.85.16.26.11.49.25.69.45.2.19.35.42.46.68.11.26.17.54.16.84,0,.31-.06.59-.18.85s-.27.48-.47.67c-.2.19-.43.33-.7.44-.27.11-.55.16-.85.15-.3,0-.59-.06-.85-.17-.26-.11-.49-.26-.68-.45-.19-.19-.35-.42-.46-.68-.11-.26-.17-.54-.16-.85ZM134.9,31.89c0,.21.03.41.11.59.07.18.17.33.3.46.12.13.27.23.44.3.17.07.35.11.54.11.19,0,.37-.03.54-.1.17-.07.32-.17.45-.3s.23-.28.3-.46c.07-.18.11-.37.11-.59,0-.21-.03-.4-.1-.58-.07-.18-.17-.33-.3-.46-.13-.13-.27-.23-.44-.3-.17-.07-.35-.11-.54-.11-.19,0-.37.03-.54.1-.17.07-.32.17-.44.3-.13.13-.23.28-.3.45-.08.18-.11.37-.12.58Z"/>
          <path class="cls-1" d="M139.36,28.57c0-.18.09-.26.27-.26h.25c.18,0,.26.09.26.27l-.04,4.18c0,.11,0,.2.03.27.02.07.05.12.09.16.04.04.08.06.12.08.04.01.08.02.13.03.06.01.11.03.15.07.04.03.06.09.06.16v.19c0,.09-.02.15-.06.2-.04.05-.11.07-.21.07-.11,0-.22-.01-.35-.04-.13-.03-.25-.08-.35-.16-.11-.08-.19-.19-.27-.34-.07-.15-.1-.35-.1-.61l.04-4.28Z"/>
          <path class="cls-1" d="M141.44,30.19c0-.18.09-.26.27-.26h.25c.18,0,.26.09.26.27l-.03,3.52c0,.18-.09.26-.27.26h-.25c-.18,0-.26-.09-.26-.27l.03-3.52ZM141.7,29.12c-.18,0-.26-.09-.26-.27v-.26c0-.18.09-.26.27-.26h.27c.18,0,.26.09.26.27v.26c0,.18-.09.26-.27.26h-.27Z"/>
          <path class="cls-1" d="M143.33,30.2c0-.18.09-.26.27-.26h.22c.18,0,.26.09.26.27v.36c0,.05,0,.11-.02.16,0,.02,0,.04,0,.07h.02c.04-.08.1-.18.18-.29.08-.11.19-.21.32-.31.13-.1.28-.18.45-.24.17-.07.37-.1.59-.09.48,0,.83.14,1.05.4.22.26.33.65.32,1.17l-.02,2.33c0,.18-.09.26-.27.26h-.25c-.18,0-.26-.09-.26-.27l.02-2.15c0-.14,0-.28-.03-.4-.02-.12-.05-.23-.11-.32-.05-.09-.13-.16-.23-.22-.1-.05-.23-.08-.39-.08-.2,0-.38.04-.54.11-.17.08-.31.18-.43.31-.12.13-.22.29-.28.47s-.1.38-.11.59v1.67c-.01.18-.1.26-.28.26h-.25c-.18,0-.26-.09-.26-.27l.03-3.52Z"/>
          <path class="cls-1" d="M148.31,35c.07-.15.18-.19.34-.13.09.04.21.08.36.12s.32.06.52.06c.17,0,.33-.02.49-.06.16-.04.29-.1.41-.19s.21-.21.28-.35c.07-.14.11-.32.11-.53v-.35s0-.06,0-.09c0-.03,0-.06,0-.08,0-.03.01-.05.02-.08h-.02c-.12.21-.28.38-.47.5-.2.12-.44.18-.73.18-.28,0-.54-.06-.76-.17s-.42-.26-.57-.44c-.16-.19-.27-.41-.35-.66-.08-.25-.12-.53-.12-.83,0-.29.04-.55.13-.8.08-.25.2-.46.35-.64s.34-.32.57-.42c.22-.1.48-.15.78-.14.25,0,.46.04.62.11.16.07.29.15.39.24.11.1.2.21.25.34h.02s0-.02,0-.03c0-.02,0-.05,0-.1v-.23c0-.15.09-.22.27-.22h.19c.18,0,.26.09.26.27l-.03,3.62c0,.34-.06.62-.18.85-.12.23-.27.42-.46.57-.19.15-.41.25-.65.32-.24.06-.48.1-.73.09-.22,0-.44-.02-.64-.07-.2-.04-.38-.1-.53-.17-.16-.07-.2-.19-.13-.35l.06-.14ZM149.76,33.32c.14,0,.27-.02.41-.06.13-.04.25-.12.35-.23s.18-.25.24-.43c.06-.18.09-.39.09-.65,0-.27-.03-.49-.09-.66-.06-.18-.14-.32-.24-.42-.1-.1-.22-.18-.35-.22-.14-.04-.28-.07-.43-.07-.37,0-.65.11-.84.35-.19.24-.29.55-.29.95,0,.44.1.79.3,1.05.2.26.49.4.86.4Z"/>
          <path class="cls-1" d="M152.68,33.51c0-.18.09-.26.26-.26h.29c.18,0,.26.09.26.27v.3c0,.18-.09.26-.27.26h-.29c-.17,0-.26-.09-.25-.27v-.3ZM152.96,30.85c-.17,0-.25-.09-.25-.27v-.3c0-.18.09-.26.26-.26h.29c.18,0,.26.09.26.27v.3c0,.18-.09.26-.27.26h-.29Z"/>
          <path class="cls-1" d="M156.77,28.72c0-.18.09-.26.27-.26h.26c.18,0,.26.09.26.27l-.02,2.22,2.94.02.02-2.22c0-.18.09-.26.27-.26h.26c.17,0,.25.09.25.27l-.04,5.12c0,.18-.09.26-.26.26h-.26c-.18,0-.26-.09-.26-.27l.02-2.22-2.94-.02-.02,2.22c0,.18-.09.26-.27.26h-.26c-.18,0-.26-.09-.26-.27l.04-5.12Z"/>
          <path class="cls-1" d="M163.98,29.2h-1.68c-.18-.02-.26-.1-.26-.28v-.16c0-.18.09-.26.27-.26l4.14.03c.17,0,.25.09.25.27v.16c0,.18-.09.26-.26.26h-1.68s-.04,4.68-.04,4.68c0,.18-.09.26-.27.26h-.26c-.17,0-.25-.09-.25-.27l.04-4.7Z"/>
          <path class="cls-1" d="M167.62,28.79c.02-.17.11-.25.27-.25h.36c.15,0,.25.07.29.21l1.2,2.86c.03.08.06.16.09.25.03.09.06.17.09.24.03.09.06.18.09.26h.02c.03-.08.06-.17.09-.26.03-.08.06-.16.09-.24.03-.09.07-.17.1-.25l1.25-2.84c.05-.14.15-.21.3-.21h.36c.17,0,.26.09.27.25l.37,5.13c0,.18-.08.27-.26.27h-.26c-.17,0-.25-.09-.27-.26l-.23-3.3c0-.09-.02-.18-.02-.27s0-.19,0-.27c0-.1,0-.19.01-.29h-.02c-.04.1-.07.2-.11.29-.03.08-.07.18-.1.27-.04.1-.07.18-.1.26l-1.06,2.33c-.05.14-.16.21-.31.21h-.26c-.15,0-.25-.07-.3-.21l-1.02-2.34c-.03-.08-.06-.16-.1-.26s-.07-.19-.1-.28c-.04-.1-.07-.21-.1-.31h-.02v.3c0,.09,0,.18,0,.28s0,.19-.02.28l-.28,3.3c-.02.17-.11.26-.27.25h-.26c-.18,0-.27-.09-.25-.28l.46-5.12Z"/>
          <path class="cls-1" d="M174.16,28.86c0-.18.09-.26.27-.26h.26c.18,0,.26.09.26.27l-.04,4.69,2.27.02c.18,0,.26.09.26.27v.16c0,.18-.09.26-.27.26l-2.79-.02c-.18,0-.26-.09-.26-.27l.04-5.12Z"/>
          <path class="cls-1" d="M179.7,28.56c.05-.14.15-.21.31-.21h.14c.09,0,.16.03.2.08.04.05.05.12.01.22l-1.91,5.76c-.03.07-.07.13-.11.16-.05.03-.11.05-.19.05h-.14c-.1,0-.16-.03-.2-.08-.04-.05-.04-.12,0-.22l1.91-5.76Z"/>
          <path class="cls-1" d="M181.02,31.45c0-.41.08-.79.22-1.14.14-.35.34-.65.6-.91.26-.26.56-.46.91-.6.35-.14.74-.21,1.16-.21.24,0,.46.03.66.07.2.04.38.1.53.16.15.06.29.12.4.19s.21.13.27.18c.12.1.14.22.04.37l-.11.16c-.09.14-.21.16-.37.06-.06-.04-.13-.08-.22-.14-.09-.05-.19-.1-.31-.15-.12-.05-.25-.09-.4-.12-.15-.03-.3-.05-.48-.05-.33,0-.62.05-.88.16-.26.11-.48.26-.66.45-.18.19-.32.42-.42.68-.1.26-.15.54-.15.84,0,.3.04.58.14.86.09.27.23.51.41.71.18.21.4.37.66.49.26.12.55.18.88.19.19,0,.36-.02.52-.06s.31-.08.44-.14.25-.11.34-.18c.1-.06.18-.12.24-.17.15-.11.27-.1.37.03l.12.16c.1.13.09.26-.04.37-.08.06-.17.13-.29.21-.12.08-.27.16-.43.23-.17.07-.36.14-.58.19-.22.05-.45.08-.71.07-.44,0-.83-.08-1.19-.24-.35-.16-.66-.37-.91-.64s-.44-.58-.58-.94-.2-.75-.19-1.16Z"/>
          <path class="cls-1" d="M186.75,33.86c-.05-.05-.09-.1-.1-.16-.01-.06.01-.13.07-.21l.14-.19c.1-.12.22-.14.36-.04.05.04.11.08.19.13.08.05.17.1.27.15.1.05.22.09.35.13.13.04.27.05.42.06.3,0,.54-.07.72-.21s.27-.34.27-.59c0-.21-.06-.38-.2-.51-.13-.13-.3-.25-.5-.36-.2-.11-.42-.21-.65-.31-.23-.1-.45-.22-.65-.35-.2-.13-.37-.3-.5-.49-.13-.19-.2-.44-.19-.73,0-.24.05-.46.14-.65.09-.19.23-.35.39-.49.17-.13.36-.24.59-.31.22-.07.46-.11.72-.11.17,0,.32.02.47.05.15.03.28.07.41.11s.23.09.32.14c.09.05.16.1.21.14.13.09.15.21.08.36l-.11.2c-.05.08-.1.13-.17.13-.06,0-.13-.02-.2-.06-.11-.07-.25-.14-.42-.22-.17-.08-.38-.12-.62-.12-.29,0-.54.07-.73.21s-.29.33-.29.58c0,.2.06.37.2.5.13.13.3.24.5.34.2.1.42.2.65.29.23.09.45.21.65.35.2.13.37.3.5.5.13.2.2.45.19.75,0,.22-.04.43-.13.63-.08.19-.2.36-.36.5-.16.14-.35.26-.57.34-.22.08-.47.12-.76.12-.2,0-.39-.02-.57-.06-.18-.04-.34-.09-.48-.16-.14-.06-.27-.13-.38-.19-.11-.07-.19-.13-.26-.18Z"/>
          <path class="cls-1" d="M191.05,33.9c-.05-.05-.09-.1-.1-.16-.01-.06.01-.13.07-.21l.14-.19c.1-.12.22-.14.36-.04.05.04.11.08.19.13.08.05.17.1.27.15.1.05.22.09.35.13.13.04.27.05.42.06.3,0,.55-.07.73-.21.18-.14.27-.34.27-.58,0-.21-.06-.38-.2-.51-.13-.13-.3-.25-.5-.36-.2-.11-.42-.21-.65-.31-.23-.1-.45-.22-.65-.35-.2-.13-.37-.29-.5-.49-.13-.19-.2-.44-.19-.73,0-.24.05-.46.15-.65s.23-.35.39-.49c.17-.13.36-.24.59-.31.22-.07.46-.11.72-.11.17,0,.32.02.47.05s.29.07.41.11.23.09.32.14c.09.05.16.1.21.14.13.09.15.21.08.36l-.11.2c-.05.08-.1.13-.17.13-.06,0-.13-.02-.2-.06-.11-.07-.25-.14-.42-.22-.17-.08-.38-.12-.62-.12-.29,0-.54.07-.73.21-.19.14-.29.33-.29.58,0,.2.06.37.2.5.13.13.3.24.5.34.2.1.42.2.65.29.23.09.45.21.65.35.2.13.37.3.5.5.13.2.2.45.19.75,0,.22-.04.43-.13.63-.08.19-.2.36-.36.5-.16.14-.35.26-.57.34-.22.08-.47.12-.76.12-.2,0-.39-.02-.57-.06-.18-.04-.34-.09-.48-.16s-.27-.13-.38-.19c-.11-.07-.2-.13-.26-.18Z"/>
          <path class="cls-1" d="M195.5,33.81c.04-.15.14-.22.3-.22h.25c.1,0,.17.03.21.09.04.06.04.13,0,.22l-.55,1.32c-.05.13-.16.2-.31.2h-.09c-.2,0-.28-.1-.22-.3l.43-1.31Z"/>
        </g>
        <g class="cls-2">
          <path class="cls-1" d="M51.68,38.84c0-.18.09-.26.27-.26l1.8.02c.26,0,.49.05.71.13.22.08.4.21.56.36.15.16.27.34.36.56.09.22.13.46.13.73,0,.27-.05.51-.14.73-.09.22-.21.41-.37.56-.16.16-.34.28-.56.36-.22.08-.46.12-.71.12h-1.28s-.02,1.81-.02,1.81c0,.18-.09.26-.27.26h-.26c-.18,0-.26-.09-.26-.27l.04-5.12ZM53.6,41.46c.34,0,.61-.09.81-.29.2-.2.3-.46.3-.81,0-.34-.09-.61-.29-.8-.19-.19-.46-.29-.79-.29h-1.16s-.02,2.17-.02,2.17h1.15Z"/>
          <path class="cls-1" d="M55.97,45.19c.05-.01.11-.01.17,0,.04.02.09.04.14.06.05.02.11.03.18.03.17,0,.31-.06.43-.18s.21-.26.28-.42l.2-.46-1.54-3.71c-.04-.09-.04-.17,0-.22.04-.06.11-.08.21-.08h.31c.15,0,.25.07.29.21l.93,2.45c.02.05.03.11.05.16.02.06.03.11.04.16.02.06.03.12.05.17h.02l.04-.16s.02-.1.04-.16c.02-.06.04-.11.06-.16l.94-2.43c.05-.14.15-.21.3-.21h.29c.1,0,.16.03.2.09.04.06.04.13,0,.22l-1.82,4.44c-.13.32-.31.56-.54.72-.23.16-.49.24-.78.24-.12,0-.22-.02-.32-.05-.09-.03-.17-.06-.24-.09-.07-.03-.12-.08-.14-.14-.02-.07-.01-.13.02-.2l.07-.14c.03-.07.08-.12.13-.14Z"/>
          <path class="cls-1" d="M60.48,40.92h-.28c-.17,0-.26-.09-.25-.27v-.1c0-.18.09-.26.27-.26h.29s0-.89,0-.89c0-.18.09-.26.27-.26h.23c.18,0,.26.09.26.27v.89s.7,0,.7,0c.18,0,.26.09.26.27v.1c0,.18-.09.26-.26.26h-.71s-.02,1.79-.02,1.79c0,.19.02.35.08.46.05.12.12.21.19.27.08.06.16.11.25.13.09.03.17.04.24.05.11.01.18.04.22.07.04.04.06.1.06.19v.17c0,.18-.11.26-.32.26-.2,0-.39-.03-.58-.09-.18-.06-.34-.15-.47-.28-.14-.12-.24-.28-.32-.47s-.12-.41-.12-.67l.02-1.92Z"/>
          <path class="cls-1" d="M63.05,38.93c0-.18.09-.26.27-.26h.25c.17,0,.26.09.25.27l-.02,1.83s0,.09,0,.14c0,.04,0,.08-.01.1,0,.04,0,.07,0,.1h.02c.04-.09.11-.2.2-.31.09-.11.2-.21.33-.3.13-.09.28-.17.44-.22.17-.06.35-.08.55-.08.48,0,.83.14,1.05.4.22.26.33.65.33,1.17l-.02,2.33c0,.18-.09.26-.27.26h-.25c-.18,0-.26-.09-.26-.27l.02-2.15c0-.14,0-.28-.02-.4-.02-.12-.05-.23-.11-.32-.06-.09-.13-.16-.23-.22-.1-.05-.23-.08-.39-.08-.19,0-.37.03-.54.11-.17.07-.31.18-.43.31-.12.13-.22.29-.29.48-.07.18-.11.38-.11.6v1.66c-.02.18-.1.26-.27.26h-.25c-.18,0-.26-.09-.26-.27l.04-5.12Z"/>
          <path class="cls-1" d="M67.49,42.32c0-.3.06-.58.18-.84.12-.26.27-.48.47-.67.2-.19.43-.33.69-.43.26-.1.55-.15.85-.15.3,0,.59.06.85.16.26.11.49.25.69.45s.35.42.46.68c.11.26.17.54.16.84,0,.31-.06.59-.18.85-.12.26-.27.48-.47.67s-.43.33-.7.44c-.27.11-.55.16-.85.15-.3,0-.59-.06-.85-.17-.26-.11-.49-.26-.68-.45-.19-.19-.35-.42-.46-.68-.11-.26-.17-.54-.16-.85ZM68.27,42.33c0,.21.03.41.11.59.07.18.17.33.3.46.12.13.27.23.44.3.17.07.35.11.54.11.19,0,.37-.03.54-.1s.32-.17.45-.3.23-.28.3-.46c.07-.18.11-.37.11-.59,0-.21-.03-.4-.1-.58-.07-.18-.17-.33-.3-.46-.13-.13-.27-.23-.44-.3-.17-.07-.35-.11-.54-.11-.19,0-.37.03-.54.1-.17.07-.32.17-.44.3-.13.13-.23.28-.3.45-.08.18-.11.37-.12.58Z"/>
          <path class="cls-1" d="M72.72,40.61c0-.18.09-.26.27-.26h.22c.18,0,.26.09.26.27v.36c0,.05,0,.11-.02.16,0,.02,0,.04,0,.07h.02c.04-.08.1-.18.18-.29s.19-.21.32-.31c.13-.1.28-.17.45-.24.17-.06.37-.1.59-.09.48,0,.83.14,1.05.4.22.26.33.65.32,1.17l-.02,2.33c0,.18-.09.26-.27.26h-.25c-.18,0-.26-.09-.26-.27l.02-2.15c0-.14,0-.28-.02-.4-.02-.12-.05-.23-.11-.32-.05-.09-.13-.16-.23-.22-.1-.05-.23-.08-.39-.08-.2,0-.38.04-.54.11-.17.08-.31.18-.43.31-.12.13-.22.29-.28.47-.07.18-.1.38-.11.59v1.67c-.02.18-.1.26-.28.26h-.25c-.18,0-.26-.09-.26-.27l.03-3.52Z"/>
          <path class="cls-1" d="M79.09,38.71c.05-.14.15-.21.31-.21h.14c.09,0,.16.03.2.08.04.05.05.12.01.22l-1.91,5.76c-.03.07-.06.13-.11.16-.05.03-.11.05-.19.05h-.14c-.1,0-.16-.03-.2-.08-.04-.05-.04-.12-.01-.22l1.91-5.76Z"/>
          <path class="cls-1" d="M80.03,42.82c0-.18.09-.26.27-.26h.27c.09,0,.15.02.19.06s.06.11.07.21c0,.14.02.27.06.39.04.12.09.23.16.32.07.09.16.16.27.21.11.05.23.08.38.08.11,0,.22-.02.33-.05.11-.03.2-.09.29-.17.08-.08.15-.18.2-.31.05-.12.08-.28.08-.47l.03-3.33h-1.16c-.17-.01-.26-.1-.25-.28v-.16c0-.18.09-.26.26-.26h1.68c.18.02.26.1.26.28l-.03,3.76c0,.3-.05.57-.15.78-.1.22-.23.4-.38.53-.16.14-.34.24-.54.3-.2.06-.4.09-.6.09-.21,0-.41-.04-.61-.1-.2-.07-.38-.17-.54-.31-.16-.14-.29-.32-.38-.54-.09-.22-.14-.49-.14-.79Z"/>
          <path class="cls-1" d="M84.49,44.01c-.05-.05-.09-.1-.1-.16-.01-.06.01-.13.07-.21l.14-.19c.1-.12.22-.14.36-.04.05.04.11.08.19.13.08.05.17.1.27.15.1.05.22.09.35.13.13.04.27.05.42.06.3,0,.55-.07.73-.21.18-.15.27-.34.27-.59,0-.21-.06-.38-.2-.51-.13-.13-.3-.25-.5-.36-.2-.11-.42-.21-.65-.31s-.45-.22-.65-.35c-.2-.13-.37-.29-.5-.49-.13-.19-.2-.44-.19-.73,0-.24.05-.46.15-.65.09-.19.23-.35.39-.49.17-.13.36-.24.59-.31.22-.07.46-.11.72-.11.17,0,.32.02.47.05.15.03.29.07.41.11s.23.09.32.14c.09.05.16.1.21.14.13.09.15.21.08.36l-.11.2c-.05.08-.1.13-.17.13-.06,0-.13-.02-.2-.06-.11-.07-.25-.14-.42-.21-.17-.08-.38-.12-.62-.12-.29,0-.54.07-.73.21-.19.14-.29.33-.29.58,0,.2.06.37.2.5s.3.24.5.34c.2.1.42.2.65.29.23.09.45.21.65.35.2.13.37.3.5.5.13.2.2.45.19.75,0,.22-.04.43-.13.63-.08.19-.2.36-.36.5-.16.14-.35.26-.57.34-.22.08-.47.12-.76.12-.2,0-.39-.02-.57-.06-.18-.04-.34-.09-.48-.16-.14-.06-.27-.13-.38-.19-.11-.07-.19-.13-.26-.18Z"/>
          <path class="cls-1" d="M90.93,39.17c0-.18.09-.26.27-.26h.25c.17,0,.25.09.25.27v1.64c-.01.05-.02.1-.02.14,0,.04,0,.08-.01.11,0,.04,0,.07,0,.1h.02c.08-.14.18-.26.3-.36.11-.09.25-.17.41-.25.17-.08.37-.12.61-.11.27,0,.51.06.73.16.22.11.4.25.56.44.15.18.27.41.35.67.08.26.12.55.12.86,0,.33-.05.62-.14.88s-.22.48-.39.66c-.17.18-.36.32-.59.42-.23.1-.47.15-.73.15-.24,0-.44-.04-.6-.12-.16-.08-.3-.17-.4-.27-.12-.11-.22-.24-.28-.39h-.02s0,.04,0,.06c.01.05.02.11.01.18v.2c0,.16-.09.23-.27.23h-.2c-.18,0-.26-.09-.26-.27l.04-5.12ZM91.65,42.54c0,.19.02.37.07.54s.12.33.21.46c.09.14.21.25.35.33.14.08.31.12.5.12.16,0,.31-.03.46-.09.14-.06.27-.16.38-.28.11-.12.19-.27.26-.45.06-.18.1-.38.1-.61,0-.22-.02-.42-.08-.6-.05-.18-.13-.33-.23-.46-.1-.12-.22-.22-.36-.29-.14-.07-.29-.11-.46-.11-.15,0-.3.03-.44.08-.14.05-.26.14-.37.25s-.2.27-.26.44c-.07.18-.1.4-.1.65Z"/>
          <path class="cls-1" d="M95.29,43.48c0-.21.04-.39.12-.54.08-.15.19-.28.32-.38.13-.1.29-.18.45-.24.17-.06.34-.11.53-.14.18-.03.36-.05.53-.06.17,0,.33-.01.47-.01h.21s0-.1,0-.1c0-.17-.02-.3-.06-.42-.04-.12-.11-.21-.19-.28s-.17-.12-.28-.15c-.11-.03-.22-.05-.34-.05-.2,0-.38.03-.54.08-.16.06-.28.11-.37.17-.16.07-.28.04-.36-.1l-.06-.11c-.08-.16-.05-.28.09-.36.12-.07.3-.14.52-.22.22-.08.49-.12.8-.11.51,0,.9.14,1.17.41.28.27.41.67.41,1.18l-.02,2.3c0,.18-.09.26-.27.26h-.2c-.18,0-.26-.09-.26-.27v-.24s0-.07,0-.1c0-.03,0-.06,0-.08,0-.02.01-.04.02-.06h-.02c-.08.16-.18.3-.31.42-.11.11-.24.2-.41.29-.17.09-.37.13-.61.13-.18,0-.35-.03-.51-.08-.17-.05-.31-.13-.43-.24-.12-.11-.22-.23-.3-.38s-.11-.32-.11-.51ZM96.08,43.42c0,.16.06.31.18.45.12.14.31.21.56.21.17,0,.32-.04.46-.11.14-.08.25-.18.35-.3s.17-.26.22-.41c.05-.15.08-.3.08-.45v-.18s-.21,0-.21,0c-.14,0-.31,0-.5.02-.19.01-.37.04-.54.1-.17.05-.32.13-.43.24s-.18.26-.18.45Z"/>
          <path class="cls-1" d="M99.59,44.28c-.07-.04-.11-.1-.11-.16,0-.06.01-.13.06-.2l.08-.11c.05-.07.11-.11.17-.11.06,0,.12.01.2.06.09.06.22.13.38.21.16.08.37.12.61.12.2,0,.37-.04.5-.13.13-.09.19-.22.2-.4,0-.13-.05-.24-.15-.32-.1-.08-.23-.16-.39-.22-.15-.07-.32-.13-.5-.2-.18-.06-.34-.14-.5-.24s-.28-.22-.38-.37c-.1-.14-.15-.33-.15-.56,0-.19.04-.36.12-.51.08-.15.19-.27.32-.36.13-.1.29-.17.47-.22.18-.05.37-.07.56-.07.28,0,.52.04.7.12.18.08.32.14.42.2.07.04.12.09.13.15.01.06,0,.13-.05.2l-.07.12c-.08.13-.19.16-.35.08-.08-.05-.19-.1-.33-.15-.14-.05-.3-.08-.49-.08-.19,0-.35.04-.48.12-.13.08-.2.21-.2.38,0,.13.05.24.15.32.1.08.23.16.39.22.15.07.32.13.5.2.18.06.34.15.5.24.15.09.28.21.39.36.1.15.15.34.15.57,0,.17-.04.33-.11.47-.07.15-.17.27-.3.38-.13.11-.28.19-.46.24-.18.06-.38.08-.6.08-.17,0-.33-.02-.47-.05s-.27-.07-.38-.11c-.11-.05-.21-.1-.3-.15-.09-.05-.16-.1-.21-.14Z"/>
          <path class="cls-1" d="M103.29,40.87c0-.18.09-.26.27-.26h.25c.18,0,.26.09.26.27l-.03,3.52c0,.18-.09.26-.27.26h-.25c-.18,0-.26-.09-.26-.27l.03-3.52ZM103.56,39.8c-.18,0-.26-.09-.26-.27v-.26c0-.18.09-.26.27-.26h.27c.18,0,.26.09.26.27v.26c0,.18-.09.26-.27.26h-.27Z"/>
          <path class="cls-1" d="M104.91,42.64c0-.3.06-.58.17-.83s.26-.48.45-.67c.19-.19.42-.33.69-.44.27-.11.55-.16.87-.16.17,0,.33.02.46.05.14.03.26.07.38.11.11.04.21.09.29.14.08.05.15.1.2.14.07.04.11.1.11.16,0,.06-.02.13-.07.2l-.08.12c-.09.13-.21.15-.36.06-.08-.06-.2-.13-.35-.2s-.33-.11-.55-.11c-.2,0-.39.03-.56.1-.17.07-.32.17-.45.3-.13.13-.23.28-.3.45-.07.18-.11.37-.11.58,0,.21.03.4.1.58.07.18.17.33.29.46.13.13.28.24.45.31.17.08.36.12.57.12.25,0,.46-.04.63-.12.17-.08.31-.16.41-.24.15-.09.27-.07.36.08l.06.12c.08.14.06.26-.07.35-.06.05-.13.1-.22.15-.09.05-.19.11-.31.16-.12.05-.26.09-.41.12-.15.03-.32.05-.5.05-.32,0-.61-.06-.88-.17-.26-.11-.49-.26-.68-.45-.19-.19-.33-.42-.44-.68s-.16-.54-.15-.85Z"/>
          <path class="cls-1" d="M109.25,44.36c-.07-.04-.11-.1-.11-.16,0-.06.01-.13.06-.2l.08-.11c.05-.07.11-.11.17-.11.06,0,.12.01.2.06.09.06.22.13.38.21s.37.12.61.12c.2,0,.37-.04.5-.13.13-.09.19-.22.2-.4,0-.13-.05-.24-.15-.32-.1-.08-.23-.16-.39-.22-.15-.07-.32-.13-.5-.2-.18-.06-.34-.14-.5-.24s-.28-.22-.38-.37c-.1-.14-.15-.33-.15-.56,0-.19.04-.36.12-.51.08-.15.19-.27.32-.36.13-.1.29-.17.47-.22.18-.05.37-.07.56-.07.28,0,.52.04.7.12.18.08.32.14.42.2.07.04.12.09.13.15.01.06,0,.13-.05.2l-.07.12c-.08.13-.19.16-.35.08-.08-.05-.19-.1-.33-.15-.14-.05-.3-.08-.49-.08-.19,0-.35.04-.48.12s-.2.21-.2.38c0,.13.05.24.15.32.1.08.23.16.39.22.15.07.32.13.5.2.18.06.34.15.5.24.15.09.28.21.39.36.1.15.15.34.15.57,0,.17-.04.33-.11.47-.07.15-.17.27-.3.38-.13.11-.28.19-.46.24-.18.06-.38.08-.6.08-.17,0-.33-.02-.47-.05s-.27-.07-.38-.11c-.11-.05-.21-.1-.3-.15-.09-.05-.16-.1-.21-.14Z"/>
        </g>
      </g>
      <g>
        <path class="cls-3" d="M6.71,39.87c10.5,7.7,32.57-2.34,35.13-14.2C44.7,12.43,23.43-3.9,11.59,1.6.53,6.73-4.27,31.83,6.71,39.87h0Z"/>
        <g class="cls-2">
          <g class="cls-2">
            <path class="cls-1" d="M8.99,24.98c0-.43.08-.81.25-1.13.17-.32.38-.61.64-.86.26-.25.54-.48.85-.69.3-.21.59-.42.85-.62.26-.21.48-.42.65-.64s.26-.48.25-.76c0-.36-.13-.65-.38-.87s-.56-.32-.94-.32c-.16,0-.31.03-.45.08-.14.05-.26.11-.36.17-.11.07-.2.14-.27.22-.08.08-.14.15-.19.21-.07.08-.15.13-.23.15s-.16,0-.25-.07l-.19-.14c-.18-.13-.21-.29-.1-.46.07-.1.16-.21.28-.34.12-.13.26-.25.44-.37.17-.12.37-.21.6-.29.23-.08.49-.12.78-.12.33,0,.63.04.92.14.28.09.53.23.73.41.21.18.37.39.49.65.12.26.18.54.18.85,0,.4-.08.74-.24,1.04-.17.3-.38.56-.63.8s-.53.46-.83.65c-.3.2-.58.39-.83.59-.26.2-.47.41-.64.62s-.26.46-.26.74l3.27-.04c.23,0,.34.11.34.33v.21c0,.23-.11.34-.33.34l-4.02.05c-.1,0-.19-.03-.26-.08-.07-.05-.1-.14-.11-.26v-.21Z"/>
            <path class="cls-1" d="M17.43,25.55c-.49,0-.89-.09-1.22-.28-.33-.19-.59-.45-.8-.79s-.35-.73-.45-1.18c-.09-.45-.14-.94-.15-1.47,0-.52.03-1.01.11-1.46.08-.46.22-.85.42-1.19.2-.34.46-.61.78-.81.32-.2.73-.3,1.21-.31.49,0,.89.08,1.22.28.33.19.6.45.8.79.2.33.35.73.44,1.18.09.45.14.94.15,1.46,0,.53-.03,1.02-.11,1.47-.08.46-.22.85-.41,1.2-.19.34-.45.61-.78.81s-.73.3-1.22.31ZM17.42,24.62c.29,0,.54-.08.74-.23.2-.15.35-.35.46-.61.11-.26.19-.55.23-.9.04-.34.06-.71.06-1.11,0-.39-.03-.75-.09-1.1-.05-.34-.14-.64-.25-.89-.12-.25-.27-.45-.47-.59-.2-.14-.45-.21-.74-.21-.29,0-.54.08-.73.22-.19.15-.35.35-.46.6-.11.25-.19.55-.23.9-.04.34-.06.71-.06,1.1,0,.4.03.76.09,1.11.05.34.14.64.26.89s.28.45.47.59c.2.14.44.21.74.21Z"/>
            <path class="cls-1" d="M21.1,24.82c0-.43.08-.81.25-1.13.17-.32.39-.61.65-.86.26-.25.54-.48.85-.69.3-.21.59-.42.85-.62.26-.2.48-.42.65-.64.17-.22.26-.47.25-.76,0-.36-.13-.65-.38-.87-.25-.22-.56-.32-.94-.32-.16,0-.31.03-.45.08-.14.05-.26.11-.36.17-.11.07-.2.14-.27.22-.08.08-.14.15-.19.21-.07.08-.15.13-.23.15-.08.02-.16,0-.25-.07l-.19-.14c-.18-.13-.21-.29-.1-.46.07-.1.16-.21.28-.34.12-.13.26-.25.44-.37.17-.12.37-.21.6-.29.23-.08.49-.12.78-.12.33,0,.63.04.92.14.28.09.53.23.73.41.21.18.37.39.49.65.12.25.18.54.18.85,0,.4-.08.74-.24,1.04s-.38.56-.63.8-.53.46-.83.65-.58.39-.83.59c-.26.2-.47.41-.64.62-.17.22-.26.46-.26.74l3.27-.04c.23,0,.34.11.34.33v.21c0,.23-.11.34-.33.34l-4.02.05c-.1,0-.19-.02-.26-.08-.07-.05-.1-.14-.11-.25v-.21Z"/>
            <path class="cls-1" d="M26.99,24.63c-.08-.07-.13-.14-.13-.22s.03-.16.09-.24l.16-.23c.13-.17.28-.18.46-.05.06.05.12.11.21.18.08.06.18.12.29.18.11.05.24.1.38.13.14.04.29.05.46.05.21,0,.41-.04.6-.11.19-.07.36-.17.5-.3.15-.13.26-.29.34-.47.08-.18.12-.38.12-.6,0-.22-.05-.42-.14-.6-.09-.18-.21-.33-.35-.47-.15-.13-.32-.23-.53-.3s-.42-.1-.65-.1c-.23,0-.42.04-.59.1-.17.06-.3.12-.4.17-.16.06-.31.07-.45.03l-.09-.03c-.19-.07-.27-.2-.25-.4l.27-2.98c.02-.21.13-.32.34-.32l3-.04c.23,0,.34.11.34.33v.21c0,.23-.11.34-.33.34l-2.43.03-.15,1.53c0,.1-.01.18-.03.27,0,.04-.01.08-.02.11h.02c.08-.04.17-.08.27-.12.08-.03.18-.05.29-.08.11-.03.24-.04.37-.04.38,0,.73.05,1.04.17.31.12.58.29.8.5.22.21.39.46.52.74.12.28.19.59.19.92,0,.35-.06.67-.18.97-.13.3-.3.56-.53.78-.23.22-.5.4-.81.52-.31.13-.65.19-1.01.2-.26,0-.5-.02-.71-.07-.21-.05-.4-.12-.57-.2-.17-.08-.31-.16-.43-.25-.12-.09-.22-.17-.3-.24Z"/>
          </g>
        </g>
      </g>
    </g>
  </g>
</svg>