<?xml version="1.0" encoding="UTF-8"?>
<svg id="Layer_2" data-name="Layer 2" xmlns="http://www.w3.org/2000/svg" viewBox="0 0 221.51 55.61">
  <defs>
    <style>
      .cls-1 {
        fill: #662d91;
      }

      .cls-2 {
        isolation: isolate;
      }

      .cls-3 {
        fill: #fff;
        stroke: #662d91;
        stroke-miterlimit: 10;
      }
    </style>
  </defs>
  <g id="ommh">
    <g>
      <g class="cls-2">
        <g class="cls-2">
          <path class="cls-1" d="M55.33,3.62c0-.51.1-.99.28-1.43.18-.44.44-.83.77-1.15.33-.33.73-.58,1.19-.77S58.55,0,59.1,0c.55,0,1.06.1,1.52.29s.85.45,1.18.79c.33.33.58.72.75,1.17.18.44.26.92.26,1.44,0,.53-.1,1.01-.28,1.47-.18.45-.44.84-.77,1.18s-.73.6-1.19.79-.97.28-1.52.28c-.55,0-1.06-.11-1.52-.3s-.85-.47-1.18-.8c-.33-.34-.58-.74-.76-1.19-.18-.45-.26-.94-.26-1.47ZM57.14,3.63c0,.31.04.59.14.85.09.26.23.48.39.68.17.19.37.34.61.46.24.11.49.17.77.17.28,0,.54-.05.78-.16.24-.11.44-.26.61-.44.17-.19.31-.41.41-.67.1-.26.15-.54.15-.85,0-.29-.04-.56-.14-.82-.09-.25-.23-.47-.4-.65-.17-.19-.37-.33-.61-.44-.24-.11-.49-.16-.77-.16-.28,0-.54.05-.78.15-.24.1-.44.24-.61.42-.17.18-.31.4-.41.65-.1.25-.15.52-.15.81Z"/>
          <path class="cls-1" d="M63.85.71c0-.37.19-.55.56-.55h.78c.3,0,.52.13.66.38l1.73,2.99c.07.12.14.25.21.39.07.14.13.27.19.4.07.15.13.29.2.43h.02c-.01-.15-.02-.29-.04-.44-.01-.13-.02-.26-.03-.4,0-.14,0-.27,0-.38l.02-2.79c0-.37.19-.55.55-.55h.65c.37,0,.55.19.54.56l-.05,6.05c0,.37-.19.55-.55.55h-.78c-.29,0-.51-.13-.65-.38l-1.75-2.97c-.07-.11-.14-.24-.22-.39-.07-.14-.13-.28-.19-.41-.07-.15-.13-.29-.19-.43h-.02l.04.44c.01.13.02.26.03.4,0,.14,0,.27,0,.38l-.02,2.78c0,.37-.19.55-.55.54h-.65c-.37,0-.55-.19-.55-.56l.05-6.05Z"/>
          <path class="cls-1" d="M71.27.77c0-.37.19-.55.56-.55h.65c.37,0,.55.19.54.56l-.04,5.1,2.37.02c.37,0,.55.19.55.55v.4c0,.37-.19.55-.56.55l-3.57-.03c-.37,0-.55-.19-.55-.55l.05-6.05Z"/>
          <path class="cls-1" d="M76.66.82c0-.37.19-.55.56-.55h.65c.37,0,.55.19.54.56l-.05,6.05c0,.37-.19.55-.55.55h-.65c-.37,0-.55-.19-.55-.56l.05-6.05Z"/>
          <path class="cls-1" d="M79.79.84c0-.37.19-.55.56-.55h.78c.3,0,.52.13.66.38l1.73,2.99c.07.12.14.25.21.39.07.14.13.27.19.4.07.15.13.29.2.43h.02c-.01-.15-.02-.29-.04-.44-.01-.13-.02-.26-.03-.4,0-.14,0-.27,0-.38l.02-2.79c0-.37.19-.55.55-.55h.65c.37,0,.55.19.54.56l-.05,6.05c0,.37-.19.55-.55.54h-.78c-.29,0-.51-.13-.65-.38l-1.75-2.97c-.07-.11-.14-.24-.22-.39-.07-.14-.13-.28-.19-.41-.07-.15-.13-.29-.19-.43h-.02l.04.44c.01.13.02.26.03.4,0,.14,0,.27,0,.38l-.02,2.78c0,.37-.19.55-.55.55h-.65c-.37,0-.55-.19-.55-.56l.05-6.05Z"/>
          <path class="cls-1" d="M87.21.91c0-.37.19-.55.55-.55l3.38.03c.37,0,.55.19.54.55v.4c0,.37-.19.55-.56.55l-2.18-.02v1.3s1.62.01,1.62.01c.37,0,.55.19.54.55v.4c0,.37-.19.55-.56.55h-1.63s-.01,1.33-.01,1.33l2.32.02c.37,0,.55.19.54.55v.4c0,.37-.19.55-.56.54l-3.52-.03c-.37,0-.55-.19-.55-.55l.05-6.05Z"/>
          <path class="cls-1" d="M95.6.96c.04-.35.23-.53.57-.53h.9c.31,0,.52.16.62.46l.87,2.58c.04.11.08.24.12.38.04.14.08.26.11.39.04.14.08.28.12.42h.02c.04-.14.08-.28.12-.42.03-.12.07-.25.12-.38.04-.14.09-.26.13-.37l.91-2.56c.1-.3.31-.45.62-.44h.9c.35.01.54.19.57.54l.44,6.05c.01.18-.03.32-.12.42-.09.1-.23.15-.41.15h-.65c-.35,0-.54-.19-.57-.54l-.16-2.69c-.01-.13-.02-.27-.02-.42,0-.14,0-.27,0-.38,0-.13,0-.27.02-.4h-.02c-.05.15-.1.29-.14.43-.04.12-.09.25-.13.39-.05.14-.09.27-.13.38l-.6,1.62c-.11.29-.32.44-.63.43h-.56c-.31,0-.52-.16-.63-.45l-.58-1.63c-.04-.11-.08-.24-.13-.38-.05-.14-.09-.27-.13-.39-.05-.14-.09-.28-.14-.43h-.02c0,.13,0,.27,0,.4,0,.11,0,.24,0,.38s0,.28-.02.42l-.2,2.69c-.04.35-.23.53-.57.53h-.66c-.18,0-.31-.06-.4-.16-.09-.1-.13-.24-.11-.42l.55-6.04Z"/>
          <path class="cls-1" d="M105.47.96c.1-.3.31-.45.62-.45h.9c.31,0,.52.16.62.46l2.02,6.09c.07.19.06.35-.03.46-.08.11-.23.17-.43.17h-.66c-.31,0-.52-.16-.62-.47l-.29-1.04-2.23-.02-.31,1.04c-.09.31-.29.46-.61.45h-.66c-.2,0-.34-.06-.42-.18-.08-.11-.09-.27-.02-.46l2.12-6.05ZM107.2,4.77l-.39-1.39c-.03-.11-.06-.24-.09-.38-.03-.14-.06-.27-.09-.4-.03-.15-.06-.3-.1-.45h-.02c-.04.15-.07.3-.1.45-.04.13-.07.26-.1.4s-.06.27-.1.38l-.42,1.39h1.41Z"/>
          <path class="cls-1" d="M110.49,1.1c0-.37.19-.55.55-.55l1.94.02c.37,0,.65.02.85.05.2.03.38.07.53.13.41.16.73.42.96.77s.35.8.34,1.32c0,.19-.02.39-.07.58s-.11.37-.21.55c-.09.18-.2.33-.34.48s-.29.26-.47.34v.02s.04.06.07.1c.03.03.05.08.08.13s.07.12.11.2l1,1.85c.11.19.13.35.05.48-.08.12-.22.18-.44.18h-.76c-.29,0-.5-.14-.65-.4l-1.04-2.03h-.82s-.02,1.85-.02,1.85c0,.37-.19.55-.55.54h-.65c-.37,0-.55-.19-.55-.56l.05-6.05ZM112.98,3.81c.28,0,.5-.07.67-.22.17-.15.25-.37.25-.65,0-.18-.03-.33-.08-.47-.05-.13-.17-.23-.33-.3-.15-.07-.37-.1-.66-.11h-.59s-.01,1.74-.01,1.74h.76Z"/>
          <path class="cls-1" d="M116.89,1.15c0-.37.19-.55.56-.55h.65c.37,0,.55.19.54.56l-.02,2.21h.72s1.29-2.35,1.29-2.35c.15-.26.37-.39.65-.39h.68c.22,0,.37.07.44.2s.05.28-.05.47l-1.58,2.75v.02l1.66,3.06c.1.19.12.35.04.48-.07.12-.22.18-.44.18h-.77c-.29,0-.5-.14-.65-.4l-1.28-2.52h-.72s-.02,2.34-.02,2.34c0,.37-.19.55-.55.54h-.65c-.37,0-.55-.19-.54-.56l.05-6.05Z"/>
          <path class="cls-1" d="M123.47,1.21c0-.37.19-.55.55-.55l3.38.03c.37,0,.55.19.54.56v.4c0,.37-.19.55-.56.54l-2.18-.02v1.3s1.62.01,1.62.01c.37,0,.55.19.55.55v.4c0,.37-.19.55-.56.55h-1.63s-.01,1.33-.01,1.33l2.32.02c.37,0,.55.19.55.55v.4c0,.37-.19.55-.56.54l-3.52-.03c-.37,0-.55-.19-.54-.55l.05-6.05Z"/>
          <path class="cls-1" d="M130.61,2.22h-1.62c-.37-.02-.55-.2-.54-.57v-.4c0-.37.19-.55.56-.55l4.99.04c.37,0,.55.19.54.56v.4c0,.37-.19.55-.56.54h-1.62s-.04,5.09-.04,5.09c0,.37-.19.55-.55.55h-.65c-.37,0-.55-.19-.54-.56l.04-5.1Z"/>
          <path class="cls-1" d="M135.28,1.31c0-.37.19-.55.55-.55h.65c.37,0,.55.19.54.56l-.05,6.05c0,.37-.19.55-.55.55h-.65c-.37,0-.55-.19-.55-.56l.05-6.05Z"/>
          <path class="cls-1" d="M138.41,1.33c0-.37.19-.55.56-.55h.78c.3,0,.52.13.66.38l1.74,2.99c.07.12.14.25.21.39.07.14.13.27.19.4.07.15.13.29.2.43h.02c-.01-.15-.02-.29-.04-.44-.01-.13-.02-.26-.03-.4,0-.14,0-.27,0-.38l.02-2.79c0-.37.19-.55.55-.55h.65c.37,0,.55.19.54.56l-.05,6.05c0,.37-.19.55-.55.54h-.78c-.29,0-.51-.13-.65-.38l-1.75-2.97c-.07-.11-.14-.24-.22-.39s-.13-.28-.19-.41c-.07-.15-.13-.29-.19-.43h-.02c.01.15.02.29.04.44.01.13.02.26.03.4,0,.14,0,.27,0,.38l-.02,2.78c0,.37-.19.55-.55.55h-.65c-.37,0-.55-.19-.54-.56l.05-6.05Z"/>
          <path class="cls-1" d="M145.44,4.46c0-.55.1-1.05.29-1.5.19-.45.45-.85.79-1.17.34-.33.73-.58,1.2-.77.46-.18.97-.27,1.51-.27.29,0,.55.03.8.08.25.05.47.11.67.17.2.06.37.13.51.21s.25.14.32.19c.15.11.24.23.25.35s-.02.26-.12.41l-.26.41c-.09.15-.2.24-.33.25-.12.02-.27-.02-.43-.11-.17-.09-.35-.17-.55-.24-.2-.08-.46-.11-.77-.12-.36,0-.67.05-.93.16s-.47.26-.64.45c-.17.19-.3.41-.38.65-.08.25-.12.5-.13.77,0,.33.05.63.16.9.11.26.25.49.43.68.18.19.4.33.64.44.25.1.51.15.78.16.25,0,.47-.03.66-.08.19-.06.34-.12.46-.2.14-.08.26-.17.35-.29v-.49s-.46,0-.46,0c-.37,0-.55-.19-.54-.55v-.39c0-.37.19-.55.56-.55h1.46c.37.02.55.2.54.57l-.02,2.94c0,.37-.19.55-.55.54h-.33c-.18,0-.32-.05-.41-.13-.09-.08-.14-.19-.14-.31v-.09s0-.02.01-.03h-.02c-.13.13-.29.24-.47.34-.16.09-.36.16-.6.22-.24.07-.52.1-.84.09-.46,0-.9-.09-1.32-.27-.42-.17-.79-.42-1.12-.74-.32-.32-.58-.7-.77-1.16-.19-.45-.28-.96-.28-1.52Z"/>
          <path class="cls-1" d="M156.21,1.46c.04-.35.23-.53.57-.53h.9c.31,0,.52.16.62.46l.87,2.58c.04.11.08.24.12.38.04.14.08.26.11.39.04.14.08.28.12.42h.02c.04-.14.08-.28.12-.42.03-.12.07-.25.12-.38.04-.14.09-.26.13-.37l.91-2.56c.1-.3.31-.45.62-.45h.9c.35.01.54.19.57.54l.44,6.05c.01.18-.03.32-.12.42-.09.1-.23.15-.41.15h-.65c-.35,0-.54-.19-.57-.54l-.16-2.69c-.01-.13-.02-.27-.02-.42,0-.14,0-.27,0-.38,0-.13,0-.27.02-.4h-.02c-.05.15-.1.29-.14.43-.04.12-.09.25-.13.39-.05.14-.09.27-.13.38l-.6,1.62c-.11.29-.32.44-.63.43h-.56c-.31,0-.52-.16-.63-.45l-.58-1.63c-.04-.11-.08-.24-.13-.38-.05-.14-.09-.27-.13-.39-.05-.14-.09-.28-.14-.43h-.02c0,.13,0,.27,0,.4,0,.11,0,.24,0,.38s0,.28-.02.42l-.2,2.69c-.04.35-.23.53-.57.53h-.66c-.18,0-.31-.06-.4-.16-.09-.1-.13-.24-.11-.42l.55-6.04Z"/>
          <path class="cls-1" d="M164.13,4.53c0-.51.1-.99.28-1.43.18-.44.44-.83.77-1.15.33-.33.73-.58,1.19-.77.46-.18.97-.27,1.52-.27.55,0,1.06.1,1.52.29.46.19.85.45,1.18.79.33.33.58.72.75,1.17.18.44.26.92.26,1.44,0,.53-.1,1.01-.28,1.47s-.44.84-.77,1.18c-.33.33-.73.6-1.19.79-.46.19-.97.28-1.52.28s-1.06-.11-1.52-.3c-.46-.2-.85-.46-1.18-.8s-.58-.74-.75-1.19c-.18-.45-.26-.94-.26-1.47ZM165.94,4.55c0,.31.04.59.14.85.09.26.23.49.39.68s.37.34.61.46c.24.11.49.17.77.17.28,0,.54-.05.78-.16.24-.11.44-.26.61-.45.17-.19.31-.41.41-.67.1-.26.15-.54.15-.85,0-.29-.04-.57-.14-.82-.09-.25-.23-.47-.39-.65-.17-.18-.37-.33-.61-.43-.24-.11-.49-.16-.77-.16-.28,0-.54.05-.78.15-.24.1-.44.24-.61.42-.17.18-.31.4-.41.65-.1.25-.15.52-.15.81Z"/>
          <path class="cls-1" d="M172.64,1.62c0-.37.19-.55.56-.55l1.99.02c.56,0,1.07.09,1.52.25.46.16.84.4,1.16.71s.56.68.73,1.13c.17.45.25.95.25,1.51,0,.56-.09,1.06-.27,1.51-.18.45-.43.82-.75,1.12-.32.3-.71.54-1.17.7-.46.16-.97.24-1.53.23l-1.99-.02c-.37,0-.55-.19-.54-.55l.05-6.05ZM175.07,6.74c.61,0,1.08-.17,1.43-.52.35-.35.53-.87.53-1.55s-.17-1.2-.52-1.55c-.35-.35-.82-.52-1.42-.53h-.72s-.03,4.14-.03,4.14h.72Z"/>
          <path class="cls-1" d="M179.83,1.68c0-.37.19-.55.55-.55h.65c.37,0,.55.19.55.56l-.03,3.97c0,.38.11.67.33.86.22.2.52.29.9.3.38,0,.68-.09.91-.28.22-.19.34-.48.34-.86l.03-3.97c0-.37.19-.55.55-.55h.65c.37,0,.55.19.54.56l-.03,3.97c0,.4-.08.77-.22,1.1-.15.34-.35.62-.61.87-.26.24-.58.43-.94.56s-.78.2-1.22.19c-.45,0-.86-.08-1.23-.21-.37-.14-.68-.33-.94-.58-.26-.25-.46-.54-.6-.88-.14-.34-.21-.71-.21-1.11l.03-3.97Z"/>
          <path class="cls-1" d="M187.12,1.74c0-.37.19-.55.56-.55h.65c.37,0,.55.19.54.56l-.04,5.1,2.37.02c.37,0,.55.19.54.55v.4c0,.37-.19.55-.56.54l-3.57-.03c-.37,0-.55-.19-.54-.55l.05-6.05Z"/>
          <path class="cls-1" d="M192.51,1.79c0-.37.19-.55.56-.55l3.38.03c.37,0,.55.19.54.56v.4c0,.37-.19.55-.56.54l-2.18-.02v1.3s1.62.01,1.62.01c.37,0,.55.19.54.55v.4c0,.37-.19.55-.56.55h-1.63s-.01,1.33-.01,1.33l2.32.02c.37,0,.55.19.54.55v.4c0,.37-.19.55-.56.54l-3.52-.03c-.37,0-.55-.19-.54-.55l.05-6.05Z"/>
          <path class="cls-1" d="M200.61,1.86c0-.37.19-.55.56-.55h.65c.37,0,.55.19.54.56l-.02,2.31,2.6.02.02-2.31c0-.37.19-.55.55-.55h.65c.37,0,.55.19.54.56l-.05,6.05c0,.37-.19.55-.55.54h-.65c-.37,0-.55-.19-.54-.56l.02-2.25-2.6-.02-.02,2.25c0,.37-.19.55-.55.54h-.65c-.37,0-.55-.19-.54-.56l.05-6.05Z"/>
          <path class="cls-1" d="M208.09,1.92c0-.37.19-.55.56-.55l2.08.02c.36,0,.69.04.98.13s.55.2.76.36c.21.16.38.35.5.59.12.23.18.5.17.81,0,.3-.08.59-.22.87-.14.28-.35.49-.62.64v.02c.21.06.38.15.52.27.14.12.25.25.34.4s.15.3.19.46c.04.17.06.33.06.49,0,.39-.08.72-.23.99-.15.27-.35.49-.61.65-.25.17-.54.28-.87.36-.33.08-.67.11-1.03.11l-2.08-.02c-.37,0-.55-.19-.54-.55l.05-6.05ZM210.85,7.04c.25,0,.44-.07.57-.22.13-.15.19-.32.19-.52,0-.2-.06-.37-.18-.52-.12-.14-.31-.22-.56-.22h-1.06s-.01,1.47-.01,1.47h1.05ZM210.72,4.16c.22,0,.38-.06.48-.2.1-.13.15-.29.15-.46,0-.17-.05-.31-.15-.43s-.27-.18-.5-.18h-.87s-.01,1.26-.01,1.26h.9Z"/>
          <path class="cls-1" d="M214.03,4.95c0-.51.1-.99.28-1.43.18-.44.44-.83.77-1.15s.73-.58,1.19-.77c.46-.18.97-.27,1.52-.27.55,0,1.06.1,1.52.29.46.19.85.45,1.18.79.33.33.58.72.75,1.17.18.45.26.92.26,1.44,0,.53-.1,1.02-.28,1.47-.18.45-.44.84-.77,1.18-.33.33-.73.59-1.19.78-.46.19-.97.28-1.52.28-.55,0-1.06-.11-1.52-.3-.46-.2-.85-.46-1.18-.8s-.58-.74-.75-1.19-.26-.95-.26-1.47ZM215.84,4.96c0,.31.04.59.14.85.09.26.23.49.39.68.17.19.37.34.61.46.24.11.49.17.77.17.28,0,.54-.05.78-.16.24-.11.44-.26.61-.45s.31-.41.41-.67c.1-.26.15-.54.15-.85,0-.29-.04-.57-.14-.82-.09-.25-.23-.47-.4-.65-.17-.18-.37-.33-.61-.43-.24-.11-.49-.16-.77-.16-.28,0-.54.05-.78.15-.24.1-.44.24-.61.42-.17.18-.31.4-.41.65s-.15.52-.15.81Z"/>
        </g>
        <g class="cls-2">
          <path class="cls-1" d="M55.39,16.67c0-.51.1-.99.28-1.43.18-.44.43-.82.75-1.14.32-.32.7-.57,1.14-.75.44-.18.93-.27,1.45-.26.3,0,.58.03.82.09.25.05.47.12.66.2.19.07.36.16.5.24.14.08.26.16.34.23.15.12.17.27.06.46l-.13.2c-.11.17-.27.2-.46.08-.07-.05-.17-.1-.28-.17s-.24-.13-.39-.19c-.15-.06-.32-.11-.5-.15-.18-.04-.38-.06-.59-.06-.41,0-.78.06-1.1.2-.32.14-.6.33-.83.57-.23.24-.4.52-.52.85-.12.33-.18.68-.18,1.05,0,.37.05.73.17,1.07.12.34.29.64.51.89.22.26.5.46.82.61.32.15.69.23,1.09.23.23,0,.45-.02.65-.07.2-.05.38-.11.55-.18.16-.07.31-.14.43-.22.12-.08.22-.15.3-.21.18-.14.33-.12.46.04l.15.2c.13.17.11.32-.05.46-.09.07-.22.16-.37.26-.15.1-.33.2-.54.29-.21.09-.45.17-.72.23s-.57.1-.89.09c-.55,0-1.04-.1-1.48-.3s-.82-.46-1.13-.79c-.31-.33-.55-.73-.72-1.18-.17-.45-.25-.93-.24-1.45Z"/>
          <path class="cls-1" d="M62.28,17.76c0-.38.08-.73.22-1.05.15-.32.34-.6.59-.83.25-.24.53-.42.86-.54.33-.13.69-.19,1.07-.19.38,0,.73.07,1.06.2.33.13.62.32.86.56.24.24.44.52.58.84.14.32.21.68.21,1.06,0,.39-.08.74-.22,1.06s-.34.6-.59.83-.54.42-.87.55-.69.19-1.07.19c-.38,0-.73-.07-1.06-.21-.33-.13-.61-.32-.86-.56-.24-.24-.43-.52-.57-.84-.14-.32-.21-.68-.21-1.07ZM63.26,17.76c0,.27.04.51.13.74.09.22.21.42.37.58.16.16.34.29.55.38.21.09.43.14.67.14.24,0,.47-.04.68-.13.21-.09.4-.21.56-.37.16-.16.29-.35.38-.57.09-.22.14-.47.14-.73,0-.26-.04-.5-.13-.72-.09-.22-.21-.41-.37-.57-.16-.16-.34-.29-.55-.38-.21-.09-.43-.14-.67-.14-.24,0-.47.04-.68.13-.21.09-.4.21-.55.37-.16.16-.28.35-.38.57-.1.22-.14.46-.15.72Z"/>
          <path class="cls-1" d="M68.82,15.62c0-.22.11-.33.33-.33h.28c.22,0,.33.11.33.33v.45c0,.07-.01.13-.03.2,0,.03-.01.06-.01.09h.02c.05-.11.12-.23.23-.37.1-.14.24-.27.4-.39.16-.12.35-.22.56-.3.21-.08.46-.12.74-.12.6,0,1.04.17,1.31.5.27.33.41.81.4,1.46l-.02,2.91c0,.22-.11.33-.33.33h-.31c-.22,0-.33-.12-.33-.34l.02-2.69c0-.18,0-.35-.03-.5-.02-.15-.07-.29-.13-.4-.07-.11-.16-.21-.29-.27-.13-.07-.29-.1-.49-.1-.25,0-.47.04-.68.14s-.39.22-.54.39c-.15.17-.27.36-.36.59-.09.23-.13.47-.13.73l-.02,2.09c0,.22-.11.33-.33.33h-.31c-.22,0-.33-.12-.33-.34l.04-4.4Z"/>
          <path class="cls-1" d="M74.92,16.18h-.35c-.21,0-.32-.12-.32-.33v-.13c0-.22.11-.33.33-.33h.36s0-1.11,0-1.11c0-.22.11-.33.33-.33h.29c.22,0,.33.12.33.34v1.11s.87,0,.87,0c.22,0,.33.11.33.33v.13c0,.22-.11.33-.32.33h-.89s-.02,2.24-.02,2.24c0,.24.03.43.09.58.07.15.15.26.24.34.1.08.2.14.31.17.11.03.21.05.3.06.13.01.23.05.27.09.05.05.07.13.07.24v.21c0,.22-.14.33-.4.33-.25,0-.49-.04-.72-.12s-.42-.19-.59-.34c-.17-.15-.3-.35-.4-.58-.1-.23-.15-.51-.15-.83l.02-2.4Z"/>
          <path class="cls-1" d="M77.72,17.89c0-.4.07-.76.2-1.09.13-.33.31-.6.54-.83.23-.23.49-.4.8-.53.31-.12.65-.18,1.01-.18.35,0,.66.07.93.19.27.12.5.29.68.51.18.22.32.47.41.76.09.29.14.62.14.97,0,.09-.03.17-.1.24-.06.07-.15.1-.25.1l-3.38-.03c.01.27.07.52.16.73.1.21.23.4.39.54s.34.26.54.33c.2.07.42.11.64.12.28,0,.52-.04.73-.13.21-.09.37-.17.48-.26.2-.1.35-.07.45.11l.09.15c.05.09.07.17.05.25-.02.08-.07.14-.16.19-.07.05-.17.11-.28.17-.11.06-.24.12-.39.17-.14.05-.3.1-.48.13s-.37.05-.57.05c-.4,0-.76-.08-1.09-.21-.33-.14-.61-.33-.84-.57-.23-.24-.42-.52-.54-.85-.13-.32-.19-.67-.19-1.05ZM81.47,17.39c0-.45-.13-.79-.37-1.01-.23-.23-.52-.34-.85-.35-.37,0-.7.11-.97.35-.27.24-.45.57-.52.99l2.71.02Z"/>
          <path class="cls-1" d="M83.51,15.74c0-.22.11-.33.33-.33h.28c.22,0,.33.11.33.33v.45c0,.07-.01.13-.03.2,0,.03-.01.06-.01.09h.02c.05-.11.12-.23.23-.37.1-.14.24-.27.4-.39.16-.12.35-.22.56-.3.21-.08.46-.12.74-.12.6,0,1.04.17,1.31.5.27.33.41.81.4,1.46l-.02,2.91c0,.22-.11.33-.33.33h-.31c-.22,0-.33-.12-.33-.34l.02-2.69c0-.18,0-.35-.03-.5-.02-.15-.07-.29-.13-.4-.07-.11-.16-.21-.29-.27-.13-.07-.29-.1-.49-.1-.25,0-.47.04-.68.14s-.39.22-.54.39c-.15.17-.27.36-.36.59-.09.23-.13.47-.13.73l-.02,2.09c0,.22-.11.33-.33.33h-.31c-.22,0-.33-.12-.33-.34l.04-4.4Z"/>
          <path class="cls-1" d="M89.61,16.3h-.35c-.21,0-.32-.12-.32-.33v-.13c0-.22.11-.33.33-.33h.36s0-1.11,0-1.11c0-.22.11-.33.33-.33h.29c.22,0,.33.12.33.34v1.11s.87,0,.87,0c.22,0,.33.11.33.33v.13c0,.22-.11.33-.32.33h-.89s-.02,2.24-.02,2.24c0,.24.03.43.09.58.07.15.15.26.24.34.1.08.2.14.31.17.11.03.21.05.3.06.13.01.23.05.27.09.05.05.07.13.07.24v.21c0,.22-.14.33-.4.33-.25,0-.49-.04-.72-.12-.23-.08-.42-.19-.59-.34-.17-.15-.3-.35-.41-.58s-.15-.51-.15-.83l.02-2.4Z"/>
          <path class="cls-1" d="M95.05,20.14c-.09-.05-.13-.12-.14-.2,0-.08.02-.16.07-.25l.1-.14c.07-.09.14-.13.21-.14.07,0,.16.02.25.07.11.07.27.16.48.26s.46.15.76.16c.25,0,.46-.05.62-.17.16-.12.24-.28.24-.49,0-.17-.06-.3-.19-.4-.13-.1-.29-.19-.48-.28-.19-.08-.4-.17-.62-.25s-.43-.18-.62-.31c-.19-.12-.35-.28-.48-.46-.13-.18-.19-.42-.19-.7,0-.24.05-.45.15-.63.1-.18.23-.33.4-.45.17-.12.36-.21.59-.27.22-.06.46-.09.71-.09.35,0,.64.05.87.15.23.1.4.18.52.25.09.05.15.11.16.19.02.08,0,.16-.06.26l-.09.15c-.09.17-.24.2-.44.11-.11-.06-.24-.12-.41-.19-.17-.07-.38-.1-.62-.1-.24,0-.44.05-.61.15-.16.11-.25.26-.25.48,0,.17.06.3.19.41s.29.2.48.28c.19.08.4.16.62.24s.43.18.62.3.35.27.48.45c.13.18.19.42.19.71,0,.21-.05.41-.13.59-.09.18-.21.34-.37.47s-.35.23-.58.3c-.22.07-.47.11-.75.1-.21,0-.41-.02-.58-.06-.18-.04-.33-.09-.47-.14s-.26-.12-.37-.18-.2-.12-.26-.18Z"/>
          <path class="cls-1" d="M99.69,15.88c0-.22.11-.33.33-.33h.23c.22,0,.33.1.33.28v.3s0,.08,0,.1c0,.03,0,.06,0,.08,0,.03,0,.05-.01.08h.02c.09-.18.21-.34.37-.48.13-.12.31-.23.53-.33.22-.1.49-.15.81-.15.34,0,.65.07.92.2.27.13.5.32.69.55.19.24.34.51.44.84.1.33.15.68.15,1.08,0,.4-.06.76-.18,1.09-.12.33-.28.6-.49.83-.21.23-.45.41-.74.53-.28.12-.58.19-.91.18-.29,0-.54-.05-.73-.15-.2-.09-.36-.2-.48-.31-.15-.13-.26-.28-.35-.45h-.02s0,.07,0,.12c0,.04.01.09.01.14,0,.05,0,.11,0,.18l-.02,2.01c0,.22-.11.33-.32.33h-.31c-.22,0-.33-.12-.33-.33l.05-6.4ZM100.61,18.11c0,.23.03.45.09.66.06.21.15.4.27.57.12.17.27.3.44.41.18.1.38.16.61.16.2,0,.39-.04.57-.12.18-.08.33-.19.47-.35.13-.15.24-.34.32-.56.08-.22.12-.48.12-.76,0-.27-.03-.52-.1-.75-.07-.22-.17-.42-.29-.57-.13-.16-.28-.28-.45-.37-.18-.09-.37-.13-.57-.13-.19,0-.38.03-.55.1-.17.07-.33.17-.47.32-.14.15-.25.33-.33.56-.08.23-.12.5-.13.82Z"/>
          <path class="cls-1" d="M105.26,18.13c0-.4.07-.76.2-1.09s.31-.6.54-.83c.23-.23.49-.4.8-.53.31-.12.65-.18,1.01-.18.35,0,.66.06.93.19.27.12.5.29.68.5.18.22.32.47.41.76.09.29.14.62.14.97,0,.09-.03.17-.1.24-.06.07-.15.1-.25.1l-3.38-.03c.01.27.07.52.16.73.1.21.23.4.39.54.16.15.34.26.54.33.2.08.42.11.64.12.28,0,.52-.04.73-.13.21-.09.37-.17.48-.26.2-.11.35-.07.45.11l.09.15c.05.09.07.17.05.25-.02.08-.07.14-.16.19-.07.05-.17.11-.28.17s-.24.12-.39.17c-.14.05-.3.1-.48.13-.18.03-.37.05-.57.05-.4,0-.76-.08-1.09-.21-.33-.14-.61-.33-.84-.57-.24-.24-.42-.52-.54-.84-.13-.33-.19-.67-.19-1.05ZM109.01,17.62c0-.45-.13-.78-.37-1.01s-.52-.34-.85-.35c-.37,0-.7.11-.97.35-.27.24-.45.57-.52.99l2.71.02Z"/>
          <path class="cls-1" d="M110.7,18.17c0-.37.07-.72.21-1.04s.33-.6.57-.83.53-.42.86-.55c.33-.13.69-.2,1.09-.2.21,0,.41.02.58.06s.33.08.47.14c.14.05.26.11.36.18.1.06.19.12.25.18.09.05.13.12.14.2,0,.08-.02.16-.08.25l-.1.15c-.11.17-.26.19-.45.08-.11-.07-.25-.16-.44-.25-.19-.09-.42-.14-.68-.14-.25,0-.49.04-.71.13-.22.09-.41.21-.56.37-.16.16-.28.35-.37.57-.09.22-.13.46-.14.72,0,.26.04.5.12.72.08.22.21.41.37.58.16.17.35.29.56.39.22.1.45.14.71.15.31,0,.57-.05.79-.15.22-.1.39-.2.51-.3.19-.12.34-.09.45.09l.08.15c.1.18.07.33-.09.44-.07.06-.17.12-.28.19-.11.07-.24.13-.39.2-.15.06-.32.12-.51.16-.19.04-.4.06-.63.06-.4,0-.76-.07-1.09-.21-.33-.14-.61-.32-.85-.56s-.42-.52-.55-.84-.19-.68-.19-1.06Z"/>
          <path class="cls-1" d="M116.36,16.02c0-.22.11-.33.33-.33h.31c.22,0,.33.11.33.33l-.04,4.4c0,.22-.11.33-.33.33h-.31c-.22,0-.33-.12-.33-.33l.04-4.4ZM116.69,14.68c-.22,0-.33-.11-.33-.33v-.33c0-.22.12-.33.34-.33h.34c.22,0,.33.11.33.33v.33c0,.22-.12.33-.34.33h-.34Z"/>
          <path class="cls-1" d="M118.29,19.38c0-.26.05-.49.16-.67.1-.19.24-.35.4-.47.17-.12.36-.23.57-.3s.43-.14.66-.17c.23-.04.45-.06.67-.07.22-.01.41-.02.58-.02h.26s0-.13,0-.13c0-.21-.02-.38-.08-.53-.06-.14-.13-.26-.23-.35s-.22-.15-.35-.19c-.13-.04-.28-.06-.43-.06-.25,0-.48.03-.68.11-.2.07-.35.14-.47.21-.19.09-.34.05-.45-.12l-.08-.14c-.11-.2-.07-.35.11-.45.15-.09.37-.18.65-.27.28-.1.61-.14,1-.14.63,0,1.12.18,1.47.52.34.34.51.83.51,1.48l-.02,2.87c0,.22-.11.33-.33.33h-.25c-.22,0-.33-.12-.33-.33v-.3s0-.09,0-.13c0-.04,0-.07.01-.1,0-.03.01-.05.02-.08h-.02c-.1.2-.23.37-.38.53-.13.13-.3.25-.51.36-.21.11-.46.16-.76.16-.22,0-.43-.04-.64-.11-.21-.07-.39-.17-.54-.3-.16-.13-.28-.29-.37-.47-.09-.18-.14-.4-.13-.64ZM119.27,19.31c0,.2.08.39.23.56s.39.26.7.26c.21,0,.41-.04.58-.14.17-.09.31-.22.43-.38.12-.16.21-.33.27-.52.07-.19.1-.38.1-.56v-.22s-.26,0-.26,0c-.18,0-.39,0-.62.02s-.46.05-.67.12c-.21.06-.39.17-.54.3-.15.14-.22.32-.22.56Z"/>
          <path class="cls-1" d="M123.92,14.08c0-.22.11-.33.33-.33h.31c.22,0,.33.12.33.33l-.04,5.23c0,.14.01.25.04.34.03.09.06.15.11.2.05.05.1.08.15.1.05.02.11.03.16.04.07.01.14.04.18.09.05.04.07.11.07.21v.24c0,.11-.03.19-.08.25-.05.06-.14.09-.27.09-.13,0-.28-.02-.44-.05-.16-.03-.31-.1-.44-.19-.13-.1-.24-.24-.33-.43-.09-.19-.13-.44-.13-.76l.04-5.35Z"/>
          <path class="cls-1" d="M126.52,16.1c0-.22.11-.33.33-.33h.31c.22,0,.33.11.33.33l-.04,4.4c0,.22-.11.33-.33.33h-.31c-.22,0-.33-.12-.33-.34l.04-4.4ZM126.85,14.77c-.22,0-.33-.11-.33-.33v-.33c0-.22.12-.33.33-.33h.34c.22,0,.33.12.33.33v.33c0,.22-.12.33-.34.33h-.34Z"/>
          <path class="cls-1" d="M128.65,20.42c-.09-.05-.13-.12-.14-.2,0-.08.02-.16.07-.25l.1-.14c.07-.09.14-.13.21-.14.07,0,.16.02.25.07.11.07.27.16.48.26s.46.15.76.16c.25,0,.46-.06.62-.17s.24-.28.24-.49c0-.17-.06-.3-.19-.4s-.29-.19-.48-.28c-.19-.08-.4-.17-.62-.24-.22-.08-.43-.18-.62-.31-.19-.12-.35-.28-.48-.46-.13-.18-.19-.42-.19-.7,0-.24.05-.45.15-.63.1-.18.23-.33.4-.45.17-.12.36-.21.59-.27.22-.06.46-.09.71-.09.35,0,.64.05.87.15.23.1.4.18.52.25.09.05.15.11.16.19s0,.16-.06.25l-.09.15c-.09.17-.24.2-.44.11-.11-.06-.24-.13-.41-.19-.17-.07-.37-.1-.61-.1s-.44.05-.61.16c-.16.1-.25.26-.25.48,0,.17.06.3.19.41.13.1.29.2.48.28.19.08.4.16.62.25.22.08.43.18.62.3.19.12.35.27.48.45.13.18.19.42.19.71,0,.21-.05.41-.13.59-.09.18-.21.34-.38.47-.16.13-.35.23-.58.3s-.47.11-.75.1c-.21,0-.41-.02-.58-.06-.18-.04-.33-.09-.47-.14s-.26-.12-.37-.18-.2-.12-.26-.18Z"/>
          <path class="cls-1" d="M133.51,16.67h-.35c-.21,0-.32-.12-.32-.34v-.13c0-.22.11-.33.33-.33h.36s0-1.11,0-1.11c0-.22.11-.33.33-.33h.29c.22,0,.33.12.33.33v1.11s.87,0,.87,0c.22,0,.33.11.33.33v.13c0,.22-.11.33-.32.33h-.89s-.02,2.24-.02,2.24c0,.24.03.43.09.58.07.15.15.26.24.34.1.08.2.14.31.17.11.03.21.05.3.06.13.01.23.05.27.09.05.05.07.13.07.24v.21c0,.22-.14.33-.4.33-.25,0-.49-.04-.72-.12-.23-.08-.42-.19-.59-.34-.17-.16-.3-.35-.41-.58-.1-.23-.15-.51-.15-.83l.02-2.4Z"/>
        </g>
        <g class="cls-2">
          <path class="cls-1" d="M55.52,25.86c0-.18.09-.26.27-.26h.26c.17,0,.26.09.25.27l-.03,3.38c0,.43.12.77.38,1.02.26.25.6.37,1.04.37.43,0,.78-.12,1.04-.36.26-.24.4-.58.4-1.02l.03-3.37c0-.18.09-.26.27-.26h.26c.18,0,.26.09.26.27l-.03,3.38c0,.31-.06.6-.17.85-.11.25-.26.47-.46.66-.2.18-.43.32-.7.42s-.57.15-.9.14c-.33,0-.63-.06-.91-.16-.27-.1-.51-.25-.7-.43s-.34-.41-.45-.66c-.1-.26-.16-.54-.15-.86l.03-3.38Z"/>
          <path class="cls-1" d="M61.08,27.5c0-.18.09-.26.27-.26h.25c.18,0,.26.09.26.27l-.03,3.52c0,.18-.09.26-.27.26h-.25c-.18,0-.26-.09-.26-.27l.03-3.52ZM61.34,26.43c-.18,0-.26-.09-.26-.27v-.26c0-.18.09-.26.27-.26h.27c.18,0,.26.09.26.27v.26c0,.18-.09.26-.27.26h-.27Z"/>
          <path class="cls-1" d="M63.16,27.93h-.28c-.17,0-.26-.09-.25-.27v-.1c0-.18.09-.26.27-.26h.29s0-.89,0-.89c0-.18.09-.26.27-.26h.23c.18,0,.26.09.26.27v.89s.7,0,.7,0c.18,0,.26.09.26.27v.1c0,.18-.09.26-.26.26h-.71s-.02,1.79-.02,1.79c0,.19.02.35.08.46s.12.21.19.27c.08.06.16.11.25.13.09.03.17.04.24.05.11.01.18.04.22.07.04.04.06.1.06.19v.17c0,.18-.11.26-.32.26-.2,0-.39-.03-.58-.09-.18-.06-.34-.15-.47-.28-.14-.12-.24-.28-.32-.47-.08-.19-.12-.41-.12-.67l.02-1.92Z"/>
          <path class="cls-1" d="M65.73,25.94c0-.18.09-.26.27-.26h.25c.17,0,.26.09.25.27v1.64c-.01.05-.02.1-.02.14,0,.04,0,.08-.01.11,0,.04,0,.07,0,.1h.02c.08-.14.18-.26.3-.37.11-.09.25-.17.41-.25.17-.08.37-.12.61-.11.27,0,.51.06.73.16.22.11.4.25.56.44.15.18.27.41.35.67.08.26.12.55.12.86,0,.33-.05.62-.14.88-.09.26-.22.48-.39.67-.17.18-.36.32-.59.42-.23.1-.47.15-.73.14-.24,0-.44-.04-.6-.12-.16-.08-.3-.17-.4-.27-.12-.11-.22-.24-.28-.39h-.02s0,.04,0,.06c.01.05.02.11.01.18v.2c0,.16-.09.23-.27.23h-.2c-.18,0-.26-.09-.26-.27l.04-5.12ZM66.46,29.31c0,.19.02.37.07.54.05.17.12.33.21.46.09.14.21.25.35.33.14.08.31.12.5.12.16,0,.31-.03.46-.09.14-.06.27-.15.38-.28.11-.12.19-.27.26-.45.06-.18.1-.38.1-.61,0-.22-.02-.42-.08-.59-.05-.18-.13-.33-.23-.46-.1-.13-.22-.22-.36-.29-.14-.07-.29-.11-.46-.11-.16,0-.3.03-.44.08s-.26.14-.37.26-.2.26-.26.44c-.07.18-.1.4-.1.65Z"/>
          <path class="cls-1" d="M70.45,27.58c0-.18.09-.26.27-.26h.22c.18,0,.26.09.26.27v.46s0,.08,0,.12c0,.04,0,.07-.01.1,0,.03,0,.06,0,.09h.02c.04-.13.1-.26.18-.39.08-.13.17-.24.28-.34s.23-.18.36-.24c.13-.06.27-.09.43-.09.17,0,.26.09.25.27v.22c0,.18-.1.26-.29.26-.2,0-.37.05-.52.14-.15.1-.27.22-.37.38-.1.15-.17.33-.22.53-.05.2-.08.4-.08.59v1.41c-.01.18-.1.26-.28.26h-.25c-.18,0-.26-.09-.26-.27l.03-3.52Z"/>
          <path class="cls-1" d="M72.9,29.36c0-.32.06-.61.16-.87.11-.26.25-.48.43-.66s.4-.32.64-.42c.25-.1.52-.15.81-.14.28,0,.52.05.74.15.22.1.4.23.54.4.15.17.26.38.33.61.08.24.11.49.11.78,0,.07-.03.14-.08.19-.05.05-.12.08-.2.08l-2.7-.02c0,.22.05.41.13.58.08.17.18.32.31.43.13.12.27.21.43.27.16.06.33.09.52.09.22,0,.42-.03.58-.1.17-.07.29-.14.39-.21.16-.08.28-.05.36.09l.07.12c.04.07.06.13.04.2s-.06.11-.13.16c-.06.04-.13.09-.23.14s-.19.1-.31.14c-.12.04-.24.08-.39.1-.14.03-.29.04-.45.04-.32,0-.61-.06-.87-.17-.26-.11-.48-.26-.67-.45s-.33-.42-.43-.68c-.1-.26-.15-.54-.15-.84ZM75.89,28.95c0-.36-.11-.63-.29-.81-.19-.18-.42-.28-.68-.28-.3,0-.56.09-.77.28-.22.19-.36.45-.42.79l2.17.02Z"/>
          <path class="cls-1" d="M77.53,27.64c0-.18.09-.26.27-.26h.25c.18,0,.26.09.26.27l-.03,3.52c0,.18-.09.26-.27.26h-.25c-.18,0-.26-.09-.26-.27l.03-3.52ZM77.79,26.57c-.18,0-.26-.09-.26-.27v-.26c0-.18.09-.26.27-.26h.27c.18,0,.26.09.26.27v.26c0,.18-.09.26-.27.26h-.27Z"/>
          <path class="cls-1" d="M79.16,29.41c0-.32.05-.61.14-.87.09-.26.22-.48.39-.67.16-.18.36-.32.58-.42.22-.1.47-.15.74-.15.23,0,.43.04.59.11.16.07.29.16.39.25.12.1.21.22.28.35h.02s-.01-.05-.02-.08c0-.03,0-.05,0-.08,0-.03,0-.07,0-.11v-1.66c.02-.18.1-.26.28-.26h.25c.18,0,.26.09.26.27l-.04,5.12c0,.18-.09.26-.27.26h-.21c-.18,0-.26-.09-.26-.25v-.23c0-.07,0-.12.01-.14,0-.02,0-.04,0-.06h-.02c-.08.15-.18.28-.3.39-.11.09-.25.18-.41.26-.17.08-.38.12-.63.12-.27,0-.52-.06-.74-.16-.22-.11-.41-.25-.56-.44-.15-.19-.27-.41-.35-.67-.08-.26-.12-.55-.12-.86ZM79.95,29.42c0,.22.02.42.08.59.05.18.13.33.23.46.1.13.22.22.36.29.14.07.29.11.46.11.15,0,.29-.02.44-.08.14-.05.27-.14.37-.26.11-.12.2-.27.26-.45.07-.18.1-.4.11-.66,0-.18-.02-.36-.07-.53-.05-.17-.12-.32-.21-.46-.09-.13-.21-.24-.36-.33-.14-.08-.31-.13-.5-.13-.16,0-.31.03-.45.09-.14.06-.26.16-.37.28-.11.12-.19.27-.26.45-.06.18-.09.38-.1.61Z"/>
          <path class="cls-1" d="M83.89,29.45c0-.32.06-.61.16-.87.11-.26.25-.48.43-.66.18-.18.4-.32.64-.42.25-.1.52-.15.81-.15.28,0,.52.05.74.15.22.1.4.23.55.41.14.17.25.38.33.61.08.24.11.49.11.78,0,.07-.03.14-.08.19s-.12.08-.2.08l-2.7-.02c0,.22.05.41.13.58.08.17.18.32.31.44s.27.21.43.27c.16.06.33.09.52.09.22,0,.42-.03.58-.1.17-.07.29-.14.39-.21.16-.08.28-.05.36.09l.07.12c.04.07.06.13.04.2s-.06.11-.13.16c-.06.04-.13.09-.23.14-.09.05-.19.1-.31.14-.12.04-.24.08-.39.1-.14.03-.29.04-.45.04-.32,0-.61-.06-.87-.17-.26-.11-.48-.26-.67-.45-.19-.19-.33-.42-.43-.68-.1-.26-.15-.54-.15-.84ZM86.88,29.05c0-.36-.11-.63-.29-.81-.19-.18-.42-.28-.68-.28-.3,0-.56.09-.77.28s-.36.45-.42.79l2.17.02Z"/>
          <path class="cls-1" d="M88.52,27.73c0-.18.09-.26.27-.26h.22c.18,0,.26.09.26.27v.36c0,.05,0,.11-.02.16,0,.02,0,.04,0,.07h.02c.04-.08.1-.18.18-.29.08-.11.19-.21.32-.31.13-.1.28-.17.45-.24.17-.06.37-.1.59-.09.48,0,.83.14,1.05.4.22.26.33.65.32,1.17l-.02,2.33c0,.18-.09.26-.27.26h-.25c-.18,0-.26-.09-.26-.27l.02-2.15c0-.14,0-.28-.02-.4-.02-.12-.05-.23-.11-.32-.05-.09-.13-.16-.23-.22-.1-.05-.23-.08-.39-.08-.2,0-.38.04-.54.11-.17.08-.31.18-.43.31-.12.13-.22.29-.28.47-.07.18-.1.38-.11.59v1.67c-.02.18-.1.26-.28.26h-.25c-.18,0-.26-.09-.26-.27l.03-3.52Z"/>
          <path class="cls-1" d="M95.27,26.19c0-.18.09-.26.27-.26h.25c.17,0,.25.09.25.27l-.02,2.81h.58s1-1.3,1-1.3c.07-.11.17-.17.31-.17h.3c.11,0,.17.03.21.1.03.06.01.14-.05.23l-1.13,1.45v.02l1.28,1.94c.06.09.07.17.03.23s-.11.09-.21.09h-.32c-.14,0-.24-.07-.31-.19l-1.09-1.72h-.6s-.01,1.63-.01,1.63c0,.18-.09.26-.26.26h-.25c-.18,0-.26-.09-.26-.27l.04-5.12Z"/>
          <path class="cls-1" d="M98.98,29.58c0-.32.06-.61.16-.87s.25-.48.43-.66.39-.32.64-.42c.25-.1.52-.15.81-.14.28,0,.52.05.74.15s.4.23.54.41c.15.17.26.38.33.61.08.24.11.49.11.78,0,.07-.03.14-.08.19-.05.05-.12.08-.2.08l-2.7-.02c0,.22.05.42.13.59.08.17.18.32.31.43s.27.21.43.27.33.09.51.09c.22,0,.42-.03.58-.1s.29-.14.39-.21c.16-.08.28-.05.36.09l.07.12c.04.07.06.14.04.2s-.06.11-.12.16c-.06.04-.13.09-.23.14s-.19.1-.31.14c-.12.04-.24.08-.39.1-.14.03-.29.04-.45.04-.32,0-.61-.06-.87-.17-.26-.11-.48-.26-.67-.45-.19-.19-.33-.42-.43-.68-.1-.26-.15-.54-.15-.84ZM101.98,29.17c0-.36-.11-.63-.29-.81-.19-.18-.42-.28-.68-.28-.3,0-.56.09-.77.28-.22.19-.36.45-.42.79l2.17.02Z"/>
          <path class="cls-1" d="M103.61,27.86c0-.18.09-.26.27-.26h.22c.18,0,.26.09.26.27v.36c0,.05,0,.11-.02.16,0,.02,0,.04,0,.07h.02c.04-.08.1-.18.18-.29.08-.11.19-.21.32-.31.13-.1.28-.18.45-.24.17-.07.37-.1.59-.09.48,0,.83.14,1.05.4.22.26.33.65.32,1.17l-.02,2.33c0,.18-.09.26-.27.26h-.25c-.18,0-.26-.09-.26-.27l.02-2.15c0-.14,0-.28-.03-.4s-.05-.23-.11-.32c-.05-.09-.13-.16-.23-.22-.1-.05-.23-.08-.39-.08-.2,0-.38.04-.54.11-.17.08-.31.18-.43.31-.12.13-.22.29-.28.47s-.1.38-.11.59v1.67c-.01.18-.1.26-.28.26h-.25c-.18,0-.26-.09-.26-.27l.03-3.52Z"/>
          <path class="cls-1" d="M108.34,27.9c0-.18.09-.26.27-.26h.22c.18,0,.26.09.26.27v.36c0,.05,0,.11-.02.16,0,.02,0,.04,0,.07h.02c.04-.08.1-.18.18-.29.08-.11.19-.21.32-.31.13-.09.28-.17.45-.24.17-.06.37-.1.59-.09.48,0,.83.14,1.05.4.22.26.33.65.32,1.17l-.02,2.33c0,.18-.09.26-.27.26h-.25c-.18,0-.26-.09-.26-.27l.02-2.15c0-.14,0-.28-.03-.4s-.05-.23-.11-.32c-.05-.09-.13-.16-.23-.22-.1-.05-.23-.08-.39-.08-.2,0-.38.04-.54.11-.17.08-.31.18-.43.31-.12.13-.22.29-.28.47-.07.18-.1.38-.11.59v1.67c-.02.18-.1.26-.28.26h-.25c-.18,0-.26-.09-.26-.27l.03-3.52Z"/>
          <path class="cls-1" d="M113.07,27.94c0-.18.09-.26.27-.26h.25c.18,0,.26.09.26.27l-.03,3.52c0,.18-.09.26-.27.26h-.25c-.18,0-.26-.09-.26-.27l.03-3.52ZM113.33,26.87c-.18,0-.26-.09-.26-.27v-.26c0-.18.09-.26.27-.26h.27c.18,0,.26.09.26.27v.26c0,.18-.09.26-.27.26h-.27Z"/>
          <path class="cls-1" d="M114.77,31.39c-.07-.04-.11-.1-.11-.16,0-.06.01-.13.06-.2l.08-.11c.05-.07.11-.11.17-.11.06,0,.12.01.2.06.09.06.22.13.38.21.16.08.37.12.61.12.2,0,.37-.04.5-.14.13-.09.19-.22.2-.39,0-.13-.05-.24-.15-.32-.1-.08-.23-.16-.39-.22-.15-.07-.32-.13-.5-.2-.18-.06-.34-.14-.5-.24-.15-.1-.28-.22-.38-.37-.1-.14-.15-.33-.15-.56,0-.19.04-.36.12-.51.08-.15.18-.27.32-.36.13-.1.29-.17.47-.22.18-.05.37-.07.56-.07.28,0,.52.04.7.12.18.08.32.14.42.2.07.04.12.09.13.15.01.06,0,.13-.05.2l-.07.12c-.08.13-.19.16-.35.08-.08-.05-.2-.1-.33-.15-.13-.06-.3-.08-.49-.08-.19,0-.35.04-.48.12-.13.08-.2.21-.2.38,0,.13.05.24.15.33.1.08.23.16.39.22.15.07.32.13.5.2.18.07.34.15.5.24.15.09.28.21.39.36.1.15.15.34.15.57,0,.17-.04.33-.11.48-.07.15-.17.27-.3.38-.13.11-.28.19-.46.24-.18.06-.38.08-.6.08-.17,0-.33-.02-.47-.05-.14-.03-.27-.07-.38-.11-.11-.05-.21-.1-.3-.15-.09-.05-.16-.1-.21-.14Z"/>
          <path class="cls-1" d="M120.2,29.75c0-.3.06-.58.18-.84.12-.26.27-.48.47-.67s.43-.33.69-.43c.26-.1.55-.15.85-.15.3,0,.59.06.85.16.26.11.49.25.69.45.2.19.35.42.46.68.11.26.17.54.17.84,0,.31-.06.59-.18.85-.12.26-.27.48-.47.67-.2.19-.43.33-.7.44-.27.1-.55.16-.85.15-.3,0-.59-.06-.85-.17-.26-.11-.49-.26-.68-.45s-.35-.42-.46-.68c-.11-.26-.17-.54-.16-.85ZM120.98,29.76c0,.21.03.41.11.59.07.18.17.33.3.46.12.13.27.23.44.3.17.07.35.11.54.11.19,0,.37-.03.54-.1.17-.07.32-.17.45-.3.13-.13.23-.28.3-.46.07-.18.11-.37.11-.59,0-.21-.03-.4-.1-.58-.07-.17-.17-.33-.29-.46-.13-.13-.27-.23-.44-.3-.17-.07-.35-.11-.54-.11-.19,0-.37.03-.54.1-.17.07-.32.17-.44.3-.13.13-.23.28-.3.45-.08.18-.11.37-.12.58Z"/>
          <path class="cls-1" d="M124.99,28.08c-.03-.09-.03-.17.01-.22.04-.06.1-.08.2-.08h.27c.15,0,.25.08.29.22l.89,2.53c.02.06.04.12.06.18.02.06.03.12.04.18.01.06.03.13.04.19h.02c.02-.06.03-.13.05-.19.01-.06.03-.12.04-.18s.04-.12.06-.18l.93-2.51c.05-.14.15-.21.3-.21h.27c.1,0,.16.03.2.09.04.06.04.13,0,.22l-1.34,3.52c-.05.14-.15.21-.3.21h-.45c-.15,0-.25-.08-.29-.21l-1.3-3.55Z"/>
          <path class="cls-1" d="M129.09,29.83c0-.32.06-.61.16-.87.11-.26.25-.48.43-.66.18-.18.4-.32.64-.42.25-.1.52-.15.8-.14.28,0,.52.05.74.15.22.1.4.23.54.4.14.17.25.38.33.61.08.24.11.49.11.78,0,.07-.03.14-.08.19s-.12.08-.2.08l-2.7-.02c0,.22.05.41.13.58.08.17.18.32.31.44.13.12.27.21.43.27.16.06.33.09.52.09.22,0,.42-.03.58-.1.17-.07.29-.14.39-.21.16-.08.28-.05.36.09l.07.12c.04.07.06.13.04.2s-.06.11-.13.16c-.06.04-.13.09-.22.14s-.19.1-.31.14c-.12.04-.24.08-.38.1s-.29.04-.45.04c-.32,0-.61-.06-.87-.17s-.48-.26-.67-.45c-.19-.19-.33-.42-.43-.68-.1-.26-.15-.54-.15-.84ZM132.09,29.42c0-.36-.11-.63-.29-.81-.19-.18-.42-.28-.68-.28-.3,0-.56.09-.77.28-.22.19-.36.45-.42.79l2.17.02Z"/>
          <path class="cls-1" d="M133.72,28.11c0-.18.09-.26.27-.26h.22c.18,0,.26.09.26.27v.46s0,.08,0,.12,0,.07-.01.1c0,.03,0,.06,0,.09h.02c.04-.13.1-.26.18-.39.08-.13.17-.24.28-.34s.23-.18.36-.24c.13-.06.27-.09.43-.09.17,0,.26.09.25.27v.22c0,.18-.1.26-.29.26-.2,0-.37.05-.52.14-.15.1-.27.22-.37.38-.1.15-.17.33-.22.53-.05.2-.08.4-.08.59v1.41c-.01.18-.1.26-.28.26h-.25c-.18,0-.26-.09-.26-.27l.03-3.52Z"/>
          <path class="cls-1" d="M138.29,29.9c0-.3.06-.58.18-.84.12-.26.27-.48.47-.67.2-.19.43-.33.69-.43.26-.1.55-.15.85-.15.3,0,.59.06.85.16.26.11.49.25.69.45.2.19.35.42.46.68.11.26.17.54.16.84,0,.31-.06.59-.18.85s-.27.48-.47.67c-.2.19-.43.33-.7.44-.27.11-.55.16-.85.15-.3,0-.59-.06-.85-.17-.26-.11-.49-.26-.68-.45-.19-.19-.35-.42-.46-.68-.11-.26-.17-.54-.16-.85ZM139.08,29.91c0,.21.03.41.11.59.07.18.17.33.3.46.12.13.27.23.44.3.17.07.35.11.54.11.19,0,.37-.03.54-.1.17-.07.32-.17.45-.3s.23-.28.3-.46c.07-.18.11-.37.11-.59,0-.21-.03-.4-.1-.58-.07-.18-.17-.33-.3-.46-.13-.13-.27-.23-.44-.3-.17-.07-.35-.11-.54-.11-.19,0-.37.03-.54.1-.17.07-.32.17-.44.3-.13.13-.23.28-.3.45-.08.18-.11.37-.12.58Z"/>
          <path class="cls-1" d="M143.52,28.19c0-.18.09-.26.27-.26h.22c.18,0,.26.09.26.27v.36c0,.05,0,.11-.02.16,0,.02,0,.04,0,.07h.02c.04-.08.1-.18.18-.29.08-.11.19-.21.32-.31.13-.1.28-.17.45-.24.17-.06.37-.1.59-.09.48,0,.83.14,1.05.4.22.26.33.65.32,1.17l-.02,2.33c0,.18-.09.26-.27.26h-.25c-.18,0-.26-.09-.26-.27l.02-2.15c0-.14,0-.28-.03-.4s-.05-.23-.11-.32c-.05-.09-.13-.16-.23-.22-.1-.05-.23-.08-.39-.08-.2,0-.38.04-.54.11-.17.08-.31.18-.43.31s-.22.29-.28.47c-.07.18-.1.38-.11.59v1.67c-.01.18-.1.26-.28.26h-.25c-.18,0-.26-.09-.26-.27l.03-3.52Z"/>
          <path class="cls-1" d="M148.26,26.63c0-.18.09-.26.27-.26h.25c.18,0,.26.09.26.27l-.04,4.18c0,.11,0,.2.03.27s.05.12.09.16c.04.04.08.06.12.08.04.01.08.02.13.03.06.01.11.03.15.07s.06.09.06.17v.19c0,.09-.02.15-.06.2-.04.05-.11.07-.21.07-.11,0-.22-.01-.35-.04-.13-.03-.24-.08-.35-.16s-.19-.19-.26-.34c-.07-.15-.11-.35-.1-.61l.04-4.28Z"/>
          <path class="cls-1" d="M150.35,28.25c0-.18.09-.26.27-.26h.25c.18,0,.26.09.26.27l-.03,3.52c0,.18-.09.26-.27.26h-.25c-.18,0-.26-.09-.26-.27l.03-3.52ZM150.61,27.18c-.18,0-.26-.09-.26-.27v-.26c0-.18.09-.26.27-.26h.27c.18,0,.26.09.26.27v.26c0,.18-.09.26-.27.26h-.27Z"/>
          <path class="cls-1" d="M152.24,28.27c0-.18.09-.26.27-.26h.22c.18,0,.26.09.26.27v.36c0,.05,0,.11-.02.16,0,.02,0,.04,0,.07h.02c.04-.08.1-.18.18-.29.08-.11.19-.21.32-.31.13-.1.28-.18.45-.24.17-.07.37-.1.59-.09.48,0,.83.14,1.05.4.22.26.33.65.32,1.17l-.02,2.33c0,.18-.09.26-.27.26h-.25c-.18,0-.26-.09-.26-.27l.02-2.15c0-.14,0-.28-.03-.4s-.05-.23-.11-.32c-.05-.09-.13-.16-.23-.22-.1-.05-.23-.08-.39-.08-.2,0-.38.03-.54.11-.17.08-.31.18-.43.31-.12.13-.22.29-.28.47-.07.18-.1.38-.11.59v1.67c-.01.18-.1.26-.28.26h-.25c-.18,0-.26-.09-.26-.27l.03-3.52Z"/>
          <path class="cls-1" d="M156.7,30.06c0-.32.06-.61.16-.87.11-.26.25-.48.43-.66.18-.18.4-.32.64-.42.25-.1.52-.15.8-.14.28,0,.52.05.74.15.22.1.4.23.54.4.14.17.25.38.33.61.08.24.11.49.11.78,0,.07-.03.14-.08.19-.05.05-.12.08-.2.08l-2.7-.02c0,.22.05.41.13.58s.18.32.31.43c.13.12.27.21.43.27.16.06.33.09.52.09.22,0,.42-.03.58-.1.17-.07.29-.14.39-.21.16-.08.28-.05.36.09l.07.12c.04.07.06.13.04.2s-.06.11-.13.16c-.06.04-.13.09-.22.14s-.19.1-.31.14c-.12.04-.24.08-.38.1s-.29.04-.45.04c-.32,0-.61-.06-.87-.17-.26-.11-.48-.26-.67-.45-.19-.19-.33-.42-.43-.68-.1-.26-.15-.54-.15-.84ZM159.69,29.66c0-.36-.11-.63-.29-.81-.19-.18-.42-.28-.68-.28-.3,0-.56.09-.77.28-.22.19-.36.45-.42.79l2.17.02Z"/>
          <path class="cls-1" d="M163.14,31.8c-.07-.04-.11-.1-.11-.16,0-.06.01-.13.06-.2l.08-.11c.05-.07.11-.11.17-.11.06,0,.12.01.2.06.09.06.22.13.38.21.16.08.37.12.61.12.2,0,.37-.04.5-.14.13-.09.19-.22.2-.39,0-.13-.05-.24-.15-.32-.1-.08-.23-.16-.39-.22-.15-.07-.32-.13-.5-.2-.18-.06-.34-.14-.5-.24-.15-.1-.28-.22-.38-.37-.1-.14-.15-.33-.15-.56,0-.19.04-.36.12-.51.08-.15.18-.27.32-.36.13-.1.29-.17.47-.22.18-.05.37-.07.56-.07.28,0,.51.04.7.12s.32.14.42.2c.07.04.12.09.13.15.01.06,0,.13-.04.2l-.07.12c-.08.13-.19.16-.35.08-.08-.05-.19-.1-.33-.15-.13-.05-.3-.08-.49-.08-.19,0-.35.04-.48.12-.13.08-.2.21-.2.38,0,.13.05.24.15.33.1.08.23.16.39.22.15.07.32.13.5.2s.34.15.5.24c.15.09.28.21.38.36s.15.34.15.57c0,.17-.04.33-.11.47-.07.15-.17.27-.3.38-.13.11-.28.19-.46.24-.18.06-.38.08-.6.08-.17,0-.33-.02-.47-.05-.14-.03-.27-.07-.38-.11-.11-.05-.21-.1-.3-.15-.09-.05-.16-.1-.21-.14Z"/>
          <path class="cls-1" d="M167.03,28.8h-.28c-.17,0-.26-.09-.25-.27v-.1c0-.18.09-.26.27-.26h.29s0-.89,0-.89c0-.18.09-.26.27-.26h.23c.18,0,.26.09.26.27v.89s.7,0,.7,0c.18,0,.26.09.26.27v.1c0,.18-.09.26-.26.26h-.71s-.02,1.79-.02,1.79c0,.19.02.35.08.46.05.12.12.21.19.27s.16.11.25.13c.09.03.17.04.24.05.11.01.18.04.22.07.04.04.06.1.06.19v.17c0,.18-.11.26-.32.26-.2,0-.39-.03-.58-.09-.18-.06-.34-.15-.47-.28-.13-.12-.24-.28-.32-.47-.08-.19-.12-.41-.12-.67l.02-1.92Z"/>
          <path class="cls-1" d="M169.58,28.41c0-.18.09-.26.27-.26h.22c.18,0,.26.09.26.27v.46s0,.08,0,.12c0,.04,0,.07-.01.1,0,.03,0,.06,0,.09h.02c.04-.13.1-.26.18-.39.08-.13.17-.24.28-.34.11-.1.23-.18.36-.24.13-.06.27-.09.43-.09.17,0,.25.09.25.27v.22c0,.18-.1.26-.29.26-.2,0-.37.05-.52.14-.15.1-.27.22-.37.38-.1.15-.17.33-.22.53s-.08.4-.08.6v1.41c-.01.18-.1.26-.28.26h-.25c-.18,0-.26-.09-.26-.27l.03-3.52Z"/>
          <path class="cls-1" d="M172.03,31.11c0-.21.04-.39.12-.54s.19-.28.32-.38c.13-.1.29-.18.45-.24.17-.06.34-.11.53-.14.18-.03.36-.05.53-.06.17,0,.33-.01.47-.01h.21s0-.1,0-.1c0-.17-.02-.3-.06-.42s-.11-.21-.19-.28c-.08-.07-.17-.12-.28-.15-.11-.03-.22-.05-.34-.05-.2,0-.38.03-.54.08-.16.06-.28.11-.37.17-.16.07-.28.04-.36-.1l-.06-.11c-.08-.16-.05-.28.09-.36.12-.07.3-.14.52-.22.22-.08.49-.12.8-.11.51,0,.9.14,1.17.41.28.27.41.67.41,1.18l-.02,2.3c0,.18-.09.26-.27.26h-.2c-.18,0-.26-.09-.26-.27v-.24s0-.07,0-.1,0-.06,0-.08c0-.02.01-.04.02-.06h-.02c-.08.16-.18.3-.31.42-.11.11-.25.2-.41.29-.17.09-.37.13-.61.13-.18,0-.35-.03-.51-.08s-.31-.13-.43-.24c-.12-.11-.22-.23-.3-.38-.07-.15-.11-.32-.11-.51ZM172.82,31.05c0,.16.06.31.18.45.12.14.31.21.56.21.17,0,.32-.04.46-.11.14-.08.25-.18.35-.3.09-.12.17-.26.22-.41.05-.15.08-.3.08-.45v-.18s-.21,0-.21,0c-.14,0-.31,0-.5.02s-.37.04-.54.09c-.17.05-.32.13-.43.24s-.18.26-.18.45Z"/>
          <path class="cls-1" d="M176.66,28.88h-.28c-.17,0-.26-.09-.25-.27v-.1c0-.18.09-.26.27-.26h.29s0-.89,0-.89c0-.18.09-.26.27-.26h.23c.18,0,.26.09.26.27v.89s.7,0,.7,0c.18,0,.26.09.26.27v.1c0,.18-.09.26-.26.26h-.71s-.02,1.79-.02,1.79c0,.19.02.35.08.46.05.12.12.21.19.27.08.06.16.11.25.13.09.03.17.04.24.05.11.01.18.04.22.07s.06.1.06.19v.17c0,.18-.11.26-.32.26-.2,0-.39-.03-.58-.09-.18-.06-.34-.15-.47-.28-.13-.12-.24-.28-.32-.47s-.12-.41-.12-.67l.02-1.92Z"/>
          <path class="cls-1" d="M178.91,30.25c0-.32.06-.61.16-.87.11-.26.25-.48.43-.67.18-.18.4-.32.64-.42.25-.1.52-.15.8-.14.28,0,.52.05.74.15.22.1.4.23.54.41.14.17.25.38.33.61.08.24.11.49.11.78,0,.07-.03.14-.08.19-.05.05-.12.08-.2.08l-2.7-.02c0,.22.05.42.13.58.08.17.18.32.31.44s.27.21.43.27c.16.06.33.09.52.09.22,0,.42-.03.58-.1.17-.07.29-.14.39-.21.16-.08.28-.05.36.09l.07.12c.04.07.06.14.04.2-.01.06-.06.11-.13.16-.06.04-.13.09-.22.14-.09.05-.19.1-.31.14-.12.04-.24.08-.38.1-.14.03-.29.04-.45.04-.32,0-.61-.06-.87-.17s-.48-.26-.67-.45c-.19-.19-.33-.42-.43-.68-.1-.26-.15-.54-.15-.84ZM181.9,29.84c0-.36-.11-.63-.29-.81-.19-.18-.42-.28-.68-.28-.3,0-.56.09-.77.28-.22.19-.36.45-.42.79l2.17.02Z"/>
          <path class="cls-1" d="M183.79,33.28c.07-.15.18-.19.34-.13.09.04.21.08.36.12.14.04.32.06.52.06.17,0,.33-.02.49-.06.16-.04.29-.1.41-.19s.21-.21.28-.35c.07-.14.11-.32.11-.53v-.35s0-.06,0-.09c0-.03,0-.06,0-.08,0-.03.01-.05.02-.08h-.02c-.12.21-.28.38-.47.5-.2.12-.44.18-.73.18-.28,0-.54-.06-.76-.17s-.42-.26-.57-.44c-.16-.19-.27-.41-.35-.66-.08-.25-.12-.53-.12-.83,0-.29.04-.55.13-.8.08-.24.2-.46.35-.64.15-.18.34-.32.57-.42.22-.1.48-.15.78-.15.25,0,.46.04.62.11.16.07.29.15.39.24.11.1.2.21.25.34h.02s0-.02,0-.03c0-.02,0-.05,0-.1v-.23c0-.15.09-.22.27-.22h.19c.18,0,.26.09.26.27l-.03,3.62c0,.34-.06.62-.18.85-.12.23-.27.42-.46.57s-.41.25-.65.32c-.24.06-.48.1-.73.09-.22,0-.44-.02-.64-.06-.2-.04-.38-.1-.53-.17-.16-.07-.2-.19-.13-.35l.06-.14ZM185.23,31.61c.14,0,.27-.02.41-.07.13-.04.25-.12.35-.23s.18-.25.24-.43c.06-.17.09-.39.09-.65,0-.27-.03-.49-.09-.66-.06-.18-.14-.32-.24-.42-.1-.1-.22-.18-.35-.22-.14-.04-.28-.07-.43-.07-.37,0-.65.11-.84.35s-.29.55-.29.95c0,.44.1.79.3,1.05.2.26.49.4.86.4Z"/>
          <path class="cls-1" d="M188.22,28.57c0-.18.09-.26.27-.26h.25c.18,0,.26.09.26.27l-.03,3.52c0,.18-.09.26-.27.26h-.25c-.18,0-.26-.09-.26-.27l.03-3.52ZM188.48,27.5c-.18,0-.26-.09-.26-.27v-.26c0-.18.09-.26.27-.26h.27c.18,0,.26.09.26.27v.26c0,.18-.09.26-.27.26h-.27Z"/>
          <path class="cls-1" d="M189.84,30.34c0-.32.06-.61.16-.87.11-.26.25-.48.43-.66.18-.18.39-.32.64-.42s.52-.15.81-.15c.28,0,.52.05.74.15s.4.23.54.41c.14.17.25.38.33.61.08.24.11.49.11.78,0,.07-.03.14-.08.19s-.12.08-.2.08l-2.7-.02c0,.22.05.41.13.58.08.17.18.32.31.44s.27.21.43.27c.16.06.33.09.51.09.22,0,.42-.03.58-.1.17-.07.29-.14.39-.21.16-.08.28-.05.36.09l.07.12c.04.07.06.13.04.2s-.06.11-.13.16c-.06.04-.13.09-.22.14-.09.05-.19.1-.31.14-.12.04-.24.08-.39.1-.14.03-.29.04-.45.04-.32,0-.61-.06-.87-.17s-.48-.26-.67-.45c-.19-.19-.33-.42-.43-.68-.1-.26-.15-.54-.15-.84ZM192.84,29.93c0-.36-.11-.63-.29-.81s-.42-.28-.68-.28c-.3,0-.56.09-.77.28-.22.19-.36.45-.42.79l2.17.02Z"/>
          <path class="cls-1" d="M194.2,30.38c0-.32.06-.61.16-.87s.25-.48.43-.67c.18-.18.39-.32.64-.42.25-.1.52-.15.81-.14.28,0,.52.05.74.15s.4.23.54.41c.15.17.26.38.33.61s.11.49.11.78c0,.07-.03.14-.08.19-.05.05-.12.08-.2.08l-2.7-.02c0,.22.05.42.13.58.08.17.18.32.31.44s.27.21.43.27c.16.06.33.09.51.09.22,0,.42-.03.58-.1s.29-.14.39-.21c.16-.08.28-.05.36.09l.07.12c.04.07.06.14.04.2s-.06.11-.12.16c-.06.04-.13.09-.23.14-.09.05-.19.1-.31.14-.12.04-.24.08-.39.1-.14.03-.29.04-.45.04-.32,0-.61-.06-.87-.17-.26-.11-.48-.26-.67-.45-.19-.19-.33-.42-.43-.68-.1-.26-.15-.54-.15-.84ZM197.2,29.97c0-.36-.11-.63-.29-.81-.19-.18-.42-.28-.68-.28-.3,0-.56.09-.77.28-.22.19-.36.45-.42.79l2.17.02ZM195.52,27.57c-.18,0-.26-.09-.26-.27v-.28c0-.18.09-.26.27-.26h.11c.18,0,.26.09.26.27v.28c0,.18-.09.26-.27.26h-.11ZM196.86,27.58c-.18,0-.26-.09-.26-.27v-.28c0-.18.09-.26.27-.26h.11c.18,0,.26.09.26.27v.28c0,.18-.09.26-.27.26h-.11Z"/>
          <path class="cls-1" d="M198.83,28.66c0-.18.09-.26.27-.26h.22c.18,0,.26.09.26.27v.36c0,.05,0,.11-.02.16,0,.02,0,.04,0,.07h.02c.04-.08.1-.18.18-.29.08-.11.19-.21.32-.31.13-.1.28-.18.45-.24.17-.07.37-.1.59-.09.48,0,.83.14,1.05.4.22.26.33.65.32,1.17l-.02,2.33c0,.18-.09.26-.27.26h-.25c-.18,0-.26-.09-.26-.27l.02-2.15c0-.14,0-.28-.03-.4-.02-.12-.05-.23-.11-.32-.05-.09-.13-.16-.23-.22-.1-.05-.23-.08-.39-.08-.2,0-.38.04-.54.11-.17.08-.31.18-.43.31-.12.13-.22.29-.28.47s-.1.38-.11.59v1.67c-.01.18-.1.26-.28.26h-.25c-.18,0-.26-.09-.26-.27l.03-3.52Z"/>
        </g>
        <g class="cls-2">
          <path class="cls-1" d="M55.12,36.88c-.04-.19.04-.29.23-.29h.28c.16,0,.26.08.29.24l.9,3.92c.02.07.03.15.04.22.01.07.02.14.03.2,0,.06.02.12.02.18h.02c0-.06.02-.12.03-.18.01-.06.02-.12.04-.19s.04-.14.07-.22l1.08-3.91c.04-.15.14-.22.3-.22h.22c.16,0,.26.08.29.23l1.02,3.93c.02.08.04.15.05.22s.03.13.04.19c.02.06.03.12.03.18h.02c.01-.06.02-.12.03-.18.01-.06.02-.12.03-.2.01-.07.03-.15.05-.22l1.02-3.9c.04-.15.14-.23.3-.23h.27c.2,0,.27.1.23.29l-1.4,5.12c-.04.15-.14.22-.3.22h-.44c-.15,0-.24-.08-.29-.23l-.9-3.45c-.03-.09-.05-.18-.07-.28-.02-.1-.04-.18-.05-.26-.02-.09-.04-.18-.05-.26h-.02c-.02.08-.04.17-.06.26-.02.08-.03.16-.05.25-.02.1-.04.19-.07.28l-.96,3.43c-.04.15-.14.22-.3.22h-.44c-.15,0-.25-.08-.29-.24l-1.26-5.14Z"/>
          <path class="cls-1" d="M62.39,40.27c0-.32.06-.61.16-.87.11-.26.25-.48.43-.67.18-.18.4-.32.64-.42.25-.1.52-.15.81-.14.28,0,.52.05.74.15.22.1.4.23.54.41.15.17.26.38.33.61.08.24.11.49.11.78,0,.07-.03.14-.08.19-.05.05-.12.08-.2.08l-2.7-.02c0,.22.05.42.13.58.08.17.18.32.31.44s.27.21.43.27c.16.06.33.09.52.09.22,0,.42-.03.58-.1.17-.07.29-.14.39-.21.16-.08.28-.05.36.09l.07.12c.04.07.06.14.04.2-.01.06-.06.11-.13.15-.06.04-.13.09-.23.14-.09.05-.19.1-.31.14-.12.04-.24.08-.39.1-.14.03-.29.04-.45.04-.32,0-.61-.06-.87-.17-.26-.11-.48-.26-.67-.45-.19-.19-.33-.42-.43-.68-.1-.26-.15-.54-.15-.84ZM65.39,39.87c0-.36-.11-.63-.29-.81-.19-.18-.42-.28-.68-.28-.3,0-.56.09-.77.28s-.36.45-.42.79l2.17.02Z"/>
          <path class="cls-1" d="M67.04,36.95c0-.18.09-.26.27-.26h.25c.17,0,.25.09.25.27v1.64c-.01.05-.02.1-.02.14,0,.04,0,.08-.01.11,0,.04,0,.07,0,.1h.02c.08-.14.18-.26.3-.36.11-.09.25-.17.41-.25.17-.08.37-.12.61-.11.27,0,.51.06.73.16.22.11.4.25.56.44.15.18.27.41.35.67.08.26.12.55.12.86,0,.33-.05.62-.14.88-.09.26-.22.48-.39.67-.17.18-.36.32-.59.42-.23.1-.47.15-.73.14-.24,0-.44-.04-.6-.12-.16-.08-.3-.17-.4-.27-.12-.11-.22-.24-.28-.39h-.02s0,.04,0,.06c.01.05.02.11.01.18v.2c0,.16-.09.23-.27.23h-.2c-.18,0-.26-.09-.26-.27l.04-5.12ZM67.77,40.32c0,.19.02.37.07.54s.12.33.21.46c.09.14.21.25.35.33.14.08.31.12.5.12.16,0,.31-.03.46-.09.14-.06.27-.16.38-.28.11-.12.19-.27.26-.45.06-.18.1-.38.1-.61,0-.22-.02-.42-.08-.59-.05-.18-.13-.33-.23-.46-.1-.13-.22-.22-.36-.29-.14-.07-.29-.11-.46-.11-.15,0-.3.03-.44.08s-.26.14-.37.26c-.11.12-.2.26-.26.44-.07.18-.1.4-.1.65Z"/>
          <path class="cls-1" d="M73.41,41.29c0-.21.04-.39.12-.54.08-.15.19-.28.32-.38.13-.1.29-.18.45-.24s.34-.11.53-.14c.18-.03.36-.05.53-.06.17,0,.33-.01.47-.01h.21s0-.1,0-.1c0-.17-.02-.3-.06-.42-.04-.12-.11-.21-.19-.28-.08-.07-.17-.12-.28-.15-.11-.03-.22-.05-.34-.05-.2,0-.38.03-.54.08-.16.06-.28.11-.37.17-.16.07-.28.04-.36-.1l-.06-.11c-.08-.16-.05-.28.09-.36.12-.07.3-.14.52-.22s.49-.12.8-.11c.51,0,.9.14,1.17.41.28.27.41.67.41,1.18l-.02,2.3c0,.18-.09.26-.27.26h-.2c-.18,0-.26-.09-.26-.27v-.24s0-.07,0-.1c0-.03,0-.06,0-.08,0-.02.01-.04.02-.06h-.02c-.08.16-.18.3-.31.42-.11.11-.24.2-.41.29-.17.09-.37.13-.61.13-.18,0-.35-.03-.51-.08-.17-.05-.31-.13-.43-.24-.12-.11-.22-.23-.3-.38-.07-.15-.11-.32-.11-.51ZM74.19,41.23c0,.16.06.31.18.45.12.14.31.21.56.21.17,0,.32-.04.46-.11.14-.08.25-.18.35-.3.09-.12.17-.26.22-.41.05-.15.08-.3.08-.45v-.18s-.21,0-.21,0c-.14,0-.31,0-.5.02-.19.01-.37.04-.54.1-.17.05-.32.13-.43.24s-.18.26-.18.45Z"/>
          <path class="cls-1" d="M77.89,38.64c0-.18.09-.26.27-.26h.22c.18,0,.26.09.26.27v.36c0,.05,0,.11-.02.16,0,.02,0,.04,0,.07h.02c.04-.08.1-.18.18-.29.08-.11.19-.21.32-.31.13-.1.28-.18.45-.24.17-.07.37-.1.59-.09.48,0,.83.14,1.05.4.22.26.33.65.32,1.17l-.02,2.33c0,.18-.09.26-.27.26h-.25c-.18,0-.26-.09-.26-.27l.02-2.15c0-.14,0-.28-.02-.4-.02-.12-.05-.23-.11-.32-.05-.09-.13-.16-.23-.22-.1-.05-.23-.08-.39-.08-.2,0-.38.04-.54.11-.17.08-.31.18-.43.31-.12.13-.22.29-.28.47-.07.18-.1.38-.11.59v1.67c-.02.18-.1.26-.28.26h-.25c-.18,0-.26-.09-.26-.27l.03-3.52Z"/>
          <path class="cls-1" d="M82.27,41.36c0-.21.04-.39.12-.54.08-.15.19-.28.32-.38.13-.1.29-.18.45-.24s.34-.11.53-.14c.18-.03.36-.05.53-.06.17,0,.33-.01.47-.01h.21s0-.1,0-.1c0-.17-.02-.3-.06-.42-.04-.12-.11-.21-.19-.28-.08-.07-.17-.12-.28-.15-.11-.03-.22-.05-.34-.05-.2,0-.38.03-.54.08-.16.06-.28.11-.37.17-.16.07-.28.04-.36-.1l-.06-.11c-.08-.16-.05-.28.09-.36.12-.07.3-.14.52-.22.22-.08.49-.12.8-.11.51,0,.9.14,1.17.41.28.27.41.67.41,1.18l-.02,2.3c0,.18-.09.26-.27.26h-.2c-.18,0-.26-.09-.26-.27v-.24s0-.07,0-.1c0-.03,0-.06,0-.08,0-.02.01-.04.02-.06h-.02c-.08.16-.18.3-.31.42-.11.11-.24.2-.41.29-.17.09-.37.13-.61.13-.18,0-.35-.03-.51-.08-.17-.05-.31-.13-.43-.24-.12-.11-.22-.23-.3-.38-.07-.15-.11-.32-.11-.51ZM83.06,41.3c0,.16.06.31.18.45.12.14.31.21.56.21.17,0,.32-.04.46-.11.14-.08.25-.18.35-.3.09-.12.17-.26.22-.41.05-.15.08-.3.08-.45v-.18s-.21,0-.21,0c-.14,0-.31,0-.5.02-.19.01-.37.04-.54.1-.17.05-.32.13-.43.24s-.18.26-.18.45Z"/>
          <path class="cls-1" d="M86.77,37.12c0-.18.09-.26.27-.26h.25c.18,0,.26.09.26.27l-.04,4.18c0,.11,0,.2.03.27.02.07.05.12.09.16.04.04.08.06.12.08.04.01.08.02.13.03.06.01.11.03.15.07.04.04.06.09.06.17v.19c0,.09-.02.15-.06.2-.04.05-.11.07-.21.07-.11,0-.22-.01-.35-.04s-.25-.08-.35-.16c-.11-.08-.19-.19-.27-.34-.07-.15-.1-.35-.1-.61l.04-4.28Z"/>
          <path class="cls-1" d="M88.53,43.45c.05-.02.11-.01.17,0,.04.02.09.04.14.06.05.02.11.03.18.03.17,0,.31-.06.43-.18s.21-.26.28-.42l.2-.46-1.54-3.71c-.04-.09-.04-.16,0-.22.04-.06.11-.08.21-.08h.31c.15,0,.25.07.29.21l.93,2.45c.02.05.03.11.05.17.02.06.03.11.04.16.02.06.03.12.05.17h.02l.04-.16s.02-.1.04-.16c.02-.06.04-.11.06-.16l.94-2.43c.05-.14.15-.21.3-.21h.29c.1,0,.16.03.2.09.04.06.04.13,0,.22l-1.82,4.44c-.13.32-.3.56-.54.72-.23.16-.49.24-.78.24-.12,0-.22-.02-.32-.05s-.17-.06-.24-.09c-.07-.03-.12-.08-.14-.14-.02-.06-.01-.13.02-.2l.07-.13c.03-.08.08-.12.13-.14Z"/>
          <path class="cls-1" d="M92.53,40.53c0-.3.06-.58.17-.83.11-.26.26-.48.45-.67.19-.19.42-.33.69-.44.27-.11.55-.16.87-.16.17,0,.33.02.46.05.14.03.26.07.37.11.11.04.21.09.29.14s.15.1.2.14c.07.04.11.1.11.16,0,.06-.02.13-.07.2l-.08.12c-.09.13-.21.15-.36.06-.08-.06-.2-.13-.35-.2s-.33-.11-.55-.11c-.2,0-.39.03-.56.1s-.32.17-.45.3c-.13.13-.22.28-.3.45-.07.18-.11.37-.11.58s.03.4.1.58c.07.18.17.33.29.46.13.13.28.24.45.31.17.08.36.12.57.12.25,0,.46-.04.63-.12.17-.08.31-.16.41-.24.15-.09.27-.07.36.08l.06.12c.08.14.06.26-.07.35-.06.05-.13.1-.22.15s-.19.11-.31.16c-.12.05-.26.09-.41.12-.15.03-.32.05-.5.05-.32,0-.61-.06-.88-.17-.26-.11-.49-.26-.68-.45-.19-.19-.33-.42-.44-.68s-.16-.54-.15-.85Z"/>
          <path class="cls-1" d="M97.25,39.21h-.28c-.17,0-.25-.09-.25-.27v-.1c0-.18.09-.26.27-.26h.29s0-.89,0-.89c0-.18.09-.26.27-.26h.23c.18,0,.26.09.26.27v.89s.7,0,.7,0c.18,0,.26.09.26.27v.1c0,.18-.09.26-.26.26h-.71s-.01,1.79-.01,1.79c0,.19.02.35.08.46.05.12.12.21.19.27.08.06.16.11.25.13.09.03.17.04.24.05.11.01.18.04.22.07.04.04.06.1.06.19v.17c0,.18-.11.26-.32.26-.2,0-.39-.03-.58-.09-.18-.06-.34-.15-.47-.28-.14-.12-.24-.28-.32-.47-.08-.19-.12-.41-.12-.67l.02-1.92Z"/>
          <path class="cls-1" d="M99.8,38.83c0-.18.09-.26.27-.26h.25c.18,0,.26.09.26.27l-.03,3.52c0,.18-.09.26-.27.26h-.25c-.18,0-.26-.09-.26-.27l.03-3.52ZM100.06,37.76c-.18,0-.26-.09-.26-.27v-.26c0-.18.09-.26.27-.26h.27c.18,0,.26.09.26.27v.26c0,.18-.09.26-.27.26h-.27Z"/>
          <path class="cls-1" d="M101.88,39.25h-.28c-.17,0-.25-.09-.25-.27v-.1c0-.18.09-.26.27-.26h.29s0-.89,0-.89c0-.18.09-.26.27-.26h.23c.18,0,.26.09.26.27v.89s.7,0,.7,0c.18,0,.26.09.26.27v.1c0,.18-.09.26-.26.26h-.71s-.01,1.79-.01,1.79c0,.19.02.35.08.46.05.12.12.21.19.27.08.06.16.11.25.13s.17.04.24.05c.11.01.18.04.22.07.04.04.06.1.06.19v.17c0,.18-.11.26-.32.26-.2,0-.39-.03-.58-.09-.18-.06-.34-.15-.47-.28-.14-.12-.24-.28-.32-.47s-.12-.41-.12-.67l.02-1.92Z"/>
          <path class="cls-1" d="M104.11,40.62c0-.3.06-.58.17-.83.11-.26.26-.48.45-.67.19-.19.42-.33.69-.44.26-.11.55-.16.87-.16.17,0,.33.02.46.05s.26.07.38.11c.11.04.21.09.29.14.08.05.15.1.2.14.07.04.11.1.11.16,0,.06-.02.13-.07.2l-.08.12c-.09.13-.21.15-.36.06-.08-.06-.2-.13-.35-.2-.15-.07-.33-.11-.55-.11-.2,0-.39.03-.57.1-.17.07-.32.17-.45.3-.13.13-.23.28-.3.45-.07.18-.11.37-.11.58,0,.21.03.4.1.58.07.18.17.33.29.46.13.13.28.24.45.31.17.08.36.12.57.12.25,0,.46-.04.63-.12.17-.08.31-.16.41-.24.15-.09.27-.07.36.08l.06.12c.08.14.06.26-.07.35-.06.05-.13.1-.22.15s-.19.11-.31.16c-.12.05-.26.09-.41.12-.15.03-.32.05-.5.05-.32,0-.61-.06-.88-.17-.26-.11-.49-.26-.68-.45-.19-.19-.33-.42-.44-.67s-.16-.54-.15-.85Z"/>
          <path class="cls-1" d="M108.45,42.34c-.07-.04-.11-.1-.11-.16,0-.06.01-.13.06-.2l.08-.11c.05-.07.11-.11.17-.11.06,0,.12.01.2.06.09.06.22.13.38.21.16.08.37.12.61.12.2,0,.37-.04.5-.13.13-.09.19-.22.2-.4,0-.13-.05-.24-.15-.32-.1-.08-.23-.16-.39-.22-.15-.07-.32-.13-.5-.2-.18-.06-.34-.14-.5-.24-.15-.1-.28-.22-.38-.37s-.15-.33-.15-.56c0-.19.04-.36.12-.51.08-.15.19-.27.32-.36.13-.1.29-.17.47-.22.18-.05.37-.07.56-.07.28,0,.52.04.7.12.18.08.32.14.42.2.07.04.12.09.13.15.01.06,0,.13-.05.2l-.07.12c-.08.13-.19.16-.35.08-.08-.05-.2-.1-.33-.15-.13-.05-.3-.08-.49-.08-.19,0-.35.04-.48.12-.13.08-.2.21-.2.38,0,.13.05.24.15.32.1.08.23.16.39.22.15.07.32.13.5.2.18.06.34.15.5.24.15.09.28.22.39.36.1.15.15.34.15.57,0,.17-.04.33-.11.47-.07.15-.17.27-.3.38-.13.11-.28.19-.46.24-.18.06-.38.08-.6.08-.17,0-.33-.02-.47-.05-.14-.03-.27-.07-.38-.11-.11-.05-.21-.1-.3-.15-.09-.05-.16-.1-.21-.14Z"/>
        </g>
        <g class="cls-2">
          <path class="cls-1" d="M54.94,52.89c0-.07,0-.13.03-.18.02-.05.05-.1.09-.16l2.64-3.75c.05-.08.11-.15.16-.21s.1-.12.13-.16c.04-.05.08-.1.12-.14v-.02s-.07,0-.11.02c-.04,0-.08,0-.13,0s-.11,0-.18,0l-2.3-.02c-.18,0-.26-.09-.26-.27v-.16c0-.18.09-.26.27-.26l3.44.03c.18,0,.26.09.26.26v.08c0,.12-.04.23-.11.34l-2.65,3.75c-.06.08-.11.15-.16.21-.05.06-.09.12-.13.16-.04.05-.08.1-.12.13v.02s.07,0,.11,0c.04,0,.08,0,.13,0,.05,0,.11,0,.18,0l2.47.02c.18,0,.26.09.26.27v.16c0,.18-.09.26-.27.26l-3.62-.03c-.18,0-.26-.09-.26-.27v-.08Z"/>
          <path class="cls-1" d="M59.54,51.24c0-.3.06-.58.18-.84.12-.26.27-.48.47-.67.2-.19.43-.33.69-.43.26-.1.55-.15.85-.15.3,0,.59.06.85.16.26.11.49.25.69.45.2.19.35.42.46.68.11.26.17.54.16.84,0,.31-.06.59-.18.85-.12.26-.27.48-.47.67-.2.19-.43.33-.7.44-.27.1-.55.16-.85.15-.3,0-.59-.06-.85-.17-.26-.11-.49-.26-.68-.45-.19-.19-.35-.42-.46-.68-.11-.26-.17-.54-.16-.85ZM60.33,51.25c0,.21.03.41.11.59.07.18.17.33.3.46.12.13.27.23.44.3.17.07.35.11.54.11.19,0,.37-.03.54-.1.17-.07.32-.17.45-.3s.23-.28.3-.46c.07-.18.11-.37.11-.59,0-.21-.03-.4-.1-.58-.07-.17-.17-.33-.3-.46-.13-.13-.27-.23-.44-.3s-.35-.11-.54-.11c-.19,0-.37.03-.54.1s-.32.17-.44.3c-.13.13-.23.28-.3.45-.08.18-.11.37-.12.58Z"/>
          <path class="cls-1" d="M64.5,51.29c0-.32.06-.61.16-.87.11-.26.25-.48.43-.66.18-.18.4-.32.64-.42.25-.1.52-.15.81-.15.28,0,.52.05.74.15.22.1.4.23.54.41.15.17.26.38.33.61.08.24.11.49.11.78,0,.07-.03.14-.08.19-.05.05-.12.08-.2.08l-2.7-.02c0,.22.05.41.13.58.08.17.18.32.31.44s.27.21.43.27c.16.06.33.09.52.09.22,0,.42-.03.58-.1.17-.07.29-.14.39-.21.16-.08.28-.05.36.09l.07.12c.04.07.06.13.04.2s-.06.11-.13.16c-.06.04-.13.09-.23.14-.09.05-.19.1-.31.14-.12.04-.24.08-.39.1-.14.03-.29.04-.45.04-.32,0-.61-.06-.87-.17s-.48-.26-.67-.45c-.19-.19-.33-.42-.43-.68-.1-.26-.15-.54-.15-.84ZM67.5,50.88c0-.36-.11-.63-.29-.81-.19-.18-.42-.28-.68-.28-.3,0-.56.09-.77.28s-.36.45-.42.79l2.17.02Z"/>
          <path class="cls-1" d="M69.15,47.97c0-.18.09-.26.27-.26h.25c.17,0,.26.09.25.27l-.02,2.81h.58s1-1.3,1-1.3c.07-.11.17-.17.31-.17h.3c.11,0,.18.04.21.1.03.06.01.14-.05.23l-1.13,1.45v.02l1.28,1.94c.06.09.07.17.03.23s-.11.09-.21.09h-.32c-.14,0-.24-.07-.31-.19l-1.09-1.72h-.6s-.01,1.63-.01,1.63c0,.18-.09.26-.26.26h-.25c-.18,0-.26-.09-.26-.27l.04-5.12Z"/>
          <path class="cls-1" d="M73.21,49.61c0-.18.09-.26.27-.26h.22c.18,0,.26.09.26.27v.36c0,.05,0,.11-.02.16,0,.02,0,.04,0,.07h.02c.05-.12.12-.23.21-.35.09-.11.2-.21.33-.3s.26-.16.41-.21c.15-.06.3-.08.46-.08.67,0,1.07.32,1.21.93h.02c.05-.12.13-.23.23-.34s.21-.21.33-.29c.12-.08.26-.15.41-.2.15-.05.31-.07.47-.07.46,0,.8.14,1.01.4.21.26.31.65.31,1.17l-.02,2.33c0,.18-.09.26-.27.26h-.25c-.18,0-.26-.09-.26-.27l.02-2.16c0-.14,0-.28-.02-.4-.02-.12-.05-.23-.1-.32-.05-.09-.12-.16-.21-.22-.09-.05-.21-.08-.36-.08-.19,0-.36.04-.5.13-.15.09-.28.2-.38.35-.11.15-.19.31-.24.5-.05.19-.08.38-.08.57v1.62c-.02.18-.1.26-.27.26h-.26c-.17,0-.26-.09-.25-.27l.02-2.16c0-.13,0-.26-.02-.38-.02-.12-.05-.23-.09-.33-.05-.09-.12-.17-.21-.23-.09-.06-.22-.09-.37-.09-.19,0-.36.04-.52.13-.15.09-.28.21-.39.35-.11.15-.19.31-.24.5-.05.19-.08.37-.08.56v1.62c-.02.18-.1.26-.28.26h-.25c-.18,0-.26-.09-.26-.27l.03-3.52Z"/>
          <path class="cls-1" d="M80.07,52.34c0-.21.04-.39.12-.54.08-.15.19-.28.32-.38.13-.1.29-.18.45-.24.17-.06.34-.11.52-.14.18-.03.36-.05.53-.06.17,0,.33-.01.47-.01h.21s0-.1,0-.1c0-.17-.02-.3-.06-.42-.04-.12-.11-.21-.19-.28s-.17-.12-.28-.15c-.11-.03-.22-.05-.34-.05-.2,0-.38.03-.54.08-.16.06-.28.11-.37.17-.16.07-.28.04-.36-.1l-.06-.11c-.08-.16-.05-.28.09-.36.12-.07.3-.14.52-.22.22-.08.49-.11.8-.11.51,0,.9.14,1.17.41.28.27.41.67.41,1.18l-.02,2.3c0,.18-.09.26-.27.26h-.2c-.18,0-.26-.09-.26-.27v-.24s0-.07,0-.1c0-.03,0-.06,0-.08,0-.02.01-.04.02-.06h-.02c-.08.16-.18.3-.31.42-.11.11-.24.2-.41.29-.17.09-.37.13-.61.13-.18,0-.35-.03-.51-.08-.17-.05-.31-.13-.43-.24-.12-.11-.22-.23-.3-.38s-.11-.32-.11-.51ZM80.86,52.28c0,.16.06.31.18.45.12.14.31.21.56.21.17,0,.32-.04.46-.11.14-.08.25-.18.35-.3.09-.12.17-.26.22-.41.05-.15.08-.3.08-.45v-.18s-.21,0-.21,0c-.14,0-.31,0-.5.02-.19.01-.37.04-.54.1-.17.05-.32.13-.43.24s-.18.26-.18.45Z"/>
          <path class="cls-1" d="M84.28,51.46c0-.3.06-.58.17-.83s.26-.48.45-.67c.19-.19.42-.33.69-.44.27-.11.55-.16.87-.16.17,0,.33.02.46.05.14.03.26.07.37.11.11.04.21.09.29.14s.15.1.2.14c.07.04.11.1.11.16,0,.06-.02.13-.07.2l-.08.12c-.09.13-.21.15-.36.06-.08-.06-.2-.12-.35-.2-.15-.07-.33-.11-.55-.11-.2,0-.39.03-.56.1s-.32.17-.45.3c-.13.13-.23.28-.3.45-.07.18-.11.37-.11.58,0,.21.03.4.1.58.07.18.17.33.29.46.13.13.28.24.45.31s.36.12.57.12c.25,0,.46-.04.63-.12.17-.08.31-.16.41-.24.15-.09.27-.07.36.08l.06.12c.08.14.06.26-.07.35-.06.05-.13.1-.22.15-.09.05-.19.11-.31.16-.12.05-.26.09-.41.12-.15.03-.32.05-.5.05-.32,0-.61-.06-.88-.17s-.49-.26-.68-.45-.33-.42-.44-.68-.16-.54-.15-.85Z"/>
          <path class="cls-1" d="M88.83,48.14c0-.18.09-.26.27-.26h.25c.17,0,.26.09.25.27l-.02,1.83s0,.09,0,.14,0,.08-.01.1c0,.04,0,.07,0,.1h.02c.04-.1.11-.2.2-.31s.2-.21.33-.3c.13-.09.28-.17.44-.22.17-.06.35-.08.55-.08.48,0,.83.14,1.05.4.22.26.33.65.33,1.17l-.02,2.33c0,.18-.09.26-.27.26h-.25c-.18,0-.26-.09-.26-.27l.02-2.15c0-.14,0-.28-.02-.4-.02-.12-.05-.23-.11-.32-.05-.09-.13-.16-.23-.22-.1-.05-.23-.08-.39-.08-.19,0-.37.03-.54.11-.17.07-.31.18-.43.31s-.22.29-.29.48c-.07.18-.11.38-.11.6v1.66c-.01.18-.1.26-.27.26h-.25c-.18,0-.26-.09-.26-.27l.04-5.12Z"/>
          <path class="cls-1" d="M93.54,49.78c0-.18.09-.26.27-.26h.25c.18,0,.26.09.26.27l-.03,3.52c0,.18-.09.26-.27.26h-.25c-.18,0-.26-.09-.26-.27l.03-3.52ZM93.81,48.71c-.18,0-.26-.09-.26-.27v-.26c0-.18.09-.26.27-.26h.27c.18,0,.26.09.26.27v.26c0,.18-.09.26-.27.26h-.27Z"/>
          <path class="cls-1" d="M95.44,49.79c0-.18.09-.26.27-.26h.22c.18,0,.26.09.26.27v.36c0,.05,0,.11-.02.16,0,.02,0,.04,0,.07h.02c.04-.08.1-.18.18-.29.08-.11.19-.21.32-.31.13-.1.28-.18.45-.24.17-.07.37-.1.59-.09.48,0,.83.14,1.05.4.22.26.33.65.32,1.17l-.02,2.33c0,.18-.09.26-.27.26h-.25c-.18,0-.26-.09-.26-.27l.02-2.15c0-.14,0-.28-.02-.4-.02-.12-.05-.23-.11-.32-.05-.09-.13-.16-.23-.22-.1-.05-.23-.08-.39-.08-.2,0-.38.03-.54.11s-.31.18-.43.31c-.12.13-.22.29-.28.47-.07.18-.1.38-.11.59v1.67c-.02.18-.1.26-.28.26h-.25c-.18,0-.26-.09-.26-.27l.03-3.52Z"/>
          <path class="cls-1" d="M99.89,51.59c0-.32.06-.61.16-.87.11-.26.25-.48.43-.66.18-.18.4-.32.64-.42.25-.1.52-.15.8-.14.28,0,.52.05.74.15.22.1.4.23.54.41.14.17.25.38.33.61.08.24.11.49.11.78,0,.07-.03.14-.08.19-.05.05-.12.08-.2.08l-2.7-.02c0,.22.05.42.13.59s.18.32.31.43.27.21.43.27.33.09.52.09c.22,0,.42-.03.58-.1.17-.07.29-.14.39-.21.16-.08.28-.05.36.09l.07.12c.04.07.06.14.04.2s-.06.11-.13.16c-.06.04-.13.09-.22.14s-.19.1-.31.14c-.12.04-.24.08-.38.1s-.29.04-.45.04c-.32,0-.61-.06-.87-.17-.26-.11-.48-.26-.67-.45-.19-.19-.33-.42-.43-.68-.1-.26-.15-.54-.15-.84ZM102.89,51.18c0-.36-.11-.63-.29-.81-.19-.18-.42-.28-.68-.28-.3,0-.56.09-.77.28-.22.19-.36.45-.42.79l2.17.02Z"/>
          <path class="cls-1" d="M104.52,49.87c0-.18.09-.26.27-.26h.22c.18,0,.26.09.26.27v.36c0,.05,0,.11-.02.16,0,.02,0,.04,0,.07h.02c.05-.12.12-.23.21-.35.09-.11.21-.21.33-.3s.26-.16.41-.21c.15-.06.3-.08.46-.08.67,0,1.07.32,1.21.93h.02c.05-.12.13-.23.23-.34.1-.11.21-.21.33-.29.12-.08.26-.15.41-.2.15-.05.31-.07.47-.07.46,0,.8.13,1.01.4.21.26.31.65.31,1.17l-.02,2.33c0,.18-.09.26-.27.26h-.25c-.18,0-.26-.09-.26-.27l.02-2.16c0-.14,0-.28-.02-.4s-.05-.23-.1-.32-.12-.16-.21-.22c-.09-.05-.21-.08-.36-.08-.19,0-.36.04-.5.13-.15.09-.28.2-.38.35-.11.15-.19.31-.24.5-.05.19-.08.38-.08.57v1.62c-.01.18-.1.26-.27.26h-.26c-.17,0-.26-.09-.25-.27l.02-2.16c0-.13,0-.26-.02-.38-.02-.12-.05-.23-.09-.33-.05-.09-.12-.17-.21-.23s-.22-.09-.37-.09c-.19,0-.36.04-.52.13-.15.09-.28.21-.39.35-.11.15-.19.31-.24.5-.05.19-.08.37-.08.56v1.62c-.02.18-.1.26-.28.26h-.25c-.18,0-.26-.09-.26-.27l.03-3.52Z"/>
          <path class="cls-1" d="M111.39,52.6c0-.21.04-.39.12-.54.08-.15.19-.28.32-.38.13-.1.29-.18.45-.24.17-.06.34-.11.53-.14.18-.03.36-.05.53-.06.17,0,.33-.01.47-.01h.21s0-.1,0-.1c0-.17-.02-.3-.06-.42-.04-.12-.11-.21-.19-.28-.08-.07-.17-.12-.28-.15s-.22-.05-.34-.05c-.2,0-.38.03-.54.08-.16.06-.28.11-.37.17-.16.07-.28.04-.36-.1l-.06-.11c-.08-.16-.05-.28.09-.36.12-.07.3-.14.52-.22.22-.08.49-.12.8-.11.51,0,.9.14,1.17.41.28.27.41.67.41,1.18l-.02,2.3c0,.18-.09.26-.27.26h-.2c-.18,0-.26-.09-.26-.27v-.24s0-.07,0-.1c0-.03,0-.06,0-.08,0-.02.01-.04.02-.06h-.02c-.08.16-.18.3-.31.42-.11.11-.24.2-.41.29-.17.09-.37.13-.61.13-.18,0-.35-.03-.51-.08-.17-.05-.31-.13-.43-.24-.12-.11-.22-.23-.3-.38-.07-.15-.11-.32-.11-.51ZM112.17,52.55c0,.16.06.31.18.45.12.14.31.21.56.21.17,0,.32-.04.46-.11.14-.08.25-.18.35-.3.09-.12.17-.26.22-.41.05-.15.08-.3.08-.45v-.18s-.21,0-.21,0c-.14,0-.31,0-.5.02-.19.01-.37.04-.54.09-.17.05-.32.13-.43.24s-.18.26-.18.45Z"/>
          <path class="cls-1" d="M115.88,49.96c0-.18.09-.26.27-.26h.22c.18,0,.26.09.26.27v.46s0,.08,0,.12,0,.07-.01.1c0,.03,0,.06,0,.09h.02c.04-.13.1-.26.18-.39.08-.13.17-.24.28-.34s.23-.18.36-.24c.13-.06.27-.09.43-.09.17,0,.26.09.25.27v.22c0,.18-.1.26-.29.26-.2,0-.37.05-.52.14-.15.1-.27.22-.37.38-.1.15-.17.33-.22.53-.05.2-.08.4-.08.59v1.41c-.01.18-.1.26-.28.26h-.25c-.18,0-.26-.09-.26-.27l.03-3.52Z"/>
          <path class="cls-1" d="M118.74,48.39c0-.18.09-.26.27-.26h.25c.17,0,.25.09.25.27l-.02,2.81h.58s1-1.3,1-1.3c.07-.11.17-.17.31-.17h.3c.11,0,.17.03.21.1.03.06.01.14-.05.23l-1.13,1.45v.02l1.28,1.94c.06.09.07.17.03.23-.04.06-.11.09-.21.09h-.32c-.14,0-.24-.07-.31-.19l-1.09-1.72h-.6s-.01,1.63-.01,1.63c0,.18-.09.26-.26.26h-.25c-.18,0-.26-.09-.26-.27l.04-5.12Z"/>
          <path class="cls-1" d="M122.46,51.78c0-.32.06-.61.16-.87s.25-.48.43-.67c.18-.18.39-.32.64-.42.25-.1.52-.15.8-.14.28,0,.52.05.74.15.22.1.4.23.54.41.14.17.25.38.33.61.08.24.11.49.11.78,0,.07-.03.14-.08.19-.05.05-.12.08-.2.08l-2.7-.02c0,.22.05.42.13.58.08.17.18.32.31.44s.27.21.43.27c.16.06.33.09.52.09.22,0,.42-.03.58-.1.17-.07.29-.14.39-.21.16-.08.28-.05.36.09l.07.12c.04.07.06.14.04.2-.01.06-.06.11-.13.16-.06.04-.13.09-.22.14-.09.05-.19.1-.31.14-.12.04-.24.08-.38.1-.14.03-.29.04-.45.04-.32,0-.61-.06-.87-.17s-.48-.26-.67-.45c-.19-.19-.33-.42-.43-.68-.1-.26-.15-.54-.15-.84ZM125.46,51.37c0-.36-.11-.63-.29-.81-.19-.18-.42-.28-.68-.28-.3,0-.56.09-.77.28-.22.19-.36.45-.42.79l2.17.02Z"/>
          <path class="cls-1" d="M127.26,50.47h-.28c-.17,0-.26-.09-.25-.27v-.1c0-.18.09-.26.27-.26h.29s0-.89,0-.89c0-.18.09-.26.27-.26h.23c.18,0,.26.09.26.27v.89s.7,0,.7,0c.18,0,.26.09.26.27v.1c0,.18-.09.26-.26.26h-.71s-.02,1.79-.02,1.79c0,.19.02.35.08.46.05.12.12.21.19.27s.16.11.25.13c.09.03.17.04.24.05.11.01.18.04.22.07.04.04.06.1.06.19v.17c0,.18-.11.26-.32.26-.2,0-.39-.03-.58-.09-.18-.06-.34-.15-.47-.28-.13-.12-.24-.28-.32-.47-.08-.19-.12-.41-.12-.67l.02-1.92Z"/>
          <path class="cls-1" d="M129.8,50.08c0-.18.09-.26.27-.26h.25c.18,0,.26.09.26.27l-.03,3.52c0,.18-.09.26-.27.26h-.25c-.18,0-.26-.09-.26-.27l.03-3.52ZM130.07,49.01c-.18,0-.26-.09-.26-.27v-.26c0-.18.09-.26.27-.26h.27c.18,0,.26.09.26.27v.26c0,.18-.09.26-.27.26h-.27Z"/>
          <path class="cls-1" d="M131.7,50.09c0-.18.09-.26.27-.26h.22c.18,0,.26.09.26.27v.36c0,.05,0,.11-.02.16,0,.02,0,.04,0,.07h.02c.04-.08.1-.18.18-.29.08-.11.19-.21.32-.31.13-.1.28-.18.45-.24.17-.07.37-.1.59-.09.48,0,.83.14,1.05.4.22.26.33.65.32,1.17l-.02,2.33c0,.18-.09.26-.27.26h-.25c-.18,0-.26-.09-.26-.27l.02-2.15c0-.14,0-.28-.02-.4-.02-.12-.05-.23-.11-.32-.05-.09-.13-.16-.23-.22-.1-.05-.23-.08-.39-.08-.2,0-.38.03-.54.11-.17.08-.31.18-.43.31-.12.13-.22.29-.28.47-.07.18-.1.38-.11.59v1.67c-.02.18-.1.26-.28.26h-.25c-.18,0-.26-.09-.26-.27l.03-3.52Z"/>
          <path class="cls-1" d="M136.67,54.89c.07-.15.18-.19.34-.13.09.04.21.08.36.12.14.04.32.06.52.06.17,0,.33-.02.49-.06.16-.04.29-.1.41-.19s.21-.21.28-.35c.07-.14.11-.32.11-.53v-.35s0-.06,0-.09c0-.03,0-.06,0-.08,0-.03.01-.05.02-.08h-.02c-.12.21-.28.38-.47.5-.2.12-.44.18-.73.18-.28,0-.54-.06-.76-.17-.22-.11-.42-.26-.57-.44-.16-.19-.27-.41-.35-.66-.08-.25-.12-.53-.12-.83,0-.29.04-.55.13-.8.08-.24.2-.46.35-.64.15-.18.34-.32.57-.42.22-.1.48-.15.78-.15.25,0,.46.04.62.11.16.07.29.15.39.24.11.1.2.21.25.34h.02s0-.02,0-.03c0-.02,0-.05,0-.1v-.23c0-.15.09-.22.27-.22h.19c.18,0,.26.09.26.27l-.03,3.62c0,.34-.06.62-.18.85-.12.23-.27.42-.46.57s-.41.25-.65.32c-.24.06-.48.1-.73.09-.22,0-.44-.02-.64-.06-.2-.04-.38-.1-.53-.17-.16-.07-.2-.19-.13-.35l.06-.14ZM138.12,53.21c.14,0,.27-.02.41-.07.13-.04.25-.12.35-.23s.18-.25.24-.43c.06-.17.09-.39.09-.65,0-.27-.03-.49-.09-.66-.06-.18-.14-.32-.24-.42-.1-.1-.22-.18-.35-.22-.14-.04-.28-.07-.43-.07-.37,0-.65.11-.84.35-.19.24-.29.55-.29.95,0,.44.1.79.3,1.05.2.26.49.4.86.4Z"/>
        </g>
      </g>
      <g>
        <path class="cls-3" d="M6.71,50.81c10.5,7.7,32.57-2.34,35.13-14.2,2.86-13.24-18.41-29.57-30.25-24.07C.53,17.67-4.27,42.77,6.71,50.81Z"/>
        <g class="cls-2">
          <g class="cls-2">
            <path class="cls-1" d="M8.83,35.92c0-.43.08-.81.25-1.13.17-.32.38-.61.64-.86.26-.25.54-.48.85-.69.3-.21.59-.42.85-.62.26-.21.48-.42.65-.64s.26-.48.25-.76c0-.36-.13-.65-.38-.87s-.56-.32-.94-.32c-.16,0-.31.03-.45.08-.14.05-.26.11-.36.17-.11.07-.2.14-.27.22-.08.08-.14.15-.19.21-.07.08-.15.13-.23.15s-.16,0-.25-.07l-.19-.14c-.18-.13-.21-.29-.1-.46.07-.1.16-.21.28-.34.12-.13.26-.25.44-.37.17-.12.37-.21.6-.29.23-.08.49-.12.78-.12.33,0,.63.04.92.14.28.09.53.23.73.41.21.18.37.39.49.65.12.26.18.54.18.85,0,.4-.08.74-.24,1.04-.17.3-.38.56-.63.8s-.53.46-.83.65c-.3.2-.58.39-.83.59-.26.2-.47.41-.64.62s-.26.46-.26.74l3.27-.04c.23,0,.34.11.34.33v.21c0,.23-.11.34-.33.34l-4.02.05c-.1,0-.19-.03-.26-.08-.07-.05-.1-.14-.11-.26v-.21Z"/>
            <path class="cls-1" d="M17.27,36.49c-.49,0-.89-.09-1.22-.28-.33-.19-.59-.45-.8-.79s-.35-.73-.45-1.18c-.09-.45-.14-.94-.15-1.47,0-.52.03-1.01.11-1.46.08-.46.22-.85.42-1.19.2-.34.46-.61.78-.81.32-.2.73-.3,1.21-.31.49,0,.89.08,1.22.28.33.19.6.45.8.79.2.33.35.73.44,1.18.09.45.14.94.15,1.46,0,.53-.03,1.02-.11,1.47-.08.46-.22.85-.41,1.2-.19.34-.45.61-.78.81s-.73.3-1.22.31ZM17.26,35.56c.29,0,.54-.08.74-.23.2-.15.35-.35.46-.61.11-.26.19-.55.23-.9.04-.34.06-.71.06-1.11,0-.39-.03-.75-.09-1.1-.05-.34-.14-.64-.25-.89-.12-.25-.27-.45-.47-.59-.2-.14-.45-.21-.74-.21-.29,0-.54.08-.73.22-.19.15-.35.35-.46.6-.11.25-.19.55-.23.9-.04.34-.06.71-.06,1.1,0,.4.03.76.09,1.11.05.34.14.64.26.89s.28.45.47.59c.2.14.44.21.74.21Z"/>
          </g>
          <g class="cls-2">
            <path class="cls-1" d="M20.95,35.76c0-.43.08-.81.25-1.13.17-.32.38-.61.64-.86.26-.25.54-.48.85-.69.3-.21.59-.42.85-.62.26-.21.48-.42.65-.64s.26-.48.25-.76c0-.36-.13-.65-.38-.87s-.56-.32-.94-.32c-.16,0-.31.03-.45.08-.14.05-.26.11-.36.17-.11.07-.2.14-.27.22-.08.08-.14.15-.19.21-.07.08-.15.13-.23.15s-.16,0-.25-.07l-.19-.14c-.18-.13-.21-.29-.1-.46.07-.1.16-.21.28-.34.12-.13.26-.25.44-.37.17-.12.37-.21.6-.29.23-.08.49-.12.78-.12.33,0,.63.04.92.14.28.09.53.23.73.41.21.18.37.39.49.65.12.26.18.54.18.85,0,.4-.08.74-.24,1.04-.17.3-.38.56-.63.8s-.53.46-.83.65c-.3.2-.58.39-.83.59-.26.2-.47.41-.64.62s-.26.46-.26.74l3.27-.04c.23,0,.34.11.34.33v.21c0,.23-.11.34-.33.34l-4.02.05c-.1,0-.19-.03-.26-.08-.07-.05-.1-.14-.11-.26v-.21Z"/>
          </g>
          <g class="cls-2">
            <path class="cls-1" d="M26.63,34.3c-.23,0-.34-.11-.34-.33v-.06c0-.09,0-.17.03-.23.02-.06.05-.13.1-.2l3.02-4.31c.09-.14.23-.22.4-.22h.56c.23-.01.34.1.34.33l.05,4.1h.65c.23-.01.34.1.34.33v.18c0,.23-.09.34-.28.34h-.7s.02,1.61.02,1.61c0,.23-.11.34-.33.34h-.33c-.23,0-.34-.1-.34-.33l-.02-1.6-3.17.04ZM29.79,33.4l-.04-2.64c0-.08,0-.17,0-.25,0-.08,0-.16.01-.23,0-.08.01-.15.03-.24h-.02c-.04.07-.08.14-.11.21-.03.06-.07.12-.11.19-.04.07-.08.14-.13.2l-2.02,2.77v.02l2.38-.03Z"/>
          </g>
        </g>
      </g>
    </g>
  </g>
</svg>