<?xml version="1.0" encoding="UTF-8"?>
<svg id="Layer_2" data-name="Layer 2" xmlns="http://www.w3.org/2000/svg" viewBox="0 0 223.59 43.04">
  <defs>
    <style>
      .cls-1 {
        fill: #662d91;
      }

      .cls-2 {
        isolation: isolate;
      }

      .cls-3 {
        fill: #fff;
        stroke: #662d91;
        stroke-miterlimit: 10;
      }
    </style>
  </defs>
  <g id="video">
    <g>
      <path class="cls-3" d="M29.87,41.76c12.21-4.53,15.98-28.48,7.5-37.14C27.9-5.06,2.55,3.71.62,16.61c-1.81,12.06,16.5,29.88,29.25,25.15Z"/>
      <g class="cls-2">
        <g class="cls-2">
          <path class="cls-1" d="M12.43,24.98c0-.36.06-.67.2-.94s.32-.51.53-.72c.21-.21.45-.4.7-.58.25-.17.48-.35.7-.52.21-.17.39-.35.53-.53.14-.18.21-.4.2-.63,0-.3-.11-.54-.32-.72-.2-.18-.47-.26-.78-.26-.14,0-.26.03-.37.07-.11.04-.21.09-.3.15-.09.06-.16.12-.23.18-.06.07-.12.13-.15.18-.06.06-.12.11-.19.13-.06.02-.13,0-.21-.06l-.16-.12c-.15-.11-.18-.24-.08-.38.06-.08.13-.17.23-.28.1-.11.22-.21.36-.31s.31-.18.5-.25c.19-.07.41-.1.65-.11.27,0,.53.03.76.11.23.08.44.19.61.34.17.15.31.33.41.54.1.21.15.45.16.71,0,.33-.06.62-.2.86-.14.25-.31.47-.52.67-.21.2-.44.38-.68.55-.25.16-.48.33-.69.5-.21.17-.39.34-.53.52-.14.18-.21.39-.21.61l2.71-.06c.19,0,.28.09.29.27v.17c0,.19-.08.28-.27.29l-3.34.07c-.09,0-.16-.02-.21-.06s-.09-.12-.09-.21v-.18Z"/>
          <path class="cls-1" d="M19.44,25.4c-.4,0-.74-.07-1.01-.22-.27-.16-.5-.37-.67-.65-.17-.28-.3-.6-.38-.98-.08-.38-.12-.78-.13-1.22,0-.43.02-.83.08-1.21.06-.38.18-.71.34-.99.16-.28.38-.51.64-.67.27-.17.6-.26,1-.26.4,0,.74.07,1.02.22s.5.37.67.65c.17.27.29.6.37.97.08.38.12.78.13,1.21,0,.44-.02.84-.08,1.22-.06.38-.17.71-.33,1-.16.28-.37.51-.64.68-.27.17-.6.26-1.01.26ZM19.42,24.62c.24,0,.45-.07.61-.2.16-.13.29-.29.38-.51.09-.21.15-.46.19-.75.03-.28.05-.59.04-.92,0-.32-.03-.62-.08-.91-.05-.28-.12-.53-.22-.74-.1-.21-.23-.37-.4-.49-.17-.12-.37-.17-.62-.17-.24,0-.45.07-.6.19-.16.12-.28.29-.38.5-.09.21-.15.46-.19.74-.03.28-.05.59-.04.91,0,.33.03.64.08.92.05.28.12.53.22.74.1.21.23.37.4.49.16.12.37.18.61.17Z"/>
          <path class="cls-1" d="M22.48,24.77c0-.36.06-.67.2-.94s.32-.51.53-.72c.21-.21.45-.4.7-.58.25-.17.48-.35.7-.52.21-.17.39-.35.53-.53.14-.18.21-.4.2-.63,0-.3-.11-.54-.32-.72-.2-.18-.47-.26-.78-.26-.14,0-.26.03-.37.07-.11.04-.21.09-.3.15-.09.06-.16.12-.23.18-.06.07-.11.13-.15.18-.06.06-.12.11-.19.13-.06.02-.13,0-.21-.06l-.16-.12c-.15-.11-.18-.24-.08-.38.06-.08.13-.17.23-.28.1-.11.22-.21.36-.31.14-.1.31-.18.5-.24.19-.07.41-.1.65-.11.27,0,.53.03.76.11.23.08.44.19.61.34.17.15.31.33.41.54.1.21.15.45.16.71,0,.33-.06.62-.2.86-.14.25-.31.47-.52.67s-.44.38-.68.55c-.25.16-.48.33-.69.5-.21.17-.39.34-.53.52-.14.18-.21.39-.21.61l2.71-.06c.19,0,.28.09.29.27v.17c0,.19-.08.28-.27.29l-3.33.07c-.09,0-.16-.02-.21-.06s-.09-.12-.09-.21v-.18Z"/>
          <path class="cls-1" d="M29.49,25.19c-.4,0-.74-.07-1.01-.22-.27-.16-.5-.37-.67-.65-.17-.28-.3-.6-.38-.98-.08-.38-.12-.78-.13-1.22,0-.43.02-.83.08-1.21.06-.38.18-.71.34-.99.16-.28.38-.51.64-.67.27-.17.6-.26,1-.26.4,0,.74.07,1.02.22.28.16.5.37.67.65.17.27.29.6.37.97.08.38.12.78.13,1.21,0,.44-.02.84-.08,1.22s-.17.71-.33,1c-.16.28-.37.51-.64.68-.27.17-.6.25-1.01.26ZM29.47,24.42c.24,0,.45-.07.61-.2.16-.13.29-.29.38-.51.09-.21.15-.46.19-.74.03-.28.05-.59.04-.92,0-.32-.03-.62-.08-.91-.05-.28-.12-.53-.22-.74-.1-.21-.23-.37-.4-.49-.17-.12-.37-.17-.62-.17-.24,0-.45.07-.6.19-.16.12-.28.29-.38.5-.09.21-.15.46-.19.74-.03.28-.05.59-.04.91,0,.33.03.64.08.92.05.28.12.53.22.74.1.21.23.37.4.49.16.12.37.18.61.17Z"/>
        </g>
      </g>
      <g class="cls-2">
        <g class="cls-2">
          <path class="cls-1" d="M49.94,8.7c-.07-.19-.06-.35.02-.46.08-.11.22-.17.43-.17h.75c.33,0,.53.17.62.47l1.09,3.62c.03.11.06.24.1.37.03.13.06.26.09.37.03.13.05.27.08.41h.02c.03-.14.06-.28.08-.41.03-.11.06-.24.09-.37.03-.13.07-.26.1-.37l1.17-3.6c.09-.31.3-.46.62-.46h.72c.21,0,.35.07.43.18.08.11.08.27.02.46l-2.19,6.06c-.11.29-.32.44-.63.43h-.88c-.31,0-.52-.16-.63-.45l-2.1-6.1Z"/>
          <path class="cls-1" d="M57.15,8.68c0-.37.19-.55.56-.55h.65c.37,0,.55.19.54.56l-.05,6.05c0,.37-.19.55-.55.54h-.65c-.37,0-.55-.19-.55-.56l.05-6.05Z"/>
          <path class="cls-1" d="M60.28,8.71c0-.37.19-.55.56-.55l1.99.02c.56,0,1.07.09,1.52.25s.84.4,1.16.71c.32.31.56.68.73,1.13.17.44.25.95.25,1.51,0,.56-.1,1.06-.27,1.51-.18.45-.43.82-.75,1.12-.32.3-.71.54-1.17.7-.46.16-.97.24-1.53.23l-1.99-.02c-.37,0-.55-.19-.55-.55l.05-6.05ZM62.71,13.83c.61,0,1.08-.17,1.43-.52.35-.35.53-.87.53-1.55s-.17-1.2-.52-1.55c-.35-.35-.82-.52-1.42-.53h-.72s-.03,4.14-.03,4.14h.72Z"/>
          <path class="cls-1" d="M67.54,8.77c0-.37.19-.55.56-.55l3.38.03c.37,0,.55.19.54.56v.4c0,.37-.19.55-.56.54l-2.18-.02v1.3s1.62.01,1.62.01c.37,0,.55.19.55.55v.4c0,.37-.19.55-.56.55h-1.63s-.01,1.33-.01,1.33l2.32.02c.37,0,.55.19.55.55v.4c0,.37-.19.55-.56.55l-3.52-.03c-.37,0-.55-.19-.55-.55l.05-6.05Z"/>
          <path class="cls-1" d="M72.57,11.79c0-.51.1-.99.28-1.43.18-.44.44-.83.77-1.15.33-.33.73-.58,1.19-.77s.97-.27,1.52-.27c.55,0,1.06.1,1.52.29s.85.45,1.18.79c.33.33.58.72.75,1.17.18.44.26.92.26,1.44,0,.53-.1,1.01-.28,1.47-.18.45-.44.84-.77,1.18-.33.33-.73.6-1.19.79s-.97.28-1.52.28c-.55,0-1.06-.11-1.52-.3s-.85-.46-1.18-.8-.58-.74-.76-1.19c-.18-.45-.26-.94-.26-1.47ZM74.38,11.8c0,.31.04.59.14.85.09.26.23.49.39.68.17.19.37.34.61.46.24.11.49.17.77.17.28,0,.54-.05.78-.16.24-.11.44-.26.61-.45.17-.19.31-.41.41-.67.1-.26.15-.54.15-.85,0-.29-.04-.57-.14-.82-.09-.25-.23-.47-.4-.65-.17-.18-.37-.33-.61-.43s-.49-.16-.77-.16c-.28,0-.54.05-.78.15-.24.1-.44.24-.61.42-.17.18-.31.4-.41.65-.1.25-.15.52-.15.81Z"/>
          <path class="cls-1" d="M83.16,13.43c0-.19.03-.37.08-.54.05-.17.13-.33.23-.48.1-.15.22-.28.36-.4.14-.12.3-.21.47-.28v-.02c-.16-.08-.3-.19-.42-.33-.11-.12-.2-.28-.29-.48s-.13-.44-.12-.74c0-.35.07-.64.21-.88.14-.24.31-.44.54-.6.22-.15.47-.27.76-.33.28-.07.58-.1.88-.1h.36c.37,0,.55.19.55.56v.35c0,.37-.19.55-.56.54h-.21c-.27,0-.46.07-.57.23s-.17.32-.17.5.06.34.18.48c.12.14.3.21.54.21h.87s0-.32,0-.32c0-.37.19-.55.55-.54h.62c.37,0,.55.16.55.45v.44s.34,0,.34,0c.37,0,.55.19.54.55v.4c0,.37-.19.55-.56.55h-.34s0,.69,0,.69c0,.32-.07.62-.19.9-.12.28-.3.53-.54.74-.24.21-.52.37-.86.49-.34.12-.73.17-1.17.17-.41,0-.77-.06-1.1-.18-.33-.12-.61-.27-.84-.47-.23-.2-.4-.43-.52-.7s-.18-.56-.18-.86ZM84.95,13.33c0,.19.08.36.25.5.17.14.37.21.62.21.33,0,.59-.08.76-.23.17-.16.26-.35.26-.59v-.59s-.98,0-.98,0c-.11,0-.23,0-.34.03-.11.02-.21.06-.29.12-.08.06-.15.13-.2.22-.05.09-.08.2-.08.33Z"/>
          <path class="cls-1" d="M94.24,8.89c.1-.3.31-.45.62-.45h.9c.31,0,.52.16.62.46l2.02,6.09c.06.19.05.35-.03.46-.08.11-.23.17-.43.17h-.66c-.31,0-.52-.16-.62-.47l-.29-1.04-2.23-.02-.31,1.04c-.09.31-.29.46-.61.45h-.66c-.2,0-.34-.06-.42-.18-.08-.11-.09-.27-.02-.46l2.12-6.05ZM95.98,12.7l-.39-1.39c-.03-.11-.06-.24-.09-.38-.03-.14-.06-.27-.09-.4-.03-.15-.06-.3-.1-.45h-.02c-.04.15-.07.3-.1.45-.04.13-.07.26-.1.4s-.06.27-.1.38l-.42,1.39h1.41Z"/>
          <path class="cls-1" d="M99.27,9.03c0-.37.19-.55.56-.55h.78c.3,0,.52.13.66.38l1.74,2.99c.07.12.14.25.21.39.07.14.13.27.19.4.07.15.13.29.2.43h.02c-.01-.15-.02-.29-.04-.44-.01-.13-.02-.26-.03-.4,0-.14,0-.27,0-.38l.02-2.79c0-.37.19-.55.55-.55h.65c.37,0,.55.19.54.56l-.05,6.05c0,.37-.19.55-.55.54h-.78c-.29,0-.51-.13-.65-.38l-1.75-2.97c-.07-.11-.14-.24-.22-.39-.07-.14-.13-.28-.19-.41-.07-.15-.13-.29-.19-.43h-.02c.01.15.02.29.04.44.01.13.02.26.03.4,0,.14,0,.27,0,.38l-.02,2.78c0,.37-.19.55-.55.54h-.65c-.37,0-.55-.19-.54-.56l.05-6.05Z"/>
          <path class="cls-1" d="M106.69,9.1c0-.37.19-.55.56-.55h.65c.37,0,.55.19.54.56l-.05,6.05c0,.37-.19.55-.55.54h-.65c-.37,0-.55-.19-.54-.56l.05-6.05Z"/>
          <path class="cls-1" d="M110.11,9.1c.04-.35.23-.53.57-.53h.9c.31,0,.52.16.62.46l.87,2.58c.04.11.08.24.12.38.04.14.08.27.11.39.04.14.08.28.12.42h.02c.04-.14.08-.28.12-.42.03-.12.07-.25.12-.38.04-.14.09-.26.13-.37l.91-2.56c.1-.3.31-.45.62-.44h.9c.35,0,.54.19.57.54l.44,6.05c.01.18-.03.32-.12.42s-.23.15-.41.15h-.65c-.35,0-.54-.19-.57-.54l-.16-2.69c-.01-.13-.02-.27-.02-.42s0-.27,0-.38c0-.13,0-.27.02-.4h-.02c-.05.15-.1.29-.14.43-.04.12-.09.25-.13.39-.05.14-.09.27-.13.38l-.6,1.62c-.11.29-.32.44-.63.43h-.56c-.31,0-.52-.16-.63-.45l-.58-1.63c-.04-.11-.08-.24-.13-.38-.05-.14-.09-.27-.13-.39-.04-.14-.09-.28-.14-.43h-.02c0,.13,0,.27,0,.4,0,.11,0,.24,0,.38,0,.14,0,.28-.02.42l-.2,2.69c-.04.35-.23.53-.57.53h-.66c-.18,0-.31-.06-.4-.16-.09-.1-.13-.24-.11-.42l.55-6.04Z"/>
          <path class="cls-1" d="M119.98,9.11c.1-.3.31-.45.62-.45h.9c.31,0,.52.16.62.46l2.02,6.09c.06.19.05.35-.03.46-.08.11-.23.17-.43.17h-.66c-.31,0-.52-.16-.62-.47l-.29-1.04-2.23-.02-.31,1.04c-.09.31-.29.46-.61.45h-.66c-.2,0-.34-.06-.42-.18s-.09-.27-.02-.46l2.12-6.05ZM121.72,12.92l-.39-1.39c-.03-.11-.06-.24-.09-.38-.03-.14-.06-.27-.09-.4-.03-.15-.06-.3-.1-.45h-.02c-.04.15-.07.3-.1.45-.04.13-.07.26-.1.4s-.06.27-.1.38l-.42,1.39h1.41Z"/>
          <path class="cls-1" d="M125.96,10.21h-1.62c-.37-.02-.55-.2-.54-.57v-.4c0-.37.19-.55.56-.55l4.99.04c.37,0,.55.19.54.56v.4c0,.37-.19.55-.56.54h-1.62s-.04,5.09-.04,5.09c0,.37-.19.55-.55.54h-.65c-.37,0-.55-.19-.54-.56l.04-5.1Z"/>
          <path class="cls-1" d="M130.64,9.3c0-.37.19-.55.56-.55h.65c.37,0,.55.19.54.56l-.05,6.05c0,.37-.19.55-.55.54h-.65c-.37,0-.55-.19-.54-.56l.05-6.05Z"/>
          <path class="cls-1" d="M133.77,9.32c0-.37.19-.55.55-.55l3.38.03c.37,0,.55.19.54.55v.4c0,.37-.19.55-.56.55l-2.18-.02v1.3s1.62.01,1.62.01c.37,0,.55.19.54.55v.4c0,.37-.19.55-.56.55h-1.63s-.01,1.33-.01,1.33l2.32.02c.37,0,.55.19.54.55v.4c0,.37-.19.55-.56.55l-3.52-.03c-.37,0-.55-.19-.55-.55l.05-6.05Z"/>
          <path class="cls-1" d="M139.23,14.78c.09-.31.3-.47.62-.46h.47c.21,0,.35.07.43.18.08.12.08.27,0,.47l-.71,1.69c-.11.29-.32.43-.63.43h-.17c-.2,0-.34-.06-.42-.17-.08-.11-.1-.26-.04-.46l.46-1.68Z"/>
          <path class="cls-1" d="M144.72,9.39c.04-.35.23-.53.57-.53h.9c.31,0,.52.16.62.46l.87,2.58c.04.11.08.24.12.38.04.14.08.27.11.39.04.14.08.28.12.42h.02c.04-.14.08-.28.12-.42.03-.12.07-.25.12-.38.04-.14.09-.26.13-.37l.91-2.56c.1-.3.31-.45.62-.44h.9c.35,0,.54.19.57.54l.44,6.05c.01.18-.03.32-.12.42-.09.1-.23.15-.41.15h-.65c-.35,0-.54-.19-.57-.54l-.16-2.69c-.01-.13-.02-.27-.02-.42s0-.27,0-.38c0-.13,0-.27.02-.4h-.02c-.05.15-.1.29-.14.43-.04.12-.09.25-.13.39s-.09.27-.13.38l-.6,1.62c-.11.29-.32.44-.63.43h-.56c-.31,0-.52-.16-.63-.45l-.58-1.63c-.04-.11-.08-.24-.13-.38-.05-.14-.09-.27-.13-.39-.04-.14-.09-.28-.14-.43h-.02c0,.13,0,.27,0,.4,0,.11,0,.24,0,.38s0,.28-.02.42l-.2,2.69c-.04.35-.23.53-.57.53h-.66c-.18,0-.31-.06-.4-.16-.09-.1-.13-.24-.11-.42l.55-6.04Z"/>
          <path class="cls-1" d="M152.63,12.46c0-.51.1-.99.28-1.43.18-.44.44-.83.78-1.15.33-.33.73-.58,1.19-.77.46-.18.97-.27,1.52-.27.55,0,1.06.1,1.52.29.46.19.85.45,1.18.79.33.33.58.72.75,1.17.18.44.26.92.26,1.44,0,.53-.1,1.01-.28,1.47s-.44.84-.77,1.18-.73.6-1.19.79c-.46.19-.97.28-1.52.28s-1.06-.11-1.52-.3c-.46-.2-.85-.46-1.18-.8s-.58-.74-.76-1.19c-.18-.45-.26-.94-.26-1.47ZM154.44,12.47c0,.31.04.59.14.85.09.26.23.49.39.68s.37.34.61.46c.24.11.49.17.77.17s.54-.05.78-.16c.24-.11.44-.26.61-.45.17-.19.31-.41.41-.67.1-.26.15-.54.15-.85,0-.29-.04-.57-.14-.82s-.23-.47-.39-.65c-.17-.19-.37-.33-.61-.43-.24-.11-.49-.16-.77-.16-.28,0-.54.05-.78.15s-.44.24-.61.42c-.17.18-.31.4-.41.65-.1.25-.15.52-.15.81Z"/>
          <path class="cls-1" d="M162.46,10.51h-1.62c-.37-.02-.55-.2-.54-.57v-.4c0-.37.19-.55.56-.55l4.99.04c.37,0,.55.19.54.56v.4c0,.37-.19.55-.56.54h-1.62s-.04,5.09-.04,5.09c0,.37-.19.55-.55.54h-.65c-.37,0-.55-.19-.54-.56l.04-5.1Z"/>
          <path class="cls-1" d="M167.13,9.6c0-.37.19-.55.55-.55h.65c.37,0,.55.19.54.56l-.05,6.05c0,.37-.19.55-.55.54h-.65c-.37,0-.55-.19-.55-.56l.05-6.05Z"/>
          <path class="cls-1" d="M169.87,12.6c0-.51.1-.99.28-1.43.18-.44.44-.83.78-1.15.33-.33.73-.58,1.19-.77.46-.18.97-.27,1.52-.27.55,0,1.06.1,1.52.29.46.19.85.45,1.18.79s.58.72.75,1.17c.18.44.26.92.26,1.44,0,.53-.1,1.01-.28,1.47-.18.45-.44.84-.77,1.18s-.73.6-1.19.79c-.46.19-.97.28-1.52.28-.55,0-1.06-.11-1.52-.3-.46-.2-.85-.47-1.18-.8-.33-.34-.58-.74-.76-1.19-.18-.45-.26-.94-.26-1.47ZM171.68,12.62c0,.31.04.59.14.85.09.26.23.49.39.68.17.19.37.34.61.46.24.11.49.17.77.17.28,0,.54-.05.78-.16.24-.11.44-.26.61-.45.17-.19.31-.41.41-.67.1-.26.15-.54.15-.85,0-.29-.04-.56-.14-.82-.09-.25-.23-.47-.4-.65-.17-.19-.37-.33-.61-.43-.24-.11-.49-.16-.77-.16-.28,0-.54.05-.78.15s-.44.24-.61.42c-.17.18-.31.4-.41.65-.1.25-.15.52-.15.81Z"/>
          <path class="cls-1" d="M178.38,9.7c0-.37.19-.55.55-.55h.78c.3,0,.52.13.66.38l1.73,2.99c.07.12.14.25.21.39.07.14.13.27.19.4.07.15.13.29.2.43h.02c-.01-.15-.02-.29-.04-.44-.01-.13-.02-.26-.03-.4s0-.27,0-.38l.02-2.79c0-.37.19-.55.55-.55h.65c.37,0,.55.19.54.56l-.05,6.05c0,.37-.19.55-.55.55h-.78c-.29,0-.51-.13-.65-.38l-1.75-2.97c-.07-.11-.14-.24-.22-.39-.07-.14-.13-.28-.19-.41-.07-.15-.13-.29-.19-.43h-.02c.01.15.02.29.04.44.01.13.02.26.03.4,0,.14,0,.27,0,.38l-.02,2.78c0,.37-.19.55-.55.54h-.65c-.37,0-.55-.19-.55-.56l.05-6.05Z"/>
          <path class="cls-1" d="M188.3,9.78c0-.37.19-.55.56-.55l1.99.02c.56,0,1.07.09,1.52.25.46.16.84.4,1.16.71.32.31.56.68.73,1.13.17.44.25.95.25,1.51,0,.56-.09,1.06-.27,1.51s-.43.82-.75,1.12c-.32.3-.71.54-1.17.7-.46.16-.97.24-1.53.23l-1.99-.02c-.37,0-.55-.19-.54-.55l.05-6.05ZM190.73,14.9c.61,0,1.08-.17,1.43-.52.35-.35.53-.87.53-1.55s-.17-1.2-.52-1.55c-.35-.35-.82-.52-1.42-.53h-.72s-.03,4.14-.03,4.14h.72Z"/>
          <path class="cls-1" d="M195.56,9.84c0-.37.19-.55.55-.55l3.38.03c.37,0,.55.19.54.55v.4c0,.37-.19.55-.56.55l-2.18-.02v1.3s1.62.01,1.62.01c.37,0,.55.19.54.55v.4c0,.37-.19.55-.56.55h-1.63s-.01,1.33-.01,1.33l2.32.02c.37,0,.55.19.54.55v.4c0,.37-.19.55-.56.54l-3.52-.03c-.37,0-.55-.19-.55-.55l.05-6.05Z"/>
          <path class="cls-1" d="M200.98,15.89c-.05-.04-.1-.09-.14-.14-.04-.05-.07-.11-.08-.17-.02-.06-.02-.13,0-.21.02-.07.06-.16.13-.25l.31-.45c.1-.15.21-.23.33-.24.12-.02.26.02.43.12.06.03.13.07.21.12.08.05.18.1.29.15s.23.09.36.13c.13.03.28.05.43.05.26,0,.45-.04.58-.14.12-.1.19-.21.19-.35,0-.17-.08-.31-.23-.43-.16-.12-.35-.23-.58-.33-.23-.1-.49-.22-.76-.34-.27-.12-.52-.27-.76-.44-.23-.18-.42-.39-.58-.64-.15-.25-.23-.56-.23-.94,0-.33.07-.62.2-.89.13-.27.31-.5.54-.69.23-.19.5-.34.81-.44s.65-.15,1.01-.15c.42,0,.8.06,1.15.18.35.12.6.24.78.36.15.11.23.22.25.35.02.12,0,.26-.08.4l-.24.47c-.1.19-.22.29-.35.29-.13,0-.27-.04-.4-.11-.17-.08-.34-.16-.51-.23-.18-.07-.38-.11-.61-.11-.28,0-.48.04-.6.14-.12.1-.18.21-.18.35,0,.17.08.32.23.43.16.12.35.22.58.33.23.1.48.21.76.32s.52.25.76.43c.23.17.42.38.58.63.16.25.23.56.23.94,0,.3-.06.58-.17.85s-.28.5-.49.71c-.21.2-.48.36-.79.48-.31.12-.67.17-1.07.17-.25,0-.5-.03-.72-.08s-.44-.11-.64-.18c-.2-.07-.37-.15-.53-.24-.16-.08-.28-.16-.37-.24Z"/>
          <path class="cls-1" d="M206.83,9.93c0-.37.19-.55.56-.55h.65c.37,0,.55.19.54.56l-.05,6.05c0,.37-.19.55-.55.54h-.65c-.37,0-.55-.19-.54-.56l.05-6.05Z"/>
          <path class="cls-1" d="M209.57,13.03c0-.55.1-1.05.29-1.5s.45-.85.79-1.17c.34-.33.73-.58,1.2-.76.46-.18.97-.27,1.51-.27.29,0,.55.03.8.08.25.05.47.11.67.17.2.07.37.13.51.21.14.07.25.14.32.19.15.12.24.23.25.35s-.02.26-.12.41l-.26.41c-.09.15-.2.24-.33.25-.12.02-.27-.02-.43-.11-.17-.09-.35-.17-.55-.24-.2-.08-.46-.11-.77-.12-.36,0-.67.05-.93.16-.26.11-.47.26-.64.44-.17.19-.3.41-.38.65-.08.25-.12.5-.13.77,0,.33.05.63.16.89.11.26.25.49.43.68s.4.33.64.44c.25.1.51.15.78.16.25,0,.47-.03.66-.08.19-.06.34-.12.46-.2.14-.08.26-.17.35-.29v-.49s-.46,0-.46,0c-.37,0-.55-.19-.54-.55v-.39c0-.37.19-.55.56-.54h1.46c.37.02.55.2.54.57l-.02,2.94c0,.37-.19.55-.55.54h-.33c-.18,0-.32-.05-.41-.13s-.14-.19-.14-.31v-.09s0-.02.01-.03h-.02c-.13.13-.29.24-.47.34-.16.08-.36.16-.6.22-.24.07-.52.1-.84.09-.46,0-.9-.09-1.32-.27-.42-.17-.79-.42-1.12-.73s-.58-.7-.77-1.16c-.19-.46-.28-.96-.28-1.52Z"/>
          <path class="cls-1" d="M217.55,10.02c0-.37.19-.55.55-.55h.78c.3,0,.52.13.66.38l1.73,2.99c.07.12.14.25.21.39.07.14.13.27.19.4.07.15.13.29.2.43h.02c-.01-.15-.02-.29-.04-.44-.01-.13-.02-.26-.03-.4,0-.14,0-.27,0-.38l.02-2.79c0-.37.19-.55.55-.55h.65c.37,0,.55.19.54.56l-.05,6.05c0,.37-.19.55-.55.55h-.78c-.29,0-.51-.13-.65-.38l-1.75-2.97c-.07-.11-.14-.24-.22-.39-.07-.14-.13-.28-.19-.41-.07-.15-.13-.29-.19-.43h-.02c.01.15.02.29.04.44.01.13.02.26.03.4,0,.14,0,.27,0,.38l-.02,2.78c0,.37-.19.55-.55.54h-.65c-.37,0-.55-.19-.55-.56l.05-6.05Z"/>
        </g>
        <g class="cls-2">
          <path class="cls-1" d="M50.18,25.73c-.05-.05-.09-.1-.1-.16-.01-.06.01-.13.07-.21l.14-.19c.1-.12.22-.14.36-.04.05.04.11.08.19.13.08.05.17.1.27.15.1.05.22.09.35.13.13.04.27.05.42.06.3,0,.55-.07.73-.21.18-.15.27-.34.27-.59,0-.21-.06-.38-.2-.51-.13-.13-.3-.25-.5-.36-.2-.11-.42-.21-.65-.31s-.45-.22-.65-.35c-.2-.13-.37-.29-.5-.49-.13-.19-.2-.44-.19-.73,0-.24.05-.46.15-.65.09-.19.23-.35.39-.49.17-.13.36-.24.59-.31.22-.07.46-.11.72-.11.17,0,.32.02.47.05.15.03.29.07.41.11s.23.09.32.14.16.1.21.14c.13.09.15.21.08.36l-.11.2c-.05.08-.1.13-.17.13-.06,0-.13-.02-.2-.06-.11-.07-.25-.14-.42-.21-.17-.08-.38-.12-.62-.12-.29,0-.54.07-.73.21-.19.14-.29.33-.29.58,0,.2.06.37.2.5s.3.24.5.34c.2.1.42.2.65.29.23.09.45.21.65.35.2.13.37.3.5.5.13.2.2.45.19.75,0,.22-.04.43-.13.63-.08.19-.2.36-.36.5-.16.14-.35.26-.57.34-.22.08-.47.12-.76.12-.2,0-.39-.02-.57-.06-.18-.04-.34-.09-.48-.16-.14-.06-.27-.13-.38-.19-.11-.07-.19-.13-.26-.18Z"/>
          <path class="cls-1" d="M54.74,22.88h-.28c-.17,0-.26-.09-.25-.27v-.1c0-.18.09-.26.27-.26h.29s0-.89,0-.89c0-.18.09-.26.27-.26h.23c.18,0,.26.09.26.27v.89s.7,0,.7,0c.18,0,.26.09.26.27v.1c0,.18-.09.26-.26.26h-.71s-.02,1.79-.02,1.79c0,.19.02.35.08.46.05.12.12.21.19.27.08.06.16.11.25.13.09.03.17.04.24.05.11.01.18.04.22.07.04.04.06.1.06.19v.17c0,.18-.11.26-.32.26-.2,0-.39-.03-.58-.09-.18-.06-.34-.15-.47-.28-.14-.12-.24-.28-.32-.47s-.12-.41-.12-.67l.02-1.92Z"/>
          <path class="cls-1" d="M56.97,24.24c0-.3.06-.58.18-.84.12-.26.27-.48.47-.67.2-.19.43-.33.69-.44.26-.1.55-.15.85-.15.3,0,.59.06.85.16.26.11.49.25.69.45s.35.42.46.68c.11.26.17.54.16.84,0,.31-.06.59-.18.85-.12.26-.27.48-.47.67s-.43.33-.7.44c-.27.11-.55.16-.85.15-.3,0-.59-.06-.85-.17-.26-.11-.49-.26-.68-.45-.19-.19-.35-.42-.46-.68-.11-.26-.17-.54-.16-.85ZM57.75,24.25c0,.21.03.41.11.59.07.18.17.33.3.46.12.13.27.23.44.3s.35.11.54.11c.19,0,.37-.03.54-.1s.32-.17.45-.3.23-.28.3-.46c.07-.18.11-.37.11-.59,0-.21-.03-.4-.1-.58-.07-.18-.17-.33-.3-.46-.13-.13-.27-.23-.44-.3-.17-.07-.35-.11-.54-.11-.19,0-.37.03-.54.1-.17.07-.32.17-.44.3-.13.13-.23.28-.3.45-.08.18-.11.37-.12.58Z"/>
          <path class="cls-1" d="M62.2,22.54c0-.18.09-.26.27-.26h.22c.18,0,.26.09.26.27v.46s0,.08,0,.12c0,.04,0,.07-.01.1,0,.03,0,.06,0,.09h.02c.04-.13.1-.26.18-.39.08-.13.17-.24.28-.34s.23-.18.36-.24c.13-.06.27-.09.43-.09.17,0,.26.09.25.27v.22c0,.18-.1.26-.29.26-.2,0-.37.05-.52.14-.15.1-.27.22-.37.38-.1.15-.17.33-.22.53s-.08.4-.08.6v1.41c-.01.18-.1.26-.28.26h-.25c-.18,0-.26-.09-.26-.27l.03-3.52Z"/>
          <path class="cls-1" d="M64.74,27.28c.05-.02.11-.01.17,0,.04.02.09.04.14.06.05.02.11.03.18.03.17,0,.31-.06.43-.18s.21-.26.28-.42l.2-.46-1.54-3.71c-.04-.09-.04-.16,0-.22.04-.05.11-.08.21-.08h.31c.15,0,.25.07.29.21l.93,2.45c.02.05.03.11.05.16.02.06.03.11.04.16.02.06.03.12.05.17h.02l.04-.16s.02-.1.04-.15c.02-.06.04-.11.06-.16l.94-2.43c.05-.14.15-.21.3-.21h.29c.1,0,.16.03.2.09.04.06.04.13,0,.22l-1.82,4.44c-.13.32-.31.56-.54.72-.23.16-.49.24-.78.24-.12,0-.22-.02-.32-.05-.09-.03-.17-.06-.24-.09-.07-.03-.12-.08-.14-.14-.02-.06-.01-.13.02-.2l.07-.13c.03-.08.08-.12.13-.14Z"/>
          <path class="cls-1" d="M69.08,21c0-.18.09-.26.27-.26h.25c.17,0,.26.09.25.27v1.64c-.01.05-.02.1-.02.14,0,.04,0,.08-.01.11,0,.04,0,.07,0,.1h.02c.08-.14.18-.26.3-.36.11-.09.25-.17.41-.25.17-.08.37-.12.61-.11.27,0,.51.06.73.16.22.11.4.25.56.44.15.18.27.41.35.67.08.26.12.55.12.86,0,.33-.05.62-.14.88s-.22.48-.39.66c-.17.18-.36.32-.59.42-.23.1-.47.15-.73.15-.24,0-.44-.04-.6-.12-.16-.08-.3-.17-.4-.27-.12-.11-.22-.24-.28-.39h-.02s0,.04,0,.06c.01.05.02.11.01.18v.2c0,.16-.09.23-.27.23h-.2c-.18,0-.26-.09-.26-.27l.04-5.12ZM69.81,24.37c0,.19.02.37.07.54.05.17.12.33.21.46.09.14.21.25.35.33.14.08.31.12.5.12.16,0,.31-.03.46-.09.14-.06.27-.16.38-.28.11-.12.19-.27.26-.45.06-.18.1-.38.1-.61,0-.22-.02-.42-.08-.6-.05-.18-.13-.33-.23-.46-.1-.13-.22-.22-.36-.29-.14-.07-.29-.11-.46-.11-.15,0-.3.03-.44.08-.14.05-.26.14-.37.25s-.2.27-.26.44c-.07.18-.1.4-.1.65Z"/>
          <path class="cls-1" d="M73.52,24.38c0-.3.06-.58.18-.84.12-.26.27-.48.47-.67.2-.19.43-.33.69-.44.26-.1.55-.15.85-.15.3,0,.59.06.85.16.26.11.49.25.69.45s.35.42.46.68c.11.26.17.54.16.84,0,.31-.06.59-.18.85-.12.26-.27.48-.47.67s-.43.33-.7.44c-.26.11-.55.16-.85.15-.3,0-.59-.06-.85-.17-.26-.11-.49-.26-.68-.45-.19-.19-.35-.42-.46-.68-.11-.26-.17-.54-.16-.85ZM74.3,24.39c0,.21.03.41.11.59.07.18.17.33.3.46.12.13.27.23.44.3s.35.11.54.11c.19,0,.37-.03.54-.1s.32-.17.45-.3.23-.28.3-.46c.07-.18.11-.37.11-.59,0-.21-.03-.4-.1-.58-.07-.18-.17-.33-.3-.46-.13-.13-.27-.23-.44-.3-.17-.07-.35-.11-.54-.11-.19,0-.37.03-.54.1-.17.07-.32.17-.44.3-.13.13-.23.28-.3.45-.08.18-.11.37-.12.58Z"/>
          <path class="cls-1" d="M78.75,22.68c0-.18.09-.26.27-.26h.22c.18,0,.26.09.26.27v.46s0,.08,0,.12c0,.04,0,.07-.01.1,0,.03,0,.06,0,.09h.02c.04-.13.1-.26.18-.39.08-.13.17-.24.28-.34.11-.1.23-.18.36-.24.13-.06.27-.09.43-.09.17,0,.26.09.25.27v.22c0,.18-.1.26-.29.26-.2,0-.37.05-.52.14-.15.1-.27.22-.37.38-.1.15-.17.33-.22.53s-.08.4-.08.6v1.41c-.01.18-.1.26-.28.26h-.25c-.18,0-.26-.09-.26-.27l.03-3.52Z"/>
          <path class="cls-1" d="M81.22,24.46c0-.32.05-.61.14-.87.09-.26.22-.48.39-.66.16-.18.36-.32.58-.42.22-.1.47-.15.74-.15.23,0,.43.04.59.11.16.07.29.16.39.25.12.1.21.22.28.35h.02s-.01-.05-.02-.08c0-.03,0-.05,0-.08,0-.03,0-.07,0-.11v-1.66c.02-.18.1-.26.28-.26h.25c.18,0,.26.09.26.27l-.04,5.12c0,.18-.09.26-.27.26h-.21c-.18,0-.26-.09-.26-.25v-.23c0-.07,0-.12.01-.14,0-.02,0-.04,0-.06h-.02c-.08.15-.18.28-.3.39-.11.1-.25.18-.41.26-.17.08-.38.12-.63.11-.27,0-.52-.06-.74-.16-.22-.11-.41-.25-.56-.44-.15-.19-.27-.41-.35-.67-.08-.26-.12-.55-.12-.86ZM82.02,24.47c0,.22.02.42.08.59s.13.33.23.46c.1.13.22.22.36.29.14.07.29.11.46.11.15,0,.29-.03.44-.08.14-.05.27-.14.37-.26.11-.12.2-.27.26-.45s.1-.4.11-.66c0-.18-.02-.36-.07-.53-.05-.17-.12-.32-.21-.46-.09-.13-.21-.24-.36-.33-.14-.08-.31-.13-.5-.13-.16,0-.31.03-.45.09-.14.06-.26.16-.37.28-.11.12-.19.27-.26.45-.06.18-.09.38-.1.61Z"/>
          <path class="cls-1" d="M87.94,24.5c0-.3.06-.58.18-.84.12-.26.27-.48.47-.67.2-.19.43-.33.69-.43.26-.1.55-.15.85-.15.3,0,.59.06.85.16.26.11.49.25.69.45.2.19.35.42.46.68.11.26.17.54.17.84,0,.31-.06.59-.18.85-.12.26-.27.48-.47.67-.2.19-.43.33-.7.44-.26.11-.55.16-.85.15-.3,0-.59-.06-.85-.17-.26-.11-.49-.26-.68-.45-.19-.19-.35-.42-.46-.68-.11-.26-.17-.54-.16-.85ZM88.73,24.51c0,.21.03.41.11.59.07.18.17.33.3.46.12.13.27.23.44.3.17.07.35.11.54.11.19,0,.37-.03.54-.1.17-.07.32-.17.45-.3s.23-.28.3-.46c.07-.18.11-.37.11-.59,0-.21-.03-.4-.1-.58-.07-.18-.17-.33-.3-.46-.13-.13-.27-.23-.44-.3-.17-.07-.35-.11-.54-.11-.19,0-.37.03-.54.1-.17.07-.32.17-.44.3-.13.13-.23.28-.3.45-.08.18-.11.37-.12.58Z"/>
          <path class="cls-1" d="M93.18,22.8c0-.18.09-.26.27-.26h.18c.18,0,.26.08.26.23v.24s0,.06,0,.08c0,.02,0,.05,0,.07,0,.02,0,.04,0,.06h.02c.07-.14.17-.27.3-.38.11-.09.25-.18.42-.26.17-.08.39-.12.65-.12.27,0,.52.06.73.16.22.11.4.25.56.44.15.19.27.41.35.67.08.26.12.54.12.86,0,.32-.05.61-.14.87s-.22.48-.39.66c-.17.18-.36.32-.59.42-.23.1-.47.15-.73.15-.23,0-.43-.04-.59-.12-.16-.08-.29-.16-.39-.25-.12-.1-.21-.22-.28-.36h-.02s0,.06,0,.1c0,.03,0,.07.01.11,0,.04,0,.09,0,.14v1.61c-.01.18-.1.26-.27.26h-.25c-.18,0-.26-.09-.26-.27l.04-5.12ZM93.92,24.58c0,.18.02.36.07.53.05.17.12.32.22.46.09.13.21.24.35.33s.3.13.49.13c.16,0,.31-.03.45-.09.14-.06.27-.16.37-.28.11-.12.19-.27.26-.45.06-.18.09-.38.1-.61,0-.22-.02-.42-.08-.6-.05-.18-.13-.33-.23-.46-.1-.13-.22-.22-.36-.29-.14-.07-.29-.11-.46-.11-.15,0-.3.03-.44.08-.14.05-.26.14-.37.26s-.2.27-.26.45-.1.4-.1.66Z"/>
          <path class="cls-1" d="M97.72,26.28c-.07-.04-.11-.1-.11-.16,0-.06.01-.13.06-.2l.08-.11c.05-.07.11-.11.17-.11.06,0,.12.01.2.06.09.06.22.13.38.21.17.08.37.12.61.12.2,0,.37-.04.5-.14.13-.09.19-.22.2-.39,0-.13-.05-.24-.15-.32s-.23-.16-.39-.22c-.15-.07-.32-.13-.5-.2-.18-.06-.34-.14-.5-.25-.15-.1-.28-.22-.38-.37s-.15-.33-.15-.56c0-.19.04-.36.12-.51s.19-.27.32-.36.29-.17.47-.22c.18-.05.37-.07.56-.07.28,0,.52.04.7.12.18.08.32.14.42.2.07.04.12.09.13.15.01.06,0,.13-.04.2l-.07.12c-.08.13-.19.16-.35.08-.08-.05-.19-.1-.33-.15-.14-.05-.3-.08-.49-.08-.19,0-.35.04-.49.12-.13.08-.2.21-.2.38,0,.13.05.24.15.32.1.08.23.16.39.22s.32.13.5.2c.18.07.34.15.5.24.15.09.28.22.38.36s.15.34.15.57c0,.17-.04.33-.11.47-.07.15-.17.27-.3.38s-.28.19-.46.24c-.18.06-.38.08-.6.08-.17,0-.33-.02-.47-.05-.14-.03-.27-.07-.38-.11-.11-.05-.21-.1-.3-.15-.09-.05-.16-.1-.21-.14Z"/>
          <path class="cls-1" d="M101.61,23.28h-.28c-.17,0-.26-.09-.25-.27v-.1c0-.18.09-.26.27-.26h.29s0-.89,0-.89c0-.18.09-.26.27-.26h.23c.18,0,.26.09.26.27v.89s.7,0,.7,0c.18,0,.26.09.26.27v.1c0,.18-.09.26-.26.26h-.71s-.02,1.79-.02,1.79c0,.19.02.35.08.46.05.12.12.21.19.27.08.06.16.11.25.13.09.03.17.04.24.05.11.01.18.04.22.07s.06.1.06.19v.17c0,.18-.11.26-.32.26-.2,0-.39-.03-.58-.09-.18-.06-.34-.15-.47-.28-.13-.12-.24-.28-.32-.47s-.12-.41-.12-.67l.02-1.92Z"/>
          <path class="cls-1" d="M103.86,24.65c0-.32.06-.61.16-.87s.25-.48.43-.67c.18-.18.4-.32.64-.42.25-.1.52-.15.8-.14.28,0,.52.05.74.15.22.1.4.23.54.41.14.17.25.38.33.61.07.24.11.49.11.78,0,.07-.03.14-.08.19-.05.05-.12.08-.2.08l-2.7-.02c0,.22.05.42.13.58.08.17.18.32.31.44s.27.21.43.27c.16.06.33.09.52.09.22,0,.42-.03.58-.1.17-.07.29-.14.39-.21.16-.08.28-.05.36.09l.07.12c.04.07.06.14.04.2-.01.06-.06.11-.13.15-.06.04-.13.09-.22.14-.09.05-.19.1-.31.14-.12.04-.24.08-.38.1-.14.03-.29.04-.45.04-.32,0-.61-.06-.87-.17s-.48-.26-.67-.45c-.19-.19-.33-.42-.43-.68-.1-.26-.15-.54-.15-.84ZM106.85,24.24c0-.36-.11-.63-.29-.81-.19-.18-.42-.28-.68-.28-.3,0-.56.09-.77.28-.22.19-.36.45-.42.79l2.17.02Z"/>
          <path class="cls-1" d="M108.5,21.33c0-.18.09-.26.27-.26h.25c.18,0,.26.09.26.27l-.04,4.18c0,.11,0,.2.03.27.02.07.05.12.09.16.04.04.08.06.12.08.04.01.08.02.13.03.06.01.11.03.15.07.04.03.06.09.06.17v.19c0,.09-.02.15-.06.2-.04.05-.11.07-.21.07-.11,0-.22-.01-.35-.04-.13-.03-.25-.08-.35-.16-.11-.08-.19-.19-.27-.34-.07-.15-.1-.35-.1-.61l.04-4.28Z"/>
          <path class="cls-1" d="M110.6,21.34c0-.18.09-.26.27-.26h.25c.18,0,.26.09.26.27l-.04,4.18c0,.11,0,.2.03.27.02.07.05.12.09.16.04.04.08.06.12.08.04.01.08.02.13.03.06.01.11.03.15.07.04.03.06.09.06.17v.19c0,.09-.02.15-.06.2-.04.05-.11.07-.21.07-.11,0-.22-.01-.35-.04-.13-.03-.25-.08-.35-.16-.11-.08-.19-.19-.27-.34-.07-.15-.1-.35-.1-.61l.04-4.28Z"/>
          <path class="cls-1" d="M112.41,24.72c0-.32.06-.61.16-.87.11-.26.25-.48.43-.66.18-.18.4-.32.64-.42.25-.1.52-.15.8-.14.28,0,.52.05.74.15.22.1.4.23.54.41.14.17.25.38.33.61.07.24.11.49.11.78,0,.07-.03.14-.08.19-.05.05-.12.08-.2.08l-2.7-.02c0,.22.05.42.13.59s.18.32.31.43.27.21.43.27.33.09.52.09c.22,0,.42-.03.58-.1.17-.07.29-.14.39-.21.16-.08.28-.05.36.09l.07.12c.04.07.06.13.04.2s-.06.11-.13.16c-.06.04-.13.09-.22.14s-.19.1-.31.14c-.12.04-.24.08-.38.1s-.29.04-.45.04c-.32,0-.61-.06-.87-.17-.26-.11-.48-.26-.67-.45-.19-.19-.33-.42-.43-.68-.1-.26-.15-.54-.15-.84ZM115.4,24.31c0-.36-.11-.63-.29-.81-.19-.18-.42-.28-.68-.28-.3,0-.56.09-.77.28-.22.19-.36.45-.42.79l2.17.02Z"/>
          <path class="cls-1" d="M117.04,23c0-.18.09-.26.27-.26h.22c.18,0,.26.09.26.27v.36c0,.05,0,.11-.02.16,0,.02,0,.04,0,.07h.02c.04-.08.1-.18.18-.29.08-.11.19-.21.32-.31.13-.1.28-.18.45-.24.17-.07.37-.1.59-.09.48,0,.83.14,1.05.4.22.26.33.65.32,1.17l-.02,2.33c0,.18-.09.26-.27.26h-.25c-.18,0-.26-.09-.26-.27l.02-2.15c0-.14,0-.28-.02-.4-.02-.12-.05-.23-.11-.32-.05-.09-.13-.16-.23-.22-.1-.05-.23-.08-.39-.08-.2,0-.38.03-.54.11s-.31.18-.43.31c-.12.13-.22.29-.28.47s-.1.38-.11.59v1.67c-.01.18-.1.26-.28.26h-.25c-.18,0-.26-.09-.26-.27l.03-3.52Z"/>
          <path class="cls-1" d="M121.79,26.2c.04-.15.14-.22.3-.22h.25c.1,0,.17.03.21.09.04.06.04.13,0,.22l-.55,1.32c-.06.13-.16.2-.31.2h-.09c-.2,0-.28-.1-.22-.3l.43-1.31Z"/>
          <path class="cls-1" d="M125.47,26.51c-.07-.04-.11-.1-.11-.16,0-.06.01-.13.06-.2l.08-.11c.05-.07.11-.11.17-.11.06,0,.12.01.2.06.09.06.22.13.38.21.17.08.37.12.61.12.2,0,.37-.04.5-.14.13-.09.19-.22.2-.39,0-.13-.05-.24-.15-.32s-.23-.16-.39-.22c-.15-.07-.32-.13-.5-.2-.18-.06-.34-.14-.5-.25-.15-.1-.28-.22-.38-.37s-.15-.33-.15-.56c0-.19.04-.36.12-.51s.19-.27.32-.36.29-.17.47-.22.37-.07.56-.07c.28,0,.52.04.7.12.18.08.32.14.42.2.07.04.12.09.13.15.01.06,0,.13-.04.2l-.07.12c-.08.13-.19.16-.35.08-.08-.05-.19-.1-.33-.15-.14-.05-.3-.08-.49-.08-.19,0-.35.04-.49.12-.13.08-.2.21-.2.38,0,.13.05.24.15.32.1.08.23.16.39.22s.32.13.5.2c.18.07.34.15.5.24.15.09.28.22.38.36s.15.34.15.57c0,.17-.04.33-.11.47-.07.15-.17.27-.3.38-.13.11-.28.19-.46.24-.18.06-.38.08-.6.08-.17,0-.33-.02-.47-.05-.14-.03-.27-.07-.38-.12-.11-.05-.21-.1-.3-.15-.09-.05-.16-.1-.21-.14Z"/>
          <path class="cls-1" d="M128.89,24.86c0-.3.06-.58.17-.83.11-.26.26-.48.45-.67.19-.19.42-.33.69-.44.27-.11.55-.16.87-.16.17,0,.33.02.46.05.14.03.26.07.38.11.11.04.21.09.29.14.08.05.15.1.2.14.07.04.11.1.11.16,0,.06-.02.13-.07.2l-.08.12c-.09.13-.21.15-.36.06-.08-.06-.2-.13-.35-.2s-.33-.11-.55-.11c-.2,0-.39.03-.56.1-.17.07-.32.17-.45.3-.13.13-.22.28-.3.45-.07.18-.11.37-.11.58s.03.4.1.58c.07.18.17.33.29.46.13.13.28.24.45.31.17.08.36.12.57.12.25,0,.46-.04.63-.12s.31-.16.41-.24c.15-.09.27-.07.36.08l.06.12c.08.14.06.26-.07.35-.06.05-.13.1-.22.15s-.19.11-.31.16-.26.09-.41.12-.32.05-.5.05c-.32,0-.61-.06-.88-.17-.26-.11-.49-.26-.68-.45-.19-.19-.33-.42-.44-.67-.1-.26-.16-.54-.15-.85Z"/>
          <path class="cls-1" d="M133.42,23.13c0-.18.09-.26.27-.26h.22c.18,0,.26.09.26.27v.46s0,.08,0,.12c0,.04,0,.07-.01.1,0,.03,0,.06,0,.09h.02c.04-.13.1-.26.18-.39.08-.13.17-.24.28-.34s.23-.18.36-.24c.13-.06.27-.09.43-.09.17,0,.25.09.25.27v.22c0,.18-.1.26-.29.26-.2,0-.37.05-.52.14s-.27.22-.37.38c-.1.15-.17.33-.22.53s-.08.4-.08.6v1.41c-.01.18-.1.26-.28.26h-.25c-.18,0-.26-.09-.26-.27l.03-3.52Z"/>
          <path class="cls-1" d="M136.27,23.16c0-.18.09-.26.27-.26h.25c.18,0,.26.09.26.27l-.03,3.52c0,.18-.09.26-.27.26h-.25c-.18,0-.26-.09-.26-.27l.03-3.52ZM136.53,22.09c-.18,0-.26-.09-.26-.27v-.26c0-.18.09-.26.27-.26h.27c.18,0,.26.09.26.27v.26c0,.18-.09.26-.27.26h-.27Z"/>
          <path class="cls-1" d="M138.17,23.17c0-.18.09-.26.27-.26h.18c.18,0,.26.08.26.23v.24s0,.06,0,.08,0,.05,0,.07c0,.02,0,.04,0,.06h.02c.07-.14.17-.27.3-.38.11-.09.25-.18.42-.26.17-.08.39-.12.64-.12.27,0,.52.06.74.16.22.11.4.25.56.44.15.19.27.41.35.67.08.26.12.54.12.86,0,.32-.05.61-.14.87-.09.26-.22.48-.39.67-.17.18-.36.32-.59.42-.22.1-.47.15-.73.15-.24,0-.43-.04-.59-.12-.16-.08-.29-.16-.39-.25-.12-.1-.21-.22-.28-.36h-.02s0,.06,0,.1c0,.03,0,.07.01.11,0,.04,0,.09,0,.14v1.61c-.02.18-.1.26-.27.26h-.25c-.18,0-.26-.09-.26-.27l.04-5.12ZM138.91,24.96c0,.18.02.36.07.53.05.17.12.32.22.46s.21.24.35.33.3.13.49.13c.16,0,.31-.03.45-.09.14-.06.27-.16.38-.28.11-.12.19-.27.25-.45.06-.18.1-.38.1-.61,0-.22-.02-.42-.08-.6-.05-.18-.13-.33-.23-.46-.1-.13-.22-.22-.36-.29s-.29-.11-.46-.11c-.16,0-.3.03-.44.08-.14.05-.26.14-.37.26s-.2.27-.26.45-.1.4-.1.66Z"/>
          <path class="cls-1" d="M143.06,23.62h-.28c-.17,0-.26-.09-.25-.27v-.1c0-.18.09-.26.27-.26h.29s0-.89,0-.89c0-.18.09-.26.27-.26h.23c.18,0,.26.09.26.27v.89s.7,0,.7,0c.18,0,.26.09.26.27v.1c0,.18-.09.26-.26.26h-.71s-.02,1.79-.02,1.79c0,.19.02.35.08.46.05.12.12.21.19.27.08.06.16.11.25.13.09.02.17.04.24.05.11.01.18.04.22.07.04.04.06.1.06.19v.17c0,.18-.11.26-.32.26-.2,0-.39-.03-.58-.09-.18-.06-.34-.15-.47-.28-.13-.12-.24-.28-.32-.47-.08-.19-.12-.41-.12-.67l.02-1.92Z"/>
          <path class="cls-1" d="M147.41,26.69c-.07-.04-.11-.1-.11-.16,0-.06.01-.13.06-.2l.08-.11c.05-.07.11-.11.17-.11.06,0,.12.01.2.06.09.06.22.13.38.21.17.08.37.12.61.12.2,0,.37-.04.5-.14.13-.09.19-.22.2-.39,0-.13-.05-.24-.15-.32-.1-.08-.23-.16-.39-.22-.15-.07-.32-.13-.5-.2-.18-.06-.34-.14-.5-.24-.15-.1-.28-.22-.38-.37s-.15-.33-.15-.56c0-.19.04-.36.12-.51.08-.15.19-.27.32-.36.13-.1.29-.17.47-.22s.37-.07.56-.07c.28,0,.52.04.7.12s.32.14.42.2c.07.04.12.09.13.15.01.06,0,.13-.04.2l-.07.12c-.08.13-.19.16-.35.08-.08-.05-.19-.1-.33-.15s-.3-.08-.49-.08c-.19,0-.35.04-.49.12-.13.08-.2.21-.2.38,0,.13.05.24.15.33.1.08.23.16.39.22.15.07.32.13.5.2.18.07.34.15.5.24.15.09.28.21.38.36s.15.34.15.57c0,.17-.04.33-.11.47-.07.15-.17.27-.3.38-.13.11-.28.19-.46.24-.18.06-.38.08-.6.08-.17,0-.33-.02-.47-.05-.14-.03-.27-.07-.38-.11-.11-.05-.21-.1-.3-.15s-.16-.1-.21-.14Z"/>
          <path class="cls-1" d="M150.84,25.04c0-.3.06-.58.17-.83.11-.26.26-.48.45-.67.19-.19.42-.34.69-.44.26-.11.55-.16.87-.16.17,0,.33.02.46.05s.26.07.38.11c.11.04.21.09.29.14.08.05.15.1.2.14.07.04.11.1.11.16,0,.06-.02.13-.07.2l-.08.12c-.09.13-.21.15-.36.06-.08-.06-.2-.13-.35-.2-.15-.07-.33-.11-.55-.11-.2,0-.39.03-.57.1-.17.07-.32.17-.45.3-.13.13-.23.28-.3.45-.07.18-.11.37-.11.58s.03.4.1.58c.07.18.17.33.29.46s.28.24.45.31c.17.08.36.12.57.12.25,0,.46-.04.63-.12.17-.08.31-.16.41-.24.15-.09.27-.07.36.08l.06.12c.08.14.06.26-.07.35-.06.05-.13.1-.22.15-.09.06-.19.11-.31.16-.12.05-.26.09-.41.12-.15.03-.32.05-.5.05-.32,0-.61-.06-.88-.17-.26-.11-.49-.26-.68-.45-.19-.19-.33-.42-.44-.68s-.16-.54-.15-.85Z"/>
          <path class="cls-1" d="M155.38,21.72c0-.18.09-.26.27-.26h.25c.17,0,.25.09.25.27l-.02,1.83s0,.09,0,.14c0,.04,0,.08-.01.1,0,.04,0,.07,0,.1h.02c.04-.1.11-.2.2-.31.09-.11.2-.21.33-.3.13-.09.28-.17.44-.22.17-.06.35-.08.55-.08.48,0,.83.14,1.05.4s.33.65.33,1.17l-.02,2.33c0,.18-.09.26-.27.26h-.25c-.18,0-.26-.09-.26-.27l.02-2.15c0-.14,0-.28-.02-.4s-.05-.23-.11-.32c-.06-.09-.13-.16-.23-.22-.1-.05-.23-.08-.39-.08-.19,0-.37.03-.54.11-.17.07-.31.18-.43.31-.12.13-.22.29-.29.48-.07.18-.11.38-.11.6v1.66c-.02.18-.1.26-.27.26h-.25c-.18,0-.26-.09-.26-.27l.04-5.12Z"/>
          <path class="cls-1" d="M160.1,23.36c0-.18.09-.26.27-.26h.22c.18,0,.26.09.26.27v.46s0,.08,0,.12c0,.04,0,.07-.01.1,0,.03,0,.06,0,.09h.02c.04-.13.1-.26.18-.39.08-.13.17-.24.28-.34s.23-.18.36-.24c.13-.06.27-.09.43-.09.17,0,.25.09.25.27v.22c0,.18-.1.26-.29.26-.2,0-.37.05-.52.14s-.27.22-.37.38c-.1.15-.17.33-.22.53-.05.2-.08.4-.08.59v1.41c-.01.18-.1.26-.28.26h-.25c-.18,0-.26-.09-.26-.27l.03-3.52Z"/>
          <path class="cls-1" d="M162.95,23.38c0-.18.09-.26.27-.26h.25c.18,0,.26.09.26.27l-.03,3.52c0,.18-.09.26-.27.26h-.25c-.18,0-.26-.09-.26-.27l.03-3.52ZM163.21,22.31c-.18,0-.26-.09-.26-.27v-.26c0-.18.09-.26.27-.26h.27c.18,0,.26.09.26.27v.26c0,.18-.09.26-.27.26h-.27Z"/>
          <path class="cls-1" d="M164.85,23.4c0-.18.09-.26.27-.26h.25c.17,0,.25.09.25.27l-.03,3.9c0,.33-.06.6-.18.8-.12.2-.25.35-.41.46-.16.11-.32.17-.49.21-.17.03-.3.05-.39.05h-.1c-.18,0-.26-.09-.26-.27v-.14c0-.1.03-.17.08-.2.05-.03.11-.05.19-.06.08,0,.17-.02.26-.04.09-.02.18-.06.25-.13.08-.06.14-.15.2-.26.05-.11.08-.26.08-.46l.03-3.87ZM165.11,22.33c-.18,0-.26-.09-.26-.27v-.26c0-.18.09-.26.27-.26h.27c.18,0,.26.09.26.27v.26c0,.18-.09.26-.27.26h-.27Z"/>
          <path class="cls-1" d="M166.34,23.45c-.03-.09-.03-.16.01-.22.04-.05.1-.08.2-.08h.27c.15,0,.25.08.29.22l.89,2.53c.02.06.04.12.06.18.02.06.03.12.04.18.01.06.03.13.04.19h.02c.02-.06.03-.13.05-.19.01-.06.03-.12.04-.18s.04-.12.06-.18l.93-2.51c.05-.14.15-.21.3-.21h.27c.1,0,.16.03.2.09.04.06.04.13,0,.22l-1.34,3.52c-.05.14-.15.21-.3.21h-.45c-.15,0-.25-.08-.29-.21l-1.3-3.55Z"/>
          <path class="cls-1" d="M170.44,25.2c0-.32.06-.61.16-.87s.25-.48.43-.66c.18-.18.39-.32.64-.42.25-.1.52-.15.81-.14.28,0,.52.05.74.15s.4.23.54.41c.14.17.25.38.33.61.07.24.11.49.11.78,0,.07-.03.14-.08.19-.05.05-.12.08-.2.08l-2.7-.02c0,.22.05.42.13.59.08.17.18.32.31.43s.27.21.43.27.33.09.51.09c.22,0,.42-.03.58-.1s.29-.14.39-.21c.16-.08.28-.05.36.09l.07.12c.04.07.06.14.04.2s-.06.11-.13.16c-.06.04-.13.09-.22.14s-.19.1-.31.14c-.12.04-.24.08-.39.1-.14.03-.29.04-.45.04-.32,0-.61-.06-.87-.17-.26-.11-.48-.26-.67-.45-.19-.19-.33-.42-.43-.68-.1-.26-.15-.54-.15-.84ZM173.44,24.8c0-.36-.11-.63-.29-.81-.19-.18-.42-.28-.68-.28-.3,0-.56.09-.77.28-.22.19-.36.45-.42.79l2.17.02Z"/>
          <path class="cls-1" d="M175.07,23.48c0-.18.09-.26.27-.26h.22c.18,0,.26.09.26.27v.36c0,.05,0,.11-.02.16,0,.02,0,.04,0,.07h.02c.04-.08.1-.18.18-.29.08-.11.19-.21.32-.31.13-.1.28-.18.45-.24.17-.07.37-.1.59-.09.48,0,.83.14,1.05.4.22.26.33.65.32,1.17l-.02,2.33c0,.18-.09.26-.27.26h-.25c-.18,0-.26-.09-.26-.27l.02-2.15c0-.14,0-.28-.02-.4-.02-.12-.05-.23-.11-.32-.05-.09-.13-.16-.23-.22-.1-.05-.23-.08-.39-.08-.2,0-.38.04-.54.11s-.31.18-.43.31c-.12.13-.22.29-.28.47-.07.18-.1.38-.11.59v1.67c-.02.18-.1.26-.28.26h-.25c-.18,0-.26-.09-.26-.27l.03-3.52Z"/>
          <path class="cls-1" d="M181.53,25.3c0-.32.06-.61.16-.87.11-.26.25-.48.43-.66.18-.18.4-.32.64-.42.25-.1.52-.15.8-.14.28,0,.52.05.74.15.22.1.4.23.54.41.14.17.25.38.33.61.07.24.11.49.11.78,0,.07-.03.14-.08.19-.05.05-.12.08-.2.08l-2.7-.02c0,.22.05.41.13.58s.18.32.31.43.27.21.43.27.33.09.52.09c.22,0,.42-.03.58-.1.17-.07.29-.14.39-.21.16-.08.28-.05.36.09l.07.12c.04.07.06.13.04.2s-.06.11-.13.16c-.06.04-.13.09-.22.14s-.19.1-.31.14c-.12.04-.24.08-.38.1s-.29.04-.45.04c-.32,0-.61-.06-.87-.17-.26-.11-.48-.26-.67-.45-.19-.19-.33-.42-.43-.68-.1-.26-.15-.54-.15-.84ZM184.53,24.89c0-.36-.11-.63-.29-.81-.19-.18-.42-.28-.68-.28-.3,0-.56.09-.77.28-.22.19-.36.45-.42.79l2.17.02Z"/>
          <path class="cls-1" d="M186.16,23.58c0-.18.09-.26.27-.26h.22c.18,0,.26.09.26.27v.36c0,.05,0,.11-.02.16,0,.02,0,.04,0,.07h.02c.04-.08.1-.18.18-.29.08-.11.19-.21.32-.31.13-.1.28-.18.45-.24.17-.07.37-.1.59-.09.48,0,.83.14,1.05.4.22.26.33.65.32,1.17l-.02,2.33c0,.18-.09.26-.27.26h-.25c-.18,0-.26-.09-.26-.27l.02-2.15c0-.14,0-.28-.03-.4s-.05-.23-.11-.32c-.05-.09-.13-.16-.23-.22-.1-.05-.23-.08-.39-.08-.2,0-.38.03-.54.11-.17.08-.31.18-.43.31-.12.13-.22.29-.28.47-.07.18-.1.38-.11.59v1.67c-.02.18-.1.26-.28.26h-.25c-.18,0-.26-.09-.26-.27l.03-3.52Z"/>
        </g>
        <g class="cls-2">
          <path class="cls-1" d="M50.21,33.44c0-.18.09-.26.27-.26h.22c.18,0,.26.09.26.27v.36c0,.05,0,.11-.02.16,0,.02,0,.04,0,.07h.02c.05-.12.12-.23.21-.35.09-.11.21-.21.33-.3s.26-.16.41-.21c.15-.05.3-.08.46-.08.67,0,1.07.32,1.21.93h.02c.05-.12.13-.23.23-.34.1-.11.21-.21.33-.29.12-.08.26-.15.41-.2.15-.05.31-.07.47-.07.46,0,.8.14,1.01.4s.31.65.31,1.17l-.02,2.33c0,.18-.09.26-.27.26h-.25c-.18,0-.26-.09-.26-.27l.02-2.16c0-.14,0-.28-.02-.4-.02-.12-.05-.23-.1-.32-.05-.09-.12-.16-.21-.22-.09-.05-.21-.08-.36-.08-.19,0-.36.04-.5.13-.15.09-.28.2-.38.35-.11.15-.19.31-.24.5-.05.19-.08.38-.08.57v1.62c-.01.18-.1.26-.27.26h-.26c-.17,0-.26-.09-.25-.27l.02-2.16c0-.13,0-.26-.02-.38-.02-.12-.05-.23-.09-.33-.05-.09-.12-.17-.21-.23-.09-.06-.22-.09-.37-.09-.19,0-.36.04-.52.13-.15.09-.28.21-.39.35-.11.15-.19.31-.24.5-.05.19-.08.37-.08.56v1.62c-.02.18-.1.26-.28.26h-.25c-.18,0-.26-.09-.26-.27l.03-3.52Z"/>
          <path class="cls-1" d="M57.08,36.18c0-.21.04-.39.12-.54.08-.15.19-.28.32-.38.13-.1.29-.18.45-.24.17-.06.34-.11.53-.14.18-.03.36-.05.53-.06s.33-.01.47-.01h.21s0-.1,0-.1c0-.17-.02-.3-.06-.42-.04-.12-.11-.21-.19-.28-.08-.07-.17-.12-.28-.15-.11-.03-.22-.05-.34-.05-.2,0-.38.03-.54.08-.16.06-.28.11-.37.17-.16.07-.28.04-.36-.1l-.06-.11c-.08-.16-.05-.28.09-.36.12-.07.3-.14.52-.22.22-.08.49-.12.8-.11.51,0,.9.14,1.17.41.28.27.41.67.41,1.18l-.02,2.3c0,.18-.09.26-.27.26h-.2c-.18,0-.26-.09-.26-.27v-.24s0-.07,0-.1,0-.06,0-.08c0-.02.01-.04.02-.06h-.02c-.08.16-.18.3-.31.42-.11.11-.25.2-.41.29-.17.09-.37.13-.61.13-.18,0-.35-.03-.51-.08-.17-.05-.31-.13-.43-.24-.12-.11-.22-.23-.3-.38-.07-.15-.11-.32-.11-.51ZM57.86,36.12c0,.16.06.31.18.45.12.14.31.21.56.21.17,0,.32-.04.46-.11s.25-.18.35-.3c.09-.12.17-.26.22-.41s.08-.3.08-.45v-.18s-.21,0-.21,0c-.14,0-.31,0-.5.02-.19.01-.37.04-.54.1s-.32.13-.43.24-.18.26-.18.45Z"/>
          <path class="cls-1" d="M61.59,31.93c0-.18.09-.26.27-.26h.25c.17,0,.26.09.25.27l-.02,2.81h.58s1-1.3,1-1.3c.07-.11.17-.17.31-.17h.3c.11,0,.17.03.21.1.03.06.01.14-.05.23l-1.13,1.45v.02l1.28,1.94c.06.09.07.17.03.23-.04.06-.11.09-.21.09h-.32c-.14,0-.24-.07-.31-.19l-1.09-1.72h-.6s-.01,1.63-.01,1.63c0,.18-.09.26-.26.26h-.25c-.18,0-.26-.09-.26-.27l.04-5.12Z"/>
          <path class="cls-1" d="M65.3,35.32c0-.32.06-.61.16-.87s.25-.48.43-.67c.18-.18.39-.32.64-.42.25-.1.52-.15.81-.14.28,0,.52.05.74.15s.4.23.54.41c.15.17.26.38.33.61s.11.49.11.78c0,.07-.03.14-.08.19-.05.05-.12.08-.2.08l-2.7-.02c0,.22.05.42.13.58.08.17.18.32.31.44s.27.21.43.27c.16.06.33.09.51.09.22,0,.42-.03.58-.1s.29-.14.39-.21c.16-.08.28-.05.36.09l.07.12c.04.07.06.14.04.2-.01.06-.06.11-.12.16-.06.04-.13.09-.23.14-.09.05-.19.1-.31.14-.12.04-.24.08-.39.1-.14.03-.29.04-.45.04-.32,0-.61-.06-.87-.17-.26-.11-.48-.26-.67-.45-.19-.19-.33-.42-.43-.68-.1-.26-.15-.54-.15-.84ZM68.3,34.92c0-.36-.11-.63-.29-.81s-.42-.28-.68-.28c-.3,0-.56.09-.77.28-.22.19-.36.45-.42.79l2.17.02Z"/>
          <path class="cls-1" d="M69.93,33.6c0-.18.09-.26.27-.26h.22c.18,0,.26.09.26.27v.36c0,.05,0,.11-.02.16,0,.02,0,.04,0,.07h.02c.04-.08.1-.18.18-.29.08-.11.19-.21.32-.31.13-.1.28-.18.45-.24.17-.06.37-.1.59-.09.48,0,.83.14,1.05.4.22.26.33.65.32,1.17l-.02,2.33c0,.18-.09.26-.27.26h-.25c-.18,0-.26-.09-.26-.27l.02-2.15c0-.14,0-.28-.03-.4-.02-.12-.05-.23-.11-.32-.05-.09-.13-.17-.23-.22-.1-.05-.23-.08-.39-.08-.2,0-.38.04-.54.11-.17.08-.31.18-.43.31-.12.13-.22.29-.28.47-.07.18-.1.38-.11.59v1.67c-.01.18-.1.26-.28.26h-.25c-.18,0-.26-.09-.26-.27l.03-3.52Z"/>
          <path class="cls-1" d="M76.25,33.7c-.03-.09-.03-.16,0-.22.04-.05.11-.08.2-.08h.27c.15,0,.25.08.29.22l.89,2.53c.02.06.04.12.06.18.02.06.03.12.04.18.01.06.03.13.04.19h.02c.02-.06.03-.13.05-.19.01-.06.03-.12.04-.18s.04-.12.06-.18l.93-2.51c.05-.14.15-.21.3-.21h.27c.1,0,.16.03.2.09.04.06.04.13,0,.22l-1.34,3.52c-.05.14-.15.21-.3.21h-.45c-.15,0-.25-.08-.29-.21l-1.3-3.55Z"/>
          <path class="cls-1" d="M80.3,36.37c0-.21.04-.39.12-.54.08-.15.19-.28.32-.38.13-.1.29-.18.45-.24.17-.06.34-.11.53-.14.18-.03.36-.05.53-.06s.33-.01.47-.01h.21s0-.1,0-.1c0-.17-.02-.31-.06-.42-.04-.12-.11-.21-.19-.28-.08-.07-.17-.12-.28-.15-.11-.03-.22-.05-.34-.05-.2,0-.38.03-.54.08-.16.06-.28.11-.37.17-.16.07-.28.04-.36-.1l-.06-.11c-.08-.16-.05-.28.09-.36.12-.07.3-.14.52-.22.22-.08.49-.12.8-.11.51,0,.9.14,1.17.41.28.27.41.67.41,1.18l-.02,2.3c0,.18-.09.26-.27.26h-.2c-.18,0-.26-.09-.26-.27v-.24s0-.07,0-.1,0-.06,0-.08c0-.02.01-.04.02-.06h-.02c-.08.16-.18.3-.31.42-.11.11-.25.2-.41.29-.17.09-.37.13-.61.13-.18,0-.35-.03-.51-.08-.17-.05-.31-.13-.43-.24-.12-.11-.22-.23-.3-.38-.07-.15-.11-.32-.11-.51ZM81.08,36.31c0,.16.06.31.18.45.12.14.31.21.56.21.17,0,.32-.04.46-.11s.25-.18.35-.3c.09-.12.17-.26.22-.41.05-.15.08-.3.08-.45v-.18s-.21,0-.21,0c-.14,0-.31,0-.5.02-.19.01-.37.04-.54.09-.17.05-.32.13-.43.24s-.18.26-.18.45Z"/>
          <path class="cls-1" d="M84.79,33.73c0-.18.09-.26.27-.26h.22c.18,0,.26.09.26.27v.36c0,.05,0,.11-.02.16,0,.02,0,.04,0,.07h.02c.04-.08.1-.18.18-.29.08-.11.19-.21.32-.31.13-.1.28-.18.45-.24.17-.07.37-.1.59-.09.48,0,.83.14,1.05.4.22.26.33.65.32,1.17l-.02,2.33c0,.18-.09.26-.27.26h-.25c-.18,0-.26-.09-.26-.27l.02-2.15c0-.14,0-.28-.03-.4s-.05-.23-.11-.32c-.05-.09-.13-.16-.23-.22-.1-.05-.23-.08-.39-.08-.2,0-.38.03-.54.11-.17.08-.31.18-.43.31-.12.13-.22.29-.28.47-.07.18-.1.38-.11.59v1.67c-.01.18-.1.26-.28.26h-.25c-.18,0-.26-.09-.26-.27l.03-3.52Z"/>
          <path class="cls-1" d="M91.16,36.46c0-.21.04-.39.12-.54.08-.15.19-.28.32-.38.13-.1.29-.18.45-.24.17-.06.34-.11.53-.14.18-.03.36-.05.53-.06.17,0,.33-.01.47-.01h.21s0-.1,0-.1c0-.17-.02-.3-.06-.42-.04-.12-.11-.21-.19-.28-.08-.07-.17-.12-.28-.15s-.22-.05-.34-.05c-.2,0-.38.03-.54.08-.16.06-.28.11-.37.16-.16.07-.28.04-.36-.1l-.06-.11c-.08-.16-.05-.28.09-.36.12-.07.3-.14.52-.22.22-.08.49-.12.8-.11.51,0,.9.14,1.17.41.28.27.41.67.41,1.18l-.02,2.3c0,.18-.09.26-.27.26h-.2c-.18,0-.26-.09-.26-.27v-.24s0-.07,0-.1c0-.03,0-.06,0-.08,0-.02.01-.04.02-.06h-.02c-.08.16-.18.3-.31.42-.11.11-.24.2-.41.29-.17.09-.37.13-.61.13-.18,0-.35-.03-.51-.08-.17-.05-.31-.13-.43-.24-.12-.11-.22-.23-.3-.38-.07-.15-.11-.32-.11-.51ZM91.95,36.4c0,.16.06.31.18.45.12.14.31.21.56.21.17,0,.32-.04.46-.11.14-.08.25-.18.35-.3.09-.12.17-.26.22-.41.05-.15.08-.3.08-.45v-.18s-.21,0-.21,0c-.14,0-.31,0-.5.02-.19.01-.37.04-.54.09-.17.05-.32.13-.43.24s-.18.26-.18.45Z"/>
          <path class="cls-1" d="M95.65,33.82c0-.18.09-.26.27-.26h.22c.18,0,.26.09.26.27v.36c0,.05,0,.11-.02.16,0,.02,0,.04,0,.07h.02c.04-.08.1-.18.18-.29.08-.11.19-.21.32-.31.13-.1.28-.17.45-.24.17-.06.37-.1.59-.09.48,0,.83.14,1.05.4.22.26.33.65.32,1.17l-.02,2.33c0,.18-.09.26-.27.26h-.25c-.18,0-.26-.09-.26-.27l.02-2.15c0-.14,0-.28-.03-.4s-.05-.23-.11-.32c-.05-.09-.13-.16-.23-.22-.1-.05-.23-.08-.39-.08-.2,0-.38.04-.54.11-.17.08-.31.18-.43.31-.12.13-.22.29-.28.47-.07.18-.1.38-.11.59v1.67c-.01.18-.1.26-.28.26h-.25c-.18,0-.26-.09-.26-.27l.03-3.52Z"/>
          <path class="cls-1" d="M100.38,33.86c0-.18.09-.26.27-.26h.25c.18,0,.26.09.26.27l-.03,3.52c0,.18-.09.26-.27.26h-.25c-.18,0-.26-.09-.26-.27l.03-3.52ZM100.64,32.79c-.18,0-.26-.09-.26-.27v-.26c0-.18.09-.26.27-.26h.27c.18,0,.26.09.26.27v.26c0,.18-.09.26-.27.26h-.27Z"/>
          <path class="cls-1" d="M102.27,33.87c0-.18.09-.26.27-.26h.22c.18,0,.26.09.26.27v.36c0,.05,0,.11-.02.16,0,.02,0,.04,0,.07h.02c.05-.12.12-.23.21-.35.09-.11.2-.21.33-.3.13-.09.26-.16.41-.21.15-.06.3-.08.46-.08.67,0,1.07.32,1.21.93h.02c.05-.12.13-.23.23-.34.1-.11.21-.21.33-.29.12-.08.26-.15.41-.2.15-.05.31-.07.47-.07.46,0,.8.14,1.01.4.21.26.31.65.31,1.17l-.02,2.33c0,.18-.09.26-.27.26h-.25c-.18,0-.26-.09-.26-.27l.02-2.16c0-.14,0-.28-.02-.4-.02-.12-.05-.23-.1-.32s-.12-.16-.21-.22-.21-.08-.36-.08c-.19,0-.36.04-.5.13-.15.09-.28.2-.38.35-.11.15-.19.31-.24.5-.05.19-.08.38-.08.57v1.62c-.01.18-.1.26-.27.26h-.26c-.17,0-.26-.09-.25-.27l.02-2.16c0-.13,0-.26-.02-.38-.02-.12-.05-.23-.09-.32-.05-.09-.12-.17-.21-.23-.09-.06-.22-.09-.37-.09-.19,0-.36.04-.52.13-.15.09-.28.21-.39.35-.11.15-.19.31-.24.5-.05.19-.08.37-.08.56v1.62c-.01.18-.1.26-.28.26h-.25c-.18,0-.26-.09-.26-.27l.03-3.52Z"/>
          <path class="cls-1" d="M109.14,36.61c0-.21.04-.39.12-.54.08-.15.19-.28.32-.38.13-.1.29-.18.45-.24.17-.06.34-.11.53-.14.18-.03.36-.05.53-.06.17,0,.33-.01.47-.01h.21s0-.1,0-.1c0-.17-.02-.3-.06-.42s-.11-.21-.19-.28c-.08-.07-.17-.12-.28-.15-.11-.03-.22-.04-.34-.05-.2,0-.38.03-.54.08-.16.06-.28.11-.37.17-.16.07-.28.04-.36-.1l-.06-.11c-.08-.16-.05-.28.09-.36.12-.07.3-.14.52-.22.22-.08.49-.12.8-.11.51,0,.9.14,1.17.41.28.27.41.67.41,1.18l-.02,2.3c0,.18-.09.26-.27.26h-.2c-.18,0-.26-.09-.26-.27v-.24s0-.07,0-.1,0-.06,0-.08c0-.02.01-.04.02-.06h-.02c-.08.16-.18.3-.31.42-.11.11-.25.2-.41.29-.17.09-.37.13-.61.13-.18,0-.35-.03-.51-.08s-.31-.13-.43-.24c-.12-.11-.22-.23-.3-.38-.07-.15-.11-.32-.11-.51ZM109.92,36.55c0,.16.06.31.18.45.12.14.31.21.56.21.17,0,.32-.04.46-.11.14-.08.25-.18.35-.3.09-.12.17-.26.22-.42.05-.15.08-.3.08-.45v-.18s-.21,0-.21,0c-.14,0-.31,0-.5.02s-.37.04-.54.09c-.17.05-.32.13-.43.24s-.18.26-.18.45Z"/>
          <path class="cls-1" d="M113.77,34.38h-.28c-.17,0-.26-.09-.25-.27v-.1c0-.18.09-.26.27-.26h.29s0-.89,0-.89c0-.18.09-.26.27-.26h.23c.18,0,.26.09.26.27v.89s.7,0,.7,0c.18,0,.26.09.26.27v.1c0,.18-.09.26-.26.26h-.71s-.02,1.79-.02,1.79c0,.19.02.35.08.46.05.12.12.21.19.27.08.06.16.11.25.13.09.03.17.04.24.05.11.01.18.04.22.07.04.04.06.1.06.19v.17c0,.18-.11.26-.32.26-.2,0-.39-.03-.58-.09s-.34-.15-.47-.28c-.13-.12-.24-.28-.32-.47s-.12-.41-.12-.67l.02-1.92Z"/>
          <path class="cls-1" d="M116.31,33.99c0-.18.09-.26.27-.26h.25c.18,0,.26.09.26.27l-.03,3.52c0,.18-.09.26-.27.26h-.25c-.18,0-.26-.09-.26-.27l.03-3.52ZM116.58,32.92c-.18,0-.26-.09-.26-.27v-.26c0-.18.09-.26.27-.26h.27c.18,0,.26.09.26.27v.26c0,.18-.09.26-.27.26h-.27Z"/>
          <path class="cls-1" d="M117.94,35.76c0-.32.06-.61.16-.87.11-.26.25-.48.43-.66s.39-.32.64-.42c.25-.1.52-.15.81-.14.28,0,.52.05.74.15s.4.23.54.4.26.38.33.61c.08.24.11.49.11.78,0,.07-.03.14-.08.19-.05.05-.12.08-.2.08l-2.7-.02c0,.22.05.41.13.58.08.17.18.32.31.44.13.12.27.21.43.27.16.06.33.09.51.09.22,0,.42-.03.58-.1.17-.07.29-.14.39-.21.16-.08.28-.05.36.09l.07.12c.04.07.06.13.04.2s-.06.11-.12.16c-.06.04-.13.09-.23.14s-.19.1-.31.14c-.12.04-.24.08-.39.1-.14.03-.29.04-.45.04-.32,0-.61-.06-.87-.17s-.48-.26-.67-.45c-.19-.19-.33-.42-.43-.68-.1-.26-.15-.54-.15-.84ZM120.93,35.36c0-.36-.11-.63-.29-.81-.19-.18-.42-.28-.68-.28-.3,0-.56.09-.77.28-.22.19-.36.45-.42.79l2.17.02Z"/>
          <path class="cls-1" d="M122.38,37.48c-.07-.04-.11-.1-.11-.16,0-.06.01-.13.06-.2l.08-.11c.05-.07.11-.11.17-.11.06,0,.12.01.2.06.09.06.22.13.38.21.16.08.37.12.61.12.2,0,.37-.04.5-.14.13-.09.19-.22.2-.39,0-.13-.05-.24-.15-.32-.1-.08-.23-.16-.39-.22-.15-.07-.32-.13-.5-.2-.18-.06-.34-.14-.5-.24-.15-.1-.28-.22-.38-.37-.1-.14-.15-.33-.15-.56,0-.19.04-.36.12-.51.08-.15.18-.27.32-.36.13-.1.29-.17.47-.22.18-.05.37-.07.56-.07.28,0,.52.04.7.12.18.08.32.14.42.2.07.04.12.09.13.15.01.06,0,.13-.05.2l-.07.12c-.08.13-.19.16-.35.08-.08-.05-.2-.1-.33-.15-.13-.05-.3-.08-.49-.08-.19,0-.35.04-.48.12-.13.08-.2.21-.2.38,0,.13.05.24.15.33.1.08.23.16.39.22.15.07.32.13.5.2.18.07.34.15.5.24.15.09.28.21.39.36.1.15.15.34.15.57,0,.17-.04.33-.11.47-.07.15-.17.27-.3.38-.13.11-.28.19-.46.24-.18.06-.38.08-.6.08-.17,0-.33-.02-.47-.05-.14-.03-.27-.07-.38-.11-.11-.05-.21-.1-.3-.15-.09-.05-.16-.1-.21-.14Z"/>
          <path class="cls-1" d="M128.08,34.09c0-.18.09-.26.27-.26h.22c.18,0,.26.09.26.27v.36c0,.05,0,.11-.02.16,0,.02,0,.04,0,.07h.02c.05-.12.12-.23.21-.35.09-.11.2-.21.33-.3s.26-.16.41-.21c.15-.05.3-.08.46-.08.67,0,1.07.32,1.21.93h.02c.05-.12.13-.23.23-.34.1-.11.21-.21.33-.29.12-.08.26-.15.41-.2.15-.05.31-.07.47-.07.46,0,.8.14,1.01.4s.31.65.31,1.17l-.02,2.33c0,.18-.09.26-.27.26h-.25c-.18,0-.26-.09-.26-.27l.02-2.16c0-.14,0-.28-.02-.4-.02-.12-.05-.23-.1-.32-.05-.09-.12-.16-.21-.22-.09-.05-.21-.08-.36-.08-.19,0-.36.04-.5.13-.15.09-.28.2-.38.35s-.18.31-.24.5c-.05.19-.08.38-.08.57v1.62c-.02.18-.1.26-.27.26h-.26c-.17,0-.25-.09-.25-.27l.02-2.16c0-.13,0-.26-.02-.38-.01-.12-.05-.23-.09-.33-.05-.09-.12-.17-.21-.23-.09-.06-.22-.09-.37-.09-.19,0-.36.04-.52.13-.15.09-.28.21-.39.35-.11.15-.19.31-.24.5-.05.19-.08.37-.08.56v1.62c-.01.18-.1.26-.28.26h-.25c-.18,0-.26-.09-.26-.27l.03-3.52Z"/>
          <path class="cls-1" d="M135.03,35.91c0-.32.06-.61.16-.87.11-.26.25-.48.43-.66.18-.18.4-.32.64-.42.25-.1.52-.15.8-.14.28,0,.52.05.74.15.22.1.4.23.54.41.14.17.25.38.33.61.08.24.11.49.11.78,0,.07-.03.14-.08.19-.05.05-.12.08-.2.08l-2.7-.02c0,.22.05.42.13.58.08.17.18.32.31.44s.27.21.43.27.33.09.52.09c.22,0,.42-.03.58-.1.17-.07.29-.14.39-.21.16-.08.28-.05.36.09l.07.12c.04.07.06.14.04.2s-.06.11-.13.16c-.06.04-.13.09-.22.14s-.19.1-.31.14c-.12.04-.24.08-.38.1s-.29.04-.45.04c-.32,0-.61-.06-.87-.17-.26-.11-.48-.26-.67-.45-.19-.19-.33-.42-.43-.68-.1-.26-.15-.54-.15-.84ZM138.02,35.5c0-.36-.11-.63-.29-.81-.19-.18-.42-.28-.68-.28-.3,0-.56.09-.77.28-.22.19-.36.45-.42.79l2.17.02Z"/>
          <path class="cls-1" d="M139.82,34.6h-.28c-.17,0-.25-.09-.25-.27v-.1c0-.18.09-.26.27-.26h.29s0-.89,0-.89c0-.18.09-.26.27-.26h.23c.18,0,.26.09.26.27v.89s.7,0,.7,0c.18,0,.26.09.26.27v.1c0,.18-.09.26-.26.26h-.71s-.01,1.79-.01,1.79c0,.19.02.35.08.46.05.12.12.21.19.27.08.06.16.11.25.13.09.02.17.04.24.05.11.01.18.04.22.07.04.04.06.1.06.19v.17c0,.18-.11.26-.32.26-.2,0-.39-.03-.58-.09-.18-.06-.34-.15-.47-.28-.14-.12-.24-.28-.32-.47-.08-.19-.12-.41-.12-.67l.02-1.92Z"/>
          <path class="cls-1" d="M145.82,32.59c.05-.14.15-.22.3-.21h.38c.15,0,.25.08.29.22l1.81,5.14c.03.09.03.16-.01.22-.04.06-.11.08-.2.08h-.27c-.15,0-.25-.08-.29-.22l-.49-1.41-2.13-.02-.51,1.4c-.04.14-.14.21-.29.21h-.27c-.1,0-.17-.03-.21-.09s-.04-.13,0-.22l1.9-5.11ZM147.13,35.75l-.61-1.8c-.03-.07-.05-.16-.07-.25-.02-.09-.04-.17-.07-.26-.02-.1-.04-.2-.07-.3h-.02c-.03.1-.06.2-.08.29-.03.09-.05.17-.07.26-.02.09-.05.17-.07.24l-.65,1.79h1.71Z"/>
          <path class="cls-1" d="M149.48,34.68h-.26c-.18,0-.26-.09-.26-.27v-.1c0-.18.09-.26.27-.26h.26s0-.19,0-.19c0-.32.06-.58.18-.77.12-.19.25-.34.41-.45.16-.1.32-.17.48-.21.17-.03.3-.05.41-.05h.1c.18,0,.26.09.26.27v.15c0,.09-.03.16-.08.19-.05.04-.12.06-.21.07-.08,0-.16.01-.24.03-.09.01-.17.05-.25.11-.08.06-.14.14-.2.25-.05.11-.08.26-.08.44v.16s.69,0,.69,0c.18,0,.26.09.26.27v.1c0,.18-.09.26-.27.26h-.7s-.03,3.11-.03,3.11c0,.18-.09.26-.27.26h-.25c-.18,0-.26-.09-.26-.27l.03-3.11Z"/>
          <path class="cls-1" d="M152.07,34.7h-.28c-.17,0-.25-.09-.25-.27v-.1c0-.18.09-.26.27-.26h.29s0-.89,0-.89c0-.18.09-.26.27-.26h.23c.18,0,.26.09.26.27v.89s.7,0,.7,0c.18,0,.26.09.26.27v.1c0,.18-.09.26-.26.26h-.71s-.01,1.79-.01,1.79c0,.19.02.35.08.46.05.12.12.21.19.27.08.06.16.11.25.13s.17.04.24.05c.11.01.18.04.22.07.04.04.06.1.06.19v.17c0,.18-.11.26-.32.26-.2,0-.39-.03-.58-.09-.18-.06-.34-.15-.47-.28-.14-.12-.24-.28-.32-.47-.08-.19-.12-.41-.12-.67l.02-1.92Z"/>
          <path class="cls-1" d="M154.31,36.07c0-.32.06-.61.16-.87.11-.26.25-.48.43-.66.18-.18.4-.32.64-.42.25-.1.52-.15.8-.14.28,0,.52.05.74.15.22.1.4.23.54.4.14.17.25.38.33.61.08.24.11.49.11.78,0,.07-.03.14-.08.19s-.12.08-.2.08l-2.7-.02c0,.22.05.41.13.58.08.17.18.32.31.44s.27.21.43.27c.16.06.33.09.52.09.22,0,.42-.03.58-.1.17-.07.29-.14.39-.21.16-.08.28-.05.36.09l.07.12c.04.07.06.13.04.2s-.06.11-.13.16c-.06.04-.13.09-.22.14s-.19.1-.31.14c-.12.04-.24.08-.38.1s-.29.04-.45.04c-.32,0-.61-.06-.87-.17s-.48-.26-.67-.45c-.19-.19-.33-.42-.43-.68-.1-.26-.15-.54-.15-.84ZM157.31,35.66c0-.36-.11-.63-.29-.81-.19-.18-.42-.28-.68-.28-.3,0-.56.09-.77.28-.22.19-.36.45-.42.79l2.17.02Z"/>
          <path class="cls-1" d="M158.94,34.35c0-.18.09-.26.27-.26h.22c.18,0,.26.09.26.27v.46s0,.08,0,.12c0,.04,0,.07-.01.1,0,.03,0,.06,0,.09h.02c.04-.13.1-.26.18-.39.08-.13.17-.24.28-.34s.23-.18.36-.24c.13-.06.27-.09.43-.09.17,0,.26.09.25.27v.22c0,.18-.1.26-.29.26-.2,0-.37.05-.52.14-.15.1-.27.22-.37.38-.1.15-.17.33-.22.53-.05.2-.08.4-.08.59v1.41c-.01.18-.1.26-.28.26h-.25c-.18,0-.26-.09-.26-.27l.03-3.52Z"/>
          <path class="cls-1" d="M163.96,32.79c0-.18.09-.26.27-.26l2.75.02c.18,0,.26.09.26.27v.16c0,.18-.09.26-.27.26l-2.23-.02v1.77s1.75.01,1.75.01c.18,0,.26.09.26.27v.16c0,.17-.09.26-.27.26h-1.77s-.02,1.8-.02,1.8l2.37.02c.18,0,.26.09.26.27v.16c0,.18-.09.26-.27.26l-2.89-.02c-.18,0-.26-.09-.26-.27l.04-5.12Z"/>
          <path class="cls-1" d="M168.36,34.79h-.26c-.18,0-.26-.09-.26-.27v-.1c0-.18.09-.26.27-.26h.26s0-.15,0-.15c0-.32.06-.58.18-.77.12-.19.25-.34.41-.45.16-.1.32-.17.48-.21.17-.03.3-.05.4-.05h.1c.18,0,.26.09.26.27v.15c0,.09-.03.16-.08.19-.05.04-.12.06-.22.07-.07,0-.16.01-.24.03-.09.01-.17.05-.25.11-.08.06-.14.14-.19.25-.05.11-.08.26-.08.44v.12s1.8.02,1.8.02v-.15c0-.32.06-.58.18-.77.11-.19.25-.34.41-.45.16-.1.32-.17.48-.21.16-.03.3-.05.4-.05h.1c.18,0,.26.09.26.27v.15c0,.09-.03.16-.08.19-.05.04-.12.06-.21.07-.07,0-.16.01-.24.03-.09.01-.17.05-.25.11-.08.06-.14.14-.2.25-.05.11-.08.26-.08.44v.12s.7,0,.7,0c.18,0,.26.09.26.27v.1c0,.18-.08.26-.24.26h-.72s-.03,3.15-.03,3.15c0,.18-.09.26-.26.26h-.26c-.17,0-.26-.09-.25-.27l.03-3.16-1.8-.02-.03,3.16c0,.18-.09.26-.27.26h-.25c-.18,0-.26-.09-.26-.27l.03-3.16Z"/>
          <path class="cls-1" d="M172.98,36.23c0-.32.06-.61.16-.87.11-.26.25-.48.43-.66.18-.18.39-.32.64-.42.25-.1.52-.15.8-.15.28,0,.52.05.74.15.22.1.4.23.54.41.14.17.25.38.33.61.08.24.11.49.11.78,0,.07-.03.14-.08.19s-.12.08-.2.08l-2.7-.02c0,.22.05.41.13.58.08.17.18.32.31.44s.27.21.43.27c.16.06.33.09.52.09.22,0,.42-.03.58-.1.17-.07.29-.14.39-.21.16-.08.28-.05.36.09l.07.12c.04.07.06.13.04.2s-.06.11-.13.16c-.06.04-.13.09-.22.14-.09.05-.19.1-.31.14-.12.04-.24.08-.38.1-.14.03-.29.04-.45.04-.32,0-.61-.06-.87-.17s-.48-.26-.67-.45c-.19-.19-.33-.42-.43-.68-.1-.26-.15-.54-.15-.84ZM175.97,35.82c0-.36-.11-.63-.29-.81-.19-.18-.42-.28-.68-.28-.3,0-.56.09-.77.28-.22.19-.36.45-.42.79l2.17.02Z"/>
          <path class="cls-1" d="M177.33,36.26c0-.3.06-.58.17-.83.11-.26.26-.48.45-.67.19-.19.42-.34.69-.44.27-.11.55-.16.87-.16.17,0,.33.02.46.05.14.03.26.07.38.11.11.04.21.09.29.14.08.05.15.1.2.14.07.04.11.1.11.16,0,.06-.02.13-.07.2l-.08.12c-.09.13-.21.15-.36.06-.08-.06-.2-.13-.35-.2-.15-.07-.33-.11-.55-.11-.2,0-.39.03-.56.1-.17.07-.32.17-.45.3-.13.13-.22.28-.3.45-.07.18-.11.37-.11.58s.03.4.1.58c.07.18.17.33.29.46.13.13.28.24.45.31s.36.12.57.12c.25,0,.46-.04.63-.12s.31-.16.41-.24c.15-.09.27-.07.36.08l.06.12c.08.14.06.26-.08.35-.06.05-.13.1-.22.15-.09.06-.19.11-.31.16s-.26.09-.41.12c-.15.03-.32.05-.5.05-.32,0-.61-.06-.88-.17-.26-.11-.49-.26-.68-.45-.19-.19-.33-.42-.44-.68s-.16-.54-.15-.85Z"/>
          <path class="cls-1" d="M182.04,34.95h-.28c-.17,0-.26-.09-.25-.27v-.1c0-.18.09-.26.27-.26h.29s0-.89,0-.89c0-.18.09-.26.27-.26h.23c.18,0,.26.09.26.27v.89s.7,0,.7,0c.18,0,.26.09.26.27v.1c0,.18-.09.26-.26.26h-.71s-.02,1.79-.02,1.79c0,.19.02.35.08.46.05.12.12.21.19.27.08.06.16.11.25.13.09.03.17.04.24.05.11.01.18.04.22.07s.06.1.06.19v.17c0,.18-.11.26-.32.26-.2,0-.39-.03-.58-.09-.18-.06-.34-.15-.47-.28-.13-.12-.24-.28-.32-.47s-.12-.41-.12-.67l.02-1.92Z"/>
          <path class="cls-1" d="M184.4,38c-.07-.04-.11-.1-.11-.16,0-.06.01-.13.06-.2l.08-.11c.05-.07.11-.11.17-.11.06,0,.12.01.2.06.09.06.22.13.38.21.16.08.37.12.61.12.2,0,.37-.04.5-.14.13-.09.19-.22.2-.39,0-.13-.05-.24-.15-.32-.1-.08-.23-.16-.39-.22-.15-.07-.32-.13-.5-.2-.18-.06-.34-.14-.5-.24-.15-.1-.28-.22-.38-.37-.1-.14-.15-.33-.15-.56,0-.19.04-.36.12-.51.08-.15.18-.27.32-.36.13-.1.29-.17.47-.22.18-.05.37-.07.56-.07.28,0,.52.04.7.12.18.08.32.14.42.2.07.04.12.09.13.15.01.06,0,.13-.05.2l-.07.12c-.08.13-.19.16-.35.08-.08-.05-.2-.1-.33-.15-.13-.06-.3-.08-.49-.08-.19,0-.35.04-.48.12-.13.08-.2.21-.2.38,0,.13.05.24.15.33.1.08.23.16.39.22.15.07.32.13.5.2.18.07.34.15.5.24.15.09.28.21.39.36.1.15.15.34.15.57,0,.17-.04.33-.11.48-.07.15-.17.27-.3.38-.13.11-.28.19-.46.24-.18.06-.38.08-.6.08-.17,0-.33-.02-.47-.05-.14-.03-.27-.07-.38-.11-.11-.05-.21-.1-.3-.15-.09-.05-.16-.1-.21-.14Z"/>
        </g>
      </g>
    </g>
  </g>
</svg>