<?xml version="1.0" encoding="UTF-8"?>
<svg id="Layer_2" data-name="Layer 2" xmlns="http://www.w3.org/2000/svg" viewBox="0 0 239.71 42.43">
  <defs>
    <style>
      .cls-1 {
        fill: #662d91;
      }

      .cls-2 {
        isolation: isolate;
      }

      .cls-3 {
        fill: #fff;
        stroke: #662d91;
        stroke-miterlimit: 10;
      }
    </style>
  </defs>
  <g id="glr">
    <g>
      <path class="cls-3" d="M42.18,15.86C39.34,3.15,16.12-3.81,6.39,3.43-4.48,11.51.8,37.81,13.32,41.46c11.7,3.42,31.83-12.32,28.86-25.6Z"/>
      <g class="cls-2">
        <g class="cls-2">
          <path class="cls-1" d="M12.78,23.63c0-.36.06-.67.2-.94s.32-.51.53-.72c.21-.21.45-.4.7-.58.25-.17.48-.35.7-.52.21-.17.39-.35.53-.53.14-.18.21-.4.2-.63,0-.3-.11-.54-.32-.72-.2-.18-.47-.26-.78-.26-.14,0-.26.03-.37.07-.11.04-.21.09-.3.15-.09.06-.16.12-.23.18-.06.07-.12.13-.15.18-.06.06-.12.11-.19.13-.06.02-.13,0-.21-.06l-.16-.12c-.15-.11-.18-.24-.08-.38.06-.08.13-.17.23-.28.1-.11.22-.21.36-.31s.31-.18.5-.25c.19-.07.41-.1.65-.11.27,0,.53.03.76.11.23.08.44.19.61.34.17.15.31.33.41.54.1.21.15.45.16.71,0,.33-.06.62-.2.86-.14.25-.31.47-.52.67-.21.2-.44.38-.68.55-.25.16-.48.33-.69.5-.21.17-.39.34-.53.52-.14.18-.21.39-.21.61l2.71-.06c.19,0,.28.09.29.27v.17c0,.19-.08.28-.27.29l-3.34.07c-.09,0-.16-.02-.21-.06s-.09-.12-.09-.21v-.18Z"/>
          <path class="cls-1" d="M19.79,24.05c-.4,0-.74-.07-1.01-.22-.27-.16-.5-.37-.67-.65-.17-.28-.3-.6-.38-.98-.08-.38-.12-.78-.13-1.22,0-.43.02-.83.08-1.21.06-.38.18-.71.34-.99.16-.28.38-.51.64-.67.27-.17.6-.26,1-.26.4,0,.74.07,1.02.22s.5.37.67.65c.17.27.29.6.37.97.08.38.12.78.13,1.21,0,.44-.02.84-.08,1.22-.06.38-.17.71-.33,1-.16.28-.37.51-.64.68-.27.17-.6.26-1.01.26ZM19.77,23.27c.24,0,.45-.07.61-.2.16-.13.29-.29.38-.51.09-.21.15-.46.19-.75.03-.28.05-.59.04-.92,0-.32-.03-.62-.08-.91-.05-.28-.12-.53-.22-.74-.1-.21-.23-.37-.4-.49-.17-.12-.37-.17-.62-.17-.24,0-.45.07-.6.19-.16.12-.28.29-.38.5-.09.21-.15.46-.19.74-.03.28-.05.59-.04.91,0,.33.03.64.08.92.05.28.12.53.22.74.1.21.23.37.4.49.16.12.37.18.61.17Z"/>
          <path class="cls-1" d="M22.81,23.43c0-.19.09-.28.27-.29l1.05-.02-.08-3.88v-.26s0-.08,0-.11h-.02s-.04.06-.06.09c-.04.06-.11.14-.2.23l-.37.38c-.14.13-.27.13-.39,0l-.12-.12c-.14-.13-.14-.26,0-.4l1.07-1.09c.1-.09.21-.14.34-.14h.27c.19,0,.28.08.29.27l.1,5,1.04-.02c.19,0,.28.09.29.27v.17c0,.19-.08.28-.27.29l-2.9.06c-.19,0-.28-.09-.29-.28v-.17Z"/>
          <path class="cls-1" d="M29.33,19.02c.04-.08.08-.16.12-.23.04-.07.07-.13.1-.17.03-.06.07-.11.1-.16v-.02s-.05.01-.09.02c-.03,0-.08.01-.13.01s-.12,0-.19,0l-2.41.05c-.19,0-.28-.09-.29-.27v-.17c0-.19.08-.28.27-.29l3.45-.07c.19,0,.28.08.29.26v.14c0,.06,0,.12-.01.18-.01.05-.03.11-.06.17l-2.43,5.11c-.06.14-.17.21-.32.21h-.28c-.11,0-.18-.02-.22-.08-.04-.06-.04-.14,0-.24l2.09-4.44Z"/>
        </g>
      </g>
      <g class="cls-2">
        <g class="cls-2">
          <path class="cls-1" d="M52.18,14.65c0-.55.1-1.05.29-1.5.19-.45.45-.85.79-1.17.34-.33.73-.58,1.2-.77s.97-.27,1.51-.27c.29,0,.55.03.8.08.25.05.47.11.67.17.2.06.37.13.51.21s.25.14.32.19c.15.11.24.23.25.35s-.02.26-.12.41l-.26.41c-.09.15-.2.24-.33.25-.12.02-.27-.02-.43-.11-.17-.09-.35-.17-.55-.24-.2-.08-.46-.11-.77-.12-.36,0-.67.05-.93.16-.26.11-.47.26-.64.45-.17.19-.3.41-.38.65-.08.25-.12.5-.13.77,0,.33.05.63.16.9.11.26.25.49.43.68.18.19.4.33.64.44.25.1.51.15.78.16.25,0,.47-.03.66-.08.19-.06.34-.12.46-.2.14-.08.26-.17.35-.29v-.49s-.46,0-.46,0c-.37,0-.55-.19-.55-.55v-.39c0-.37.19-.55.56-.55h1.46c.37.02.55.2.55.57l-.02,2.94c0,.37-.19.55-.56.54h-.33c-.18,0-.32-.05-.41-.13-.09-.08-.14-.19-.14-.31v-.09s0-.02.01-.03h-.02c-.13.13-.29.24-.47.34-.16.09-.36.16-.6.22-.24.07-.52.1-.84.09-.46,0-.9-.09-1.32-.27-.42-.17-.79-.42-1.12-.74-.32-.32-.58-.7-.77-1.16-.19-.45-.28-.96-.28-1.52Z"/>
          <path class="cls-1" d="M60.17,11.65c0-.37.19-.55.56-.55l1.94.02c.37,0,.65.02.85.05s.38.07.53.13c.41.16.72.42.96.77.23.36.35.8.34,1.32,0,.19-.02.38-.07.57-.04.19-.11.37-.2.55-.09.18-.2.34-.34.48-.13.14-.29.26-.47.34v.02s.04.06.07.1c.03.03.05.08.08.13.03.06.07.12.11.2l1,1.85c.11.19.13.35.05.48-.08.12-.22.18-.44.18h-.76c-.29,0-.5-.14-.65-.4l-1.04-2.03h-.82s-.02,1.85-.02,1.85c0,.37-.19.55-.55.54h-.65c-.37,0-.55-.19-.55-.56l.05-6.05ZM62.66,14.36c.28,0,.5-.07.67-.22s.25-.37.25-.65c0-.18-.03-.33-.08-.46-.06-.13-.17-.23-.33-.3-.15-.07-.37-.1-.66-.11h-.59s-.01,1.74-.01,1.74h.76Z"/>
          <path class="cls-1" d="M68.08,11.61c.1-.3.31-.45.62-.45h.9c.31.01.52.16.62.46l2.02,6.09c.06.19.06.35-.03.46-.08.11-.23.17-.43.17h-.66c-.31,0-.52-.16-.62-.47l-.29-1.04-2.23-.02-.31,1.04c-.09.31-.29.46-.61.46h-.66c-.2,0-.34-.07-.42-.18-.08-.11-.09-.27-.02-.46l2.12-6.05ZM69.82,15.43l-.39-1.39c-.03-.11-.06-.24-.09-.38s-.06-.27-.09-.4c-.03-.15-.06-.3-.1-.45h-.02c-.03.15-.07.3-.1.45-.03.13-.07.26-.1.4-.03.14-.06.27-.1.38l-.42,1.39h1.41Z"/>
          <path class="cls-1" d="M73.11,11.76c0-.37.19-.55.56-.55l3.28.03c.37,0,.55.19.54.56v.4c0,.37-.19.55-.56.54l-2.08-.02v1.5s1.62.01,1.62.01c.37,0,.55.19.55.56v.4c0,.37-.19.55-.56.54h-1.63s-.02,2.09-.02,2.09c0,.37-.19.55-.55.54h-.65c-.37,0-.55-.19-.55-.56l.05-6.05Z"/>
          <path class="cls-1" d="M78.35,11.8c0-.37.19-.55.55-.55h.65c.37,0,.55.19.54.56l-.05,6.05c0,.37-.19.55-.55.54h-.65c-.37,0-.55-.19-.54-.56l.05-6.05Z"/>
          <path class="cls-1" d="M81.3,17.83c-.05-.04-.1-.09-.14-.14-.04-.05-.07-.11-.08-.17-.02-.06-.02-.13,0-.21s.06-.16.13-.25l.31-.45c.1-.15.21-.23.33-.24.12-.02.26.02.43.12.06.03.13.07.21.12.08.05.18.1.29.15.11.05.23.09.36.13.13.03.28.05.43.05.26,0,.45-.04.58-.14.12-.1.19-.21.19-.35,0-.17-.08-.31-.23-.43s-.35-.23-.58-.33c-.23-.1-.48-.22-.76-.34-.27-.12-.52-.27-.76-.44-.23-.18-.42-.39-.58-.64-.15-.25-.23-.56-.23-.94,0-.33.07-.62.2-.89.13-.27.31-.5.54-.69.23-.19.5-.34.81-.44.31-.1.65-.15,1.01-.15.42,0,.8.06,1.15.18.35.12.6.24.78.36.15.11.23.22.25.35.02.12,0,.26-.08.4l-.24.47c-.1.19-.22.29-.35.29s-.27-.03-.4-.11c-.17-.08-.34-.16-.51-.23-.18-.07-.38-.11-.61-.11-.28,0-.48.04-.6.14s-.18.21-.18.35c0,.17.08.32.23.43s.35.22.58.33c.23.1.48.21.76.32.27.11.52.25.76.43s.43.38.58.63c.15.25.23.56.23.94,0,.3-.06.58-.17.85-.11.27-.28.5-.49.71-.22.2-.48.36-.79.48s-.67.17-1.07.17c-.25,0-.49-.03-.72-.08-.23-.05-.44-.11-.64-.18-.2-.07-.37-.15-.53-.23-.16-.08-.28-.16-.37-.24Z"/>
          <path class="cls-1" d="M86.75,14.88c0-.52.1-1,.29-1.45.19-.45.45-.83.78-1.16.33-.33.73-.58,1.19-.77.46-.19.97-.28,1.52-.27.27,0,.53.03.76.07.23.05.45.1.64.17.19.07.36.14.51.22.15.08.27.16.38.23.14.1.22.22.23.35.02.13-.02.27-.12.41l-.25.41c-.09.15-.21.24-.33.26-.13.02-.27-.02-.42-.11-.17-.1-.36-.19-.59-.28-.23-.09-.47-.13-.74-.14-.36,0-.67.05-.92.17-.25.12-.46.27-.63.46-.17.19-.29.4-.37.65-.08.24-.12.49-.12.75,0,.27.04.53.11.79.08.26.2.49.36.69.17.21.37.37.63.5.25.13.55.19.9.19.3,0,.58-.05.83-.16.25-.11.46-.22.64-.34.32-.22.57-.18.77.11l.28.39c.09.14.13.28.12.41-.01.13-.08.25-.22.36-.11.09-.25.18-.41.28-.16.1-.35.19-.56.27-.21.08-.44.15-.7.2-.26.05-.54.08-.84.08-.57,0-1.09-.1-1.55-.29s-.85-.45-1.18-.79c-.32-.34-.57-.73-.74-1.18-.17-.45-.25-.94-.25-1.48Z"/>
          <path class="cls-1" d="M94.14,11.93c0-.37.19-.55.56-.55h.65c.37,0,.55.19.54.56l-.02,2.31,2.6.02.02-2.31c0-.37.19-.55.55-.55h.65c.37,0,.55.19.54.56l-.05,6.05c0,.37-.19.55-.55.54h-.65c-.37,0-.55-.19-.54-.56l.02-2.25-2.6-.02-.02,2.25c0,.37-.19.55-.55.55h-.65c-.37,0-.55-.19-.55-.56l.05-6.05Z"/>
          <path class="cls-1" d="M104.12,12.02c0-.37.19-.55.56-.55h.65c.37,0,.55.19.54.56l-.04,5.1,2.37.02c.37,0,.55.19.54.55v.4c0,.37-.19.55-.56.54l-3.57-.03c-.37,0-.55-.19-.55-.55l.05-6.05Z"/>
          <path class="cls-1" d="M110.23,15.74l-1.96-3.58c-.11-.19-.13-.35-.05-.48.08-.12.22-.18.44-.18h.79c.3,0,.51.15.64.42l.61,1.32c.05.13.1.25.16.37.05.12.1.23.14.33.05.12.09.23.13.33h.02c.04-.1.08-.21.13-.33.04-.1.09-.21.14-.33.05-.12.11-.24.17-.37l.62-1.31c.13-.27.34-.41.64-.4h.79c.21,0,.36.07.43.2.08.12.06.28-.06.47l-2.02,3.54-.02,2.38c0,.37-.19.55-.55.54h-.65c-.37,0-.55-.19-.55-.56l.02-2.38Z"/>
          <path class="cls-1" d="M114.18,15.11c0-.52.1-1,.29-1.45.19-.44.45-.83.78-1.16.33-.33.73-.58,1.19-.77.46-.19.97-.28,1.52-.27.27,0,.53.03.76.07.23.05.45.1.64.17.19.07.36.14.51.22.15.08.27.16.38.23.14.1.22.22.23.35.02.13-.02.27-.12.41l-.25.41c-.09.15-.21.24-.33.26-.13.02-.27-.02-.42-.11-.17-.1-.36-.19-.59-.28s-.47-.13-.74-.14c-.36,0-.67.05-.92.17s-.46.27-.63.45c-.17.19-.29.41-.37.65-.08.24-.12.49-.12.75,0,.27.04.53.11.79.08.26.2.49.36.69.17.21.37.37.63.5s.55.19.9.19c.3,0,.58-.05.83-.16.25-.11.46-.22.64-.34.32-.22.57-.18.77.11l.28.39c.09.14.13.28.12.41-.01.13-.08.25-.22.36-.11.09-.25.18-.41.28-.16.1-.35.19-.56.27-.21.08-.44.15-.7.2-.26.05-.54.08-.84.08-.57,0-1.09-.1-1.55-.29s-.85-.45-1.18-.79c-.32-.34-.57-.73-.74-1.18-.17-.45-.25-.94-.25-1.48Z"/>
          <path class="cls-1" d="M121.57,12.16c0-.37.19-.55.56-.55l3.38.03c.37,0,.55.19.55.56v.4c0,.37-.19.55-.56.54l-2.18-.02v1.3s1.62.01,1.62.01c.37,0,.55.19.55.55v.4c0,.37-.19.55-.56.55h-1.63s-.01,1.33-.01,1.33l2.32.02c.37,0,.55.19.55.55v.4c0,.37-.19.55-.56.55l-3.52-.03c-.37,0-.55-.19-.55-.55l.05-6.05Z"/>
          <path class="cls-1" d="M127.1,12.21c0-.37.19-.55.55-.55h.65c.37,0,.55.19.55.56l-.03,3.97c0,.38.11.67.33.86.22.2.52.29.9.3s.68-.09.91-.28c.22-.19.34-.48.34-.86l.03-3.97c0-.37.19-.55.55-.55h.65c.37,0,.55.19.54.56l-.03,3.97c0,.4-.08.77-.22,1.1-.15.33-.35.62-.61.86-.26.24-.58.43-.94.56-.37.13-.78.2-1.22.2-.45,0-.86-.08-1.23-.22-.37-.14-.68-.33-.94-.58-.26-.25-.46-.54-.6-.88-.14-.34-.21-.71-.21-1.11l.03-3.97Z"/>
          <path class="cls-1" d="M134.62,12.25c.04-.35.23-.53.57-.53h.9c.31,0,.52.16.62.46l.87,2.58c.04.11.08.24.12.38.04.14.08.27.11.39.04.14.08.28.12.42h.02c.04-.14.08-.28.12-.42.03-.12.07-.25.12-.38.04-.14.09-.26.13-.37l.91-2.56c.1-.3.31-.45.62-.44h.9c.35,0,.54.19.57.54l.44,6.05c.01.18-.03.32-.12.42-.09.1-.23.15-.41.15h-.65c-.35,0-.54-.19-.57-.54l-.16-2.69c-.01-.13-.02-.27-.02-.42,0-.14,0-.27,0-.38,0-.13,0-.27.02-.4h-.02c-.05.15-.1.29-.14.43-.04.12-.09.25-.13.39-.05.14-.09.27-.13.38l-.6,1.62c-.11.29-.32.44-.63.43h-.56c-.31,0-.52-.16-.63-.45l-.58-1.63c-.04-.11-.08-.24-.13-.38-.05-.14-.09-.27-.13-.39-.05-.14-.09-.28-.14-.43h-.02c0,.13,0,.27,0,.4,0,.11,0,.24,0,.38s0,.28-.02.42l-.2,2.69c-.04.35-.23.53-.57.53h-.66c-.18,0-.31-.06-.4-.16-.09-.1-.13-.24-.11-.42l.55-6.04Z"/>
          <path class="cls-1" d="M145.48,12.36c0-.37.19-.55.56-.55l1.94.02c.37,0,.65.02.85.05s.38.07.53.13c.41.16.73.42.96.77s.35.8.34,1.32c0,.19-.02.39-.07.58-.04.19-.11.37-.21.55-.09.18-.2.33-.34.48s-.29.26-.47.34v.02s.04.06.07.1c.03.03.05.08.08.13s.07.12.11.2l1,1.85c.11.19.13.35.05.48-.08.12-.22.18-.44.18h-.76c-.29,0-.5-.14-.65-.4l-1.04-2.03h-.82s-.02,1.85-.02,1.85c0,.37-.19.55-.55.54h-.65c-.37,0-.55-.19-.54-.56l.05-6.05ZM147.96,15.07c.28,0,.5-.07.67-.22.17-.15.25-.37.25-.65,0-.18-.03-.33-.08-.47-.05-.13-.17-.23-.33-.3-.15-.07-.37-.1-.66-.11h-.59s-.01,1.74-.01,1.74h.76Z"/>
          <path class="cls-1" d="M151.41,15.39c0-.51.1-.99.28-1.43.18-.44.44-.83.78-1.15.33-.33.73-.58,1.19-.77.46-.18.97-.27,1.52-.27.55,0,1.06.1,1.52.29.46.19.85.45,1.18.79.33.33.58.72.75,1.17.18.44.26.92.26,1.44,0,.53-.1,1.01-.28,1.47s-.44.84-.77,1.18-.73.6-1.19.79c-.46.19-.97.28-1.52.28s-1.06-.11-1.52-.3c-.46-.2-.85-.46-1.18-.8s-.58-.74-.76-1.19c-.18-.45-.26-.94-.26-1.47ZM153.22,15.41c0,.31.04.59.14.85.09.26.23.49.39.68s.37.34.61.46c.24.11.49.17.77.17s.54-.05.78-.16c.24-.11.44-.26.61-.45.17-.19.31-.41.41-.67.1-.26.15-.54.15-.85,0-.29-.04-.57-.14-.82-.09-.25-.23-.47-.39-.65-.17-.18-.37-.33-.61-.43-.24-.11-.49-.16-.77-.16-.28,0-.54.05-.78.15s-.44.24-.61.42c-.17.18-.31.4-.41.65-.1.25-.15.52-.15.81Z"/>
          <path class="cls-1" d="M161.24,13.44h-1.62c-.37-.02-.55-.2-.54-.57v-.4c0-.37.19-.55.56-.55l4.99.04c.37,0,.55.19.54.56v.4c0,.37-.19.55-.56.54h-1.62s-.04,5.09-.04,5.09c0,.37-.19.55-.55.54h-.65c-.37,0-.55-.19-.54-.56l.04-5.1Z"/>
          <path class="cls-1" d="M167.45,13.5h-1.62c-.37-.02-.55-.2-.54-.57v-.4c0-.37.19-.55.56-.55l4.99.04c.37,0,.55.19.54.56v.4c0,.37-.19.55-.56.54h-1.62s-.04,5.09-.04,5.09c0,.37-.19.55-.55.55h-.65c-.37,0-.55-.19-.54-.56l.04-5.1Z"/>
          <path class="cls-1" d="M172.13,12.58c0-.37.19-.55.55-.55l3.38.03c.37,0,.55.19.54.56v.4c0,.37-.19.55-.56.54l-2.18-.02v1.3s1.62.01,1.62.01c.37,0,.55.19.54.55v.4c0,.37-.19.55-.56.55h-1.63s-.01,1.33-.01,1.33l2.32.02c.37,0,.55.19.55.55v.4c0,.37-.19.55-.56.54l-3.52-.03c-.37,0-.55-.19-.55-.55l.05-6.05Z"/>
          <path class="cls-1" d="M177.73,12.63c0-.37.19-.55.55-.55l1.94.02c.37,0,.65.02.85.05.2.03.38.07.53.13.41.16.73.42.96.77s.35.8.34,1.32c0,.19-.02.39-.07.58s-.11.37-.21.55c-.09.18-.2.33-.34.48s-.29.26-.47.34v.02s.04.06.07.1c.03.03.05.08.08.13.03.06.07.12.11.2l1,1.85c.11.19.13.35.05.48-.08.12-.22.18-.44.18h-.76c-.29,0-.5-.14-.65-.4l-1.04-2.03h-.82s-.02,1.85-.02,1.85c0,.37-.19.55-.55.54h-.65c-.37,0-.55-.19-.55-.56l.05-6.05ZM180.21,15.34c.28,0,.5-.07.67-.22.17-.15.25-.37.25-.65,0-.18-.03-.33-.08-.47-.05-.13-.17-.23-.33-.3-.15-.07-.37-.1-.66-.11h-.59s-.01,1.74-.01,1.74h.76Z"/>
          <path class="cls-1" d="M184.12,12.69c0-.37.19-.55.56-.55l1.99.02c.56,0,1.07.09,1.52.25.46.16.84.4,1.16.71.32.31.56.68.73,1.13.17.44.25.95.25,1.51,0,.56-.1,1.06-.27,1.51-.18.45-.43.82-.75,1.12-.32.3-.71.54-1.17.7-.46.16-.97.24-1.53.23l-1.99-.02c-.37,0-.55-.19-.54-.55l.05-6.05ZM186.55,17.81c.61,0,1.08-.17,1.43-.52.35-.35.53-.87.53-1.55s-.17-1.2-.52-1.55c-.35-.35-.82-.52-1.42-.53h-.72s-.03,4.14-.03,4.14h.72Z"/>
          <path class="cls-1" d="M192.76,12.66c.1-.3.31-.45.62-.44h.9c.31,0,.52.16.62.46l2.02,6.09c.07.19.06.35-.03.46-.08.11-.23.17-.43.17h-.66c-.31,0-.52-.16-.62-.47l-.29-1.04-2.23-.02-.31,1.04c-.09.31-.29.46-.61.46h-.66c-.2,0-.34-.06-.42-.18s-.09-.27-.02-.46l2.12-6.05ZM194.49,16.47l-.39-1.39c-.03-.11-.06-.24-.09-.38-.03-.14-.06-.27-.09-.4-.03-.15-.06-.3-.1-.45h-.02c-.03.15-.07.3-.1.45-.03.13-.07.26-.1.4-.03.14-.06.27-.1.38l-.42,1.39h1.41Z"/>
          <path class="cls-1" d="M198.07,12.78c.04-.35.23-.53.57-.53h.9c.31,0,.52.16.62.46l.87,2.58c.04.11.08.24.12.38.04.14.08.26.11.39.04.14.08.28.12.42h.02c.04-.14.08-.28.12-.42.03-.12.07-.25.12-.38.04-.14.09-.26.13-.37l.91-2.56c.1-.3.31-.45.62-.45h.9c.35.01.54.19.57.54l.44,6.05c.01.18-.03.32-.12.42-.09.1-.23.15-.41.15h-.65c-.35,0-.53-.19-.56-.54l-.16-2.69c-.01-.13-.02-.27-.02-.42,0-.14,0-.27,0-.38,0-.13,0-.27.02-.4h-.02c-.05.15-.1.29-.14.43-.04.12-.09.25-.13.39-.05.14-.09.27-.13.38l-.6,1.62c-.11.29-.32.44-.63.43h-.56c-.31,0-.52-.16-.63-.45l-.58-1.63c-.04-.11-.08-.24-.13-.38-.05-.14-.09-.27-.13-.39-.05-.14-.09-.28-.14-.43h-.02c0,.13,0,.27,0,.4,0,.11,0,.24,0,.38,0,.14,0,.28-.02.42l-.2,2.69c-.04.35-.23.53-.57.53h-.66c-.18,0-.31-.06-.4-.16-.09-.1-.13-.24-.11-.42l.55-6.04Z"/>
          <path class="cls-1" d="M209.22,12.88c.04-.35.23-.53.57-.53h.9c.31,0,.52.16.62.46l.87,2.58c.04.11.08.24.12.38.04.14.08.27.11.39.04.14.08.28.12.42h.02c.04-.14.08-.28.12-.42.03-.12.07-.25.12-.38.04-.14.09-.26.13-.37l.91-2.56c.1-.3.31-.45.62-.44h.9c.35,0,.54.19.57.54l.44,6.05c.01.18-.03.32-.12.42-.09.1-.23.15-.41.15h-.65c-.35,0-.54-.19-.57-.54l-.16-2.69c-.01-.13-.02-.27-.02-.42s0-.27,0-.38c0-.13,0-.27.02-.4h-.02c-.05.15-.1.29-.14.43-.04.12-.09.25-.13.39s-.09.27-.13.38l-.6,1.62c-.11.29-.32.44-.63.43h-.56c-.31,0-.52-.16-.63-.45l-.58-1.63c-.04-.11-.08-.24-.13-.38s-.09-.27-.13-.39c-.04-.14-.09-.28-.14-.43h-.02c0,.13,0,.27,0,.4,0,.11,0,.24,0,.38,0,.14,0,.28-.02.42l-.2,2.69c-.04.35-.23.53-.57.53h-.66c-.18,0-.31-.06-.4-.16-.09-.1-.13-.24-.11-.42l.55-6.04Z"/>
          <path class="cls-1" d="M217.58,12.97c0-.37.19-.55.55-.55l2.08.02c.36,0,.69.05.98.13.29.08.55.2.76.36.21.16.38.35.5.59s.18.5.17.81c0,.3-.07.59-.22.87s-.35.49-.63.65v.02c.21.06.38.15.52.27.14.12.25.25.34.4s.15.3.19.47c.04.16.06.33.06.49,0,.39-.08.72-.23.99s-.35.49-.61.65c-.25.17-.54.29-.87.36-.33.07-.67.11-1.03.11l-2.08-.02c-.37,0-.55-.19-.54-.55l.05-6.05ZM220.34,18.09c.25,0,.44-.07.57-.22.13-.15.19-.32.19-.52s-.06-.37-.18-.52c-.12-.14-.31-.22-.56-.22h-1.06s-.01,1.47-.01,1.47h1.05ZM220.21,15.21c.22,0,.38-.06.48-.2.1-.13.15-.28.15-.46,0-.17-.05-.31-.15-.43s-.27-.18-.5-.18h-.87s-.01,1.26-.01,1.26h.9Z"/>
          <path class="cls-1" d="M223.53,16c0-.51.1-.99.28-1.43.18-.44.44-.83.78-1.15.33-.33.73-.58,1.19-.77.46-.18.97-.27,1.52-.27.55,0,1.06.1,1.52.29.46.19.85.45,1.18.79.33.33.58.72.75,1.17.18.44.26.92.26,1.44,0,.53-.1,1.01-.28,1.47s-.44.84-.77,1.18-.73.6-1.19.79c-.46.19-.97.28-1.52.28s-1.06-.11-1.52-.3c-.46-.2-.85-.47-1.18-.8-.33-.34-.58-.74-.76-1.19-.18-.46-.26-.94-.26-1.47ZM225.34,16.01c0,.31.04.59.14.85.09.26.23.49.39.68.17.19.37.34.61.46.24.11.49.17.77.17.28,0,.54-.05.78-.16.24-.11.44-.26.61-.44.17-.19.31-.41.41-.67.1-.26.15-.54.15-.85,0-.29-.04-.56-.14-.82s-.23-.47-.39-.65c-.17-.19-.37-.33-.61-.44-.24-.11-.49-.16-.77-.16-.28,0-.54.05-.78.15s-.44.24-.61.42c-.17.18-.31.4-.41.65-.1.25-.15.52-.15.81Z"/>
          <path class="cls-1" d="M234.5,17.98c-.37,0-.55-.19-.54-.55v-.14c0-.13.02-.25.05-.35.03-.1.08-.21.16-.32l2.36-3.67c.16-.24.38-.36.66-.35h1.16c.37.01.55.2.54.56l-.03,3.42h.3c.37,0,.55.19.55.56v.35c0,.37-.15.55-.43.55h-.43s0,1.18,0,1.18c0,.37-.19.55-.55.55h-.63c-.37,0-.55-.19-.54-.56v-1.18s-2.61-.02-2.61-.02ZM237.13,16.55v-1.6c.01-.09.02-.19.02-.29,0-.1.01-.19.03-.26,0-.09.02-.17.03-.25h-.02c-.03.09-.07.17-.1.26-.03.07-.07.15-.11.24s-.09.17-.14.24l-1.09,1.63v.02h1.39Z"/>
        </g>
        <g class="cls-2">
          <path class="cls-1" d="M52.21,28.69c-.05-.05-.09-.1-.1-.16-.01-.06.01-.13.07-.21l.14-.19c.1-.12.22-.14.36-.04.05.04.11.08.19.13.08.05.17.1.27.15.1.05.22.09.35.13.13.04.27.05.42.06.3,0,.55-.07.73-.21.18-.15.27-.34.27-.59,0-.21-.06-.38-.2-.51-.13-.13-.3-.25-.5-.36-.2-.11-.42-.21-.65-.31s-.45-.22-.65-.35c-.2-.13-.37-.29-.5-.49-.13-.19-.2-.44-.19-.73,0-.24.05-.46.15-.65.09-.19.23-.35.39-.49.17-.13.36-.24.59-.31.22-.07.46-.11.72-.11.17,0,.32.02.47.05.15.03.29.07.41.11s.23.09.32.14.16.1.21.14c.13.09.15.21.08.36l-.11.2c-.05.08-.1.13-.17.13-.06,0-.13-.02-.2-.06-.11-.07-.25-.14-.42-.21-.17-.08-.38-.12-.62-.12-.29,0-.54.07-.73.21-.19.14-.29.33-.29.58,0,.2.06.37.2.5s.3.24.5.34c.2.1.42.2.65.29.23.09.45.21.65.35.2.13.37.3.5.5.13.2.2.45.19.75,0,.22-.04.43-.13.63-.08.19-.2.36-.36.5-.16.14-.35.26-.57.34-.22.08-.47.12-.76.12-.2,0-.39-.02-.57-.06-.18-.04-.34-.09-.48-.16-.14-.06-.27-.13-.38-.19-.11-.07-.19-.13-.26-.18Z"/>
          <path class="cls-1" d="M56.6,25.43c0-.18.09-.26.27-.26h.18c.18,0,.26.08.26.23v.24s0,.06,0,.08c0,.02,0,.05,0,.07,0,.02,0,.04,0,.06h.02c.07-.14.17-.27.3-.38.11-.09.25-.18.42-.26.17-.08.39-.12.65-.12.27,0,.52.06.73.16.22.11.4.25.56.44.15.19.27.41.35.67.08.26.12.54.12.86,0,.32-.05.61-.14.87-.09.26-.22.48-.39.67-.17.18-.36.32-.59.42-.23.1-.47.15-.73.15-.23,0-.43-.04-.59-.12-.16-.08-.29-.16-.39-.25-.12-.1-.21-.22-.28-.36h-.02s0,.06,0,.1c0,.03,0,.07.01.11s0,.09,0,.14v1.61c-.02.18-.1.26-.27.26h-.25c-.18,0-.26-.09-.26-.27l.04-5.12ZM57.34,27.22c0,.18.02.36.07.53.05.17.12.33.22.46.09.13.21.24.35.33.14.08.3.13.49.13.16,0,.31-.03.45-.09.14-.06.27-.16.37-.28.11-.12.19-.27.26-.45.06-.18.1-.38.1-.61,0-.22-.02-.42-.08-.6-.05-.18-.13-.33-.23-.46-.1-.13-.22-.22-.36-.29-.14-.07-.29-.11-.46-.11-.15,0-.3.03-.44.08s-.26.14-.37.26-.2.27-.26.45-.1.4-.1.66Z"/>
          <path class="cls-1" d="M61.06,27.23c0-.32.06-.61.16-.87.11-.26.25-.48.43-.66.18-.18.4-.32.64-.42.25-.1.52-.15.81-.14.28,0,.52.05.74.15.22.1.4.23.54.4.15.17.26.38.33.61.08.24.11.49.11.78,0,.07-.03.14-.08.19-.05.05-.12.08-.2.08l-2.7-.02c0,.22.05.41.13.58.08.17.18.32.31.43s.27.21.43.27c.16.06.33.09.52.09.22,0,.42-.03.58-.1.17-.07.29-.14.39-.21.16-.08.28-.05.36.09l.07.12c.04.07.06.13.04.2s-.06.11-.12.16c-.06.04-.13.09-.23.14s-.19.1-.31.14c-.12.04-.24.08-.39.1-.14.03-.29.04-.45.04-.32,0-.61-.06-.87-.17-.26-.11-.48-.26-.67-.45-.19-.19-.33-.42-.43-.68-.1-.26-.15-.54-.15-.84ZM64.05,26.82c0-.36-.11-.63-.29-.81-.19-.18-.42-.28-.68-.28-.3,0-.56.09-.77.28-.22.19-.36.45-.42.79l2.17.02Z"/>
          <path class="cls-1" d="M65.41,27.27c0-.3.06-.58.17-.83.11-.26.26-.48.45-.67.19-.19.42-.33.69-.44.27-.11.55-.16.87-.16.17,0,.33.02.46.05.14.03.26.07.38.11.11.04.21.09.29.14.08.05.15.1.2.14.07.04.11.1.11.16,0,.06-.02.13-.07.2l-.08.12c-.09.13-.21.15-.36.06-.08-.06-.2-.13-.35-.2s-.33-.11-.55-.11c-.2,0-.39.03-.56.1-.17.07-.32.17-.45.3-.13.13-.23.28-.3.45-.07.18-.11.37-.11.58s.03.4.1.58c.07.18.17.33.29.46.13.13.28.24.45.31.17.08.36.12.57.12.25,0,.46-.04.63-.12.17-.08.31-.16.41-.24.15-.09.27-.07.36.08l.06.12c.08.14.06.26-.07.35-.06.05-.13.1-.22.15-.09.05-.19.11-.31.16-.12.05-.26.09-.41.12-.15.03-.32.05-.5.05-.32,0-.61-.06-.88-.17-.26-.11-.49-.26-.68-.45-.19-.19-.33-.42-.44-.68-.1-.26-.16-.54-.15-.85Z"/>
          <path class="cls-1" d="M69.93,25.55c0-.18.09-.26.27-.26h.25c.18,0,.26.09.26.27l-.03,3.52c0,.18-.09.26-.27.26h-.25c-.18,0-.26-.09-.26-.27l.03-3.52ZM70.2,24.48c-.18,0-.26-.09-.26-.27v-.26c0-.18.09-.26.27-.26h.27c.18,0,.26.09.26.27v.26c0,.18-.09.26-.27.26h-.27Z"/>
          <path class="cls-1" d="M71.48,28.24c0-.21.04-.39.12-.54.08-.15.19-.28.32-.38.13-.1.29-.18.45-.24s.34-.11.53-.14c.18-.03.36-.05.53-.06.17,0,.33-.01.47-.01h.21s0-.1,0-.1c0-.17-.02-.3-.06-.42-.04-.12-.11-.21-.19-.28-.08-.07-.17-.12-.28-.15-.11-.03-.22-.05-.34-.05-.2,0-.38.03-.54.08s-.28.11-.37.16c-.16.07-.28.04-.36-.1l-.06-.11c-.08-.16-.05-.28.09-.36.12-.07.3-.14.52-.22.22-.08.49-.12.8-.11.51,0,.9.14,1.17.41.28.27.41.67.41,1.18l-.02,2.3c0,.18-.09.26-.27.26h-.2c-.18,0-.26-.09-.26-.27v-.24s0-.07,0-.1c0-.03,0-.06,0-.08,0-.02.01-.04.02-.06h-.02c-.08.16-.18.3-.31.42-.11.11-.24.2-.41.29-.17.09-.37.13-.61.13-.18,0-.35-.03-.51-.08-.17-.05-.31-.13-.43-.24-.12-.11-.22-.23-.3-.38-.07-.15-.11-.32-.11-.51ZM72.26,28.18c0,.16.06.31.18.45.12.14.31.21.56.21.17,0,.32-.04.46-.11.14-.08.25-.18.35-.3.09-.12.17-.26.22-.41.05-.15.08-.3.08-.45v-.18s-.21,0-.21,0c-.14,0-.31,0-.5.02-.19.01-.37.04-.54.09-.17.05-.32.13-.43.24s-.18.26-.18.45Z"/>
          <path class="cls-1" d="M75.98,24c0-.18.09-.26.27-.26h.25c.18,0,.26.09.26.27l-.04,4.18c0,.11,0,.2.03.27.02.07.05.12.09.16s.08.06.12.08c.04.01.08.02.13.03.06.01.11.03.15.07.04.03.06.09.06.16v.19c0,.09-.02.15-.06.2-.04.05-.11.07-.21.07-.11,0-.22-.01-.35-.04-.13-.03-.24-.08-.35-.16-.11-.08-.19-.19-.27-.34-.07-.15-.1-.35-.1-.61l.04-4.28Z"/>
          <path class="cls-1" d="M78.06,25.61c0-.18.09-.26.27-.26h.25c.18,0,.26.09.26.27l-.03,3.52c0,.18-.09.26-.27.26h-.25c-.18,0-.26-.09-.26-.27l.03-3.52ZM78.33,24.54c-.18,0-.26-.09-.26-.27v-.26c0-.18.09-.26.27-.26h.27c.18,0,.26.09.26.27v.26c0,.18-.09.26-.27.26h-.27Z"/>
          <path class="cls-1" d="M79.77,29.07c-.07-.04-.11-.1-.11-.16s.01-.13.06-.2l.08-.11c.05-.07.11-.11.17-.11.06,0,.12.01.2.06.09.06.22.13.38.21s.37.12.61.12c.2,0,.37-.04.5-.13.13-.09.19-.22.2-.4,0-.13-.05-.24-.15-.32-.1-.08-.23-.16-.39-.22-.15-.07-.32-.13-.5-.2-.18-.06-.34-.14-.5-.24s-.28-.22-.38-.37c-.1-.14-.15-.33-.15-.56,0-.19.04-.36.12-.51.08-.15.19-.27.32-.36.13-.1.29-.17.47-.22.18-.05.37-.07.56-.07.28,0,.52.04.7.12.18.08.32.14.42.2.07.04.12.09.13.15.01.06,0,.13-.05.2l-.07.12c-.08.13-.19.16-.35.08-.08-.05-.19-.1-.33-.15-.14-.05-.3-.08-.49-.08-.19,0-.35.04-.48.12s-.2.21-.2.38c0,.13.05.24.15.32.1.08.23.16.39.22.15.07.32.13.5.2.18.06.34.15.5.24.15.09.28.21.39.36.1.15.15.34.15.57,0,.17-.04.33-.11.47-.07.15-.17.27-.3.38-.13.11-.28.19-.46.24-.18.06-.38.08-.6.08-.17,0-.33-.02-.47-.05s-.27-.07-.38-.11c-.11-.05-.21-.1-.3-.15-.09-.05-.16-.1-.21-.14Z"/>
          <path class="cls-1" d="M83.12,28.34c0-.21.04-.39.12-.54.08-.15.19-.28.32-.38.13-.1.29-.18.45-.24s.34-.11.53-.14c.18-.03.36-.05.53-.06.17,0,.33-.01.47-.01h.21s0-.1,0-.1c0-.17-.02-.31-.06-.42-.04-.12-.11-.21-.19-.28-.08-.07-.17-.12-.28-.15-.11-.03-.22-.05-.34-.05-.2,0-.38.03-.54.08-.16.06-.28.11-.37.17-.16.07-.28.04-.36-.1l-.06-.11c-.08-.16-.05-.28.09-.36.12-.07.3-.14.52-.22.22-.08.49-.12.8-.11.51,0,.9.14,1.17.41.28.27.41.67.41,1.18l-.02,2.3c0,.18-.09.26-.27.26h-.2c-.18,0-.26-.09-.26-.27v-.24s0-.07,0-.1c0-.03,0-.06,0-.08,0-.02.01-.04.02-.06h-.02c-.08.16-.18.3-.31.42-.11.11-.24.2-.41.29-.17.09-.37.13-.61.13-.18,0-.35-.03-.51-.08-.17-.05-.31-.13-.43-.24-.12-.11-.22-.23-.3-.38-.07-.15-.11-.32-.11-.51ZM83.9,28.28c0,.16.06.31.18.45.12.14.31.21.56.21.17,0,.32-.04.46-.11.14-.08.25-.18.35-.3.09-.12.17-.26.22-.41.05-.15.08-.3.08-.45v-.18s-.21,0-.21,0c-.14,0-.31,0-.5.02-.19.01-.37.04-.54.09-.17.05-.32.13-.43.24s-.18.26-.18.45Z"/>
          <path class="cls-1" d="M87.75,26.1h-.28c-.17,0-.26-.09-.25-.27v-.1c0-.18.09-.26.27-.26h.29s0-.89,0-.89c0-.18.09-.26.27-.26h.23c.18,0,.26.09.26.27v.89s.7,0,.7,0c.18,0,.26.09.26.27v.1c0,.18-.09.26-.26.26h-.71s-.02,1.79-.02,1.79c0,.19.02.35.08.46.05.12.12.21.19.27.08.06.16.11.25.13.09.03.17.04.24.05.11.01.18.04.22.07.04.04.06.1.06.19v.17c0,.18-.11.26-.32.26-.2,0-.39-.03-.58-.09-.18-.06-.34-.15-.47-.28-.14-.12-.24-.28-.32-.47-.08-.19-.12-.41-.12-.67l.02-1.92Z"/>
          <path class="cls-1" d="M90.29,25.72c0-.18.09-.26.27-.26h.25c.18,0,.26.09.26.27l-.03,3.52c0,.18-.09.26-.27.26h-.25c-.18,0-.26-.09-.26-.27l.03-3.52ZM90.56,24.65c-.18,0-.26-.09-.26-.27v-.26c0-.18.09-.26.27-.26h.27c.18,0,.26.09.26.27v.26c0,.18-.09.26-.27.26h-.27Z"/>
          <path class="cls-1" d="M91.92,27.49c0-.32.06-.61.16-.87.11-.26.25-.48.43-.67.18-.18.4-.32.64-.42.25-.1.52-.15.81-.14.28,0,.52.05.74.15.22.1.4.23.54.41.15.17.26.38.33.61.08.24.11.49.11.78,0,.07-.03.14-.08.19-.05.05-.12.08-.2.08l-2.7-.02c0,.22.05.42.13.58.08.17.18.32.31.44s.27.21.43.27c.16.06.33.09.52.09.22,0,.42-.03.58-.1.17-.07.29-.14.39-.21.16-.08.28-.05.36.09l.07.12c.04.07.06.14.04.2s-.06.11-.13.16c-.06.04-.13.09-.23.14s-.19.1-.31.14c-.12.04-.24.08-.39.1-.14.03-.29.04-.45.04-.32,0-.61-.06-.87-.17-.26-.11-.48-.26-.67-.45-.19-.19-.33-.42-.43-.68-.1-.26-.15-.54-.15-.84ZM94.91,27.08c0-.36-.11-.63-.29-.81-.19-.18-.42-.28-.68-.28-.3,0-.56.09-.77.28s-.36.45-.42.79l2.17.02Z"/>
          <path class="cls-1" d="M96.49,28.99c0-.18.09-.26.26-.26h.29c.18,0,.26.09.26.27v.3c0,.18-.09.26-.27.26h-.29c-.17,0-.26-.09-.25-.27v-.3ZM96.77,26.33c-.17,0-.26-.09-.25-.27v-.3c0-.18.09-.26.26-.26h.29c.18,0,.26.09.26.27v.3c0,.18-.09.26-.27.26h-.29Z"/>
          <path class="cls-1" d="M100,25.84c-.03-.09-.03-.17.01-.22.04-.06.1-.08.2-.08h.27c.15,0,.25.08.29.22l.89,2.53c.02.06.04.12.06.18s.03.12.04.18c.02.06.03.13.04.19h.02c.02-.06.03-.13.05-.19.01-.06.02-.12.04-.18s.04-.12.06-.18l.93-2.51c.05-.14.15-.21.3-.21h.27c.1,0,.16.03.2.09.04.06.04.13,0,.22l-1.34,3.52c-.05.14-.15.21-.3.21h-.45c-.15,0-.25-.07-.29-.21l-1.3-3.55Z"/>
          <path class="cls-1" d="M104.4,25.83c0-.18.09-.26.27-.26h.25c.18,0,.26.09.26.27l-.03,3.52c0,.18-.09.26-.27.26h-.25c-.18,0-.26-.09-.26-.27l.03-3.52ZM104.66,24.76c-.18,0-.26-.09-.26-.27v-.26c0-.18.09-.26.27-.26h.27c.18,0,.26.09.26.27v.26c0,.18-.09.26-.27.26h-.27Z"/>
          <path class="cls-1" d="M106.1,29.29c-.07-.04-.11-.1-.11-.16,0-.06.01-.13.06-.2l.08-.11c.05-.07.11-.11.17-.11.06,0,.12.01.2.06.09.06.22.13.38.21s.37.12.61.12c.2,0,.37-.04.5-.14.13-.09.19-.22.2-.39,0-.13-.05-.24-.15-.32-.1-.08-.23-.16-.39-.22-.15-.07-.32-.13-.5-.2-.18-.06-.34-.14-.5-.24s-.28-.22-.38-.37c-.1-.14-.15-.33-.15-.56,0-.19.04-.36.12-.51.08-.15.18-.27.32-.36.13-.1.29-.17.47-.22.18-.05.37-.07.56-.07.28,0,.52.04.7.12.18.08.32.14.42.2.07.04.12.09.13.15.01.06,0,.13-.05.2l-.07.12c-.08.13-.19.16-.35.08-.08-.05-.19-.1-.33-.15-.14-.06-.3-.08-.49-.08-.19,0-.35.04-.48.12s-.2.21-.2.38c0,.13.05.24.15.32.1.08.23.16.39.22.15.07.32.13.5.2.18.06.34.14.5.24.15.09.28.21.39.36.1.15.15.34.15.57,0,.17-.04.33-.11.48-.07.15-.17.27-.3.38-.13.11-.28.19-.46.24-.18.06-.38.08-.6.08-.17,0-.33-.02-.47-.05s-.27-.07-.38-.11c-.11-.05-.21-.1-.3-.15s-.16-.1-.21-.14Z"/>
          <path class="cls-1" d="M109.76,25.88c0-.18.09-.26.27-.26h.25c.17,0,.25.09.25.27l-.02,2.15c0,.14,0,.27.02.39.02.12.05.23.11.32.06.09.13.16.23.22.1.05.23.08.39.08.21,0,.39-.04.56-.12.16-.08.3-.19.42-.33.12-.14.2-.3.26-.48.06-.18.09-.38.09-.58v-1.63c.02-.18.1-.26.28-.26h.25c.18,0,.26.09.26.27l-.03,3.52c0,.18-.09.26-.27.26h-.22c-.18,0-.26-.09-.26-.27v-.36s0-.05,0-.08c0-.03,0-.05,0-.08,0-.02.01-.04.02-.07h-.02c-.04.1-.11.21-.2.32-.09.11-.2.21-.33.31-.13.09-.28.17-.44.23-.17.06-.35.09-.54.09-.46,0-.8-.13-1.03-.38s-.34-.64-.33-1.18l.02-2.33Z"/>
          <path class="cls-1" d="M114.15,28.6c0-.21.04-.39.12-.54.08-.15.19-.28.32-.38.13-.1.29-.18.45-.24.17-.06.34-.11.53-.14.18-.03.36-.05.53-.06.17,0,.33-.01.47-.01h.21s0-.1,0-.1c0-.17-.02-.3-.06-.42-.04-.12-.11-.21-.19-.28-.08-.07-.17-.12-.28-.15-.11-.03-.22-.05-.34-.05-.2,0-.38.03-.54.08s-.28.11-.37.16c-.16.07-.28.04-.36-.1l-.06-.11c-.08-.16-.05-.28.09-.36.12-.07.3-.14.52-.22.22-.08.49-.12.8-.11.51,0,.9.14,1.17.41.28.27.41.67.41,1.18l-.02,2.3c0,.18-.09.26-.27.26h-.2c-.18,0-.26-.09-.26-.27v-.24s0-.07,0-.1c0-.03,0-.06,0-.08,0-.02.01-.04.02-.06h-.02c-.08.16-.18.3-.31.42-.11.11-.24.2-.41.29-.17.09-.37.13-.61.13-.18,0-.35-.03-.51-.08-.17-.05-.31-.13-.43-.24-.12-.11-.22-.23-.3-.38-.07-.15-.11-.32-.11-.51ZM114.93,28.54c0,.16.06.31.18.45.12.14.31.21.56.21.17,0,.32-.04.46-.11.14-.08.25-.18.35-.3.09-.12.17-.26.22-.41.05-.15.08-.3.08-.45v-.18s-.21,0-.21,0c-.14,0-.31,0-.5.02-.19.01-.37.04-.54.09-.17.05-.32.13-.43.24s-.18.26-.18.45Z"/>
          <path class="cls-1" d="M118.65,24.35c0-.18.09-.26.27-.26h.25c.18,0,.26.09.26.27l-.04,4.18c0,.11,0,.2.03.27.02.07.05.12.09.16s.08.06.12.08c.04.01.08.02.13.03.06.01.11.03.15.07.04.03.06.09.06.16v.19c0,.09-.02.15-.06.2-.04.05-.11.07-.21.07-.11,0-.22-.01-.35-.04-.13-.03-.24-.08-.35-.16-.11-.08-.19-.19-.27-.34-.07-.15-.1-.35-.1-.61l.04-4.28Z"/>
          <path class="cls-1" d="M120.73,25.97c0-.18.09-.26.27-.26h.25c.18,0,.26.09.26.27l-.03,3.52c0,.18-.09.26-.27.26h-.25c-.18,0-.26-.09-.26-.27l.03-3.52ZM121,24.9c-.18,0-.26-.09-.26-.27v-.26c0-.18.09-.26.27-.26h.27c.18,0,.26.09.26.27v.26c0,.18-.09.26-.27.26h-.27Z"/>
          <path class="cls-1" d="M122.44,29.42c-.07-.04-.11-.1-.11-.16,0-.07.01-.13.06-.2l.08-.11c.05-.07.11-.11.17-.11.06,0,.12.01.2.06.09.06.22.13.38.21.16.08.37.12.61.12.2,0,.37-.04.5-.13.13-.09.19-.22.2-.4,0-.13-.05-.24-.15-.32-.1-.08-.23-.16-.39-.22-.15-.07-.32-.13-.5-.2-.18-.06-.34-.14-.5-.24s-.28-.22-.38-.37c-.1-.14-.15-.33-.15-.56,0-.19.04-.36.12-.51.08-.15.19-.27.32-.36.13-.1.29-.17.47-.22.18-.05.37-.07.56-.07.28,0,.52.04.7.12.18.08.32.14.42.2.07.04.12.09.13.15.01.06,0,.13-.05.2l-.07.12c-.08.13-.19.16-.35.08-.08-.05-.19-.1-.33-.15-.14-.05-.3-.08-.49-.08-.19,0-.35.04-.48.12-.13.08-.2.21-.2.38,0,.13.05.24.15.32.1.08.23.16.39.22.15.07.32.13.5.2.18.06.34.15.5.24.15.09.28.21.39.36.1.15.15.34.15.57,0,.17-.04.33-.11.47-.07.15-.17.27-.3.38-.13.11-.28.19-.46.24-.18.06-.38.08-.6.08-.17,0-.33-.02-.47-.05s-.27-.07-.38-.11c-.11-.05-.21-.1-.3-.15-.09-.05-.16-.1-.21-.14Z"/>
          <path class="cls-1" d="M125.87,27.77c0-.32.06-.61.16-.87.11-.26.25-.48.43-.66.18-.18.4-.32.64-.42.25-.1.52-.15.8-.14.28,0,.52.05.74.15.22.1.4.23.54.4.14.17.25.38.33.61.08.24.11.49.11.78,0,.07-.03.14-.08.19-.05.05-.12.08-.2.08l-2.7-.02c0,.22.05.41.13.58s.18.32.31.43c.13.12.27.21.43.27.16.06.33.09.52.09.22,0,.42-.03.58-.1.17-.07.29-.14.39-.21.16-.08.28-.05.36.09l.07.12c.04.07.06.13.04.2s-.06.11-.13.16c-.06.04-.13.09-.22.14s-.19.1-.31.14c-.12.04-.24.08-.38.1s-.29.04-.45.04c-.32,0-.61-.06-.87-.17-.26-.11-.48-.26-.67-.45-.19-.19-.33-.42-.43-.68-.1-.26-.15-.54-.15-.84ZM128.86,27.37c0-.36-.11-.63-.29-.81-.19-.18-.42-.28-.68-.28-.3,0-.56.09-.77.28-.22.19-.36.45-.42.79l2.17.02Z"/>
          <path class="cls-1" d="M130.5,26.05c0-.18.09-.26.27-.26h.22c.18,0,.26.09.26.27v.46s0,.08,0,.12,0,.07-.01.1c0,.03,0,.06,0,.09h.02c.04-.13.1-.26.18-.39.08-.13.17-.24.28-.34s.23-.18.36-.24c.13-.06.27-.09.43-.09.17,0,.26.09.25.27v.22c0,.18-.1.26-.29.26-.2,0-.37.05-.52.14-.15.1-.27.22-.37.38-.1.15-.17.33-.22.53-.05.2-.08.4-.08.59v1.41c-.01.18-.1.26-.28.26h-.25c-.18,0-.26-.09-.26-.27l.03-3.52Z"/>
          <path class="cls-1" d="M132.95,27.83c0-.32.06-.61.16-.87s.25-.48.43-.67c.18-.18.39-.32.64-.42.25-.1.52-.15.8-.14.28,0,.52.05.74.15.22.1.4.23.54.41.14.17.25.38.33.61.08.24.11.49.11.78,0,.07-.03.14-.08.19-.05.05-.12.08-.2.08l-2.7-.02c0,.22.05.42.13.58.08.17.18.32.31.44s.27.21.43.27c.16.06.33.09.52.09.22,0,.42-.03.58-.1.17-.07.29-.14.39-.21.16-.08.28-.05.36.09l.07.12c.04.07.06.14.04.2s-.06.11-.13.16c-.06.04-.13.09-.22.14-.09.05-.19.1-.31.14-.12.04-.24.08-.38.1s-.29.04-.45.04c-.32,0-.61-.06-.87-.17-.26-.11-.48-.26-.67-.45-.19-.19-.33-.42-.43-.68-.1-.26-.15-.54-.15-.84ZM135.94,27.43c0-.36-.11-.63-.29-.81-.19-.18-.42-.28-.68-.28-.3,0-.56.09-.77.28s-.36.45-.42.79l2.17.02Z"/>
          <path class="cls-1" d="M137.58,26.11c0-.18.09-.26.27-.26h.22c.18,0,.26.09.26.27v.36c0,.05,0,.11-.02.16,0,.02,0,.04,0,.07h.02c.04-.08.1-.18.18-.29.08-.11.19-.21.32-.31.13-.1.28-.18.45-.24.17-.07.37-.1.59-.09.48,0,.83.14,1.05.4.22.26.33.65.32,1.17l-.02,2.33c0,.18-.09.26-.27.26h-.25c-.18,0-.26-.09-.26-.27l.02-2.15c0-.14,0-.28-.02-.4-.02-.12-.05-.23-.11-.32-.05-.09-.13-.16-.23-.22-.1-.05-.23-.08-.39-.08-.2,0-.38.04-.54.11s-.31.18-.43.31c-.12.13-.22.29-.28.47-.07.18-.1.38-.11.59v1.67c-.02.18-.1.26-.28.26h-.25c-.18,0-.26-.09-.26-.27l.03-3.52Z"/>
        </g>
      </g>
    </g>
  </g>
</svg>